<svg id="Capa_1" enable-background="new 0 0 512 512" height="512" viewBox="0 0 512 512" width="512" xmlns="http://www.w3.org/2000/svg"><g><g><path d="m265.153 419.516h-123.395l6.27 51.746c2.301 18.988 18.417 33.269 37.544 33.269h79.581 61.271c19.127 0 35.243-14.281 37.544-33.269l6.27-51.746z" fill="#fe7d43"/></g><g><path d="m370.241 419.511-6.274 51.748c-2.301 18.992-18.415 33.274-37.547 33.274h-21.333c19.122 0 35.246-14.281 37.547-33.274l6.264-51.748z" fill="#fd6930"/></g><g><path d="m387.751 65.858c-33.919-36.328-79.901-56.715-129.519-58.377-49.641.702-96.008 20.196-130.624 55.862-32.263 33.241-54.006 75.834-66.14 120.294-6.15 22.531-9.878 45.737-11.084 69.064-3.353 64.837 13.66 127.535 65.658 170.487 16.863 13.929 36.242 24.768 56.942 31.836 23.334 7.968 48.117 11.501 72.701 12.268 47.755 1.49 94.916-5.802 135.455-33.206 60.093-40.622 82.633-108.659 80.12-178.575-.841-23.401-4.216-46.724-10.038-69.405-11.35-44.212-32.164-86.718-63.471-120.248z" fill="#fd9468"/></g><g><path d="m381.137 434.082c-40.106 27.119-86.696 34.539-133.933 33.244 40.365-1.175 79.644-9.919 114.143-33.244 60.084-40.624 82.632-108.656 80.113-178.57-.837-23.404-4.213-46.729-10.039-69.406-11.344-44.209-32.159-86.715-63.471-120.249-31.939-34.22-74.585-54.298-120.896-57.893 3.705-.269 7.43-.428 11.174-.478 49.617 1.653 95.599 22.04 129.521 58.371 31.312 33.533 52.127 76.039 63.471 120.249 5.826 22.677 9.202 46.002 10.039 69.406 2.51 69.914-20.028 137.946-80.122 178.57z" fill="#fe7d43"/></g><g><path d="m387.488 111.771c-16.507-30.263-38.057-35.598-70.5-35.598-19.829 0-102.132 0-121.96 0-32.443 0-53.993 5.335-70.5 35.598-10.891 19.971-50.55 101.101-40.768 136.379 5.153 18.585 21.479 24.395 35.619 24.395h273.259c14.141 0 30.466-5.81 35.619-24.395 9.782-35.278-29.877-116.408-40.769-136.379z" fill="#fef1da"/></g><g><path d="m428.254 248.152c-5.149 18.584-21.472 24.39-35.614 24.39 0 0-9.222 0-24.271 0 14.142 0 30.466-5.806 35.624-24.39 9.78-35.276-29.878-116.414-40.773-136.383-16.503-30.256-38.055-35.595-70.492-35.595h24.261c32.437 0 53.989 5.338 70.502 35.595 10.885 19.969 50.543 101.107 40.763 136.383z" fill="#fae2c0"/></g><g><g><g><circle cx="313.707" cy="192.763" fill="#554e56" r="25.551"/></g><g><path d="m339.257 192.767c0 14.109-11.442 25.542-25.552 25.542-8.649 0-16.293-4.3-20.903-10.872 1.701.367 3.46.551 5.267.551 14.109 0 25.552-11.442 25.552-25.552 0-5.46-1.711-10.514-4.648-14.67 11.587 2.416 20.284 12.689 20.284 25.001z" fill="#433f43"/></g><g><path d="m355.445 154.252c3.616 0 7.234-1.353 10.031-4.072 5.701-5.541 5.83-14.654.29-20.355-24.098-24.793-53.909-31.96-86.213-20.724-7.508 2.611-11.479 10.816-8.867 18.324 2.611 7.509 10.811 11.48 18.325 8.867 21.871-7.606 39.7-3.286 56.111 13.598 2.822 2.903 6.571 4.362 10.323 4.362z" fill="#554e56"/></g><g><g><path d="m365.476 150.178c-2.793 2.725-6.417 4.078-10.031 4.078-3.75 0-7.499-1.459-10.321-4.368-3.15-3.247-6.359-6.021-9.635-8.34.995-.039 1.981-.174 2.948-.406 3.875-.908 7.403-3.276 9.712-6.89 4.368-6.832 2.832-15.743-3.295-20.749 7.354 4.117 14.341 9.567 20.913 16.322 5.536 5.702 5.41 14.816-.291 20.353z" fill="#433f43"/></g></g></g><g><g><circle cx="198.289" cy="192.763" fill="#554e56" r="25.551"/></g><g><path d="m223.842 192.767c0 14.109-11.442 25.542-25.552 25.542-8.649 0-16.293-4.3-20.903-10.872 1.701.367 3.46.551 5.267.551 14.109 0 25.552-11.442 25.552-25.552 0-5.46-1.71-10.514-4.648-14.67 11.586 2.416 20.284 12.689 20.284 25.001z" fill="#433f43"/></g><g><g><path d="m156.55 154.252c-3.616 0-7.234-1.353-10.031-4.072-5.701-5.541-5.83-14.654-.29-20.355 24.098-24.793 53.909-31.96 86.213-20.724 7.508 2.611 11.479 10.816 8.867 18.324-2.611 7.509-10.811 11.48-18.325 8.867-21.871-7.606-39.7-3.286-56.111 13.598-2.821 2.903-6.57 4.362-10.323 4.362z" fill="#554e56"/></g></g><g><g><path d="m242.097 123.225c-.019.454-.058.909-.116 1.363-.126.947-.348 1.904-.676 2.841-2.609 7.509-10.804 11.471-18.323 8.862-4.04-1.401-7.934-2.397-11.703-2.976 4.774-1.005 8.91-4.407 10.63-9.355 2.619-7.509-1.353-15.714-8.862-18.323-1.624-.57-3.247-1.082-4.861-1.556 7.886.473 15.994 2.145 24.257 5.016 6.117 2.135 9.886 7.972 9.654 14.128z" fill="#433f43"/></g></g></g></g><g><g><path d="m147.275 379.774c.583 6.999-7.708 11.136-12.919 6.428-8.157-7.37-14.799-16.423-19.281-26.465-5.995-13.43-12.263-35.667-4.271-49.538 5.156-8.947 21.079-10.964 27.944-2.991 5.007 5.815 7.96 12.556 9.098 20.146 2.064 13.766-.831 27.523-1.012 41.294-.047 3.589.126 7.345.441 11.126z" fill="#fee97d"/></g><g><path d="m226.463 427.379c-14.524-10.163-26.362-23.986-33.207-40.438-6.29-15.118-10.114-32.973-11.935-49.245-1.038-9.271-1.356-21.631 6.217-28.491 9.618-8.712 24.107-7.396 32.168 2.693 7.715 9.655 7.42 23.92 6.781 35.587-1.307 23.884-.492 45.452 3.876 69.217.267 1.451.673 4.337 1.305 7.314.621 2.926-2.663 5.138-5.116 3.425-.03-.021-.06-.042-.089-.062z" fill="#fee97d"/></g><g><path d="m364.741 379.774c-.583 6.999 7.708 11.136 12.919 6.428 8.157-7.37 14.799-16.423 19.281-26.465 5.995-13.43 12.263-35.667 4.271-49.538-5.156-8.947-21.079-10.964-27.944-2.991-5.007 5.815-7.96 12.556-9.098 20.146-2.064 13.766.831 27.523 1.012 41.294.047 3.589-.126 7.345-.441 11.126z" fill="#fee97d"/></g><g><path d="m285.553 427.379c14.524-10.163 26.362-23.986 33.207-40.438 6.29-15.118 10.114-32.973 11.935-49.245 1.038-9.271 1.356-21.631-6.217-28.491-9.618-8.712-24.107-7.396-32.168 2.693-7.715 9.655-7.42 23.92-6.781 35.587 1.307 23.884.492 45.452-3.876 69.217-.267 1.451-.673 4.337-1.305 7.314-.621 2.926 2.663 5.138 5.116 3.425.03-.021.059-.042.089-.062z" fill="#fee97d"/></g></g><g><g><path d="m147.272 379.774c.588 7.001-7.708 11.135-12.917 6.424-2.51-2.261-4.87-4.681-7.061-7.24-.269-3.506-.428-6.981-.378-10.308.179-13.774 3.077-27.527 1.016-41.291-1.145-7.599-4.093-14.332-9.103-20.148-.757-.887-1.633-1.643-2.589-2.291 6.972-4.054 17.329-3.735 22.508 2.291 5.009 5.816 7.957 12.549 9.103 20.148 2.062 13.764-.837 27.517-1.016 41.291-.051 3.585.129 7.339.437 11.124z" fill="#fedf30"/></g><g><path d="m226.548 427.439c-.03-.02-.06-.04-.09-.06-6.105-4.273-11.742-9.192-16.722-14.68-3.745-22.199-4.402-42.676-3.167-65.213.637-11.672.936-25.934-6.782-35.585-2.101-2.619-4.631-4.651-7.4-6.065 9.163-4.721 20.516-2.44 27.318 6.065 7.718 9.65 7.42 23.912 6.782 35.585-1.305 23.882-.498 45.454 3.874 69.217.269 1.454.677 4.332 1.305 7.31.619 2.928-2.658 5.139-5.118 3.426z" fill="#fedf30"/></g><g><path d="m396.942 359.736c-4.482 10.039-11.125 19.092-19.281 26.462-5.209 4.711-13.505.577-12.917-6.424.02-.269.04-.548.06-.816 4.97-5.776 9.113-12.26 12.22-19.221 5.996-13.425 12.26-35.664 4.273-49.538-1.265-2.191-3.177-3.964-5.438-5.278 7.669-5.149 20.765-2.669 25.356 5.278 7.987 13.872 1.722 36.112-4.273 49.537z" fill="#fedf30"/></g><g><path d="m330.693 337.696c-1.823 16.274-5.647 34.131-11.931 49.249-6.842 16.453-18.684 30.266-33.204 40.435-.03.02-.06.04-.09.06-2.46 1.713-5.737-.498-5.119-3.426.627-2.978 1.036-5.856 1.305-7.31.249-1.345.478-2.679.707-4.004 6.872-7.569 12.519-16.224 16.483-25.755 6.284-15.118 10.109-32.975 11.931-49.249 1.036-9.272 1.354-21.632-6.215-28.493-1.514-1.365-3.147-2.49-4.85-3.366 7.868-4.034 17.648-3.077 24.769 3.366 7.568 6.861 7.249 19.221 6.214 28.493z" fill="#fedf30"/></g></g><g><path d="m261.37 68.704h-66.343c-35.161 0-59.042 6.462-77.058 39.491-.535.982-53.405 98.686-41.408 141.951 5.186 18.703 21.193 29.869 42.817 29.869h273.259c21.625 0 37.631-11.166 42.817-29.869 11.997-43.265-40.873-140.969-41.409-141.951-18.016-33.029-41.897-39.49-77.058-39.49h-20.961c-4.125 0-7.469 3.344-7.469 7.469s3.344 7.469 7.469 7.469h20.961c30.94 0 49.324 4.903 63.943 31.704 13.139 24.094 48.714 99.841 40.128 130.807-1.959 7.066-8.257 18.921-28.421 18.921h-273.259c-20.164 0-26.462-11.855-28.421-18.921-8.587-30.966 26.989-106.713 40.128-130.806 11.47-21.028 24.509-31.705 63.943-31.705h66.343c4.125 0 7.469-3.344 7.469-7.469s-3.345-7.47-7.47-7.47z"/><path d="m313.707 159.742c-18.207 0-33.02 14.813-33.02 33.02s14.813 33.02 33.02 33.02 33.02-14.813 33.02-33.02-14.813-33.02-33.02-33.02zm0 51.102c-9.97 0-18.081-8.111-18.081-18.081s8.111-18.081 18.081-18.081 18.081 8.111 18.081 18.081-8.111 18.081-18.081 18.081z"/><path d="m198.289 225.782c18.207 0 33.02-14.813 33.02-33.02s-14.813-33.02-33.02-33.02-33.02 14.813-33.02 33.02 14.812 33.02 33.02 33.02zm0-51.101c9.97 0 18.081 8.111 18.081 18.081s-8.111 18.081-18.081 18.081-18.081-8.111-18.081-18.081 8.111-18.081 18.081-18.081z"/><path d="m248.364 129.879c1.919-5.516 1.575-11.449-.97-16.707-2.544-5.257-6.983-9.208-12.498-11.126-35.242-12.257-67.756-4.453-94.023 22.572-4.07 4.188-6.266 9.71-6.183 15.55s2.435 11.298 6.623 15.367c4.104 3.99 9.515 6.187 15.238 6.187 5.958 0 11.527-2.353 15.68-6.625 14.342-14.756 29.238-18.379 48.302-11.75 5.518 1.919 11.452 1.575 16.708-.97 5.254-2.543 9.205-6.982 11.123-12.498zm-14.11-4.908c-1.234 3.549-5.241 5.508-8.816 4.265-24.596-8.552-45.504-3.5-63.92 15.447-2.545 2.618-7.141 2.717-9.793.139-2.856-2.776-2.872-6.979-.139-9.792 15.197-15.635 32.88-23.569 52.079-23.569 8.505 0 17.31 1.558 26.324 4.694 3.557 1.238 5.483 5.315 4.265 8.816z"/><path d="m277.099 102.046c-5.516 1.918-9.954 5.87-12.498 11.127s-2.889 11.19-.97 16.705c3.96 11.386 16.446 17.428 27.833 13.469 19.065-6.63 33.96-3.005 48.301 11.75 4.153 4.272 9.721 6.625 15.68 6.625 5.722 0 11.134-2.197 15.237-6.186 4.188-4.071 6.54-9.528 6.623-15.368.083-5.839-2.113-11.362-6.184-15.55-26.267-27.025-58.78-34.831-94.022-22.572zm83.172 42.777c-2.683 2.608-7.165 2.564-9.793-.14-12.648-13.012-26.468-19.47-41.853-19.47-7.017 0-14.363 1.345-22.067 4.024-3.605 1.256-7.562-.658-8.817-4.266-.608-1.747-.498-3.626.307-5.291.806-1.665 2.212-2.917 3.959-3.524 29.362-10.213 56.474-3.686 78.402 18.874 2.561 2.634 2.461 7.266-.138 9.793z"/><path d="m468.886 253.183c-1.091-23.906-4.776-47.757-10.954-70.891-12.884-48.248-35.858-90.729-66.437-122.851-35.31-37.092-83.364-58.201-135.309-59.439-.119-.003-.237-.003-.356 0-51.945 1.238-99.999 22.347-135.31 59.44-30.88 32.437-53.975 75.378-66.789 124.181-6.068 23.11-9.652 46.914-10.654 70.751-1.717 40.841 4.523 77.464 18.547 108.852 1.683 3.766 6.098 5.455 9.867 3.773 3.766-1.683 5.455-6.1 3.773-9.867-13.072-29.258-18.879-63.62-17.26-102.13.956-22.77 4.381-45.509 10.177-67.585 12.176-46.369 34.016-87.06 63.16-117.674 32.517-34.158 76.784-53.616 124.668-54.801 47.884 1.185 92.151 20.643 124.668 54.8 28.859 30.315 50.583 70.567 62.824 116.405 5.901 22.099 9.421 44.882 10.464 67.717 3.451 75.628-23.245 137.016-75.171 172.854-34.045 23.497-76.807 34.348-130.724 33.194-26.121-.563-49.885-4.327-70.632-11.189-20.023-6.622-38.491-16.715-54.891-29.997-11.671-9.453-21.926-20.297-30.48-32.232-2.403-3.353-7.07-4.123-10.423-1.72s-4.123 7.07-1.72 10.423c9.333 13.022 20.51 24.844 33.221 35.138 7.737 6.266 15.9 11.877 24.439 16.811l3.031 25.013c2.752 22.712 22.08 39.84 44.959 39.84h140.853c22.879 0 42.207-17.128 44.959-39.84l3.035-25.046c4.403-2.527 8.691-5.224 12.86-8.101 56.317-38.87 85.3-104.866 81.605-185.829zm-112.333 217.18c-1.845 15.221-14.797 26.698-30.129 26.698h-140.852c-15.332 0-28.284-11.477-30.128-26.698l-1.812-14.952c6.21 2.831 12.584 5.337 19.114 7.497 22.159 7.329 47.394 11.346 75.002 11.94 2.714.059 5.395.088 8.058.088 39.56 0 73.444-6.47 102.572-19.628z"/><path d="m155.233 326.247c-1.367-9.112-5.008-17.157-10.825-23.913-4.684-5.441-12.367-8.223-20.556-7.455-8.503.802-15.8 5.135-19.52 11.592-4.439 7.705-5.795 17.714-4.028 29.748 1.667 11.35 5.696 21.515 7.95 26.564 4.847 10.858 12.142 20.873 21.095 28.963 2.866 2.59 6.486 3.932 10.16 3.932 2.294 0 4.61-.524 6.774-1.596 5.647-2.795 8.958-8.654 8.436-14.927-.317-3.804-.456-7.305-.415-10.408.06-4.612.442-9.217.846-14.093.759-9.17 1.546-18.652.083-28.407zm-14.972 27.173c-.408 4.916-.829 9.999-.896 15.131-.047 3.58.11 7.564.466 11.843.013.155-.001.168-.044.209-.107.104-.263.148-.307.143-.011-.004-.052-.028-.116-.086-7.422-6.706-13.463-14.994-17.469-23.967-5.892-13.2-10.637-32.32-4.62-42.764 1.248-2.166 4.455-3.845 7.98-4.177.441-.041.875-.062 1.301-.062 2.791 0 5.224.873 6.531 2.392 4.005 4.652 6.417 10.01 7.372 16.38 1.205 8.037.523 16.256-.198 24.958z"/><path d="m225.54 307.234c-5.238-6.555-12.644-10.528-20.855-11.189-8.142-.654-16.013 2.052-22.163 7.623-10.195 9.235-9.805 24.317-8.625 34.857 1.49 13.313 4.861 33.017 12.462 51.284 7.151 17.187 19.538 32.294 35.821 43.689l.093.065c1.856 1.296 4 1.947 6.148 1.947 2.063 0 4.13-.601 5.947-1.804 3.723-2.466 5.531-6.878 4.606-11.242-.399-1.882-.704-3.747-.949-5.246-.122-.743-.227-1.38-.316-1.868-3.974-21.62-5.134-42.425-3.764-67.458.747-13.647.775-29.17-8.405-40.658zm-25.389 76.837c-5.403-12.985-9.455-29.75-11.408-47.206-.47-4.193-1.898-16.955 3.808-22.123 2.766-2.506 6.203-3.851 9.782-3.851.383 0 .768.016 1.153.047 4.058.326 7.745 2.324 10.383 5.624 5.897 7.379 5.754 19.621 5.158 30.516-1.367 24.98-.321 46.006 3.395 67.645-9.869-8.696-17.481-19.142-22.271-30.652z"/><path d="m365.734 394.082c2.165 1.071 4.48 1.596 6.774 1.596 3.673 0 7.294-1.343 10.161-3.933 8.953-8.09 16.248-18.105 21.094-28.963 2.254-5.049 6.283-15.214 7.95-26.563 1.767-12.034.412-22.043-4.028-29.749-3.72-6.456-11.017-10.789-19.52-11.591-8.188-.775-15.871 2.014-20.557 7.456-5.817 6.755-9.458 14.8-10.825 23.913-1.463 9.755-.676 19.237.084 28.407.404 4.876.786 9.481.846 14.093.041 3.103-.099 6.604-.415 10.408-.523 6.272 2.789 12.131 8.436 14.926zm5.823-65.619c.956-6.371 3.367-11.729 7.372-16.38 1.308-1.519 3.74-2.393 6.532-2.393.426 0 .861.02 1.301.062 3.525.333 6.731 2.011 7.979 4.177 6.017 10.445 1.272 29.565-4.62 42.765-4.006 8.974-10.046 17.261-17.468 23.967-.064.058-.106.082-.107.084-.051.009-.211-.037-.317-.141-.043-.041-.057-.054-.044-.209.356-4.279.513-8.264.466-11.843-.068-5.132-.489-10.215-.896-15.131-.722-8.703-1.403-16.922-.198-24.958z"/><path d="m273.991 417.219c-.245 1.499-.55 3.364-.949 5.246-.925 4.363.883 8.776 4.606 11.241 1.822 1.207 3.895 1.807 5.96 1.807 2.136 0 4.263-.643 6.093-1.921l.135-.094c16.284-11.394 28.67-26.502 35.821-43.689 7.601-18.266 10.973-37.971 12.463-51.284 1.18-10.541 1.569-25.623-8.626-34.858-6.149-5.57-14.018-8.275-22.163-7.623-8.211.66-15.617 4.634-20.854 11.189-9.18 11.487-9.152 27.01-8.405 40.659 1.37 25.034.209 45.839-3.764 67.46-.09.488-.195 1.125-.317 1.867zm18.997-70.142c-.596-10.895-.739-23.137 5.158-30.516 2.637-3.3 6.324-5.298 10.382-5.624.386-.031.77-.047 1.154-.047 3.579 0 7.016 1.345 9.782 3.851 5.707 5.169 4.278 17.93 3.809 22.124-1.953 17.456-6.005 34.221-11.408 47.206-4.789 11.511-12.401 21.956-22.272 30.651 3.716-21.64 4.762-42.666 3.395-67.645z"/><path d="m138.153 203.99c-3.643 1.935-5.028 6.457-3.093 10.101s6.458 5.028 10.101 3.093c5.304-2.817 8.721-8.233 9.141-14.488.44-6.531-2.466-12.915-7.775-17.079-5.021-3.934-11.326-5.387-17.756-4.095-7.69 1.547-14.926 6.914-18.884 14.005-5.67 10.159-5.211 23.12 1.227 34.672 5.244 9.411 13.196 15.616 22.996 17.945 2.717.646 5.51.963 8.33.963 8.033 0 16.271-2.577 23.508-7.483 3.414-2.315 4.306-6.96 1.991-10.375-2.316-3.414-6.959-4.307-10.375-1.99-6.318 4.284-13.609 5.871-20 4.351-5.616-1.334-10.25-5.029-13.401-10.683-3.898-6.994-4.359-14.515-1.232-20.118 1.832-3.283 5.363-5.951 8.786-6.64 2.171-.436 4-.041 5.592 1.206 1.414 1.109 2.194 2.724 2.087 4.319-.026.397-.195 1.739-1.243 2.296z"/><path d="m346.048 241.624c7.237 4.907 15.475 7.483 23.508 7.483 2.819 0 5.613-.318 8.33-.963 9.8-2.329 17.753-8.534 22.997-17.945 6.438-11.552 6.896-24.514 1.226-34.672-3.958-7.091-11.193-12.458-18.884-14.005-6.429-1.291-12.735.161-17.758 4.097-5.306 4.162-8.213 10.546-7.773 17.078.422 6.255 3.839 11.671 9.142 14.487 3.644 1.935 8.166.55 10.1-3.094 1.935-3.644.549-8.166-3.094-10.1-1.048-.556-1.217-1.899-1.244-2.297-.107-1.596.673-3.21 2.085-4.317 1.595-1.249 3.424-1.646 5.595-1.208 3.423.689 6.954 3.357 8.786 6.64 3.127 5.603 2.667 13.124-1.231 20.119-3.151 5.654-7.785 9.349-13.401 10.683-6.391 1.519-13.681-.067-20.001-4.351-3.414-2.315-8.059-1.423-10.374 1.991s-1.424 8.058 1.991 10.374z"/></g></g></svg>