<svg id="Capa_1" enable-background="new 0 0 512 512" height="512" viewBox="0 0 512 512" width="512" xmlns="http://www.w3.org/2000/svg"><g><g><g><path d="m63.837 151.494c-24.252 30.08-44.582 68.913-56.069 119.024-1.057 4.61 1.252 9.339 5.52 11.38l234.08 111.929c5.459 2.61 11.805 2.61 17.264 0l234.08-111.929c4.267-2.04 6.576-6.769 5.52-11.38-11.487-50.111-31.817-88.944-56.069-119.024-106.658-132.287-277.668-132.287-384.326 0z" fill="#fef1da"/></g><g><path d="m257.981 395.788-.17-.09-33.386-17.038-154.145-234.904c5.203-6.053 10.545-11.806 16.018-17.258l102.91 165.961 68.713 103.23z" fill="#fae2c0"/></g><g><path d="m257.951 52.281v343.507l-.01-.1-12.246-21.596-12.256-320.65c8.154-.841 16.338-1.231 24.512-1.161z" fill="#fae2c0"/></g><g><g><path d="m426.433 127.228-102.29 165.721-68.143 102.839-2.585-17.616 153.988-268.423c6.494 5.433 12.847 11.256 19.03 17.479z" fill="#fae2c0"/></g></g><g><path d="m498.708 281.893-234.074 111.934c-2.731 1.311-5.683 1.961-8.634 1.961l19.67-29.694 219.627-105.021c2.401-1.15 4.202-3.122 5.163-5.453 1.351 4.852 2.611 9.815 3.772 14.897 1.059 4.613-1.252 9.345-5.524 11.376z" fill="#fae2c0"/></g><g><path d="m256 395.788c-2.951 0-5.903-.65-8.634-1.961l-234.074-111.934c-4.272-2.031-6.583-6.763-5.523-11.376 6.253-27.283 15.127-51.225 25.833-72.225z" fill="#fddeb0"/></g><g><path d="m256 395.788c-2.951 0-5.903-.65-8.634-1.961l-50.104-23.962-172.294-153.004c2.711-6.433 5.603-12.626 8.634-18.569z" fill="#fccd7f"/></g><g><path d="m257.951 52.281v343.507l95.756-320.836c-29.738-14.488-63.86-22.671-95.756-22.671z" fill="#fddeb0"/></g><g><path d="m353.707 74.952-95.756 320.836v-68.843l75.557-260.616c6.903 2.55 13.656 5.432 20.199 8.623z" fill="#fccd7f"/></g><g><g><path d="m478.398 198.292-221.918 197.036-.48.46 68.143-102.84 102.29-165.721c7.494 7.514 14.747 15.608 21.731 24.262 11.045 13.697 21.28 29.225 30.234 46.803z" fill="#fddeb0"/></g></g><g><g><path d="m478.398 198.292-221.918 197.036-.48.46 44.602-67.313 167.541-148.562c3.572 5.863 7.003 11.986 10.255 18.379z" fill="#fccd7f"/></g></g><g><path d="m257.981 395.788-.06-.1-68.713-103.23-102.91-165.961c23.271-23.201 48.834-40.97 75.607-53.286l96.047 322.477z" fill="#fddeb0"/></g><g><path d="m257.981 395.788-.06-.1-37.378-56.147-76.587-257.145c5.913-3.342 11.906-6.403 17.949-9.185l96.047 322.477z" fill="#fccd7f"/></g><g><path d="m256 358.601-63.888 63.968c-4.451 4.456-3.981 11.792.989 15.66 2.271 1.768 5.005 3.719 8.224 5.736 33.516 20.999 75.834 20.999 109.35 0 3.219-2.017 5.953-3.969 8.224-5.736 4.97-3.869 5.44-11.204.989-15.66z" fill="#fe7d43"/></g><g><path d="m318.969 438.169c-1.971 1.536-4.293 3.213-6.981 4.952l-68.723-71.765 12.735-12.756 63.886 63.967c4.423 4.428 4.019 11.754-.917 15.602z" fill="#fd6930"/></g><g><path d="m366.878 344.939-102.246 48.889c-5.458 2.61-11.805 2.61-17.263 0l-102.246-48.889c18.436-42.973 61.14-73.071 110.878-73.071s92.44 30.098 110.877 73.071z" fill="#ffc5ad"/></g><g><path d="m366.874 344.943-102.24 48.884c-5.463 2.611-11.806 2.611-17.268 0l-17.411-8.326c2.071-.32 5.929-2.066 7.87-3.006l119.504-55.45c3.662 5.653 6.864 11.635 9.545 17.898z" fill="#fead8a"/></g><g><circle cx="256" cy="164.113" fill="#fd9468" r="36.687"/></g><g><path d="m292.688 164.116c0 20.26-16.428 36.688-36.688 36.688-13.437 0-25.182-7.223-31.575-17.999 4.282 1.751 8.964 2.711 13.877 2.711 20.26 0 36.678-16.418 36.678-36.688 0-6.833-1.861-13.216-5.112-18.689 13.385 5.473 22.82 18.629 22.82 33.977z" fill="#fe7d43"/></g></g><path d="m511.546 268.841c-6.084-26.54-14.909-51.185-26.372-73.737-.034-.072-.053-.147-.089-.218-13.169-25.94-29.377-48.254-49.866-69.108-13.551-13.792-28.367-26.392-44.232-37.448-25.93-18.07-55.16-31.372-86.049-38.231-15.41-3.422-31.192-5.322-46.985-5.322-.247 0-.491.014-.732.037-13.099-.083-26.198.963-39.161 3.16-4.085.693-6.837 4.566-6.144 8.652s4.565 6.847 8.652 6.145c9.896-1.678 19.88-2.635 29.881-2.887v60.4c-21.754 2.741-38.638 21.344-38.638 43.829s16.884 41.088 38.638 43.829v56.553c-7.773.334-15.41 1.358-22.836 3.04l-56.628-190.13c5.442-2.326 10.948-4.43 16.508-6.302 3.928-1.322 6.04-5.578 4.718-9.506s-5.578-6.037-9.505-4.718c-8.124 2.734-16.205 5.959-23.935 9.515-14.23 6.546-27.825 14.448-40.628 23.469-20.19 14.226-38.426 31.293-54.421 50.02-3.021 3.536-5.966 7.138-8.817 10.813-26.891 34.662-44.552 75.279-54.384 117.88-.021.089-.044.176-.064.265-1.854 8.085 2.092 16.238 9.596 19.826l131.79 63.017c.015.008.029.017.045.024l74.714 35.724-29.797 29.834c-3.637 3.641-5.539 8.675-5.218 13.81.321 5.141 2.839 9.906 6.908 13.073 2.752 2.143 5.729 4.22 8.849 6.174 17.742 11.116 37.851 16.899 58.557 16.899 2.354 0 4.717-.075 7.083-.225 4.136-.263 7.275-3.828 7.013-7.964-.263-4.137-3.832-7.276-7.964-7.014-20.028 1.278-39.643-3.713-56.722-14.414-2.69-1.684-5.247-3.468-7.599-5.299-.926-.72-1.116-1.666-1.148-2.166-.031-.495.04-1.449.859-2.27l33.533-33.575 13.176 6.3c3.772 1.804 7.821 2.706 11.87 2.706 4.048 0 8.097-.902 11.868-2.705l13.178-6.301 33.533 33.575c.819.821.89 1.774.859 2.27-.031.5-.222 1.446-1.148 2.167-2.351 1.83-4.908 3.613-7.599 5.299-4.064 2.546-8.344 4.802-12.72 6.704-3.801 1.652-5.543 6.072-3.891 9.873 1.652 3.8 6.071 5.545 9.873 3.89 5.061-2.199 10.008-4.807 14.704-7.749 3.121-1.955 6.098-4.032 8.849-6.174 4.069-3.167 6.587-7.933 6.908-13.074.321-5.135-1.581-10.169-5.218-13.81l-29.797-29.834 74.713-35.724c.013-.006.024-.014.036-.02l131.798-63.022c7.506-3.586 11.452-11.74 9.598-19.825zm-76.637-121.487c4.094 4.708 8.071 9.56 11.854 14.536 6.336 8.336 12.175 17.09 17.461 26.14 1.648 2.822 3.236 5.685 4.782 8.567l-120.613 107.088c-4.423-4.602-9.166-8.862-14.198-12.736l93.547-151.557c2.417 2.59 4.807 5.249 7.167 7.962zm-17.991-18.998-95.149 154.153c-6.16-3.682-12.63-6.854-19.353-9.464l55.934-187.409c20.944 11.014 40.522 25.296 58.568 42.72zm-112.992-63.047c10.826 2.491 22.261 6.092 32.872 10.345 2.684 1.076 5.315 2.193 7.871 3.345l-56.542 189.447c-7.36-1.901-14.94-3.167-22.672-3.735v-57.438c19.837-4.343 34.736-22.041 34.736-43.161s-14.898-38.819-34.736-43.161v-60.913c12.948.59 25.839 2.365 38.471 5.271zm-77.109 98.804c0-16.092 13.091-29.183 29.183-29.183s29.183 13.091 29.183 29.183-13.091 29.183-29.183 29.183-29.183-13.092-29.183-29.183zm-69.578-80.279 55.958 187.881c-7.581 2.683-14.864 6.068-21.765 10.092l-95.571-154.124c18.867-18.008 39.529-32.764 61.378-43.849zm-87.56 72.37c4.932-6.118 10.045-11.974 15.315-17.57l93.931 151.48c-5.449 4.101-10.578 8.638-15.328 13.583l-120.603-107.1c7.743-14.439 16.638-27.932 26.685-40.393zm71.863 178.7-125.029-59.788c-.274-.13-.517-.305-.724-.511-.673-.674-.916-1.497-.706-2.411 1.96-8.524 4.269-17.016 6.899-25.388 1.64-5.22 3.415-10.398 5.335-15.521 2.667-7.117 5.577-14.048 8.72-20.793l117.819 104.627c-4.651 6.144-8.78 12.755-12.314 19.785zm119.852 52.155c-3.427 1.639-7.36 1.641-10.788-.001l-95.542-45.683c19.173-37.895 58.04-62.003 100.937-62.003s81.764 24.108 100.937 62.003zm234.082-111.932-125.016 59.779c-3.536-7.035-7.67-13.651-12.325-19.8l117.827-104.616c8.9 19.1 15.913 39.706 20.956 61.705.268 1.171-.338 2.405-1.442 2.932z"/></g></svg>