<svg id="Capa_1" enable-background="new 0 0 512.071 512.071" height="512" viewBox="0 0 512.071 512.071" width="512" xmlns="http://www.w3.org/2000/svg"><g><g><path d="m421.662 108.282h-331.254c-6.547 0-11.999 5.025-12.531 11.55l-30.294 371.154c-.598 7.323 5.184 13.596 12.531 13.596h391.843c7.347 0 13.129-6.273 12.531-13.596l-30.294-371.154c-.533-6.526-5.984-11.55-12.532-11.55z" fill="#fd9468"/></g><g><path d="m451.952 504.58h-19.581c7.347 0 13.129-6.268 12.536-13.595l-30.3-371.155c-.535-6.521-5.986-11.545-12.526-11.545h19.581c6.55 0 12.001 5.024 12.536 11.545l30.29 371.155c.602 7.327-5.18 13.595-12.536 13.595z" fill="#fe7d43"/></g><g><g><path d="m356.07 192.924c-9.112 0-16.5-7.387-16.5-16.5v-52.399c0-46.062-37.473-83.536-83.535-83.536s-83.535 37.474-83.535 83.535v52.399c0 9.112-7.387 16.5-16.5 16.5-9.112 0-16.5-7.387-16.5-16.5v-52.399c0-64.258 52.277-116.535 116.535-116.535s116.535 52.278 116.535 116.535v52.399c0 9.113-7.387 16.501-16.5 16.501z" fill="#fef1da"/></g></g><g><g><path d="m372.569 124.024v52.395c0 9.117-7.389 16.506-16.496 16.506-2.936 0-5.702-.769-8.088-2.117 5.023-2.826 8.408-8.208 8.408-14.389v-52.395c0-61.542-47.951-112.09-108.445-116.254 2.676-.19 5.372-.28 8.089-.28 64.257.001 116.532 52.276 116.532 116.534z" fill="#fae2c0"/></g></g><g><path d="m356.458 267.533c4.137 0 7.489-3.353 7.489-7.489s-3.353-7.489-7.489-7.489h-64.368c-4.137 0-7.489 3.353-7.489 7.489s3.353 7.489 7.489 7.489z"/><path d="m471.953 490.377-30.295-371.154c-.844-10.335-9.627-18.43-19.997-18.43h-43.794c-10.907-57.321-61.384-100.793-121.831-100.793s-110.925 43.472-121.832 100.792h-43.796c-10.369 0-19.152 8.095-19.996 18.43l-30.294 371.155c-.455 5.57 1.457 11.12 5.244 15.229s9.164 6.465 14.751 6.465h66.119c4.137 0 7.489-3.353 7.489-7.489s-3.353-7.489-7.489-7.489h-66.118c-1.939 0-3.174-1.026-3.738-1.638s-1.486-1.926-1.328-3.859l30.294-371.156c.214-2.618 2.439-4.67 5.066-4.67h41.885c-.18 2.729-.281 5.479-.281 8.253v52.4c0 13.228 10.761 23.989 23.988 23.989s23.989-10.761 23.989-23.989v-52.4c0-2.789.161-5.541.456-8.253h151.181c.294 2.712.456 5.464.456 8.253v2.882c0 4.136 3.353 7.489 7.489 7.489s7.489-3.353 7.489-7.489v-2.882c0-50.19-40.833-91.023-91.024-91.023-50.192 0-91.025 40.834-91.025 91.025v52.4c0 4.968-4.042 9.011-9.01 9.011s-9.01-4.042-9.01-9.011v-52.4c0-60.128 48.917-109.046 109.045-109.046s109.045 48.918 109.045 109.046v52.4c0 4.968-4.042 9.011-9.01 9.011-4.969 0-9.011-4.042-9.011-9.011v-14.574c0-4.136-3.353-7.489-7.489-7.489s-7.489 3.353-7.489 7.489v14.574c0 13.228 10.761 23.989 23.989 23.989 13.227 0 23.989-10.761 23.989-23.989v-52.4c0-2.774-.101-5.524-.281-8.253h41.884c2.628 0 4.854 2.051 5.067 4.67l30.295 371.154c.158 1.933-.765 3.248-1.329 3.86s-1.799 1.638-3.738 1.638h-290.506c-4.137 0-7.489 3.353-7.489 7.489s3.353 7.489 7.489 7.489h290.504c5.588 0 10.964-2.356 14.751-6.464 3.789-4.11 5.7-9.661 5.246-15.231zm-215.917-442.399c33.83 0 62.56 22.212 72.403 52.814h-144.807c9.843-30.602 38.572-52.814 72.404-52.814z"/><path d="m229.922 267.533c4.137 0 7.489-3.353 7.489-7.489s-3.353-7.489-7.489-7.489h-64.37c-4.137 0-7.489 3.353-7.489 7.489s3.353 7.489 7.489 7.489z"/><path d="m148.123 294.362c0 4.136 3.353 7.489 7.489 7.489h34.635v131.727c0 4.136 3.353 7.489 7.489 7.489s7.489-3.353 7.489-7.489v-131.727h34.636c4.137 0 7.489-3.353 7.489-7.489s-3.353-7.489-7.489-7.489h-84.25c-4.136 0-7.488 3.353-7.488 7.489z"/><path d="m163.124 389.467c10.601-25.437 11.046-57.394 11.059-58.742.042-4.136-3.278-7.523-7.413-7.565-.026 0-.052 0-.078 0-4.101 0-7.445 3.303-7.487 7.413-.003.301-.416 30.359-9.907 53.132-1.592 3.818.214 8.203 4.032 9.794.941.393 1.917.578 2.878.578 2.932 0 5.717-1.734 6.916-4.61z"/><path d="m228.781 323.159c-.026 0-.053 0-.078 0-4.137.042-7.455 3.429-7.413 7.565.014 1.348.459 33.305 11.06 58.742 1.198 2.876 3.984 4.61 6.916 4.61.96 0 1.937-.186 2.878-.578 3.819-1.591 5.624-5.976 4.032-9.794-9.461-22.7-9.905-52.834-9.908-53.136-.044-4.108-3.389-7.409-7.487-7.409z"/><path d="m284.6 317.606c0 11.322 9.21 20.532 20.531 20.532h38.285c11.321 0 20.531-9.21 20.531-20.532v-10.201c0-11.321-9.21-20.532-20.531-20.532h-38.285c-11.321 0-20.531 9.21-20.531 20.532zm14.979-10.202c0-3.062 2.491-5.553 5.553-5.553h38.285c3.062 0 5.553 2.491 5.553 5.553v10.201c0 3.062-2.491 5.554-5.553 5.554h-38.285c-3.062 0-5.553-2.492-5.553-5.554z"/><path d="m284.6 437.452c0 4.136 3.353 7.489 7.489 7.489 4.137 0 7.489-3.353 7.489-7.489v-8.564h49.39v8.564c0 4.136 3.353 7.489 7.489 7.489s7.489-3.353 7.489-7.489v-65.183c0-9.827-7.994-17.821-17.82-17.821h-43.707c-9.826 0-17.82 7.994-17.82 17.821v65.183zm47.163-68.025h14.364c1.567 0 2.842 1.275 2.842 2.843v11.909h-17.206zm0 29.73h17.206v14.752h-17.206zm-32.184-26.888c0-1.568 1.275-2.843 2.842-2.843h14.364v14.752h-17.206zm0 26.888h17.206v14.752h-17.206z"/></g></g></svg>