<svg id="Capa_1" enable-background="new 0 0 512 512" height="512" viewBox="0 0 512 512" width="512" xmlns="http://www.w3.org/2000/svg"><g><g><path d="m346.021 504.503h-180.795v-121.613c0-49.925 40.472-90.397 90.397-90.397 49.925 0 90.397 40.472 90.397 90.397v121.613z" fill="#ffa799"/></g><g><path d="m293.735 300.915.049-.042c-6.65-2.694-11.002-9.152-11.002-16.327v-33.79h-53.564v33.79c0 6.024-3.075 11.534-7.996 14.743-9.926 4.091-18.975 9.883-26.757 17.043 0 0 13.804 45.551 57.769 79.267l2.517-2.027c43.341-33.486 59.287-77.24 59.287-77.24l.778-1.768c-6.317-5.479-13.412-10.077-21.081-13.649z" fill="#ffeee6"/></g><g><path d="m165.226 423.067h180.795v45.265h-180.795z" fill="#b3dafe"/></g><g><path d="m286.1 423.067h59.921v45.265h-59.921z" fill="#8ac9fe"/></g><g><g><path d="m202.39 398.945v100.116c0 3.005-2.436 5.441-5.441 5.441h-65.824c-2.762 0-5.09-2.065-5.405-4.81-2.657-23.171-9.764-124.419 60.101-179.486z" fill="#ffa799"/></g><g><path d="m202.394 391.678v107.381c0 3.009-2.439 5.448-5.448 5.448h-20.451c3.009 0 5.447-2.439 5.447-5.448v-90.849c0-9.13 7.401-16.532 16.532-16.532z" fill="#fe8f83"/></g><g><path d="m309.609 398.945v100.116c0 3.005 2.436 5.441 5.441 5.441h65.824c2.762 0 5.09-2.065 5.405-4.81 2.636-22.988 9.653-122.834-58.468-178.18z" fill="#ffa799"/></g><g><path d="m308.083 308.05c89.095 50.685 81.07 166.589 78.197 191.629-.31 2.749-2.639 4.828-5.408 4.828h-18.562c2.769 0 5.088-2.079 5.408-4.828 2.675-23.39 6.495-120.394-65.937-173.876z" fill="#fe8f83"/></g><g><g><path d="m315.563 312.604c-.51 1.539-1.529 3.728-1.529 3.728s-1.989 5.448-6.457 13.964c-10.395-8.486-22.51-16.043-36.613-22.25-6.657-2.689-11.005-9.146-11.005-16.323v-40.971h22.819v33.795c0 7.177 4.358 13.634 11.005 16.322 1.02.45 2.029.91 3.029 1.369 6.726 3.129 12.963 6.598 18.751 10.366z" fill="#ffdfcf"/></g></g></g><g><path d="m176.759 205.036h-7.123c-13.339 0-24.153-10.814-24.153-24.153 0-13.339 10.814-24.153 24.153-24.153h7.123z" fill="#ffcebf"/></g><g><path d="m335.241 205.036h7.123c13.339 0 24.153-10.814 24.153-24.153 0-13.339-10.814-24.153-24.153-24.153h-7.123z" fill="#ffcebf"/></g><g><circle cx="256" cy="65.908" fill="#7a6d79" r="58.412"/></g><g><path d="m314.413 65.907c0 32.265-26.158 58.413-58.413 58.413-3.558 0-7.037-.32-10.415-.92 27.298-4.918 47.998-28.787 47.998-57.494s-20.7-52.576-47.998-57.494c3.378-.6 6.857-.92 10.415-.92 32.255.002 58.413 26.16 58.413 58.415z" fill="#685e68"/></g><g><path d="m256 272.983c-43.764 0-79.241-35.477-79.241-79.241v-56.643l22.306-27.456h123.419l12.758 27.456v56.643c-.001 43.764-35.478 79.241-79.242 79.241z" fill="#ffeee6"/></g><g><path d="m335.244 137.094v56.644c0 43.77-35.484 79.244-79.244 79.244-3.458 0-6.867-.22-10.205-.66 38.932-4.998 69.018-38.272 69.018-78.584v-56.644l-12.754-27.448h20.421z" fill="#ffdfcf"/></g><g><path d="m336.268 90.523c-10.109-10.046-22.513-17.176-35.91-21.794-32.348-11.151-73.151-9.652-103.623 6.373-7.719 4.059-14.816 9.274-21.003 15.421-15.992 15.89-26.315 36.969-23.112 59.908 1.421 10.172 6.707 18.004 18.588 18.76 17.083 1.088 21.257-17.295 26.262-29.78 5.367-13.393 18.42-22.111 32.848-22.111h51.364c14.428 0 27.481 8.718 32.848 22.111 5.005 12.485 9.179 30.868 26.262 29.78 11.881-.757 17.167-8.588 18.588-18.76 3.203-22.939-7.12-44.017-23.112-59.908z" fill="#7a6d79"/></g><g><path d="m359.383 150.428c-1.419 10.175-6.707 18.002-18.591 18.761-2.029.13-3.878-.02-5.567-.39 1.499-2.739 2.439-5.947 2.929-9.426 3.199-22.939-7.117-44.01-23.109-59.903-10.115-10.045-22.52-17.182-35.914-21.8-25.948-8.936-57.334-9.746-84.471-1.439.69-.39 1.379-.76 2.079-1.129 30.466-16.023 71.277-17.522 103.623-6.377 13.394 4.618 25.798 11.755 35.904 21.8 15.99 15.893 26.315 36.964 23.117 59.903z" fill="#685e68"/></g><g><path d="m277.116 56.394h-20.865-.504-20.864c-7.359 0-13.113 6.346-12.395 13.67l4.686 47.755h28.573.504 28.573l4.686-47.755c.719-7.324-5.035-13.67-12.394-13.67z" fill="#fee97d"/></g><g><path d="m289.515 70.065-4.688 47.758h-20.94l4.688-47.758c.71-7.307-4.998-13.634-12.324-13.674h20.87c7.356 0 13.113 6.347 12.394 13.674z" fill="#fedf30"/></g><g><path d="m226.042 166.219c-4.14 0-7.497 3.356-7.497 7.497v15.03c0 4.141 3.356 7.497 7.497 7.497s7.497-3.356 7.497-7.497v-15.03c0-4.141-3.357-7.497-7.497-7.497z"/><path d="m285.958 196.242c4.14 0 7.497-3.356 7.497-7.497v-15.03c0-4.141-3.356-7.497-7.497-7.497s-7.497 3.356-7.497 7.497v15.03c0 4.141 3.357 7.497 7.497 7.497z"/><path d="m296.804 294.011c-.068-.03-.137-.06-.206-.087-3.839-1.555-6.319-5.236-6.319-9.379v-11.148c25.245-10.908 44.327-33.462 50.404-60.864h1.682c17.451 0 31.65-14.198 31.65-31.65 0-8.564-3.431-16.332-8.977-22.035.8-2.271 1.398-4.732 1.768-7.381 3.256-23.313-5.712-46.845-25.252-66.263-5.812-5.776-12.434-10.791-19.799-15.014.094-1.417.155-2.843.155-4.283-.002-36.34-29.568-65.907-65.91-65.907-11.066 0-22.013 2.798-31.659 8.09-3.63 1.991-4.958 6.549-2.966 10.178 1.99 3.629 6.547 4.958 10.178 2.966 7.442-4.083 15.896-6.241 24.448-6.241 27.14 0 49.385 21.346 50.836 48.131-1.329-.513-2.67-1.012-4.035-1.483-2.724-.939-5.494-1.785-8.299-2.547-.728-1.299-1.591-2.529-2.607-3.649-3.774-4.162-9.161-6.55-14.779-6.55h-42.233c-5.619 0-11.006 2.388-14.78 6.55-1.012 1.116-1.874 2.341-2.6 3.635-4.22 1.145-8.351 2.464-12.337 4 .385-7.163 2.23-14.015 5.513-20.403 1.892-3.683.441-8.202-3.242-10.094-3.684-1.892-8.202-.44-10.094 3.242-4.744 9.233-7.252 19.635-7.252 30.082 0 1.416.055 2.82.145 4.214-7.221 4.136-13.867 9.199-19.789 15.083-19.54 19.416-28.508 42.948-25.253 66.263.37 2.65.968 5.111 1.768 7.382-5.546 5.702-8.978 13.469-8.978 22.033 0 17.452 14.198 31.65 31.65 31.65h1.683c6.076 27.403 25.158 49.956 50.403 60.864v11.149c0 4.143-2.48 7.824-6.319 9.379-.069.027-.139.057-.207.087-109.262 48.102-99.909 180.473-96.924 206.521.749 6.538 6.275 11.468 12.854 11.468h249.749c6.579 0 12.105-4.93 12.854-11.469 2.986-26.047 12.341-158.417-96.924-206.52zm62.217-113.128c0 9.059-7.27 16.452-16.283 16.653v-21.014c5.188-.559 9.672-2.293 13.346-5.05 1.848 2.678 2.937 5.917 2.937 9.411zm-62.498-105.516c.463.153.932.292 1.391.45 13.124 4.523 24.25 11.26 33.069 20.024 9.331 9.271 24.462 28.558 20.972 53.554-1.438 10.29-6.691 12-11.64 12.316-6.544.406-10.331-2.24-16.81-19.777-.653-1.765-1.327-3.591-2.016-5.311-5.088-12.696-15.7-21.888-28.491-25.329zm-65.312-9.85c.551-.607 1.761-1.627 3.673-1.627h42.233c1.911 0 3.121 1.02 3.672 1.627.551.608 1.448 1.912 1.261 3.815l-3.971 40.473h-44.158l-3.971-40.473c-.187-1.903.71-3.207 1.261-3.815zm-61.949 132.019c-9.012-.2-16.283-7.593-16.283-16.653 0-3.494 1.091-6.731 2.94-9.408 3.674 2.755 8.156 4.489 13.343 5.048zm2.422-35.826c-4.949-.315-10.202-2.026-11.64-12.316-3.49-24.997 11.641-44.282 20.972-53.554 5.677-5.641 12.139-10.386 19.208-14.104 4.788-2.518 9.904-4.658 15.246-6.436l3.532 35.992c-12.791 3.44-23.403 12.633-28.49 25.328-.69 1.721-1.365 3.547-2.017 5.313-5.307 14.364-8.81 20.27-16.811 19.777zm12.571 32.032v-19.71c11.92-6.234 15.58-20.37 20.174-31.833 3.663-9.139 11.757-15.472 21.307-17.023.466.091 60.061.091 60.528 0 9.55 1.551 17.645 7.884 21.308 17.023 4.606 11.492 8.272 25.607 20.173 31.832v19.712c0 39.56-32.184 71.744-71.745 71.744-39.56 0-71.745-32.185-71.745-71.745zm36.89 114.031c9.462-3.885 15.57-12.988 15.57-23.228v-6.236c6.205 1.415 12.658 2.17 19.286 2.17s13.081-.756 19.286-2.17v6.236c0 10.24 6.107 19.344 15.57 23.229 5.362 2.365 10.486 4.991 15.379 7.87-3.506 8.361-19.444 42.836-54.038 70.404-10.397-8.607-19.814-18.644-28.197-30.094-12.313-16.816-18.772-32.043-21.204-38.515 5.775-3.593 11.891-6.818 18.348-9.666zm-18.754 83.676c-4.14 0-7.497 3.356-7.497 7.497v98.062h-61.927c-1.581-15.041-3.587-50.106 6.047-87.521 9.19-35.692 26.345-63.528 51.151-83.16 3.406 8.347 10.084 22.463 21.374 37.989 11.754 16.163 30.349 36.125 57.638 51.256h-59.29v-16.625c0-4.142-3.356-7.498-7.496-7.498zm99.722 69.386h-20.304c-4.14 0-7.497 3.356-7.497 7.497s3.356 7.497 7.497 7.497h20.304v21.179h-92.226v-21.179h37.194c4.14 0 7.497-3.356 7.497-7.497s-3.356-7.497-7.497-7.497h-37.194v-30.271h92.226zm76.92 36.172h-61.927v-98.062c0-4.141-3.356-7.497-7.497-7.497s-7.497 3.356-7.497 7.497v14.911c-13.508-4.616-26.041-10.81-37.542-18.552 32.662-27.119 48.92-58.885 54.369-71.211 26.373 19.73 44.503 48.326 54.046 85.392 9.636 37.42 7.63 72.484 6.048 87.522z"/></g></g></svg>