<svg id="Capa_1" enable-background="new 0 0 512 512" height="512" viewBox="0 0 512 512" width="512" xmlns="http://www.w3.org/2000/svg"><g><g><g><g><path d="m243.649 168.929h-228.981c-3.968 0-7.186-3.217-7.186-7.186v-43.851c0-3.968 3.217-7.186 7.186-7.186h228.98c3.968 0 7.186 3.217 7.186 7.186v43.851c0 3.969-3.217 7.186-7.185 7.186z" fill="#e19974"/></g><g><path d="m243.649 316.19h-228.981c-3.968 0-7.186-3.217-7.186-7.185v-43.851c0-3.968 3.217-7.186 7.186-7.186h228.98c3.968 0 7.186 3.217 7.186 7.186v43.851c0 3.968-3.217 7.185-7.185 7.185z" fill="#e19974"/></g></g><g><g><path d="m250.838 117.89v43.855c0 3.963-3.221 7.184-7.193 7.184h-19.709c3.963 0 7.184-3.221 7.184-7.184v-43.855c0-3.963-3.221-7.184-7.184-7.184h19.709c3.972 0 7.193 3.221 7.193 7.184z" fill="#dc8758"/></g><g><path d="m250.838 265.152v43.855c0 3.963-3.221 7.184-7.193 7.184h-19.709c3.963 0 7.184-3.221 7.184-7.184v-43.855c0-3.963-3.221-7.184-7.184-7.184h19.709c3.972 0 7.193 3.221 7.193 7.184z" fill="#dc8758"/></g></g><g><path d="m178.059 400.303h-97.801c-25.317 0-45.84-20.523-45.84-45.84v-269.235c0-25.317 20.523-45.84 45.84-45.84h97.801c25.317 0 45.84 20.523 45.84 45.84v269.235c0 25.316-20.523 45.84-45.84 45.84z" fill="#e8ad8c"/></g><g><path d="m223.897 85.231v269.231c0 25.322-20.519 45.841-45.841 45.841h-19.709c25.312 0 45.831-20.519 45.831-45.841v-269.231c0-25.321-20.52-45.841-45.831-45.841h19.709c25.321 0 45.841 20.519 45.841 45.841z" fill="#e19974"/></g><g><path d="m174.213 139.499-34.691-31.466c-.093-.109-.175-.225-.272-.332-5.133-5.66-15.143-5.555-20.182 0-.097.107-.178.222-.271.331l-34.691 31.466c-17.491 15.865-27.522 38.506-27.522 62.12v42.853c0 7.454 6.042 13.496 13.496 13.496s13.496-6.042 13.496-13.496v-42.853c0-16.014 6.803-31.368 18.664-42.127l26.92-24.418 26.92 24.418c11.862 10.758 18.664 26.113 18.664 42.127v42.853c0 7.454 6.042 13.496 13.496 13.496s13.496-6.042 13.496-13.496v-42.853c-.001-23.612-10.033-46.254-27.523-62.119z" fill="#7a6d79"/></g><g><path d="m201.738 201.617v42.852c0 7.454-6.046 13.5-13.5 13.5-2.739 0-5.274-.81-7.396-2.218 3.664-2.411 6.084-6.567 6.084-11.282v-42.852c0-23.615-10.028-46.256-27.52-62.118l-34.694-31.464c-.087-.116-.174-.231-.27-.337-.791-.868-1.687-1.601-2.671-2.208 5.352-3.24 13.153-2.565 17.482 2.208.096.106.174.222.27.337l34.684 31.464c17.493 15.862 27.531 38.503 27.531 62.118z" fill="#685e68"/></g><g><path d="m129.159 148.314c-8.178 0-14.807-6.629-14.807-14.807v-32.998c0-8.178 6.629-14.807 14.807-14.807 8.178 0 14.807 6.629 14.807 14.807v32.998c-.001 8.178-6.63 14.807-14.807 14.807z" fill="#7a6d79"/></g><g><path d="m143.969 100.505v33.007c0 8.177-6.634 14.801-14.811 14.801-2.7 0-5.226-.723-7.406-1.986 4.436-2.555 7.406-7.338 7.406-12.815v-33.007c0-4.088-1.658-7.791-4.339-10.462-.906-.906-1.938-1.707-3.066-2.353 2.179-1.263 4.706-1.986 7.406-1.986 4.089 0 7.791 1.659 10.472 4.339 2.68 2.67 4.338 6.373 4.338 10.462z" fill="#685e68"/></g><g><path d="m243.649 176.411c8.088 0 14.668-6.58 14.668-14.668v-43.85c0-8.088-6.58-14.668-14.668-14.668h-12.266v-17.997c0-29.403-23.921-53.323-53.324-53.323h-97.801c-29.402 0-53.324 23.921-53.324 53.323v17.996h-12.266c-8.088 0-14.668 6.58-14.668 14.669v43.85c0 8.088 6.58 14.668 14.668 14.668h12.266v74.074h-12.266c-8.088 0-14.668 6.58-14.668 14.669v43.851c0 8.088 6.58 14.668 14.668 14.668h12.266v30.79c0 29.403 23.921 53.323 53.324 53.323 4.133 0 7.483-3.35 7.483-7.483s-3.35-7.483-7.483-7.483c-21.151 0-38.358-17.207-38.358-38.358v-269.234c0-21.151 17.207-38.358 38.358-38.358h97.801c21.151 0 38.358 17.207 38.358 38.358v269.234c0 21.151-17.207 38.358-38.358 38.358h-62.722c-4.133 0-7.483 3.35-7.483 7.483s3.35 7.483 7.483 7.483h62.722c29.402 0 53.324-23.921 53.324-53.323v-30.79h12.266c8.088 0 14.668-6.58 14.668-14.668v-43.851c0-8.088-6.58-14.668-14.668-14.668h-12.266v-74.074h12.266zm-12.267-58.221h11.969v43.256h-11.969zm-204.447 190.517h-11.97v-43.257h11.969v43.257zm0-147.261h-11.97v-43.256h11.969v43.256zm216.417 104.005v43.257h-11.969v-43.257z"/><path d="m129.158 155.796c3.36 0 6.546-.752 9.406-2.089l12.488 11.327c10.3 9.343 16.208 22.678 16.208 36.585v42.853c0 11.567 9.411 20.978 20.979 20.978s20.979-9.411 20.979-20.978v-42.853c0-25.721-10.927-50.383-29.977-67.662l-27.793-25.208v-8.24c0-12.29-9.999-22.29-22.289-22.29s-22.289 9.999-22.289 22.29v8.24l-27.792 25.208c-19.052 17.281-29.978 41.943-29.978 67.662v42.853c0 11.567 9.411 20.978 20.979 20.978s20.979-9.411 20.979-20.978v-42.853c0-13.907 5.908-27.242 16.209-36.585l12.487-11.327c2.859 1.338 6.045 2.089 9.404 2.089zm22.29-22.289v-4.554l17.738 16.089c15.931 14.449 25.067 35.071 25.067 56.578v42.853c0 3.316-2.698 6.013-6.013 6.013-3.316 0-6.013-2.697-6.013-6.013v-42.853c0-18.121-7.698-35.495-21.119-47.669l-11.871-10.767c1.415-2.929 2.211-6.212 2.211-9.677zm-29.613-32.998c0-4.038 3.285-7.324 7.324-7.324s7.324 3.286 7.324 7.324v32.998c0 4.039-3.285 7.324-7.324 7.324s-7.324-3.285-7.324-7.324zm-24.624 53.441c-13.422 12.173-21.12 29.549-21.12 47.669v42.853c0 3.316-2.698 6.013-6.013 6.013s-6.013-2.697-6.013-6.013v-42.853c0-21.506 9.137-42.128 25.068-56.578l17.737-16.088v4.554c0 3.465.795 6.748 2.212 9.676z"/></g></g><g><g><g><path d="m497.332 241.238h-228.98c-3.968 0-7.185-3.217-7.185-7.186v-43.851c0-3.968 3.217-7.186 7.185-7.186h228.98c3.968 0 7.186 3.217 7.186 7.186v43.851c-.001 3.969-3.218 7.186-7.186 7.186z" fill="#e19974"/></g><g><path d="m497.332 388.499h-228.98c-3.968 0-7.185-3.217-7.185-7.185v-43.851c0-3.968 3.217-7.186 7.185-7.186h228.98c3.968 0 7.186 3.217 7.186 7.186v43.851c-.001 3.968-3.218 7.185-7.186 7.185z" fill="#e19974"/></g></g><g><g><path d="m504.521 190.2v43.855c0 3.963-3.221 7.184-7.193 7.184h-19.71c3.963 0 7.184-3.221 7.184-7.184v-43.855c0-3.963-3.221-7.184-7.184-7.184h19.71c3.972 0 7.193 3.221 7.193 7.184z" fill="#dc8758"/></g><g><path d="m504.521 337.462v43.855c0 3.963-3.221 7.184-7.193 7.184h-19.71c3.963 0 7.184-3.221 7.184-7.184v-43.855c0-3.963-3.221-7.184-7.184-7.184h19.71c3.972 0 7.193 3.22 7.193 7.184z" fill="#dc8758"/></g></g><g><path d="m431.742 472.612h-97.801c-25.317 0-45.84-20.523-45.84-45.84v-269.235c0-25.317 20.523-45.84 45.84-45.84h97.801c25.317 0 45.84 20.523 45.84 45.84v269.235c0 25.317-20.523 45.84-45.84 45.84z" fill="#e8ad8c"/></g><g><path d="m477.58 157.54v269.231c0 25.322-20.519 45.841-45.841 45.841h-19.71c25.312 0 45.831-20.52 45.831-45.841v-269.231c0-25.322-20.52-45.841-45.831-45.841h19.71c25.321 0 45.841 20.52 45.841 45.841z" fill="#e19974"/></g><g><path d="m427.896 211.809-34.691-31.466c-.093-.109-.175-.225-.272-.332-5.133-5.66-15.143-5.555-20.182 0-.097.107-.178.222-.271.331l-34.691 31.466c-17.491 15.865-27.522 38.506-27.522 62.12v42.853c0 7.454 6.042 13.496 13.496 13.496s13.496-6.042 13.496-13.496v-42.853c0-16.014 6.803-31.368 18.664-42.127l26.921-24.418 26.92 24.418c11.862 10.758 18.664 26.113 18.664 42.127v42.853c0 7.454 6.042 13.496 13.496 13.496s13.496-6.042 13.496-13.496v-42.853c-.002-23.613-10.034-46.255-27.524-62.119z" fill="#7a6d79"/></g><g><path d="m455.421 273.926v42.852c0 7.454-6.046 13.5-13.5 13.5-2.739 0-5.274-.81-7.396-2.218 3.664-2.411 6.085-6.567 6.085-11.282v-42.852c0-23.615-10.028-46.256-27.52-62.118l-34.694-31.464c-.087-.116-.174-.231-.27-.337-.791-.868-1.687-1.601-2.671-2.208 5.352-3.24 13.153-2.565 17.482 2.208.096.106.174.222.27.337l34.685 31.464c17.491 15.863 27.529 38.504 27.529 62.118z" fill="#685e68"/></g><g><path d="m382.841 220.623c-8.178 0-14.807-6.629-14.807-14.807v-32.998c0-8.178 6.629-14.807 14.807-14.807 8.178 0 14.807 6.629 14.807 14.807v32.998c0 8.178-6.629 14.807-14.807 14.807z" fill="#7a6d79"/></g><g><path d="m397.652 172.814v33.007c0 8.177-6.634 14.801-14.811 14.801-2.7 0-5.226-.723-7.406-1.986 4.436-2.555 7.406-7.338 7.406-12.815v-33.007c0-4.088-1.659-7.791-4.339-10.462-.906-.906-1.938-1.707-3.066-2.353 2.179-1.263 4.706-1.986 7.406-1.986 4.089 0 7.791 1.659 10.472 4.339 2.679 2.671 4.338 6.374 4.338 10.462z" fill="#685e68"/></g><g><path d="m497.332 248.721c8.088 0 14.668-6.58 14.668-14.668v-43.851c0-8.088-6.58-14.668-14.668-14.668h-12.267v-17.996c0-29.402-23.92-53.323-53.323-53.323h-97.801c-29.402 0-53.324 23.921-53.324 53.323v17.996h-12.266c-8.088 0-14.668 6.58-14.668 14.668v43.851c0 8.088 6.58 14.668 14.668 14.668h12.266v74.074h-12.266c-8.088 0-14.668 6.58-14.668 14.668v43.851c0 8.088 6.58 14.668 14.668 14.668h12.266v30.79c0 29.403 23.921 53.323 53.324 53.323h97.801c29.402 0 53.323-23.921 53.323-53.323v-30.79h12.267c8.088 0 14.668-6.58 14.668-14.668v-43.851c0-8.088-6.58-14.668-14.668-14.668h-12.267v-74.074zm-12.268-58.222h11.97v43.257h-11.97zm-204.446 190.518h-11.969v-43.257h11.969zm0-147.261h-11.969v-43.257h11.969zm189.481 193.016c0 21.151-17.207 38.358-38.357 38.358h-97.801c-21.151 0-38.358-17.207-38.358-38.358v-269.235c0-21.151 17.207-38.358 38.358-38.358h97.801c21.15 0 38.357 17.207 38.357 38.358zm26.936-89.012v43.257h-11.97v-43.257z"/><path d="m432.923 206.266-27.792-25.208v-8.24c0-12.29-9.999-22.29-22.289-22.29s-22.289 9.999-22.289 22.29v8.24l-27.793 25.208c-19.051 17.281-29.977 41.942-29.977 67.662v42.853c0 11.568 9.411 20.979 20.979 20.979s20.979-9.411 20.979-20.979v-15.064c0-4.132-3.35-7.483-7.483-7.483s-7.483 3.35-7.483 7.483v15.064c0 3.316-2.698 6.013-6.013 6.013s-6.013-2.697-6.013-6.013v-42.853c0-21.506 9.136-42.128 25.067-56.578l17.738-16.089v4.554c0 3.465.795 6.747 2.212 9.676l-11.871 10.767c-11.303 10.253-18.613 24.247-20.584 39.405-.533 4.098 2.358 7.852 6.456 8.385 4.1.53 7.853-2.358 8.385-6.456 1.513-11.639 7.123-22.382 15.798-30.25l12.488-11.327c2.86 1.337 6.046 2.089 9.406 2.089s6.546-.752 9.406-2.089l12.487 11.326c10.301 9.343 16.209 22.677 16.209 36.585v42.853c0 11.568 9.411 20.979 20.979 20.979s20.979-9.411 20.979-20.979v-42.853c-.003-25.717-10.93-50.379-29.981-67.66zm-42.758-.449c0 4.038-3.285 7.324-7.324 7.324s-7.324-3.286-7.324-7.324v-32.998c0-4.039 3.285-7.324 7.324-7.324s7.324 3.286 7.324 7.324zm57.771 110.965c0 3.316-2.698 6.013-6.013 6.013-3.316 0-6.013-2.697-6.013-6.013v-42.853c0-18.121-7.698-35.496-21.12-47.669l-11.87-10.767c1.417-2.928 2.212-6.211 2.212-9.676v-4.554l17.737 16.088c15.931 14.45 25.068 35.072 25.068 56.578v42.853z"/></g></g></g></svg>