<svg id="Capa_1" enable-background="new 0 0 512.135 512.135" height="512" viewBox="0 0 512.135 512.135" width="512" xmlns="http://www.w3.org/2000/svg"><g><g><path d="m166.04 493.239c-36.373-27.049-59.937-69.528-60.062-118.478-.209-81.413 65.345-148.673 146.739-150.447 84.424-1.84 153.44 66.047 153.44 150.053 0 47.857-22.398 90.482-57.283 117.965-10.216 8.048-22.905 12.314-35.91 12.314h-112.21c-12.491 0-24.69-3.953-34.714-11.407z" fill="#fee97d"/></g><g><path d="m406.153 374.364c0 47.863-22.399 90.483-57.281 117.963-10.212 8.054-22.898 12.32-35.91 12.32h-5.335c5.956-2.138 11.566-5.223 16.606-9.184 36.144-28.478 59.348-72.645 59.348-122.23 0-68.512-44.31-126.689-105.837-147.398 72.615 10.497 128.409 72.992 128.409 148.529z" fill="#fedf30"/></g><g><path d="m308.032 348.688c-10.88 0-19.699-8.82-19.699-19.699v-63.994h39.399v63.994c-.001 10.88-8.821 19.699-19.7 19.699z" fill="#7a6d79"/></g><g><path d="m327.736 265v63.993c0 10.88-8.825 19.695-19.705 19.695-3.582 0-6.943-.96-9.843-2.641 5.886-3.399 9.843-9.766 9.843-17.055v-63.992z" fill="#685e68"/></g><g><path d="m329.384 225.867c-.071 0-36.358-.021-72.511-.031-36.152.01-72.439.031-72.511.031-11.965.007-19.648 11.744-19.054 23.807.838 17.026 17.005 22.085 29.789 27.129 19.74 7.788 41.027 11.682 61.776 11.682s42.036-3.894 61.776-11.682c12.785-5.044 28.951-10.102 29.789-27.129.595-12.064-7.089-23.801-19.054-23.807z" fill="#7a6d79"/></g><g><path d="m348.439 249.673c-.835 17.026-17.007 22.087-29.788 27.128-19.743 7.788-41.033 11.687-61.775 11.687-20.752 0-42.041-3.899-61.775-11.687-6.223-2.449-13.242-4.917-18.898-8.738 18.898 7.029 39.103 10.554 58.818 10.554 20.752 0 42.032-3.899 61.775-11.687 12.781-5.042 28.953-10.102 29.788-27.128.25-4.965-.912-9.881-3.198-13.934h6.002c11.964.009 19.647 11.744 19.051 23.805z" fill="#685e68"/></g><g><path d="m276.342 40.13v-21.891c0-5.937-4.813-10.75-10.75-10.75h-19.049c-5.937 0-10.75 4.813-10.75 10.75v22.025c0 10.79-6.651 20.355-16.64 24.437-36.532 14.927-62.001 51.343-60.689 93.54 1.641 52.788 45.591 94.96 98.402 94.537 53.564-.429 96.854-43.984 96.854-97.649 0-40.988-25.254-76.073-61.05-90.555-9.919-4.013-16.328-13.744-16.328-24.444z" fill="#fee97d"/></g><g><path d="m353.715 155.129c0 43.653-28.641 80.617-68.161 93.12 28.482-17.059 47.551-48.218 47.551-83.83 0-40.994-25.26-76.08-61.05-90.555-9.92-4.021-16.336-13.743-16.336-24.442v-31.554c0-4.969-3.372-9.149-7.957-10.38h17.829c5.937 0 10.746 4.81 10.746 10.756v21.887c0 10.7 6.416 20.431 16.336 24.442 35.792 14.486 61.042 49.571 61.042 90.556z" fill="#fedf30"/></g><path d="m366.265 261.727c-3.392-3.319-6.921-6.441-10.547-9.409.085-.744.162-1.494.201-2.276.438-8.892-2.709-17.782-8.417-23.781-2.558-2.689-5.574-4.712-8.854-6.045 14.619-18.478 22.56-41.184 22.56-65.087 0-25.152-9.023-49.491-25.407-68.534-2.698-3.137-7.428-3.489-10.562-.792-3.135 2.697-3.49 7.426-.793 10.561 14.048 16.326 21.784 37.196 21.784 58.765 0 49.32-40.115 89.765-89.425 90.16-48.609.408-89.349-38.765-90.857-87.281-.586-18.832 4.57-37.03 14.909-52.625 10.081-15.204 24.302-26.874 41.127-33.749 12.937-5.286 21.296-17.599 21.296-31.37v-22.025c0-1.798 1.463-3.261 3.261-3.261h19.05c1.798 0 3.261 1.463 3.261 3.261v21.891c0 13.903 8.246 26.223 21.008 31.386 3.21 1.298 6.379 2.801 9.422 4.466 3.629 1.985 8.18.654 10.165-2.974s.654-8.18-2.974-10.165c-3.55-1.943-7.249-3.696-10.996-5.212-7.076-2.862-11.647-9.732-11.647-17.501v-21.891c.001-10.057-8.181-18.239-18.238-18.239h-19.05c-10.057 0-18.239 8.182-18.239 18.239v22.025c0 7.659-4.704 14.53-11.984 17.504-19.618 8.016-36.198 21.619-47.945 39.338-12.063 18.196-18.079 39.416-17.397 61.367.711 22.887 8.788 44.534 22.999 62.216-2.846 1.325-5.467 3.192-7.733 5.573-5.708 5.999-8.854 14.888-8.416 23.781.02.412.058.81.092 1.212-5.07 4.064-9.927 8.463-14.536 13.19-29.057 29.799-45.002 68.983-44.896 110.336.127 49.383 23.12 94.75 63.082 124.469 11.174 8.31 25.09 12.887 39.183 12.887h112.21c14.752 0 29.151-4.943 40.545-13.92 38.218-30.109 60.137-75.25 60.137-123.848.002-42.743-16.825-82.746-47.379-112.642zm-22.025 224.721c-8.765 6.905-19.872 10.708-31.276 10.708h-112.21c-10.896 0-21.637-3.526-30.245-9.927-36.137-26.873-56.928-67.874-57.042-112.488-.096-37.408 14.337-72.866 40.641-99.841 2.976-3.051 6.077-5.933 9.269-8.68 6.53 8.833 17.558 13.117 26.386 16.539.874.339 1.738.674 2.587 1.009 3.849 1.518 8.197-.37 9.715-4.218 1.518-3.847-.371-8.197-4.218-9.715-.876-.346-1.768-.692-2.67-1.041-13.592-5.269-21.882-9.21-22.388-19.489-.24-4.878 1.37-9.633 4.308-12.72 2.038-2.142 4.484-3.229 7.267-3.23h.392c.27 0 .688 0 1.227-.001 19.39 17.398 44.107 26.915 70.091 26.915.283 0 .569-.001.853-.003 25.883-.208 50.294-9.723 69.39-26.913 1.287.001 2.2.001 2.677.002h.388c2.787.001 5.234 1.088 7.271 3.23 2.937 3.087 4.548 7.843 4.307 12.72-.624 12.69-15.281 16.673-25.057 20.531-18.503 7.3-38.915 11.159-59.027 11.159-8.818 0-17.747-.74-26.538-2.2-4.075-.679-7.937 2.08-8.614 6.161-.678 4.08 2.081 7.937 6.161 8.614 9.599 1.594 19.354 2.403 28.991 2.403 7.984 0 16.012-.564 23.97-1.657v34.673c0 14.992 12.196 27.188 27.188 27.188s27.189-12.197 27.189-27.188v-50.993c5.449-2.691 10.726-6.162 14.601-11.078 2.032 1.775 4.023 3.611 5.967 5.514 27.651 27.055 42.879 63.255 42.879 101.933-.002 43.98-19.84 84.833-54.43 112.083zm-23.998-202.239v44.78c0 6.733-5.477 12.21-12.211 12.21-6.732 0-12.21-5.477-12.21-12.21v-37.385c8.353-1.88 16.539-4.352 24.421-7.395z"/></g></svg>