<svg id="Capa_1" enable-background="new 0 0 512 512" height="512" viewBox="0 0 512 512" width="512" xmlns="http://www.w3.org/2000/svg"><g><g><path d="m287.416 199.773-6.989-64.126c-.982-9.01 1.977-18.005 8.116-24.673l92.859-100.861c4.961-5.389 13.958-1.893 13.978 5.432l.213 76.051z" fill="#fef1da"/></g><g><path d="m395.594 91.601-108.177 108.177-2.788-25.58 110.885-110.886z" fill="#fae2c0"/></g><g><path d="m312.233 224.59 64.126 6.989c9.01.982 18.005-1.977 24.673-8.116l100.861-92.859c5.389-4.961 1.893-13.958-5.432-13.978l-76.051-.213z" fill="#fef1da"/></g><g><path d="m501.893 130.601-100.863 92.859c-6.665 6.145-15.658 9.103-24.671 8.114l-64.131-6.985 18.296-18.296 40.269 4.387c8.154.889 16.288-1.789 22.323-7.344l91.27-84.026c.879-.809 1.499-1.739 1.889-2.718l10.182.03c7.325.03 10.822 9.023 5.436 13.979z" fill="#fae2c0"/></g><g><path d="m292.811 290.023-27.8 22.855c-2.359 1.94-3.727 4.834-3.727 7.888v105.987c0 5.64 4.572 10.211 10.211 10.211h27.8 27.8c5.64 0 10.211-4.572 10.211-10.211v-105.987c0-3.054-1.367-5.948-3.727-7.888l-27.8-22.855c-3.767-3.098-9.2-3.098-12.968 0z" fill="#b5adb6"/></g><g><path d="m337.309 320.766v105.989c0 5.636-4.577 10.212-10.212 10.212h-11.631c.899-1.519 1.409-3.288 1.409-5.186v-105.979c0-3.058-1.369-5.955-3.727-7.894l-27.129-22.303 6.795-5.586c3.767-3.098 9.203-3.098 12.97 0l27.799 22.862c2.357 1.94 3.726 4.828 3.726 7.885z" fill="#a79ba7"/></g><g><path d="m12.634 499.372c-6.853-6.853-6.853-17.963 0-24.816l413.7-413.7c6.853-6.853 17.963-6.853 24.816 0 6.853 6.853 6.853 17.963 0 24.816l-413.7 413.7c-6.853 6.853-17.963 6.853-24.816 0z" fill="#fddeb0"/></g><g><path d="m456.288 73.265c0 4.497-1.709 8.983-5.136 12.41l-413.705 413.695c-6.855 6.855-17.956 6.855-24.811 0-2.598-2.598-4.217-5.796-4.846-9.153 5.516 1.049 11.421-.56 15.678-4.826l413.705-413.695c3.427-3.427 5.146-7.924 5.146-12.411 0-1.089-.1-2.178-.31-3.257 3.347.619 6.545 2.228 9.143 4.826 3.427 3.428 5.136 7.914 5.136 12.411z" fill="#fccd7f"/></g><g><g><path d="m376.79 93.25h35.096v48.838h-35.096z" fill="#fd9468" transform="matrix(.707 .707 -.707 .707 198.703 -244.375)"/></g><g><path d="m311.812 158.228h35.096v48.838h-35.096z" fill="#fd9468" transform="matrix(.707 .707 -.707 .707 225.618 -179.396)"/></g><g><path d="m246.833 223.206h35.096v48.838h-35.096z" fill="#fd9468" transform="matrix(.707 .707 -.707 .707 252.533 -114.418)"/></g><g><path d="m181.855 288.185h35.096v48.838h-35.096z" fill="#fd9468" transform="matrix(.707 .707 -.707 .707 279.448 -49.44)"/></g><g><path d="m116.877 353.163h35.096v48.838h-35.096z" fill="#fd9468" transform="matrix(.707 .707 -.707 .707 306.363 15.539)"/></g><g><path d="m51.899 418.141h35.096v48.838h-35.096z" fill="#fd9468" transform="matrix(.707 .707 -.707 .707 333.278 80.517)"/></g></g><g><g><path d="m375.337 113.207h48.838v19.77h-48.838z" fill="#fe7d43" transform="matrix(.707 -.707 .707 .707 30.047 318.723)"/></g><g><path d="m310.357 178.177h48.838v19.77h-48.838z" fill="#fe7d43" transform="matrix(.707 -.707 .707 .707 -34.927 291.805)"/></g><g><path d="m294.052 242.766-34.534 34.533-13.979-13.979h.01l34.523-34.534z" fill="#fe7d43"/></g><g><path d="m180.406 308.138h48.838v19.77h-48.838z" fill="#fe7d43" transform="matrix(.707 -.707 .707 .707 -164.884 237.979)"/></g><g><path d="m115.425 373.119h48.838v19.77h-48.838z" fill="#fe7d43" transform="matrix(.707 -.707 .707 .707 -229.865 211.064)"/></g><g><path d="m50.445 438.089h48.838v19.77h-48.838z" fill="#fe7d43" transform="matrix(.707 -.707 .707 .707 -294.839 184.146)"/></g></g><path d="m510.93 119.048c-2.334-6.006-8.005-9.899-14.448-9.916l-58.03-.162 17.999-17.999c4.729-4.73 7.334-11.018 7.334-17.707s-2.605-12.977-7.335-17.707-11.018-7.334-17.708-7.334c-6.689 0-12.977 2.604-17.707 7.334l-17.998 17.998-.163-58.029c-.018-6.444-3.911-12.116-9.916-14.449-6.004-2.335-12.705-.779-17.07 3.961l-92.859 100.862c-7.604 8.26-11.268 19.399-10.052 30.561l6.6 60.554-210.57 210.569s-.001 0-.001.001l-34.533 34.533-27.138 27.138c-4.73 4.731-7.335 11.019-7.335 17.708s2.605 12.977 7.335 17.708c4.882 4.881 11.295 7.322 17.707 7.322s12.825-2.441 17.707-7.322l225.378-225.378c2.143 4.65 4.774 9.83 7.732 14.963l-15.606 12.83c-4.107 3.375-6.463 8.361-6.463 13.678v39.783c0 4.14 3.355 7.494 7.494 7.494s7.494-3.355 7.494-7.494v-39.783c0-.816.361-1.58.992-2.099l14.293-11.751c3.346 4.527 6.886 8.548 10.493 11.492 1.391 1.137 3.068 1.689 4.735 1.689 2.173 0 4.328-.941 5.81-2.755 2.618-3.207 2.14-7.927-1.066-10.545-2.721-2.221-5.578-5.532-8.384-9.409l1.918-1.577c1.001-.822 2.452-.821 3.451-.001l27.802 22.857c.629.517.99 1.282.99 2.098v105.987c0 1.499-1.219 2.718-2.717 2.718h-55.601c-1.498 0-2.717-1.219-2.717-2.718v-31.281c0-4.14-3.355-7.494-7.494-7.494s-7.494 3.355-7.494 7.494v31.281c0 9.763 7.943 17.706 17.706 17.706h55.601c9.763 0 17.705-7.943 17.705-17.706v-105.985c0-5.317-2.355-10.302-6.461-13.676l-27.802-22.857c-6.515-5.355-15.972-5.357-22.488.001l-.447.368c-3.254-5.831-6.103-11.755-8.132-16.652l35.52-35.52 60.555 6.6c1.409.153 2.815.229 4.217.229 9.709 0 19.126-3.637 26.344-10.282l53.532-49.285c3.045-2.803 3.241-7.544.437-10.59-2.803-3.045-7.544-3.242-10.59-.437l-53.532 49.285c-5.077 4.674-11.924 6.933-18.785 6.179l-48.582-5.295 1.209-1.209c.001-.001.002-.002.003-.003l9.058-9.058 84.647-84.647 72.935.204c.196.001.381.001.519.356s.002.481-.142.614l-21.051 19.379c-3.047 2.802-3.245 7.543-.443 10.59 2.802 3.045 7.543 3.246 10.589.443l21.057-19.385c4.741-4.365 6.296-11.064 3.962-17.07zm-478.779 375.025c-3.92 3.921-10.298 3.921-14.218 0-3.92-3.92-3.92-10.298 0-14.218l21.838-21.838 14.218 14.218zm32.437-32.437-14.218-14.218 23.935-23.935 14.218 14.218zm34.534-34.533-14.218-14.218 19.846-19.846 14.218 14.218zm31.891-31.892-1.447 1.447-14.218-14.218 23.935-23.935 14.218 14.218zm33.087-33.087-14.218-14.218 19.847-19.847 14.217 14.218zm51.258-51.258-20.814 20.814-14.217-14.218 23.935-23.935 14.218 14.217zm13.72-13.72-14.218-14.218 19.846-19.846 14.218 14.218zm32.838-32.838-2.394 2.394-14.218-14.218 11.158-11.158c1.559 7.654 3.484 15.241 5.735 22.7zm32.141-148.257 92.858-100.861c.094-.102.184-.2.354-.2.071 0 .155.017.26.058.356.137.356.323.357.52l.204 72.934-59.17 59.17s-.001.001-.001.001l-22.187 22.187-13.56 13.56-5.295-48.582c-.747-6.863 1.506-13.71 6.18-18.787zm-19.728 135.844c-2.025-7.641-3.677-15.397-4.933-23.189l14.062 14.061zm19.727-19.727-14.218-14.217 19.847-19.847 14.217 14.218zm42.539-42.539-12.094 12.094-14.217-14.218 23.935-23.935 14.217 14.217zm22.439-22.44-14.217-14.218 19.846-19.846 14.218 14.218zm33.293-33.292-2.848 2.848-14.217-14.218 23.935-23.935 14.218 14.218zm17.468-45.903 21.838-21.838c3.92-3.921 10.298-3.921 14.218 0 1.899 1.898 2.945 4.423 2.945 7.108 0 2.686-1.046 5.21-2.945 7.109l-21.839 21.839z"/></g></svg>