<svg id="Capa_1" enable-background="new 0 0 512 512" height="512" viewBox="0 0 512 512" width="512" xmlns="http://www.w3.org/2000/svg"><g><g><path d="m430.37 377.208c12.409 1.174 27.237-6.493 33.5-17.127 6.413-10.89 5.065-23.427-.255-34.347-4.09-8.396-12.908-16.237-12.975-26.069-.065-9.665 7.574-16.609 5.76-27.356-1.428-8.462-6.838-15.358-15.256-17.716-14.186-3.974-27.544 7.589-34.637 18.745l-8.022 9.206 13.33 91.202z" fill="#b3dafe"/></g><g><path d="m463.871 360.085c-5.767 9.798-18.818 17.071-30.541 17.231 4.21-2.844 7.782-6.426 10.147-10.436 6.416-10.895 5.069-23.427-.249-34.353-4.091-8.391-12.911-16.233-12.98-26.061-.06-9.668 7.573-16.613 5.757-27.358-1.427-8.461-6.834-15.355-15.255-17.72-1.018-.289-2.035-.489-3.043-.619 6.735-5.358 14.936-8.561 23.437-6.176 8.421 2.355 13.829 9.259 15.256 17.72 1.816 10.746-5.827 17.69-5.757 27.348.07 9.838 8.88 17.68 12.971 26.071 5.326 10.926 6.673 23.458.257 34.353z" fill="#8ac9fe"/></g><g><path d="m81.63 377.208c-12.409 1.174-27.237-6.493-33.5-17.127-6.414-10.89-5.065-23.427.255-34.347 4.09-8.396 12.908-16.237 12.975-26.069.065-9.665-7.574-16.609-5.76-27.356 1.428-8.462 6.838-15.358 15.256-17.716 14.186-3.974 27.544 7.589 34.637 18.745l6.758 10.609-11.225 93.38z" fill="#b3dafe"/></g><g><path d="m112.254 283.947-11.225 93.379-19.396-.12c-5.797.549-12.133-.828-17.86-3.552-.679-17.211 2.185-34.672 9.069-51.294 8.331-20.115 13.56-43.083 14.298-66.091 7.593 3.542 14.098 10.386 18.349 17.071z" fill="#8ac9fe"/></g><g><path d="m88.278 178.668c26.152 42.003 22.759 99.646 4.515 143.691-21.971 53.042-3.016 114.612 41.4 149.652 19.754 15.584 42.045 23.053 65.404 27.556 17.695 3.411 35.7 4.95 53.721 4.95h5.335c18.021 0 36.026-1.539 53.721-4.95 23.358-4.503 45.65-11.972 65.404-27.556 44.415-35.04 63.37-96.61 41.4-149.652-18.244-44.045-21.636-101.688 4.515-143.691l-167.693-58.906z" fill="#b3dafe"/></g><g><path d="m377.775 472.013c-19.755 15.585-42.045 23.048-65.403 27.558-17.69 3.412-35.7 4.949-53.719 4.949h-5.338c-2.544 0-5.099-.03-7.643-.09 15.465-.379 30.89-1.926 46.076-4.859 23.357-4.51 45.647-11.973 65.402-27.558 44.42-35.041 63.377-96.612 41.407-149.652-17.94-43.302-19.546-108.585 5.248-150.68l19.885 6.984c-26.151 42.005-22.759 99.645-4.51 143.696 21.972 53.04 3.015 114.611-41.405 149.652z" fill="#8ac9fe"/></g><g><path d="m274.593 315.56c-1.021 8.142.512 16.585 4.33 23.848 2.923 5.561 7.094 10.359 10.451 15.669s5.951 11.505 5.141 17.735c-.687 5.292-3.948 10.188-8.566 12.862s-10.487 3.066-15.419 1.029c-6.373 7.141-18.309 7.888-25.954 2.708-.335-.227-3.053-2.731-3.12-2.703-4.93 2.032-10.794 1.638-15.408-1.034-4.618-2.674-7.878-7.571-8.566-12.862-.809-6.23 1.785-12.424 5.141-17.735s7.528-10.108 10.451-15.669c3.818-7.263 5.351-15.706 4.33-23.848z" fill="#b3dafe"/></g><g><path d="m294.513 372.817c-.689 5.288-3.941 10.187-8.561 12.861-4.27 2.474-9.598 2.993-14.278 1.447 2.305-2.754 3.841-6.146 4.3-9.698.878-6.735-1.926-13.43-5.558-19.167-3.622-5.737-8.132-10.925-11.295-16.932-1.079-2.054-1.989-4.196-2.725-6.398-3.189-9.539 4.07-19.374 14.128-19.374h4.073c-1.028 8.142.509 16.593 4.33 23.856 2.913 5.557 7.094 10.357 10.446 15.665 3.354 5.308 5.948 11.504 5.14 17.74z" fill="#8ac9fe"/></g><g><path d="m223.874 446.23c-16.99 3.253-30.121 9.177-37.922 13.422-4.842-11.188-12.148-33.544-2.679-50.732 1.404-2.549 4.352-3.839 7.167-3.103 8.034 2.101 24.436 10.083 33.434 40.413z" fill="#fef1da"/></g><g><path d="m288.949 446.625c5.382 1.031 10.506 2.255 15.067 3.683 9.837 3.081 17.525 6.839 22.855 9.739 4.842-11.188 12.148-33.544 2.679-50.732-1.404-2.549-4.352-3.839-7.167-3.103-8.034 2.1-24.437 10.083-33.434 40.413z" fill="#fef1da"/></g><g><path d="m223.873 446.231c-6.426 1.227-12.282 2.834-17.521 4.6-6.595-21.97-17.072-32.118-25.363-36.807.618-1.746 1.367-3.452 2.285-5.108 1.407-2.544 4.35-3.831 7.164-3.103 8.032 2.104 24.435 10.086 33.435 40.418z" fill="#fae2c0"/></g><g><path d="m326.87 460.05c-3.991-2.175-9.299-4.829-15.844-7.314 4.28-10.646 9.349-28.366 3.801-43.472 2.893-1.596 5.498-2.514 7.553-3.053 2.814-.738 5.767.549 7.174 3.103 9.469 17.191 2.155 39.541-2.684 50.736z" fill="#fae2c0"/></g><g><path d="m433.382 137.404c6.126-6.269 9.907-14.84 9.907-24.298 0-19.207-15.57-34.777-34.777-34.777-8.74 0-16.72 3.231-22.83 8.555-3.18-15.928-17.236-27.932-34.1-27.932-12.151 0-22.84 6.236-29.059 15.678-4.589-13.84-17.628-23.828-33.008-23.828-15.993 0-29.455 10.799-33.516 25.5-4.061-14.701-17.523-25.5-33.516-25.5-15.38 0-28.419 9.988-33.008 23.828-6.218-9.442-16.908-15.678-29.059-15.678-16.863 0-30.92 12.004-34.1 27.932-6.109-5.324-14.09-8.555-22.83-8.555-19.207 0-34.777 15.57-34.777 34.777 0 9.458 3.781 18.029 9.907 24.298-12.781 5.142-21.807 17.647-21.807 32.267 0 19.207 15.57 34.777 34.777 34.777 16.992 0 31.129-12.189 34.165-28.299 5.704 4.093 12.691 6.51 20.247 6.51 14.894 0 27.595-9.366 32.551-22.526 6.353 6.874 15.442 11.182 25.54 11.182 9.985 0 18.982-4.213 25.324-10.953 6.343 6.739 15.338 10.953 25.322 10.953.423 0 .842-.02 1.261-.035.42.015.838.035 1.261.035 9.985 0 18.98-4.214 25.322-10.953 6.342 6.74 15.339 10.953 25.324 10.953 10.098 0 19.187-4.308 25.54-11.182 4.956 13.161 17.657 22.526 32.551 22.526 7.556 0 14.543-2.417 20.247-6.51 3.036 16.11 17.173 28.299 34.165 28.299 19.207 0 34.777-15.57 34.777-34.777.005-14.62-9.021-27.125-21.801-32.267z" fill="#554e56"/></g><g><path d="m433.38 137.407c6.66-6.823 10.549-16.358 9.82-26.798-1.232-17.648-15.904-31.718-33.587-32.262-5.863-.181-11.407 1.09-16.303 3.485 16.024 3.113 28.117 17.221 28.117 34.143 0 5.776-1.41 11.222-3.904 16.013-2.371 4.557-1.169 10.246 2.83 13.469 7.908 6.374 12.966 16.134 12.966 27.08 0 13.739-7.972 25.622-19.536 31.269 3.328.65 6.825.82 10.415.435 16.999-1.824 30.285-16.067 30.964-33.15.606-15.231-8.59-28.38-21.782-33.684z" fill="#433f43"/></g><g><path d="m298.775 97.471c-7.229-36.926-29.921-74.155-38.976-87.944-1.79-2.725-5.782-2.726-7.573-.001-9.061 13.788-31.773 51.02-39.002 87.948-1.329 6.789 2.464 13.503 8.954 15.899 23.093 8.526 44.595 8.509 67.643 0 6.491-2.396 10.283-9.112 8.954-15.902z" fill="#fef1da"/></g><g><path d="m289.824 113.372c-5.248 1.936-10.416 3.442-15.545 4.49 3.153-3.213 4.659-7.852 3.742-12.532-6.276-32.058-24.215-64.345-34.762-81.327 3.552-6.056 6.695-11.005 8.97-14.477 1.786-2.724 5.777-2.724 7.573 0 9.049 13.789 31.748 51.015 38.972 87.942 1.327 6.794-2.465 13.509-8.95 15.904z" fill="#fae2c0"/></g><g><circle cx="173.616" cy="300.01" fill="#fef1da" r="35.645"/></g><g><path d="m209.265 300.011c0 19.686-15.964 35.64-35.65 35.64-12.522 0-23.537-6.455-29.893-16.223 3.752 1.337 7.782 2.065 11.993 2.065 19.686 0 35.64-15.964 35.64-35.65 0-7.164-2.115-13.829-5.747-19.416 13.79 4.928 23.657 18.109 23.657 33.584z" fill="#fae2c0"/></g><g><circle cx="338.384" cy="300.01" fill="#fef1da" r="35.645"/></g><g><path d="m374.024 300.011c0 19.686-15.954 35.64-35.64 35.64-12.522 0-23.547-6.455-29.903-16.233 3.751 1.347 7.792 2.075 12.003 2.075 19.686 0 35.64-15.964 35.64-35.65 0-7.164-2.115-13.829-5.747-19.406 13.789 4.918 23.647 18.099 23.647 33.574z" fill="#fae2c0"/></g><g><path d="m369.59 217.331c5.287 9.952 3.938 18.72-3.064 27.295-15.578 19.077-40.91 27.74-64.654 30.233-11.137 1.169-12.76-11.699-6.285-18.076 16.506-16.255 31.897-33.733 51.425-46.721 8.933-5.942 17.804-1.635 22.513 7.146.021.041.043.082.065.123z" fill="#554e56"/></g><g><path d="m366.531 244.626c-5.767 7.064-12.871 12.701-20.743 17.111.668-.728 1.307-1.477 1.926-2.235 6.994-8.581 8.351-17.341 3.063-27.298-.02-.04-.05-.08-.07-.12-4.709-8.78-13.579-13.091-22.509-7.144-.289.19-.579.389-.858.579 6.186-5.547 12.661-10.796 19.676-15.455 8.93-5.947 17.8-1.636 22.509 7.144.02.04.04.08.07.12 5.287 9.957 3.93 18.727-3.064 27.298z" fill="#433f43"/></g><g><path d="m142.41 217.331c-5.287 9.952-3.939 18.72 3.064 27.295 15.578 19.077 40.91 27.74 64.654 30.233 11.137 1.169 12.76-11.699 6.285-18.076-16.506-16.255-31.897-33.733-51.425-46.721-8.933-5.942-17.804-1.635-22.513 7.146-.021.041-.043.082-.065.123z" fill="#554e56"/></g><g><path d="m210.134 274.857c-17.979-1.886-36.857-7.313-51.733-18.109 9.03 2.335 18.199 3.921 27.209 4.879 16.004 1.706 18.339-17.071 9.03-26.371-2.085-2.085-4.151-4.181-6.216-6.286 9.608 8.97 18.618 18.588 27.987 27.817 6.474 6.377 4.857 19.238-6.277 18.07z" fill="#433f43"/></g><g><path d="m171.81 468.99c2.432 3.333 7.11 4.063 10.449 1.639.026-.019 2.599-1.877 7.27-4.405 7.504-4.083 19.798-9.59 35.758-12.646 6.299-1.211 12.753-1.942 19.185-2.175 22.241-.065 42.242.461 61.727 7.538 6.348 2.307 12.267 5.001 17.596 8.009 1.234.696 5.302 3.227 5.991 3.71 1.322.95 2.849 1.407 4.361 1.407 2.327 0 4.621-1.083 6.082-3.116 2.413-3.356 1.647-8.032-1.709-10.444-.436-.313-1.336-.896-2.372-1.55 4.963-13.62 9.36-34.184-.044-51.255-3.066-5.566-9.488-8.334-15.615-6.731-9.542 2.495-26.417 10.943-36.669 39.317-12.746-1.705-25.739-1.894-39.517-1.851-.079 0-.159.002-.239.004-5.04.177-10.091.646-15.088 1.364-10.255-28.308-27.11-36.736-36.644-39.229-6.127-1.605-12.547 1.166-15.615 6.732-9.37 17.009-5.037 37.489-.096 51.111-1.924 1.205-3.01 1.991-3.2 2.13-3.326 2.441-4.043 7.108-1.611 10.441zm151.593-55.294c5.745 11.322 2.751 26.009-.555 35.929-4.715-2.21-9.475-4.091-14.358-5.716-3.195-1.063-6.437-2.021-9.694-2.822 4.044-10.055 11.707-23.522 24.607-27.391zm-133.984-.395c12.928 3.879 20.597 17.395 24.633 27.456-.177.045-.346.094-.522.14-4.781 1.24-9.573 2.742-14.214 4.481-2.986 1.119-5.932 2.343-8.834 3.665-.162.074-.336.149-.496.223-3.31-9.919-6.319-24.63-.567-35.965z"/><path d="m470.342 322.457c-1.621-3.327-3.732-6.381-5.775-9.335-3.3-4.772-6.416-9.28-6.444-13.508-.019-2.84 1.123-5.713 2.447-9.041 2.034-5.114 4.565-11.479 3.209-19.511-1.986-11.766-9.693-20.616-20.616-23.676-11.53-3.231-22.309 1.109-30.811 8.107-.056-1.91-.092-3.814-.081-5.705.075-13.409 1.831-26.178 5.133-37.967.995.071 1.998.109 3.008.109 23.302 0 42.26-18.958 42.26-42.26 0-14.071-6.845-26.856-18.026-34.639 3.991-6.549 6.125-14.086 6.125-21.927 0-.73-.018-1.455-.055-2.176-.209-4.127-3.735-7.306-7.852-7.094-4.127.209-7.304 3.725-7.094 7.852.024.47.036.943.036 1.418 0 7.165-2.761 13.937-7.776 19.068-1.745 1.786-2.485 4.325-1.971 6.769.513 2.444 2.213 4.47 4.53 5.403 10.398 4.183 17.117 14.124 17.117 25.325 0 15.05-12.244 27.293-27.294 27.293-13.111 0-24.386-9.337-26.812-22.202-.474-2.513-2.197-4.61-4.571-5.56-2.372-.95-5.067-.624-7.146.866-4.656 3.341-10.149 5.107-15.885 5.107-11.299 0-21.566-7.105-25.547-17.68-.914-2.428-3.021-4.209-5.568-4.707-2.547-.497-5.169.359-6.931 2.265-5.232 5.661-12.351 8.778-20.045 8.778-7.599 0-14.657-3.054-19.875-8.598-1.414-1.502-3.386-2.355-5.45-2.355-2.063 0-4.035.852-5.449 2.354-8.121 8.63-22.269 10.997-32.99 6.479-3.507-1.478-6.672-3.709-9.279-6.479-1.414-1.502-3.386-2.354-5.45-2.354-2.063 0-4.035.853-5.449 2.355-5.217 5.545-12.276 8.598-19.875 8.598-7.695 0-14.813-3.118-20.045-8.778-1.761-1.905-4.382-2.761-6.931-2.265-2.547.498-4.654 2.279-5.568 4.707-3.982 10.575-14.249 17.68-25.548 17.68-5.736 0-11.229-1.766-15.884-5.107-2.077-1.491-4.771-1.818-7.146-.867-2.374.95-4.097 3.047-4.571 5.56-2.425 12.865-13.701 22.202-26.812 22.202-15.05 0-27.294-12.244-27.294-27.293 0-11.201 6.719-21.142 17.117-25.325 2.317-.932 4.016-2.959 4.53-5.403s-.226-4.983-1.971-6.769c-5.015-5.132-7.776-11.903-7.776-19.068 0-15.05 12.244-27.293 27.294-27.293 6.583 0 12.945 2.384 17.914 6.714 2.012 1.753 4.804 2.302 7.33 1.441s4.402-3.001 4.924-5.618c2.534-12.698 13.789-21.914 26.761-21.914 9.205 0 17.732 4.602 22.809 12.311 1.578 2.395 4.389 3.677 7.228 3.303 2.843-.375 5.222-2.342 6.124-5.064 3.176-9.578 11.27-16.447 20.93-18.229-4.895 11.838-9.136 24.552-11.628 37.281-2.041 10.428 3.723 20.671 13.706 24.357 12.423 4.587 24.416 6.879 36.413 6.879 11.994 0 23.994-2.294 36.413-6.879 9.983-3.685 15.748-13.93 13.706-24.36-2.492-12.727-6.73-25.44-11.622-37.277 9.657 1.783 17.749 8.652 20.923 18.228.903 2.722 3.281 4.689 6.124 5.064 2.846.375 5.65-.908 7.228-3.303 5.077-7.709 13.605-12.311 22.81-12.311 12.972 0 24.226 9.216 26.761 21.914.522 2.617 2.399 4.757 4.924 5.618 2.526.861 5.319.311 7.33-1.442 4.968-4.329 11.33-6.713 17.914-6.713 4.355 0 8.514.993 12.361 2.951 3.683 1.874 8.189.409 10.064-3.274s.409-8.188-3.274-10.064c-5.886-2.996-12.508-4.579-19.151-4.579-6.606 0-13.068 1.55-18.892 4.463-6.93-14.268-21.593-23.84-38.037-23.84-10.165 0-19.794 3.62-27.33 10.023-7.748-11.195-20.603-18.174-34.737-18.174-.647 0-1.291.021-1.932.052-8.105-16.733-16.604-30.45-21.529-37.95-2.223-3.391-5.977-5.418-10.038-5.418-4.057 0-7.811 2.025-10.039 5.416-4.929 7.5-13.436 21.22-21.548 37.955-.644-.031-1.291-.053-1.941-.053-14.134 0-26.989 6.979-34.737 18.173-7.536-6.402-17.164-10.022-27.33-10.022-16.444 0-31.108 9.573-38.038 23.84-5.824-2.913-12.286-4.463-18.891-4.463-23.302 0-42.26 18.958-42.26 42.26 0 7.841 2.135 15.378 6.125 21.928-11.18 7.782-18.025 20.567-18.025 34.638 0 23.302 18.958 42.26 42.26 42.26.998 0 1.988-.038 2.971-.107 3.303 11.79 5.067 24.555 5.142 37.965.01 1.883-.025 3.781-.081 5.683-8.498-6.984-19.265-11.312-30.784-8.085-10.922 3.06-18.629 11.911-20.616 23.676-1.356 8.032 1.176 14.396 3.209 19.51 1.323 3.328 2.466 6.201 2.447 9.042-.028 4.228-3.145 8.736-6.444 13.508-2.042 2.954-4.154 6.008-5.775 9.334-7.114 14.604-7.105 29.314.025 41.421 6.949 11.801 21.491 20.144 35.401 20.864 1.395 11.531 4.302 23.024 8.724 34.22 1.519 3.844 5.865 5.726 9.709 4.211 3.844-1.518 5.729-5.866 4.211-9.709-11.513-29.143-11.52-60.481-.021-88.241 9.929-23.97 15.102-50.083 14.96-75.516-.081-14.611-1.983-28.594-5.581-41.572 9.249-4.214 16.79-11.677 21.03-21.081 5.004 2.036 10.373 3.09 15.886 3.09 14.037 0 27.046-7.084 34.824-18.342 6.853 4.514 14.952 6.997 23.267 6.997 9.15 0 18.062-3.019 25.325-8.445.085-.064 5.346 3.409 5.917 3.704 2.218 1.147 4.537 2.098 6.921 2.839 13.449 4.179 29.002 1.921 40.329-6.543 7.262 5.427 16.174 8.445 25.325 8.445 8.315 0 16.415-2.483 23.267-6.997 7.777 11.258 20.787 18.342 34.824 18.342 5.513 0 10.882-1.053 15.886-3.09 4.237 9.398 11.772 16.858 21.014 21.074-3.605 12.979-5.513 26.963-5.595 41.579-.142 25.433 5.032 51.546 14.96 75.516 9.995 24.13 11.348 50.638 3.913 76.657-7.209 25.231-22.493 48.05-43.035 64.256-16.352 12.901-35.531 20.945-62.185 26.084-16.57 3.195-34.168 4.815-52.304 4.815h-5.335c-18.136 0-35.734-1.62-52.304-4.815-26.654-5.138-45.833-13.183-62.185-26.084-8.365-6.599-15.888-14.291-22.336-22.829l-.677-.906c-2.472-3.311-7.162-3.991-10.473-1.518s-3.991 7.162-1.518 10.473l.701.938c7.242 9.59 15.665 18.201 25.034 25.592 18.083 14.266 39.888 23.49 68.622 29.029 17.502 3.375 36.053 5.086 55.138 5.086h5.335c19.084 0 37.635-1.711 55.137-5.086 28.734-5.539 50.539-14.764 68.622-29.029 22.988-18.135 40.089-43.668 48.155-71.894 2.018-7.063 3.454-14.16 4.322-21.248 13.917-.711 28.474-9.057 35.428-20.865 7.128-12.109 7.137-26.82.022-41.423zm-249.774-223.545c6.374-32.565 25.349-65.572 35.443-81.455 10.086 15.882 29.045 48.887 35.42 81.452.624 3.185-1.143 6.315-4.201 7.445-21.307 7.866-41.154 7.866-62.46 0-3.058-1.13-4.825-4.26-4.202-7.442zm-134.688 220.583c-6.617 15.975-9.863 32.976-9.753 50.143-8.404-1.067-17.509-6.494-21.549-13.354-6.072-10.31-2.272-21.512.534-27.271 1.123-2.305 2.827-4.77 4.631-7.378 4.237-6.129 9.04-13.076 9.1-21.918.039-5.759-1.844-10.495-3.506-14.673-1.686-4.239-3.017-7.586-2.358-11.487 1.012-5.993 4.619-10.279 9.896-11.757 1.263-.354 2.521-.517 3.768-.517 8.693 0 16.761 7.913 21.236 14.163-2.174 15.084-6.246 30.159-11.999 44.049zm371.542 36.788c-4.041 6.861-13.146 12.281-21.55 13.352.126-17.182-3.143-34.114-9.78-50.14-5.75-13.882-9.821-28.948-11.995-44.024 5.109-7.146 14.947-16.499 25.029-13.672 5.278 1.478 8.885 5.763 9.896 11.756.659 3.902-.672 7.25-2.358 11.489-1.662 4.178-3.545 8.913-3.506 14.672.06 8.841 4.863 15.788 9.1 21.917 1.804 2.609 3.507 5.073 4.631 7.379 2.805 5.759 6.605 16.961.533 27.271z"/><path d="m220.808 344.54c-1.502 2.083-3.054 4.238-4.508 6.538-5.055 7.998-7.154 15.635-6.236 22.697.993 7.642 5.567 14.511 12.236 18.374 5.24 3.035 11.451 4.023 17.323 2.881.292.243.512.409.758.575 4.628 3.136 10.121 4.654 15.578 4.654 5.912 0 11.781-1.782 16.461-5.222 5.862 1.133 12.053.139 17.282-2.89 6.669-3.863 11.243-10.732 12.236-18.374.917-7.063-1.181-14.699-6.237-22.697-1.454-2.301-3.007-4.455-4.509-6.54-2.122-2.945-4.126-5.726-5.644-8.613-3.106-5.909-4.36-12.811-3.529-19.435.514-4.101-2.394-7.842-6.494-8.356-4.106-.513-7.842 2.394-8.356 6.494-1.207 9.632.615 19.669 5.132 28.26 2.008 3.819 4.418 7.164 6.749 10.399 1.434 1.99 2.789 3.87 4 5.786 3.14 4.967 4.502 9.265 4.046 12.772-.385 2.966-2.307 5.852-4.896 7.351-2.588 1.5-6.048 1.73-8.813.588-2.937-1.212-6.322-.438-8.439 1.934-3.563 3.994-11.074 4.751-15.926 1.658-.263-.227-.644-.569-1.025-.909-2.12-1.891-5.022-4.48-9.392-2.68-2.764 1.139-6.22.906-8.805-.59-2.589-1.5-4.51-4.385-4.896-7.351-.456-3.508.906-7.805 4.046-12.772 1.211-1.916 2.566-3.796 4-5.785 2.331-3.235 4.742-6.581 6.75-10.4 4.517-8.592 6.339-18.629 5.131-28.26-.514-4.101-4.253-7.006-8.356-6.494-4.101.515-7.008 4.255-6.494 8.356.831 6.624-.423 13.526-3.528 19.434-1.518 2.89-3.523 5.672-5.645 8.617z"/><ellipse cx="173.616" cy="300.01" rx="15.161" ry="15.161" transform="matrix(.16 -.987 .987 .16 -150.33 423.328)"/><ellipse cx="338.384" cy="300.01" rx="15.161" ry="15.161" transform="matrix(.924 -.383 .383 .924 -89.051 152.33)"/><path d="m372.322 249.358c9.149-11.203 10.453-23.16 3.877-35.539-.004-.007-.008-.015-.012-.022l-.067-.126c-3.703-6.904-9.306-11.601-15.777-13.225-5.882-1.475-11.926-.305-17.475 3.385-16.007 10.646-29.299 24.14-42.152 37.19-3.392 3.443-6.899 7.004-10.379 10.431-5.854 5.765-7.693 15.054-4.372 22.086 2.475 5.241 7.239 8.385 13.106 8.821-2.435 5.393-3.813 11.36-3.813 17.651 0 23.781 19.347 43.128 43.127 43.128 23.781 0 43.128-19.347 43.128-43.128 0-16.359-9.162-30.606-22.618-37.913 5.092-3.794 9.598-8.049 13.427-12.739zm-5.777 50.652c0 15.528-12.633 28.161-28.162 28.161-15.528 0-28.161-12.633-28.161-28.161 0-8.003 3.361-15.232 8.74-20.364 8.209-1.843 15.873-4.389 22.887-7.577 13.899 1.715 24.696 13.587 24.696 27.941zm-5.815-60.117c-16.523 20.234-44.458 25.93-59.639 27.524-.974.102-1.426-.057-1.493-.104-.08-.073-.307-.519-.323-1.311-.03-1.396.584-2.922 1.563-3.886 3.561-3.506 7.109-7.108 10.54-10.591 12.887-13.083 25.06-25.441 39.779-35.231 1.501-.999 2.898-1.492 4.234-1.492.442 0 .879.054 1.31.162 2.298.576 4.568 2.684 6.228 5.779l.057.105c3.72 7.007 3.067 12.526-2.256 19.045z"/><path d="m130.489 300.01c0 23.781 19.347 43.128 43.127 43.128 23.781 0 43.128-19.347 43.128-43.128 0-6.289-1.363-12.262-3.796-17.653 5.859-.441 10.617-3.583 13.089-8.819 3.321-7.032 1.482-16.321-4.373-22.086-3.479-3.427-6.987-6.987-10.378-10.431-12.854-13.049-26.146-26.543-42.153-37.19-5.549-3.691-11.591-4.862-17.475-3.385-6.471 1.624-12.075 6.32-15.779 13.228l-.077.145c-6.576 12.378-5.272 24.335 3.877 35.539 3.826 4.686 8.329 8.939 13.417 12.73-13.454 7.309-22.607 21.565-22.607 37.922zm20.781-60.117c-5.324-6.521-5.976-12.04-2.251-19.051.006-.013.045-.085.051-.097 1.661-3.098 3.932-5.205 6.23-5.781.431-.108.867-.162 1.31-.162 1.336 0 2.733.494 4.234 1.492 14.719 9.79 26.892 22.148 39.779 35.231 3.431 3.483 6.979 7.085 10.539 10.591.98.965 1.593 2.49 1.563 3.886-.017.792-.243 1.238-.323 1.31-.068.048-.518.207-1.494.105-15.179-1.594-43.115-7.29-59.638-27.524zm18.881 32.176c7.014 3.188 14.678 5.734 22.887 7.577 5.378 5.132 8.74 12.36 8.74 20.364 0 15.528-12.633 28.161-28.162 28.161-15.528 0-28.161-12.633-28.161-28.161 0-14.354 10.798-26.226 24.696-27.941z"/></g></g></svg>