<svg id="Capa_1" enable-background="new 0 0 512 512" height="512" viewBox="0 0 512 512" width="512" xmlns="http://www.w3.org/2000/svg"><g><g><path d="m504.095 504.514h-496.466v-70.876c0-4.533 3.675-8.208 8.208-8.208h480.05c4.533 0 8.208 3.675 8.208 8.208z" fill="#d1f19e"/></g><g><path d="m493.244 425.429h-474.765c-5.993 0-10.851-4.858-10.851-10.85v-10.688c0-5.993 4.858-10.851 10.851-10.851h474.765c5.993 0 10.851 4.858 10.851 10.851v10.688c0 5.992-4.858 10.85-10.851 10.85z" fill="#dc8758"/></g><g><path d="m504.09 433.633v70.881h-20.263v-70.881c0-4.532-3.673-8.205-8.215-8.205h20.273c4.532 0 8.205 3.673 8.205 8.205z" fill="#bbec6c"/></g><g><path d="m504.09 403.887v10.691c0 5.999-4.851 10.85-10.85 10.85h-20.263c5.989 0 10.85-4.851 10.85-10.85v-10.691c0-5.989-4.861-10.85-10.85-10.85h20.263c5.999 0 10.85 4.861 10.85 10.85z" fill="#c86d36"/></g><g><path d="m135.314 302.064c-1.412 0-2.796.12-4.146.34-1.946-24.14-22.14-43.128-46.781-43.128s-44.835 18.988-46.781 43.128c-1.35-.22-2.734-.34-4.146-.34-14.114 0-25.555 11.441-25.555 25.555s11.441 25.555 25.555 25.555c8.642 0 16.277-4.294 20.902-10.861 8.139 6.779 18.605 10.861 30.025 10.861s21.886-4.082 30.025-10.861c4.625 6.567 12.26 10.861 20.902 10.861 14.114 0 25.555-11.441 25.555-25.555s-11.441-25.555-25.555-25.555z" fill="#fef1da"/></g><g><path d="m160.802 329.425c-.855 12.448-10.861 22.611-23.295 23.652-9.526.797-18.078-3.648-23.099-10.768-8.135 6.788-18.596 10.86-30.025 10.86-11.419 0-21.88-4.073-30.025-10.86-5.015 7.127-13.578 11.574-23.128 10.766-14.342-1.213-25.004-14.477-23.113-28.746.008-.062.017-.125.026-.187 4.591 4.432 10.85 7.167 17.738 7.167 6.297 0 12.059-2.278 16.51-6.053 2.863-2.428 6.936-2.646 10.147-.701 7.084 4.29 15.387 6.754 24.271 6.754 8.882 0 17.19-2.464 24.271-6.752 3.212-1.945 7.285-1.728 10.148.701 4.451 3.775 10.212 6.052 16.508 6.052 12.936 0 23.617-9.602 25.314-22.07 5.22 5.014 8.298 12.242 7.752 20.185z" fill="#fae2c0"/></g><g><circle cx="320.582" cy="119.585" fill="#fee97d" r="112.098"/></g><g><path d="m432.68 119.584c0 61.907-50.189 112.096-112.096 112.096-24.545 0-47.244-7.886-65.701-21.271 14.583 6.947 30.914 10.84 48.152 10.84 61.907 0 112.096-50.188 112.096-112.096 0-37.352-18.267-70.432-46.346-90.795 37.783 18.017 63.895 56.577 63.895 101.226z" fill="#fedf30"/></g><g><path d="m223.949 198.659c-70.971 86.67-198.842 194.381-198.842 194.381h230.456 230.457s-127.871-107.711-198.842-194.382c-16.359-19.977-46.87-19.977-63.229.001z" fill="#b3dafe"/></g><g><path d="m486.023 393.037h-26.582s-127.867-107.704-198.838-194.376c-5.041-6.159-11.419-10.421-18.327-12.787 15.492-5.3 33.579-1.038 44.898 12.787 70.972 86.672 198.849 194.376 198.849 194.376z" fill="#8ac9fe"/></g><g><path d="m364.392 281.811c-4.336 3.162-8.108 6.74-16.66 6.74-15.32 0-15.32-11.474-30.64-11.474-15.311 0-15.311 11.474-30.631 11.474-15.311 0-15.311-11.474-30.631-11.474s-15.32 11.473-30.63 11.473c-15.32 0-15.32-11.474-30.631-11.474-15.32 0-15.32 11.474-30.631 11.474-8.756 0-12.5-3.754-16.975-6.971 27.459-27.099 54.965-56.028 76.988-82.924 16.355-19.97 46.866-19.97 63.221 0 22.089 26.979 49.687 55.983 77.22 83.156z" fill="#fef1da"/></g><g><path d="m364.394 281.809c-4.342 3.164-8.115 6.738-16.66 6.738-1.168 0-2.246-.07-3.244-.19-29.716-29.017-60.021-60.54-83.887-89.697-5.041-6.149-11.409-10.411-18.327-12.787.1-.03.19-.07.29-.09 8.303-2.788 17.691-2.785 25.992 0 6.808 2.284 13.951 7.204 18.616 12.876 9.933 12.078 20.246 23.832 30.854 35.346 7.127 7.736 14.484 15.502 21.96 23.208 2.715 2.805 5.45 5.6 8.195 8.385 5.381 5.461 10.801 10.871 16.211 16.211z" fill="#fae2c0"/></g><g><path d="m472.781 125.989c-1.746 0-3.456.148-5.125.42-2.406-29.842-27.368-53.314-57.83-53.314-30.461 0-55.424 23.472-57.83 53.314-1.669-.272-3.379-.42-5.125-.42-17.447 0-31.591 14.144-31.591 31.591s14.144 31.59 31.591 31.59c10.683 0 20.121-5.308 25.838-13.426 10.062 8.38 22.999 13.426 37.117 13.426s27.055-5.045 37.117-13.426c5.717 8.117 15.155 13.426 25.838 13.426 17.447 0 31.59-14.144 31.59-31.59 0-17.448-14.143-31.591-31.59-31.591z" fill="#fef1da"/></g><g><path d="m504.333 159.108c-.754 15.967-13.649 29.04-29.605 30.001-11.477.691-21.719-4.761-27.784-13.367-10.062 8.385-22.998 13.426-37.122 13.426-14.114 0-27.051-5.041-37.112-13.426-5.72 8.115-15.152 13.426-25.833 13.426-17.448 0-31.592-14.144-31.592-31.593 0-1.577.12-3.124.339-4.641 5.63 8.654 15.382 14.374 26.482 14.374 7.997 0 15.295-2.977 20.858-7.88 3.152-2.778 7.827-3.126 11.39-.9 8.905 5.565 19.427 8.78 30.707 8.78 11.271 0 21.792-3.215 30.697-8.78 3.563-2.227 8.238-1.879 11.39.899 5.564 4.903 12.864 7.88 20.869 7.88 15.861 0 28.997-11.698 31.243-26.951 3.492 5.347 5.401 11.811 5.073 18.752z" fill="#fae2c0"/></g><g><path d="m493.244 385.554h-4.475c-11.36-9.676-67.546-57.954-122.759-112.724-.004.011-.008.021-.012.032-12.022-11.935-23.198-23.384-33.483-34.298 31.766-3.163 59.909-18.805 79.447-41.947 12.081-.396 23.829-4.141 33.876-10.749 7.203 6.852 16.838 10.788 26.942 10.788 21.548 0 39.077-17.53 39.077-39.077 0-21.099-16.81-38.346-37.739-39.055-2.641-13.548-9.507-25.938-19.766-35.452-7.435-6.896-16.25-11.883-25.768-14.723-3.95-8.353-8.845-16.271-14.669-23.532-2.587-3.226-7.299-3.744-10.524-1.156-3.226 2.587-3.743 7.299-1.156 10.524 2.942 3.668 5.611 7.485 8.003 11.433-.138-.001-.275-.01-.413-.01-16.571 0-32.384 6.202-44.527 17.463-10.258 9.514-17.125 21.904-19.766 35.453-20.929.709-37.739 17.956-37.739 39.055 0 21.547 17.53 39.077 39.077 39.077 10.105 0 19.739-3.936 26.942-10.788 6.029 3.965 12.67 6.898 19.628 8.697-18.851 18.324-44.557 29.631-72.86 29.631-.463 0-.923-.013-1.384-.019-9.708-10.682-18.478-20.793-26.233-30.265-9.224-11.262-22.856-17.721-37.403-17.721-6.993 0-13.768 1.507-19.95 4.308-12.345-17.17-19.643-38.2-19.643-60.915 0-57.683 46.929-104.612 104.613-104.612 20.413 0 40.188 5.879 57.189 17.001 3.459 2.263 8.099 1.293 10.364-2.167 2.263-3.46 1.294-8.1-2.166-10.364-19.443-12.718-42.053-19.442-65.385-19.442-65.94 0-119.585 53.646-119.585 119.585 0 25.751 8.193 49.619 22.094 69.157-1.75 1.592-3.406 3.309-4.931 5.171-18.927 23.113-73.734 79.612-73.739 79.603-3.498 3.466-6.999 6.904-10.491 10.309-8.631-18.906-27.784-32.036-49.542-32.036-25.714 0-47.817 18.324-53.18 42.864-17.173 1.162-30.789 15.503-30.789 32.965 0 18.219 14.823 33.041 33.041 33.041 8.162 0 15.959-3.036 21.949-8.358.983.618 1.991 1.191 3.01 1.743-17.912 15.968-31.161 27.333-36.062 31.508h-3.878c-10.11 0-18.337 8.226-18.337 18.337v10.689c0 3.663 1.091 7.07 2.948 9.936-1.848 2.574-2.948 5.719-2.948 9.122v70.876c0 4.135 3.351 7.486 7.486 7.486h43.047c4.135 0 7.486-3.352 7.486-7.486s-3.351-7.486-7.486-7.486h-35.56v-63.39c0-.398.324-.721.721-.721h480.05c.398 0 .721.324.721.721v63.39h-410.572c-4.135 0-7.486 3.352-7.486 7.486s3.351 7.488 7.486 7.488h418.06c4.135 0 7.486-3.352 7.486-7.486v-70.876c0-3.403-1.101-6.548-2.948-9.122 1.857-2.866 2.948-6.274 2.948-9.936v-10.689c0-10.111-8.226-18.337-18.337-18.337zm-115.743-215.563c-1.606-1.337-3.693-1.941-5.772-1.669-2.072.274-3.936 1.402-5.14 3.111-4.521 6.419-11.891 10.25-19.717 10.25-13.291 0-24.105-10.813-24.105-24.104s10.813-24.105 24.105-24.105c1.288 0 2.606.109 3.919.323 2.064.337 4.175-.204 5.821-1.494 1.646-1.289 2.679-3.208 2.846-5.293 2.099-26.035 24.223-46.429 50.368-46.429s48.269 20.394 50.367 46.429c.168 2.085 1.2 4.004 2.846 5.293 1.646 1.29 3.763 1.831 5.821 1.494 1.312-.214 2.631-.323 3.919-.323 13.291 0 24.105 10.813 24.105 24.105s-10.813 24.104-24.105 24.104c-7.825 0-15.196-3.832-19.717-10.25-1.204-1.709-3.068-2.837-5.14-3.111-.328-.043-.655-.064-.981-.064-1.74 0-3.438.607-4.791 1.734-9.053 7.54-20.532 11.692-32.325 11.692s-23.272-4.153-32.324-11.693zm-147.757 33.408c6.367-7.775 15.778-12.235 25.818-12.235s19.451 4.459 25.818 12.234c18.402 22.477 42.269 48.372 71.013 77.053-1.294.4-2.775.613-4.662.613-5.167 0-7.299-1.597-10.832-4.243-4.075-3.052-9.655-7.231-19.808-7.231-10.148 0-15.726 4.179-19.799 7.23-3.533 2.646-5.664 4.243-10.832 4.243-5.161 0-7.292-1.596-10.822-4.241-4.075-3.053-9.654-7.233-19.809-7.233-10.154 0-15.734 4.18-19.809 7.233-3.531 2.645-5.661 4.241-10.822 4.241-5.167 0-7.299-1.597-10.832-4.243-4.073-3.052-9.651-7.23-19.799-7.23-10.154 0-15.734 4.18-19.809 7.233-3.531 2.645-5.661 4.241-10.822 4.241-2.089 0-3.681-.262-5.071-.749 28.632-28.565 52.453-54.413 70.879-76.916zm-176.363 131.492c-2.072.274-3.936 1.402-5.14 3.111-3.389 4.813-8.915 7.686-14.781 7.686-9.963 0-18.069-8.105-18.069-18.069s8.105-18.069 18.069-18.069c.967 0 1.956.081 2.94.242 2.063.337 4.174-.205 5.821-1.494 1.646-1.29 2.679-3.208 2.846-5.293 1.639-20.323 18.909-36.243 39.319-36.243 17.684 0 33.003 11.955 37.847 28.368-18.429 17.67-36.244 34.092-51.688 48.036-4.116-1.54-7.977-3.761-11.393-6.606-1.605-1.337-3.694-1.943-5.771-1.669zm94.288-43.568c3.788 2.476 8.69 4.714 16.269 4.714 10.148 0 15.726-4.179 19.799-7.23 3.533-2.646 5.664-4.243 10.832-4.243 5.161 0 7.291 1.596 10.822 4.241 4.075 3.053 9.654 7.233 19.809 7.233 10.148 0 15.726-4.179 19.799-7.23 3.533-2.646 5.665-4.243 10.832-4.243s7.299 1.597 10.832 4.243c4.073 3.052 9.651 7.23 19.799 7.23 10.154 0 15.734-4.18 19.809-7.233 3.531-2.645 5.661-4.241 10.822-4.241 5.167 0 7.299 1.597 10.832 4.243 4.075 3.052 9.655 7.231 19.808 7.231 7.367 0 12.199-2.114 15.942-4.504 40.885 40.038 81.007 75.63 102.158 94.021h-420.538c21.189-18.424 61.414-54.108 102.374-94.232zm348.939 123.256c0 1.855-1.509 3.364-3.364 3.364h-474.765c-1.855 0-3.364-1.509-3.364-3.364v-10.689c0-1.855 1.509-3.364 3.364-3.364h474.765c1.855 0 3.364 1.509 3.364 3.364z"/><path d="m170.14 465.303c4.135 0 7.486-3.352 7.486-7.486 0-4.135-3.351-7.486-7.486-7.486h-89.257c-4.135 0-7.486 3.352-7.486 7.486 0 4.135 3.351 7.486 7.486 7.486z"/><path d="m375.817 480.179c4.135 0 7.486-3.352 7.486-7.486s-3.351-7.486-7.486-7.486h-89.257c-4.135 0-7.486 3.352-7.486 7.486s3.351 7.486 7.486 7.486z"/><path d="m433.381 480.179c4.135 0 7.486-3.352 7.486-7.486s-3.351-7.486-7.486-7.486h-23.285c-4.135 0-7.486 3.352-7.486 7.486s3.351 7.486 7.486 7.486z"/></g></g></svg>