<svg id="Capa_1" enable-background="new 0 0 511.996 511.996" height="512" viewBox="0 0 511.996 511.996" width="512" xmlns="http://www.w3.org/2000/svg"><g><g><path d="m276.811 111.777h-41.626l-8.98 63.91h59.585z" fill="#7a6d79"/></g><g><path d="m285.791 175.689h-19.969l-8.976-63.91h19.969z" fill="#685e68"/></g><g><g><path d="m137.732 107.831h-45.79l-11.56 396.677h68.91z" fill="#fe7d43"/></g><g><path d="m420.054 107.831h-45.79l-11.56 396.677h68.909z" fill="#fe7d43"/></g></g><g><path d="m149.295 504.512h-21.326l-11.562-396.677h21.327z" fill="#fd6930"/></g><g><path d="m431.612 504.512h-21.327l-11.561-396.677h21.326z" fill="#fd6930"/></g><g><path d="m147.269 419.575 2.476 84.937h-68.612l2.476-84.937z" fill="#7a6d79"/></g><g><path d="m149.295 504.512h-21.326l-2.476-84.937h21.326z" fill="#685e68"/></g><g><path d="m430.863 504.512h-68.612l2.476-84.937h63.66z" fill="#7a6d79"/></g><g><path d="m430.863 504.512h-20.578l-2.476-84.937h20.578z" fill="#685e68"/></g><g><path d="m453.938 62.163v32.067c0 4.824-3.414 8.968-8.15 9.886-43.192 8.368-101.523 14.191-142.068 17.547-31.768 2.643-63.678 2.643-95.446 0-40.544-3.356-98.876-9.179-142.068-17.547-4.736-.917-8.15-5.062-8.15-9.886v-32.067c18.181 3.345 36.401 6.253 54.023 8.773.047.009.095.019.133.019 14.801 2.412 32.099 4.292 51.349 6.538.639.075 1.658.184 2.301.258 8.488.975 16.975 1.826 25.484 2.526 42.284 3.478 84.345 3.405 126.559.223 9.449-.712 18.839-1.67 28.28-2.755 4.129-.475 41.457-4.812 53.595-6.79.038 0 .085-.01.133-.019 17.624-2.52 35.844-5.428 54.025-8.773z" fill="#fd9468"/></g><g><path d="m453.937 62.167v32.059c0 4.823-3.415 8.976-8.147 9.884-5.521 1.068-11.292 2.107-17.243 3.095 3.265-1.867 5.421-5.611 5.421-9.815v-31.72c6.64-1.107 13.309-2.275 19.969-3.503z" fill="#fe7d43"/></g><g><path d="m110.9 23.461c-36.755-6.253-65.249-12.406-79.883-15.744-5.57-1.27-10.873 2.96-10.873 8.673v30.914c0 4.202 2.943 7.817 7.05 8.703 49.839 10.746 102.835 17.894 145.259 22.466 55.539 5.985 111.551 5.985 167.09 0 42.424-4.572 95.42-11.72 145.259-22.466 4.107-.886 7.05-4.501 7.05-8.703v-30.914c0-5.713-5.303-9.943-10.873-8.673-14.634 3.338-43.128 9.491-79.883 15.744-96.033 16.337-194.164 16.337-290.196 0z" fill="#7a6d79"/></g><g><path d="m491.847 16.389v30.911c0 4.203-2.935 7.818-7.049 8.706-5.381 1.158-10.793 2.276-16.224 3.355 2.037-1.727 3.305-4.373 3.305-7.289v-32.638c0-3.864-2.176-7.089-5.202-8.557 5.651-1.218 10.454-2.286 14.298-3.165 5.57-1.267 10.872 2.966 10.872 8.677z" fill="#685e68"/></g><g><path d="m472.497 213.957h-432.999c-4.058 0-7.349-3.29-7.349-7.349v-23.573c0-4.058 3.29-7.349 7.349-7.349h432.999c4.058 0 7.349 3.29 7.349 7.349v23.573c0 4.059-3.29 7.349-7.349 7.349z" fill="#fd9468"/></g><g><path d="m479.846 183.037v23.573c0 4.054-3.295 7.348-7.348 7.348h-19.969c4.054 0 7.348-3.295 7.348-7.348v-23.573c0-4.064-3.295-7.348-7.348-7.348h19.969c4.053 0 7.348 3.284 7.348 7.348z" fill="#fe7d43"/></g><path d="m493.172 3.581c-3.919-3.126-8.97-4.281-13.86-3.164-13.798 3.147-42.469 9.367-79.473 15.662-93.583 15.921-188.537 16.228-282.224.91-4.082-.668-7.931 2.1-8.598 6.182s2.101 7.931 6.182 8.598c95.323 15.584 191.935 15.272 287.153-.926 37.362-6.357 66.343-12.644 80.292-15.826.549-.122.949.079 1.19.271.242.193.529.54.529 1.101v30.914c0 .669-.469 1.238-1.14 1.383-41.659 8.982-90.269 16.499-144.483 22.341-54.903 5.917-110.581 5.917-165.485 0-54.213-5.842-102.824-13.358-144.483-22.341-.671-.145-1.139-.713-1.139-1.383v-30.913c0-.561.288-.909.529-1.101s.644-.393 1.19-.271c10.505 2.396 27.643 6.13 49.64 10.308l3.023.571c4.066.769 7.981-1.905 8.748-5.968.767-4.064-1.905-7.981-5.968-8.748l-3.015-.569c-21.768-4.136-38.714-7.827-49.097-10.195-4.888-1.116-9.94.038-13.86 3.164-3.919 3.126-6.167 7.795-6.167 12.81v30.914c0 7.666 5.45 14.404 12.96 16.023 8.065 1.739 16.389 3.422 24.953 5.051v25.851c0 8.393 5.978 15.642 14.214 17.238 6.213 1.204 12.737 2.353 19.462 3.451l-1.553 53.28h-43.193c-8.181 0-14.837 6.656-14.837 14.837v23.572c0 8.181 6.656 14.837 14.837 14.837h41.641l-8.243 282.844c-.059 2.023.703 3.984 2.114 5.435 1.41 1.452 3.348 2.271 5.371 2.271h68.909c2.024 0 3.962-.819 5.371-2.271 1.41-1.452 2.172-3.413 2.113-5.435l-8.242-282.844h214.928l-3.545 121.665c-.12 4.134 3.133 7.583 7.267 7.703 4.132.116 7.583-3.134 7.703-7.267l3.558-122.101h37.429l5.556 190.642h-48.54l.977-33.529c.12-4.134-3.133-7.582-7.267-7.703-4.113-.102-7.582 3.133-7.703 7.267l-3.676 126.167c-.059 2.023.703 3.984 2.113 5.435 1.41 1.452 3.348 2.271 5.371 2.271h68.909c2.024 0 3.962-.819 5.371-2.271 1.41-1.452 2.172-3.413 2.113-5.435l-8.243-282.844h41.642c8.181 0 14.837-6.656 14.837-14.837v-23.572c0-8.181-6.656-14.837-14.837-14.837h-43.194l-1.553-53.28c6.725-1.098 13.248-2.248 19.462-3.451 8.236-1.596 14.214-8.845 14.214-17.238v-25.853c8.564-1.628 16.888-3.312 24.952-5.05 7.51-1.619 12.961-8.357 12.961-16.023v-30.914c.002-5.015-2.246-9.683-6.166-12.809zm-405.08 493.438 2.79-69.955h48.661l2.039 69.955zm2.475-84.932 5.555-190.642h37.429l5.555 190.642zm279.847 84.932 2.039-69.955h48.661l2.79 69.955zm101.944-313.844v23.293h-432.72v-23.293zm-374.684-14.976 1.485-50.972c10.284 1.507 20.874 2.9 31.476 4.182l1.364 46.79zm47.996-45.043c22.159 2.474 43.742 4.459 61.984 5.969 5.776.481 11.567.871 17.366 1.179l-5.324 37.895h-72.713zm89.149 45.043 5.24-37.296c5.31.144 10.624.224 15.939.224 5.314 0 10.627-.079 15.938-.224l5.24 37.296zm52.157-37.895c5.799-.307 11.588-.698 17.362-1.178 18.244-1.51 39.828-3.496 61.988-5.97l-1.313 45.043h-72.713zm93.02 37.895 1.364-46.791c10.602-1.282 21.192-2.675 31.476-4.182l1.485 50.972h-34.325zm66.454-73.969c0 1.234-.877 2.3-2.086 2.534-42.779 8.288-100.43 14.057-141.264 17.436-31.255 2.6-62.95 2.601-94.207 0-40.831-3.379-98.482-9.147-141.261-17.436-1.209-.234-2.086-1.3-2.086-2.534v-23.11c.01.002.019.003.029.005 32.317 5.714 67.823 10.671 106.076 14.793 27.984 3.016 56.166 4.524 84.347 4.524s56.363-1.508 84.347-4.524c38.242-4.121 73.739-9.076 106.048-14.788.019-.003.038-.007.057-.01z"/></g></svg>