<svg id="Capa_1" enable-background="new 0 0 512 512" height="512" viewBox="0 0 512 512" width="512" xmlns="http://www.w3.org/2000/svg"><g><g><path d="m465.552 293.451c0 2.341-1.297 4.479-3.352 5.6-35.268 19.251-77.591 24.618-118.172 21.502-51.434-3.949-98.934-23.068-149.365-30.733-39.883-6.062-80.229-9.384-112.787 18.779v-271.061c32.559-28.164 72.905-24.841 112.787-18.779 50.431 7.665 97.931 26.784 149.365 30.733 38.385 2.947 78.33-1.695 112.387-18.499 4.211-2.078 9.137 1.053 9.137 5.749z" fill="#fef1da"/></g><g><path d="m465.549 36.74v256.707c0 2.346-1.298 4.481-3.353 5.609-5.769 3.144-11.717 5.918-17.825 8.344.489-.928.769-1.976.769-3.074v-260.74c0-2.805-1.697-5.06-3.962-6.008 5.19-1.946 10.28-4.142 15.24-6.587 4.211-2.076 9.131 1.058 9.131 5.749z" fill="#fae2c0"/></g><g><path d="m64.162 504.515c-9.783 0-17.713-7.931-17.713-17.713v-461.603c0-9.783 7.93-17.713 17.713-17.713 9.783 0 17.713 7.93 17.713 17.713v461.603c0 9.782-7.931 17.713-17.713 17.713z" fill="#e19974"/></g><path d="m81.53 24.75v462.5c0 9.81-7.94 17.75-17.74 17.75-3.24 0-6.27-.86-8.88-2.38 5.31-3.06 8.88-8.79 8.88-15.37v-462.5c0-4.91-1.99-9.34-5.2-12.55-1.09-1.1-2.33-2.05-3.68-2.82 2.61-1.52 5.64-2.38 8.88-2.38 4.9 0 9.33 1.98 12.55 5.2 3.2 3.21 5.19 7.64 5.19 12.55z" fill="#dc8758"/><g><circle cx="273.713" cy="167.996" fill="#fd9468" r="67.243"/></g><g><path d="m340.954 167.993c0 37.137-30.101 67.248-67.238 67.248-15.031 0-28.903-4.93-40.091-13.264 7.176 2.615 14.921 4.042 23.005 4.042 37.137 0 67.248-30.111 67.248-67.248 0-22.107-10.669-41.718-27.137-53.964 25.789 9.391 44.213 34.133 44.213 63.186z" fill="#fe7d43"/></g><g><path d="m466.476 24.946c-4.079-2.536-9.079-2.786-13.373-.666-21.353 10.535-46.256 16.652-74.018 18.18-4.128.228-7.29 3.758-7.063 7.885.227 4.128 3.754 7.288 7.885 7.063 29.081-1.601 55.365-7.956 78.159-18.894v254.264c-38.846 20.993-83.112 22.644-113.466 20.312-28.666-2.201-56.85-9.417-84.106-16.396-20.97-5.369-42.653-10.921-64.708-14.274-36.214-5.503-73.964-8.906-106.427 11.362v-252.737c29.751-23.795 66.259-20.65 104.177-14.886 21.316 3.24 42.632 8.697 63.246 13.976 27.877 7.138 56.703 14.519 86.671 16.82 4.136.32 7.72-2.769 8.036-6.89s-2.768-7.72-6.89-8.037c-28.666-2.201-56.849-9.417-84.104-16.396-20.97-5.37-42.654-10.922-64.71-14.274-36.259-5.511-74.052-8.898-106.543 11.457-1.203-12.78-11.99-22.815-25.08-22.815-13.895 0-25.199 11.304-25.199 25.199v311.086c0 4.134 3.351 7.485 7.485 7.485s7.485-3.351 7.485-7.485v-311.086c0-5.64 4.588-10.228 10.228-10.228s10.229 4.588 10.229 10.228v461.603c0 5.639-4.588 10.228-10.228 10.228s-10.228-4.588-10.228-10.228v-116.375c0-4.134-3.351-7.485-7.485-7.485s-7.485 3.352-7.485 7.485v116.375c0 13.894 11.304 25.198 25.199 25.198s25.199-11.304 25.199-25.198v-174.686c29.75-23.798 66.257-20.658 104.177-14.895 21.316 3.24 42.631 8.697 63.244 13.976 27.878 7.138 56.704 14.519 86.673 16.82 7.417.569 14.717.852 21.896.852 37.958-.001 72.348-7.916 100.435-23.247 4.473-2.442 7.252-7.105 7.252-12.171v-256.71c-.002-4.831-2.455-9.241-6.563-11.795z"/><path d="m273.713 93.268c-41.205 0-74.729 33.523-74.729 74.729 0 41.205 33.523 74.728 74.729 74.728 41.205 0 74.729-33.523 74.729-74.728 0-41.206-33.523-74.729-74.729-74.729zm0 134.486c-32.951 0-59.758-26.807-59.758-59.757 0-32.951 26.807-59.758 59.758-59.758s59.758 26.807 59.758 59.758c0 32.95-26.807 59.757-59.758 59.757z"/></g></g></svg>