<svg id="Capa_1" enable-background="new 0 0 512 512" height="512" viewBox="0 0 512 512" width="512" xmlns="http://www.w3.org/2000/svg"><g><g><path d="m486.884 306.445c-3.215-24.915-15.262-48.184-26.486-70.781-14.243-28.675-17.873-60.659-27.471-90.896-39.46-124.303-185.269-182.544-287.889-96.291-30.032 25.243-54.063 58.743-65.982 96.289-9.599 30.237-13.228 62.221-27.472 90.897-11.224 22.597-23.272 45.866-26.486 70.781-6.796 52.67 27.551 112.959 76.876 140.713 22.479 12.648 48.533 21.978 76.285 27.985 10.368 2.244 20.13 6.666 28.714 12.898 1.443 1.048 2.947 2.091 4.512 3.12 26.929 17.713 62.069 17.717 89 .008 1.563-1.028 3.065-2.069 4.506-3.115 8.584-6.229 18.344-10.648 28.71-12.891 27.717-5.998 53.774-15.326 76.312-28.007 49.32-27.751 83.666-88.04 76.871-140.71z" fill="#fef1da"/></g><g><path d="m410.014 447.155c-22.538 12.684-48.597 22.008-76.316 28.01-10.363 2.241-20.127 6.662-28.71 12.884-1.44 1.05-2.941 2.091-4.502 3.121-26.409 17.366-60.721 17.696-87.43 1 22.418 6.522 47.106 3.181 67.213-10.043 1.561-1.03 3.061-2.071 4.512-3.111 8.583-6.232 22.364-17.019 32.737-19.259 27.709-5.992 49.741-8.96 72.279-21.645 27.197-15.307 49.191-39.764 62.956-67.654 13.136-26.614 20.028-62.014 9.407-90.736-4.718-12.758-11.926-24.39-18.43-36.275-18.296-33.435-19.696-72.078-31.016-107.719-16.846-53.038-53.048-94.052-96.993-116.93 52.898 19.917 97.844 64.992 117.2 125.973 9.603 30.23 13.235 62.221 27.48 90.891 11.224 22.598 23.268 45.866 26.479 70.784 6.803 52.669-27.549 112.96-76.866 140.709z" fill="#fae2c0"/></g><g><path d="m292.338 343.975c-4.786-6.138-11.066-11.708-18.742-12.979-6.948-1.15-14.932 2.484-17.341 8.872-2.409-6.388-10.393-10.022-17.341-8.872-7.676 1.27-13.957 6.841-18.743 12.98-23.562 30.224 16.688 48.53 43.241 45.224 23.323-2.902 47.491-21.408 28.926-45.225z" fill="#fe7d43"/></g><g><path d="m263.413 389.205c-11.444 1.421-25.419-1.17-35.752-7.002 4.742.58 9.453.62 13.795.08 23.318-2.901 47.486-21.407 28.92-45.226-1.471-1.891-3.091-3.721-4.842-5.392 2.591-.85 5.402-1.11 8.063-.67 7.673 1.27 13.955 6.842 18.737 12.985 18.566 23.808-5.603 42.314-28.921 45.225z" fill="#fd6930"/></g><g><g><g><circle cx="368.357" cy="309.91" fill="#fec0b7" r="35.87"/></g></g><g><g><circle cx="143.625" cy="309.91" fill="#fec0b7" r="35.87"/></g></g></g><g><g><g><path d="m404.232 309.908c0 19.817-16.065 35.872-35.872 35.872-10.984 0-20.807-4.932-27.39-12.704 3.041.84 6.252 1.29 9.563 1.29 19.807 0 35.872-16.066 35.872-35.872 0-8.833-3.191-16.916-8.493-23.168 15.176 4.181 26.32 18.086 26.32 34.582z" fill="#ffa799"/></g></g><g><g><path d="m179.494 309.908c0 19.817-16.056 35.872-35.872 35.872-10.974 0-20.807-4.932-27.379-12.704 3.041.84 6.252 1.29 9.563 1.29 19.807 0 35.862-16.066 35.862-35.872 0-8.833-3.191-16.916-8.483-23.168 15.175 4.181 26.309 18.086 26.309 34.582z" fill="#ffa799"/></g></g></g><g><path d="m456.597 405.941-14.011-17.957c-3.611-4.628-4.227-10.889-1.695-16.186 10.005-20.931 11.04-43.647 10.775-55.17-.107-4.877-2.193-9.487-5.754-12.803-3.915-3.658-8.675-8.076-9.413-9.038-18.226-23.831-31.5-57.406-25.2-87.879.15-.706 1.241-5.059 2.663-10.044 2.589-9.07-2.235-18.536-11.028-21.959-61.916-24.115-123.531-97.454-141.633-120.266-2.716-3.422-7.904-3.422-10.62 0-18.103 22.813-79.717 96.152-141.633 120.266-8.792 3.423-13.616 12.889-11.028 21.959 1.423 4.984 2.513 9.338 2.663 10.044 6.3 30.473-6.974 64.048-25.2 87.879-.738.963-5.498 5.38-9.413 9.038-3.562 3.316-5.648 7.926-5.754 12.803-.264 11.524.771 34.239 10.776 55.171 2.532 5.296 1.916 11.557-1.695 16.185l-14.002 17.946c-22.28-29.339-34.623-65.963-30.302-99.485 3.22-24.911 15.263-48.186 26.494-70.787 14.236-28.666 17.873-60.658 27.468-90.896 11.915-37.543 35.95-71.044 65.984-96.286 102.619-86.254 248.428-28.013 287.886 96.286 9.595 30.238 13.231 62.23 27.468 90.896 11.231 22.601 23.275 45.876 26.494 70.787 4.322 33.533-8.021 70.156-30.29 99.496z" fill="#554e56"/></g><g><path d="m487.721 322.313c-.296 14.391-3.336 27.389-7.872 40.982-1.023 3.064-2.213 6.069-3.512 9.027-2.716 6.185-5.816 12.212-9.263 18.044-2.946 4.986-6.116 9.797-9.613 14.415-.28.39-.57.78-.87 1.15l-13.935-17.856c3.731-5.672 7.102-11.564 10.093-17.616 13.145-26.609 20.037-62.011 9.413-90.741-4.722-12.754-11.924-24.388-18.436-36.272-18.286-33.432-19.687-72.075-31.011-107.717-16.846-53.038-53.048-94.052-96.993-116.93 8.273 3.101 16.346 6.832 24.148 11.144 8.046 4.446 15.315 9.068 22.578 14.615 7.235 5.526 14.153 11.478 20.597 17.876 3.126 3.104 5.877 6.027 8.753 9.323 5.191 5.95 9.965 12.027 14.465 18.507 3.157 4.546 6.116 9.245 8.873 14.045 5.962 10.38 11.306 21.899 15.306 33.153 9.475 26.662 13.346 55.07 22.957 81.757 2.026 5.625 4.321 11.065 6.992 16.445 2.101 4.231 4.241 8.493 6.342 12.785 3.84 7.863 7.535 15.805 10.804 23.948 6.54 16.29 10.548 32.246 10.184 49.916z" fill="#433f43"/></g><g><path d="m214.254 339.363c-5.453 6.995-13.376 20.888-5.168 35.348 8.308 14.639 29.923 22.362 48.097 22.362 2.462 0 4.862-.142 7.157-.428 15.436-1.922 33.789-10.57 39.992-25.56 5.347-12.918-.354-24.381-6.077-31.724-7.062-9.059-14.947-14.363-23.434-15.768-6.649-1.101-13.477.752-18.565 4.545-5.087-3.791-11.908-5.646-18.566-4.545-8.489 1.405-16.373 6.71-23.436 15.77zm11.834 9.226c4.671-5.992 9.4-9.421 14.052-10.191.463-.077.936-.113 1.411-.113 3.334 0 6.771 1.806 7.685 4.231 1.102 2.922 3.898 4.855 7.02 4.855s5.918-1.933 7.02-4.855c1.044-2.769 5.378-4.733 9.095-4.118 4.652.77 9.378 4.198 14.05 10.19 4.76 6.107 6.122 11.746 4.047 16.761-3.268 7.895-15.036 14.795-27.982 16.407-15.709 1.959-34.947-4.932-40.35-14.451-4.483-7.897 1.866-16.04 3.952-18.716z"/><path d="m251.176 370.689h9.628c4.144 0 7.503-3.359 7.503-7.503s-3.359-7.503-7.503-7.503h-9.628c-4.144 0-7.503 3.359-7.503 7.503.001 4.144 3.359 7.503 7.503 7.503z"/><path d="m218.801 241.164c-34.013-28.438-68.905-16.797-70.372-16.285-3.914 1.358-5.986 5.633-4.628 9.547s5.634 5.989 9.547 4.628c.278-.095 28.258-9.426 55.828 13.622 1.404 1.174 3.11 1.747 4.808 1.747 2.145 0 4.276-.915 5.76-2.69 2.659-3.179 2.236-7.911-.943-10.569z"/><path d="m363.552 224.879c-1.467-.511-36.356-12.155-70.372 16.285-3.179 2.658-3.602 7.389-.944 10.568 1.484 1.775 3.615 2.69 5.76 2.69 1.697 0 3.404-.572 4.808-1.747 27.265-22.795 54.638-14.019 55.859-13.611 3.91 1.338 8.162-.735 9.516-4.638 1.36-3.914-.712-8.189-4.627-9.547z"/><path d="m324.983 309.911c0 23.915 19.457 43.372 43.373 43.372s43.373-19.457 43.373-43.372c0-23.916-19.457-43.373-43.373-43.373s-43.373 19.456-43.373 43.373zm43.374-28.368c15.642 0 28.368 12.726 28.368 28.368s-12.726 28.367-28.368 28.367-28.368-12.725-28.368-28.367 12.726-28.368 28.368-28.368z"/><path d="m100.251 309.911c0 23.915 19.457 43.372 43.373 43.372s43.373-19.457 43.373-43.372c0-23.916-19.457-43.373-43.373-43.373s-43.373 19.456-43.373 43.373zm43.374-28.368c15.642 0 28.368 12.726 28.368 28.368s-12.726 28.367-28.368 28.367-28.368-12.725-28.368-28.367 12.726-28.368 28.368-28.368z"/><ellipse cx="233.767" cy="168.91" rx="10.003" ry="10.003" transform="matrix(.998 -.06 .06 .998 -9.718 14.337)"/><path d="m279.3 178.854c5.492-.6 9.458-5.538 8.859-11.03-.6-5.492-5.538-9.458-11.03-8.859-5.492.6-9.458 5.538-8.859 11.03.599 5.493 5.538 9.459 11.03 8.859z"/><path d="m269.669 425.086c-1.919 5.99-7.439 10.015-13.738 10.015-6.184 0-11.673-3.929-13.66-9.778-1.333-3.922-5.594-6.023-9.518-4.69-3.923 1.333-6.022 5.595-4.69 9.518 4.056 11.936 15.255 19.955 27.868 19.955 12.848 0 24.112-8.216 28.028-20.445 1.264-3.946-.911-8.169-4.857-9.433-3.948-1.267-8.17.912-9.433 4.858z"/><path d="m494.329 305.484c-4.564-35.303-26.135-63.845-36.686-97.043-3.391-10.67-6.004-21.567-8.631-32.444-2.66-11.014-5.411-22.401-8.935-33.505-10.464-32.962-28.81-62.939-53.055-86.691-23.458-22.98-51.994-39.806-82.526-48.659-27.438-7.956-56.338-9.294-83.581-3.869-29.356 5.847-56.508 19.123-80.703 39.459-32.229 27.086-56.487 62.516-68.308 99.761-3.523 11.102-6.274 22.489-8.934 33.502-2.641 10.935-5.268 21.891-8.686 32.616-10.538 33.068-32.083 61.59-36.632 96.875-4.422 34.305 7.156 72.569 31.764 104.977 9.266 12.221 19.946 22.968 31.744 31.941 3.297 2.509 8.006 1.868 10.513-1.43 2.509-3.298 1.868-8.005-1.43-10.513-9.241-7.028-17.732-15.275-25.313-24.555l10.381-13.306c5.369-6.882 6.345-16.092 2.548-24.036-9.323-19.505-10.294-40.803-10.043-51.77.172-7.507 9.45-12.006 13.626-17.448 22.681-29.656 32.621-64.779 26.579-94-.221-1.036-1.404-5.697-2.786-10.541-1.518-5.317 1.292-10.867 6.535-12.909 63.145-24.591 125.649-98.568 144.221-121.88 9.845 12.362 29.55 35.918 54.556 59.734 3.001 2.858 7.751 2.742 10.607-.258 2.858-3.001 2.742-7.75-.258-10.607-24.839-23.657-44.318-47.062-53.718-58.908-2.726-3.436-6.803-5.406-11.188-5.406-4.383 0-8.461 1.97-11.188 5.405-17.243 21.731-78.187 94.457-138.477 117.938-12.504 4.869-19.177 18.2-15.52 31.009 1.427 5.002 2.433 9.064 2.53 9.505 3.981 19.256-.162 50.81-23.707 81.665-2.36 3.093-5.829 5.581-8.67 8.242-5.026 4.678-7.994 11.287-8.143 18.122-.281 12.297.839 36.26 11.507 58.578 1.327 2.775 1.004 5.97-.84 8.335l-7.807 10.006c-.018-.027-.036-.053-.054-.079-.85-1.278-5.297-7.075-5.161-8.346-14.469-25.139-21.083-53.059-17.926-77.542 3.648-28.291 19.275-52.033 30.015-77.722 2.304-5.511 4.311-11.143 6.118-16.836 3.48-10.965 6.189-22.153 8.889-33.33 2.599-10.76 5.287-21.888 8.65-32.487 10.972-34.57 33.58-67.532 63.661-92.813 22.238-18.692 47.129-30.882 73.98-36.229 25.245-5.027 50.975-3.827 76.47 3.565 28.16 8.165 54.51 23.714 76.204 44.966 22.499 22.042 39.531 49.882 49.254 80.512 3.364 10.599 6.051 21.727 8.65 32.488 4.792 19.833 9.746 40.341 19.25 59.479 10.79 21.667 22.63 44.023 25.772 68.406 3.251 25.234-3.866 54.117-19.264 79.838-1.218 2.035-2.482 4.052-3.802 6.044-.022.033-.044.065-.066.097l-7.814-10.015c-1.845-2.366-2.168-5.56-.841-8.335 10.668-22.319 11.788-46.281 11.507-58.57-.285-12.445-9.218-18.089-16.812-26.371-23.545-30.862-27.689-62.412-23.719-81.614.107-.493 1.114-4.555 2.541-9.556 3.657-12.81-3.016-26.141-15.519-31.009-17.65-6.873-36.943-18.638-57.328-34.955l-1.518-1.221c-3.23-2.599-7.952-2.085-10.549 1.143-2.598 3.229-2.086 7.952 1.143 10.549l1.533 1.233c21.59 17.28 42.205 29.808 61.275 37.234 5.243 2.041 8.052 7.591 6.534 12.909-1.382 4.842-2.565 9.503-2.796 10.584-6.032 29.176 3.907 64.298 26.594 93.963 4.27 5.583 13.439 9.541 13.62 17.448.251 10.959-.721 32.256-10.043 51.762-3.798 7.944-2.821 17.154 2.549 24.037l10.385 13.31c-11.717 14.314-25.695 26.252-40.721 34.706-21.36 12.025-46.332 21.182-74.218 27.218-11.344 2.446-21.952 7.206-31.532 14.149-1.398 1.014-2.817 1.996-4.22 2.917-24.523 16.13-56.223 16.126-80.759-.012-1.49-.979-2.912-1.96-4.223-2.912-9.534-6.93-20.142-11.695-31.531-14.163-21.987-4.761-42.308-11.516-60.401-20.074-3.744-1.772-8.218-.172-9.99 3.573s-.172 8.218 3.573 9.99c19.125 9.048 40.536 16.173 63.64 21.176 9.339 2.023 18.048 5.939 25.888 11.637 1.502 1.091 3.118 2.206 4.8 3.312 14.773 9.712 31.705 14.57 48.636 14.57 16.923-.001 33.846-4.855 48.608-14.563 1.593-1.047 3.204-2.161 4.786-3.308 7.881-5.712 16.591-9.625 25.893-11.631 29.36-6.355 55.74-16.047 78.408-28.808 20.429-11.5 38.033-28.029 51.619-46.93 20.758-28.872 33.653-65.407 29.016-101.276z"/></g></g></svg>