<svg id="Capa_1" enable-background="new 0 0 512 512" height="512" viewBox="0 0 512 512" width="512" xmlns="http://www.w3.org/2000/svg"><g><g><path d="m495.064 183.797c-.148-12.249 1.731-24.542 6.384-35.661.146-.348.57-1.123 1.15-2.13 2.793-4.849-.721-10.906-6.317-10.906h-50.784c-9.959 0-19.697 2.934-27.999 8.435l-27.196 18.023v22.231 22.231l27.195 18.023c8.302 5.502 18.04 8.436 27.999 8.436h50.352c5.278 0 8.862-5.466 6.646-10.256-2.161-4.671-3.654-9.716-4.666-14.403-1.67-7.751-2.665-15.878-2.764-24.023z" fill="#fee97d"/></g><g><path d="m502.501 222.226c2.216 4.781-1.377 10.25-6.647 10.25h-20.61c5.28 0 8.863-5.469 6.647-10.25-2.166-4.681-3.653-9.721-4.671-14.412-1.667-7.745-2.665-15.869-2.764-24.013-.15-12.256 1.727-24.542 6.388-35.67.14-.339.569-1.118 1.148-2.126 2.795-4.851-.719-10.909-6.318-10.909h20.61c5.599 0 9.112 6.058 6.318 10.909-.579 1.008-1.008 1.787-1.148 2.126-4.661 11.128-6.537 23.414-6.387 35.67.1 8.144 1.088 16.268 2.765 24.013 1.006 4.691 2.503 9.731 4.669 14.412z" fill="#fedf30"/></g><g><path d="m257.871 98.307c-77.901-3.685-118.22 31.463-118.22 31.463v54.019 54.019s40.319 35.148 118.22 31.463c0 0 79.849 1.184 132.432-62.111v-23.371-23.371c-52.583-63.295-132.432-62.111-132.432-62.111z" fill="#b3dafe"/></g><g><path d="m390.301 160.417v46.738c-52.577 63.296-132.43 62.118-132.43 62.118-64.893 3.064-103.707-20.809-114.855-28.863 20.35 8.903 51.22 17.566 92.229 15.599 0 0 73.424 1.099 127.073-54.618 5.721-5.941 8.95-13.851 8.95-22.098v-38.228c6.597 5.659 12.995 12.077 19.033 19.352z" fill="#8ac9fe"/></g><g><path d="m352.757 240.282c-46.32 29.709-94.881 28.99-94.881 28.99-77.904 3.678-118.224-31.466-118.224-31.466v-108.037s40.32-35.144 118.224-31.466c0 0 48.56-.719 94.881 29.002-3.277 8.901-9.561 16.352-17.602 21.138 12.049 7.168 20.125 20.313 20.125 35.345s-8.076 28.176-20.125 35.344c8.053 4.798 14.325 12.249 17.602 21.15z" fill="#60b7ff"/></g><g><path d="m352.754 240.281c-1.377.888-2.765 1.747-4.142 2.575-.699.419-1.387.828-2.076 1.228-10.38 6.048-20.759 10.649-30.56 14.142-5.985 2.133-12.039 3.99-18.194 5.489-4.886 1.19-9.806 2.249-14.762 3.106-4.433.766-8.927 1.554-13.443 1.805-10.979.61-21.959 1.145-32.965.709-8.85-.351-17.893-1.316-26.528-2.795-.758-.13-1.507-.259-2.245-.389-5.84-1.027-11.613-2.328-17.316-3.972-4.769-1.375-9.63-2.797-14.203-4.591-4.056-1.591-8.024-3.146-11.925-4.939-1.353-.621-2.698-1.261-4.024-1.938-3.768-1.922-7.492-3.901-11.075-6.165-1.962-1.239-3.891-2.53-5.823-3.816-.089-.059-.178-.119-.258-.178-.05-.04-.11-.08-.16-.12 20.35 8.893 51.21 17.546 92.189 15.579 0 0 .848.01 2.425-.03 7.306-.22 30.321-1.697 57.557-11.587 13.943-5.06 29.003-12.326 43.624-22.775 6.269 4.719 11.15 11.177 13.904 18.662z" fill="#26a6fe"/></g><g><path d="m276.374 219.132c12.049 7.18 20.113 20.313 20.113 35.356 0 3.383-.413 6.684-1.179 9.832-21.893 5.187-37.431 4.952-37.431 4.952-77.904 3.678-118.224-31.466-118.224-31.466v-108.037s40.32-35.144 118.224-31.466c0 0 15.538-.236 37.419 4.951.778 3.159 1.191 6.449 1.191 9.844 0 15.031-8.064 28.177-20.113 35.344 12.049 7.168 20.113 20.313 20.113 35.345s-8.064 28.177-20.113 35.345z" fill="#b3dafe"/></g><g><path d="m296.485 254.493c0 3.383-.409 6.667-1.178 9.831-.029.12-1.733.398-1.867.429-3.397.785-6.939 1.451-10.38 2.066-4.459.797-8.963 1.555-13.485 1.806-3.912.218-7.803.464-11.701.649-7.072.335-14.215.443-21.263.06-.549-.03-1.098-.05-1.647-.09 1.607-4.142 2.545-8.613 2.705-13.264 7.306-.22 30.321-1.697 57.557-11.587.829 3.233 1.259 6.617 1.259 10.1z" fill="#8ac9fe"/></g><g><path d="m217.58 219.132c12.049 7.18 20.124 20.313 20.124 35.356 0 5.199-.967 10.174-2.735 14.76-62.896-3.171-95.317-31.442-95.317-31.442v-108.037s32.421-28.271 95.317-31.442c1.768 4.586 2.735 9.561 2.735 14.772 0 15.031-8.076 28.177-20.124 35.344 12.049 7.168 20.124 20.313 20.124 35.345s-8.075 28.176-20.124 35.344z" fill="#60b7ff"/></g><g><path d="m237.67 255.98c-.16 4.651-1.098 9.122-2.705 13.264-1.966-.1-3.902-.22-5.809-.369-2.889-.227-5.759-.479-8.633-.838-5.812-.728-11.547-1.589-17.274-2.775-5.358-1.11-10.715-2.459-15.961-4.012-.419-.12-.828-.25-1.248-.379-3.349-1.036-6.459-2.004-9.721-3.284-4.837-1.898-9.882-3.676-14.452-6.138-4.355-2.346-8.7-4.672-12.985-7.116-.54-.308-1.043-.663-1.566-.998-.858-.549-1.708-1.11-2.545-1.687-.521-.359-1.065-.703-1.557-1.098-.05-.04-.11-.08-.16-.12 20.35 8.893 51.21 17.546 92.189 15.579.002.001.85.011 2.427-.029z" fill="#26a6fe"/></g><g><path d="m16.559 33.347h35.426v471.167h-35.426z" fill="#ecbba3"/></g><g><path d="m34.272 33.347h17.713v471.167h-17.713z" fill="#e8ad8c"/></g><g><circle cx="34.272" cy="33.347" fill="#e19974" r="25.862"/></g><g><path d="m60.129 33.346c0 14.282-11.577 25.859-25.859 25.859-10.27 0-19.142-5.988-23.304-14.661 1.796.409 3.673.619 5.589.619 14.292 0 25.869-11.577 25.869-25.859 0-4.012-.918-7.815-2.545-11.198 11.587 2.555 20.25 12.885 20.25 25.24z" fill="#dc8758"/></g><g><path d="m132.138 244.195c-13.928 0-25.218-11.291-25.218-25.218v-70.376c0-13.928 11.291-25.218 25.218-25.218 13.928 0 25.218 11.291 25.218 25.218v70.376c0 13.928-11.29 25.218-25.218 25.218z" fill="#fee97d"/></g><g><path d="m157.357 148.601v70.372c0 13.933-11.288 25.22-25.221 25.22-3.543 0-6.916-.729-9.98-2.056 8.962-3.862 15.24-12.775 15.24-23.165v-70.372c0-6.956-2.824-13.264-7.385-17.835-2.236-2.236-4.9-4.062-7.855-5.33 3.064-1.327 6.437-2.056 9.98-2.056 6.966 0 13.274 2.824 17.835 7.386 4.562 4.572 7.386 10.879 7.386 17.836z" fill="#fedf30"/></g><g><circle cx="219.89" cy="115.953" fill="#fef1da" r="38.294"/></g><g><path d="m258.18 115.955c0 21.149-17.136 38.295-38.295 38.295-13.374 0-25.151-6.857-31.997-17.256 4.97 2.355 10.529 3.673 16.388 3.673 21.149 0 38.295-17.136 38.295-38.295 0-7.765-2.315-15.001-6.308-21.039 12.965 6.137 21.917 19.332 21.917 34.622z" fill="#fae2c0"/></g><g><ellipse cx="219.89" cy="115.953" rx="15.617" ry="15.617" transform="matrix(.987 -.16 .16 .987 -15.734 36.72)"/><path d="m505.147 206.239c-1.635-7.575-2.509-15.156-2.598-22.533-.093-7.656.645-15.11 2.477-22.529.978-3.96 2.027-7.906 4.059-11.434 2.66-4.618 2.655-10.13-.014-14.746-2.671-4.623-7.452-7.382-12.789-7.382h-18.392c-4.135 0-7.485 3.351-7.485 7.485s3.351 7.485 7.485 7.485h18.042c-.853 1.492-1.17 2.136-1.389 2.662-2.086 4.986-3.708 10.266-4.86 15.809h-16.095c-4.134 0-7.485 3.351-7.485 7.485 0 4.135 3.351 7.485 7.485 7.485h14.161c-.144 2.577-.201 5.198-.168 7.862.03 2.537.152 5.095.345 7.664h-14.337c-4.134 0-7.485 3.351-7.485 7.485s3.351 7.485 7.485 7.485h16.342c.185.959.377 1.917.584 2.875 1.242 5.752 2.929 10.996 5.019 15.595h-50.034c-8.515 0-16.767-2.486-23.864-7.19l-23.847-15.802v-36.423l23.845-15.803c6.074-4.024 13.112-6.459 20.371-7.049h1.768c4.134 0 7.485-3.351 7.485-7.485 0-4.135-3.351-7.485-7.485-7.485h-2.06c-.186 0-.373.007-.559.021-9.903.742-19.512 4.034-27.79 9.519l-21.079 13.969c-13.651-15.309-30.105-28.068-48.201-37.704-17.624-9.385-36.749-15.918-56.36-19.61-9.654-1.817-19.569-3.136-29.414-3.136-.073 0-.128 0-.187.001-8.196-12.423-22.27-20.642-38.234-20.642-20.373 0-37.673 13.381-43.593 31.813-15.047 5.313-26.065 11.423-32.959 15.886-3.495-1.278-7.267-1.976-11.199-1.976-5.091 0-9.914 1.171-14.215 3.255l-58.452 24.435v-88.434c5.07-5.851 8.148-13.473 8.148-21.804 0-18.388-14.959-33.348-33.347-33.348s-33.348 14.96-33.348 33.348c0 8.332 3.079 15.954 8.149 21.805v114.419.085 28.299.085 306.473c0 4.135 3.351 7.485 7.485 7.485h35.427c4.135 0 7.485-3.351 7.485-7.485v-155.303c0-4.135-3.351-7.485-7.485-7.485s-7.485 3.351-7.485 7.485v147.819h-20.456v-287.813l20.456 8.551v96.096c0 4.135 3.351 7.485 7.485 7.485 4.135 0 7.485-3.351 7.485-7.485v-89.838l59.198 24.747c.026.011.052.018.077.028 4.091 1.844 8.621 2.88 13.392 2.88 3.933 0 7.705-.698 11.201-1.977 15.025 9.732 49.582 27.327 103.097 27.326 23.686 0 46.878-3.125 69.388-10.801 14.37-4.9 28.188-11.447 40.973-19.646 13.09-8.396 25.114-18.633 35.486-30.271l21.08 13.969c9.557 6.333 20.669 9.681 32.135 9.681h50.351c5.074 0 9.737-2.556 12.474-6.836 2.712-4.243 3.073-9.495.966-14.048-1.705-3.687-3.098-8.006-4.141-12.839zm-460.647-4.697-20.456-8.551v-18.367l20.456-8.551zm0-51.697-20.456 8.551v-93.313c3.225 1.042 6.661 1.611 10.228 1.611s7.003-.569 10.228-1.611zm-10.228-98.121c-10.133 0-18.377-8.244-18.377-18.376 0-10.133 8.244-18.377 18.377-18.377 10.132 0 18.376 8.244 18.376 18.377 0 10.132-8.243 18.376-18.376 18.376zm185.618 33.421c16.988 0 30.81 13.821 30.81 30.809s-13.822 30.809-30.81 30.809-30.809-13.821-30.809-30.809c0-16.989 13.82-30.809 30.809-30.809zm-160.419 122.655v-47.986l40.472-16.919c-.328 1.854-.509 3.759-.509 5.706v70.377c0 1.961.183 3.878.516 5.745zm90.4 11.177c0 9.778-7.955 17.733-17.733 17.733s-17.733-7.955-17.733-17.733c0 0 0-70.339 0-70.377 0-9.562 8.176-17.733 17.733-17.733 9.778 0 17.733 7.955 17.733 17.733zm79.643 42.395c-34.732-2.76-59.154-13.409-72.627-21.054 4.95-5.733 7.954-13.19 7.954-21.341v-70.377c0-8.15-3.003-15.607-7.952-21.339 4.536-2.574 10.337-5.487 17.329-8.326 1.543 23.857 21.432 42.798 45.672 42.798.662 0 1.318-.022 1.974-.05 5.284 6.055 8.357 13.9 8.357 22.105 0 11.79-6.31 22.868-16.466 28.911-2.268 1.349-3.658 3.791-3.659 6.43s1.387 5.083 3.653 6.433c10.314 6.147 16.472 16.96 16.472 28.927-.001 2.333-.238 4.634-.707 6.883zm59.3-3.325c-18.076 3.794-30.597 3.73-30.826 3.741-.157-.004-.31 0-.464.008-4.438.209-8.744.281-12.929.242.389-2.484.596-5.003.596-7.55 0-13.445-5.677-26.254-15.282-35.353 9.605-9.092 15.282-21.897 15.282-35.348 0-9.197-2.668-18.083-7.42-25.694 16.383-6.978 27.899-23.239 27.899-42.141 0-3.399-.384-6.709-1.09-9.899 5.442.374 13.932 1.277 24.229 3.439.127 1.195.193 2.399.193 3.606 0 11.795-6.305 22.874-16.454 28.912-2.269 1.349-3.659 3.793-3.659 6.433 0 2.639 1.39 5.084 3.659 6.433 10.149 6.038 16.454 17.117 16.454 28.912s-6.305 22.873-16.454 28.911c-2.268 1.349-3.658 3.791-3.659 6.43s1.387 5.083 3.653 6.433c10.307 6.142 16.46 16.956 16.46 28.927-.001 1.188-.065 2.377-.188 3.558zm15.151-3.825c-.075-13.35-5.73-26.05-15.265-35.086 9.599-9.09 15.272-21.895 15.272-35.348 0-13.451-5.672-26.256-15.268-35.345 9.542-9.037 15.198-21.749 15.262-35.116 12.169 3.612 25.684 8.949 39.167 16.854-2.86 4.828-6.921 8.922-11.807 11.83-2.267 1.35-3.656 3.794-3.656 6.433s1.391 5.083 3.659 6.432c10.156 6.043 16.466 17.121 16.466 28.912 0 11.79-6.31 22.868-16.466 28.911-2.268 1.349-3.658 3.791-3.659 6.43s1.387 5.083 3.653 6.433c4.887 2.912 8.948 7.01 11.81 11.842-13.459 7.881-26.983 13.21-39.168 16.818zm78.853-49.803c-8.538 9.918-17.791 18.07-27.17 24.786-2.262-3.698-4.998-7.097-8.156-10.077 9.599-9.091 15.274-21.894 15.274-35.34 0-13.445-5.672-26.248-15.271-35.338 3.16-2.98 5.897-6.38 8.159-10.081 9.377 6.72 18.629 14.874 27.164 24.789z"/></g></g></svg>