<svg id="Capa_1" enable-background="new 0 0 513.775 513.775" height="512" viewBox="0 0 513.775 513.775" width="512" xmlns="http://www.w3.org/2000/svg"><g><g><path d="m380.352 73.831-24.625-23.214h-197.679l-24.625 23.214c-23.239 21.908-36.413 52.431-36.413 84.369v197.377c0 31.937 13.174 62.461 36.413 84.368l24.625 23.214h197.679l24.625-23.214c23.239-21.908 36.413-52.431 36.413-84.368v-197.377c0-31.938-13.174-62.461-36.413-84.369z" fill="#fd9468"/></g><g><path d="m416.769 158.197v197.38c0 31.94-13.18 62.46-36.42 84.37l-24.62 23.21h-20.4l24.63-23.21c23.24-21.91 36.41-52.43 36.41-84.37v-197.38c0-31.93-13.17-62.46-36.41-84.37l-24.63-23.21h20.4l24.62 23.21c23.24 21.91 36.42 52.44 36.42 84.37z" fill="#fe7d43"/></g><g><g><path d="m416.069 145.497c-29.28 8.98-77.26 18.7-149.19 19.68h-19.59c-72.23-.98-120.31-10.79-149.56-19.79 2.36-21.34 10.62-41.57 23.77-58.46 26 8.58 67.01 17.39 126.99 18.32h17.19c59.73-.93 100.65-9.67 126.67-18.21 13.14 16.89 21.37 37.13 23.72 58.46z" fill="#ffc5ad"/></g><g><path d="m416.769 331.137v24.44c0 13.59-2.38 26.92-6.92 39.44-28.72 8.77-74.88 18.04-143.22 18.99h-19.09c-68.69-.96-114.97-10.31-143.66-19.13-4.51-12.48-6.87-25.76-6.87-39.3v-24.56c29.17 9.07 77.45 19.03 150.28 20.02h19.59c72.5-.98 120.67-10.86 149.89-19.9z" fill="#ffc5ad"/></g><g><path d="m416.769 209.197v62.96c-32.64 7.74-81.06 15.07-148.95 15.91h-21.47c-68.15-.85-116.7-8.23-149.34-16.01v-62.96c32.64 7.78 81.19 15.16 149.34 16.01h21.47c67.89-.84 116.31-8.17 148.95-15.91z" fill="#ffc5ad"/></g><g><g><path d="m416.769 331.137v24.44c0 8.917-.95 18.011-3.12 26.69-1.086 4.342-2.296 8.574-3.8 12.75-6.64 2.03-14.21 4.08-22.78 6.06 6.08-14.24 9.3-29.7 9.3-45.5v-18.86c7.63-1.84 14.41-3.73 20.4-5.58z" fill="#fead8a"/></g></g><g><path d="m416.069 145.497c-5.88 1.8-12.5 3.63-19.93 5.42-1.34-21.27-8.5-41.65-20.57-58.97 6.17-1.6 11.75-3.26 16.78-4.91.46.58.9 1.16 1.34 1.75 3.637 4.876 6.64 9.685 9.51 15 1.434 2.655 2.644 5.238 3.85 7.96 3.956 8.928 6.834 18.873 8.32 28.52.167 1.085.327 2.145.46 3.23.09.66.17 1.33.24 2z" fill="#fead8a"/></g><g><path d="m416.769 209.197v62.96c-6.22 1.47-13.01 2.93-20.4 4.34v-62.96c7.39-1.41 14.18-2.87 20.4-4.34z" fill="#fead8a"/></g></g><g><path d="m283.676 430.514h-53.576c-40.968 0-74.179-33.211-74.179-74.179v-198.894c0-40.968 33.211-74.179 74.179-74.179h53.576c40.968 0 74.179 33.211 74.179 74.179v198.893c0 40.968-33.212 74.18-74.179 74.18z" fill="#fef1da"/></g><g><path d="m357.859 157.437v198.9c0 40.97-33.22 74.18-74.18 74.18h-20.8c40.97 0 74.18-33.21 74.18-74.18v-198.9c0-40.96-33.21-74.17-74.18-74.17h20.8c40.96 0 74.18 33.21 74.18 74.17z" fill="#fae2c0"/></g><g><path d="m356.029 50.617h-197.981v-37.009c0-3.374 2.735-6.108 6.108-6.108h185.765c3.374 0 6.108 2.735 6.108 6.108z" fill="#554e56"/></g><g><path d="m356.029 463.159h-197.981v37.009c0 3.374 2.735 6.108 6.108 6.108h185.765c3.374 0 6.108-2.735 6.108-6.108z" fill="#554e56"/></g><g><path d="m356.029 13.607v37.01h-21.95v-37.01c0-3.37-2.73-6.11-6.11-6.11h21.95c3.38 0 6.11 2.74 6.11 6.11z" fill="#433f43"/></g><g><path d="m356.029 463.157v37.01c0 3.37-2.73 6.11-6.11 6.11h-21.95c3.38 0 6.11-2.74 6.11-6.11v-37.01z" fill="#433f43"/></g><g><path d="m385.497 68.374-21.968-20.709v-34.057c0-7.504-6.104-13.608-13.608-13.608h-36.73c-4.143 0-7.5 3.357-7.5 7.5s3.357 7.5 7.5 7.5h35.339v28.117h-182.982v-28.117h112.831c4.143 0 7.5-3.357 7.5-7.5s-3.357-7.5-7.5-7.5h-114.223c-7.504 0-13.608 6.104-13.608 13.608v33.772l-22.27 20.993c-24.637 23.227-38.767 55.967-38.767 89.826v197.377c0 33.86 14.13 66.601 38.768 89.825l22.27 20.993v33.772c0 7.504 6.104 13.608 13.608 13.608h185.765c7.504 0 13.608-6.104 13.608-13.608v-34.056l21.968-20.709c24.638-23.225 38.768-55.965 38.768-89.825v-197.376c-.001-33.859-14.131-66.6-38.769-89.826zm-20.143 205.525v-47.821c15.464-2.035 30.125-4.53 43.91-7.496v47.605c-13.727 3.057-28.396 5.621-43.91 7.712zm43.911 7.622v44.028c-11.442 3.302-25.99 6.77-43.91 9.777v-46.301c15.463-2.038 30.119-4.538 43.91-7.504zm-43.911-70.592v-46.271c14.8-2.397 29.612-5.466 43.868-9.384.027.974.042 47.951.042 47.951-13.73 3.053-28.398 5.614-43.91 7.704zm24.137-115.122c9.271 13.214 15.521 28.397 18.234 44.33-11.24 3.182-25.421 6.504-42.761 9.397-1.597-16.541-8.142-31.654-18.141-43.835 17.456-2.978 31.621-6.521 42.668-9.892zm-250.924-16.519 22.458-21.171h191.725l22.458 21.171c1.35 1.273 2.665 2.579 3.942 3.915-14.996 4.214-30.585 7.247-45.847 9.427-13.767-10.567-30.971-16.868-49.628-16.868h-53.575c-18.635 0-35.821 6.286-49.58 16.831-15.254-2.192-30.823-5.261-45.794-9.492 1.246-1.3 2.526-2.573 3.841-3.813zm-14.212 16.42c13.873 4.265 28.315 7.489 42.641 9.934-10.011 12.174-16.57 27.285-18.181 43.825-17.328-2.906-31.506-6.241-42.748-9.435 2.73-15.935 8.999-31.116 18.288-44.324zm-19.844 62.491c0-1.011.017-2.02.046-3.028 14.258 3.933 29.065 7.026 43.865 9.434v46.276c-15.522-2.103-30.188-4.681-43.91-7.749v-44.933zm0 60.293c13.776 2.979 28.436 5.486 43.91 7.532v47.818c-15.525-2.102-30.194-4.679-43.91-7.75zm0 62.947c13.784 2.979 28.429 5.498 43.91 7.544v6.864c0 4.143 3.357 7.5 7.5 7.5s7.5-3.357 7.5-7.5v-138.406c0-36.768 29.912-66.68 66.679-66.68h53.576c36.767 0 66.679 29.912 66.679 66.68v198.894c0 36.767-29.912 66.679-66.679 66.679h-53.576c-36.767 0-66.679-29.912-66.679-66.679v-25.318c0-4.143-3.357-7.5-7.5-7.5s-7.5 3.357-7.5 7.5v4.245c-17.928-3.023-32.474-6.508-43.91-9.825zm2.376 96.593c-.783-3.671-1.343-7.343-1.726-11.032-.434-4.176-.64-8.373-.685-12.614-.024-2.262-.014-4.524.001-6.787.004-.601.034-6.573.034-6.573 11.747 3.239 26.322 6.56 43.91 9.434v5.874c0 15.975 4.628 30.882 12.587 43.484-21.495-3.26-38.451-7.264-51.238-11.006-1.143-3.54-2.107-7.14-2.883-10.78zm241.642 120.743h-182.981v-28.117h182.981zm26.679-64.288-22.458 21.171h-191.725l-22.458-21.171c-8.685-8.187-15.88-17.723-21.386-28.125 19.073 4.847 38.919 8.219 58.159 10.521 14.498 13.124 33.71 21.131 54.76 21.131h53.576c21.016 0 40.2-7.983 54.69-21.07 19.221-2.285 39.07-5.645 58.169-10.471-5.5 10.359-12.673 19.856-21.327 28.014zm33.997-75.414c-.097 2.612-.276 5.32-.546 7.858-.799 7.505-2.384 14.883-4.697 22.014-12.798 3.72-29.757 7.702-51.237 10.94 7.985-12.616 12.63-27.546 12.63-43.549v-5.799c14.81-2.4 29.639-5.47 43.91-9.397 0 5.995.161 11.965-.06 17.933z"/><path d="m199.416 399.026c4.143 0 7.5-3.357 7.5-7.5v-39.633h18.274c11.272 0 20.443-9.171 20.443-20.444v-21.246c0-11.272-9.171-20.443-20.443-20.443h-12.83c-11.273 0-20.444 9.171-20.444 20.443v81.323c0 4.143 3.357 7.5 7.5 7.5zm7.5-88.823c0-3.002 2.442-5.443 5.444-5.443h12.83c3.002 0 5.443 2.441 5.443 5.443v4.29h-23.718v-4.29zm0 19.29h23.718v1.956c0 3.002-2.441 5.444-5.443 5.444h-18.274v-7.4z"/><path d="m301.415 289.76h-12.83c-11.273 0-20.444 9.171-20.444 20.443v21.246c0 11.273 9.171 20.444 20.444 20.444h18.273v17.324c0 8.165-6.644 14.809-14.809 14.809-8.166 0-14.81-6.644-14.81-14.809v-5.271c0-4.143-3.357-7.5-7.5-7.5s-7.5 3.357-7.5 7.5v5.271c0 16.437 13.372 29.809 29.81 29.809 16.437 0 29.809-13.372 29.809-29.809v-59.015c0-11.271-9.17-20.442-20.443-20.442zm5.443 47.134h-18.273c-3.002 0-5.444-2.442-5.444-5.444v-1.956h23.718v7.4zm0-22.401h-23.718v-4.29c0-3.002 2.442-5.443 5.444-5.443h12.83c3.002 0 5.443 2.441 5.443 5.443v4.29z"/><path d="m207.83 280.525h98.115c8.775 0 15.914-7.139 15.914-15.913v-32.369c0-8.775-7.139-15.914-15.914-15.914h-98.115c-8.775 0-15.914 7.139-15.914 15.914v32.369c0 8.775 7.139 15.913 15.914 15.913zm56.558-49.196h41.558c.504 0 .914.41.914.914v8.685h-42.472zm0 24.599h42.472v8.685c0 .504-.41.913-.914.913h-41.558zm-57.472-23.685c0-.504.41-.914.914-.914h41.558v9.599h-42.472zm0 23.685h42.472v9.598h-41.558c-.504 0-.914-.409-.914-.913z"/><path d="m196.134 198.821c3.725 1.814 8.214.264 10.025-3.461l15.897-32.658h73.141l12.149 32.035c1.137 2.998 3.987 4.843 7.014 4.843.884 0 1.783-.157 2.658-.489 3.873-1.469 5.822-5.799 4.354-9.672l-13.427-35.403v-20.376c0-10.416-8.475-18.891-18.891-18.891h-60.39c-10.416 0-18.89 8.475-18.89 18.891v20.021l-17.103 35.135c-1.812 3.724-.262 8.213 3.463 10.025zm68.254-69.072h24.667c2.146 0 3.891 1.745 3.891 3.891v14.063h-28.558zm-39.613 3.891c0-2.146 1.745-3.891 3.89-3.891h20.723v17.953h-24.612v-14.062z"/><path d="m234.054 171.465c-5.523 0-10.017 4.493-10.017 10.017v15.922c0 5.523 4.493 10.017 10.017 10.017h18.011c5.523 0 10.017-4.493 10.017-10.017v-15.922c0-5.523-4.493-10.017-10.017-10.017zm13.028 20.955h-8.044v-5.955h8.044z"/><path d="m274.74 178.965v13.491c-3.794.372-6.759 3.571-6.759 7.464 0 4.143 3.357 7.5 7.5 7.5h6.759c4.143 0 7.5-3.357 7.5-7.5v-20.955c0-4.143-3.357-7.5-7.5-7.5s-7.5 3.357-7.5 7.5z"/></g></g></svg>