<svg id="Capa_1" enable-background="new 0 0 511.999 511.999" height="512" viewBox="0 0 511.999 511.999" width="512" xmlns="http://www.w3.org/2000/svg"><g><g><path d="m109.366 343.078c20.775 0 37.616-16.841 37.616-37.616v-110.106h-75.232v110.106c0 20.774 16.841 37.616 37.616 37.616z" fill="#fdf6ec"/></g><g><path d="m146.977 195.355v110.104c0 20.776-16.833 37.62-37.609 37.62-4.469 0-8.762-.784-12.746-2.219 14.501-5.222 24.863-19.104 24.863-35.401v-110.104z" fill="#fef1da"/></g><g><path d="m84.229 204.564h50.273c12.202 0 22.093-9.892 22.093-22.093 0-25.658-20.8-46.458-46.458-46.458h-1.545c-25.658 0-46.458 20.8-46.458 46.458.002 12.202 9.893 22.093 22.095 22.093z" fill="#fddeb0"/></g><g><path d="m156.596 182.474c0 12.199-9.887 22.087-22.097 22.087h-22.634c-5.243-13.2-8.102-27.443-8.102-42.305 0-8.99 1.042-17.762 3.034-26.205.599-.031 1.197-.041 1.796-.041h1.548c12.829 0 24.44 5.202 32.852 13.613 8.401 8.411 13.603 20.022 13.603 32.851z" fill="#fccd7f"/></g><g><path d="m119.333 354.548c7.291-55.194 35.806-108.853 84.949-142.331h61.947 61.947c49.143 33.478 77.659 87.137 84.949 142.331 7.367 55.773-6.088 105.665-43.515 149.949h-103.381-103.38c-37.428-44.284-50.882-94.176-43.516-149.949z" fill="#fef1da"/></g><g><path d="m138.272 243.603c4.227-6.981 8.476-12.241 8.476-12.241h217.693s4.249 5.26 8.476 12.241c7.207 11.902 4.573 28.381-5.901 36.382-14.143 10.804-39.475 25.883-78.775 35.001-21.548 4.999-43.745 4.999-65.293 0-39.3-9.118-64.632-24.197-78.775-35.001-10.474-8.002-13.108-24.48-5.901-36.382z" fill="#fd9468"/></g><g><g><path d="m371.526 13.019c8.548 17.823 25.567 64.237-9.694 96.432l-70.504-33.698s5.175-47.772 68.343-67.792c4.669-1.48 9.736.641 11.855 5.058z" fill="#fd9468"/></g><g><path d="m361.829 109.449-14.78-7.06c26.824-31.654 11.436-73.289 3.437-89.947-.165-.351-.351-.681-.557-1.001 3.086-1.239 6.327-2.394 9.743-3.478 4.665-1.486 9.733.64 11.859 5.057 8.546 17.824 25.565 64.237-9.702 96.429z" fill="#fe7d43"/></g><g><path d="m139.661 13.019c-8.548 17.823-25.567 64.237 9.694 96.432l70.504-33.698s-5.175-47.772-68.343-67.792c-4.67-1.48-9.736.641-11.855 5.058z" fill="#fd9468"/></g><g><path d="m219.865 75.751-21.013 10.042c-1.982-9.691-12.653-45.773-63.112-63.721 1.362-3.499 2.725-6.554 3.922-9.051 2.116-4.417 7.183-6.543 11.859-5.057 63.163 20.021 68.344 67.787 68.344 67.787z" fill="#fe7d43"/></g></g><g><g><g><path d="m75.038 455.081h88.74v-77.966c0-24.505-19.865-44.37-44.37-44.37-24.505 0-44.37 19.865-44.37 44.37z" fill="#fddeb0"/></g><g><path d="m163.775 377.117v77.964h-20.425v-77.964c0-20.982-14.573-38.569-34.152-43.193 3.282-.764 6.698-1.177 10.207-1.177 24.512 0 44.37 19.868 44.37 44.37z" fill="#fccd7f"/></g><g><path d="m75.038 455.081h44.37 44.37s13.788 10.621 18.112 35.482c1.268 7.29-4.449 13.933-11.848 13.933h-50.635-50.634c-7.399 0-13.116-6.643-11.848-13.933 4.325-24.861 18.113-35.482 18.113-35.482z" fill="#fbc56d"/></g><g><path d="m170.04 504.497h-20.642c7.4 0 13.118-6.647 11.848-13.933-4.324-24.863-18.113-35.483-18.113-35.483h20.642s13.789 10.62 18.113 35.483c1.27 7.287-4.448 13.933-11.848 13.933z" fill="#e9b665"/></g></g><g><g><path d="m347.411 455.081h44.37 44.37s13.788 10.621 18.112 35.482c1.268 7.29-4.449 13.933-11.848 13.933h-50.635-50.635c-7.399 0-13.116-6.643-11.848-13.933 4.326-24.861 18.114-35.482 18.114-35.482z" fill="#fbc56d"/></g><g><path d="m442.413 504.497h-20.642c7.4 0 13.118-6.647 11.848-13.933-4.324-24.863-18.113-35.483-18.113-35.483h20.642s13.789 10.62 18.113 35.483c1.27 7.287-4.448 13.933-11.848 13.933z" fill="#e9b665"/></g></g></g><g><g><ellipse cx="255.594" cy="162.254" fill="#fef1da" rx="125.52" ry="123.308"/></g><g><path d="m381.115 162.255c0 68.098-56.201 123.304-125.521 123.304-29.665 0-56.926-10.104-78.409-27.02 18.46 10.507 39.905 16.513 62.789 16.513 69.319 0 125.521-55.207 125.521-123.314 0-38.941-18.383-73.671-47.082-96.253 37.489 21.323 62.702 61.152 62.702 106.77z" fill="#fae2c0"/></g></g><g><g><path d="m230.099 173.432c-1.635-7.275 3.997-14.165 11.453-14.165h13.884 13.885c7.456 0 13.087 6.89 11.453 14.165-1.624 7.229-6.706 15.85-20.205 22.383-3.239 1.567-7.026 1.567-10.265 0-13.499-6.533-18.581-15.154-20.205-22.383z" fill="#7a6d79"/></g><g><path d="m280.774 173.432c-1.621 7.233-6.702 15.845-20.207 22.388-3.241 1.561-7.022 1.561-10.264 0-5.072-2.461-8.963-5.212-11.914-8.073 1.711-.02 3.411-.42 4.992-1.18 13.495-6.532 18.577-15.155 20.207-22.378.38-1.691.37-3.351.03-4.922h5.702c7.453 0 13.085 6.893 11.454 14.165z" fill="#685e68"/></g></g><g><g><path d="m365.853 503.765c38.821 0 70.292-31.471 70.292-70.292v-146.027c0-38.821-31.471-70.292-70.292-70.292-38.821 0-70.292 31.471-70.292 70.292v146.027c0 38.821 31.471 70.292 70.292 70.292z" fill="#fee97d"/></g><g><path d="m436.148 287.45v146.025c0 38.819-31.472 70.291-70.291 70.291-3.299 0-6.55-.228-9.726-.673 34.212-4.74 60.555-34.098 60.555-69.618v-146.025c0-35.52-26.344-64.888-60.555-69.627 3.176-.446 6.427-.673 9.726-.673 38.819 0 70.291 31.472 70.291 70.3z" fill="#fedf30"/></g></g><g><path d="m379.947 261.383 29.465 37.12c7.151 9.009 20.252 10.515 29.261 3.364 18.945-15.038 22.112-42.586 7.074-61.531l-.905-1.141c-15.038-18.945-42.586-22.112-61.531-7.074-9.009 7.152-10.515 20.252-3.364 29.262z" fill="#fddeb0"/></g><g><path d="m455.243 267.539c0 12.901-5.677 25.678-16.565 34.327-9.01 7.152-22.118 5.646-29.27-3.365l-5.986-7.545c4.397-.083 8.793-1.558 12.499-4.51 10.899-8.649 16.575-21.437 16.575-34.338 0-9.537-3.107-19.145-9.495-27.196l-.495-.63c8.525 2.415 16.4 7.431 22.334 14.914l.908 1.135c6.388 8.053 9.495 17.661 9.495 27.208z" fill="#fccd7f"/></g><g><path d="m301.657 161.172c.885 3.369 3.924 5.6 7.253 5.6.63 0 1.271-.08 1.909-.248l35.243-9.248c4.008-1.052 6.405-5.153 5.353-9.161-1.053-4.007-5.154-6.407-9.161-5.352l-35.243 9.248c-4.009 1.051-6.405 5.153-5.354 9.161z"/><path d="m346.062 186.57-35.243-9.248c-4.004-1.052-8.108 1.345-9.161 5.352-1.051 4.008 1.345 8.11 5.354 9.161l35.243 9.248c.638.168 1.279.248 1.909.248 3.327 0 6.367-2.231 7.252-5.6 1.05-4.007-1.346-8.109-5.354-9.161z"/><path d="m159.458 148.115c-1.051 4.008 1.345 8.11 5.353 9.161l35.243 9.248c.638.168 1.279.248 1.909.248 3.327 0 6.367-2.231 7.252-5.6 1.051-4.008-1.345-8.11-5.354-9.161l-35.243-9.248c-4.004-1.051-8.107 1.345-9.16 5.352z"/><path d="m200.054 177.323-35.243 9.248c-4.008 1.052-6.405 5.153-5.353 9.161.885 3.369 3.924 5.6 7.252 5.6.63 0 1.271-.08 1.909-.248l35.243-9.248c4.008-1.052 6.405-5.153 5.354-9.161-1.053-4.008-5.154-6.406-9.162-5.352z"/><path d="m222.779 175.077c1.812 8.063 7.491 19.377 24.256 27.492.297.144.597.276.899.404v24.655c0 4.144 3.359 7.503 7.503 7.503s7.503-3.359 7.503-7.503v-24.655c.302-.128.602-.26.899-.404 16.767-8.115 22.445-19.429 24.256-27.492 1.273-5.667-.086-11.528-3.73-16.081-3.677-4.595-9.16-7.231-15.042-7.231h-27.769c-5.883 0-11.366 2.636-15.043 7.232-3.646 4.552-5.005 10.413-3.732 16.08zm15.445-6.705c.815-1.018 2.028-1.602 3.328-1.602h27.769c1.3 0 2.513.584 3.328 1.602.458.573 1.172 1.779.805 3.417-1.582 7.04-7.016 12.852-16.152 17.274-1.17.565-2.564.564-3.729 0-9.136-4.421-14.572-10.234-16.154-17.274-.367-1.638.347-2.844.805-3.417z"/><path d="m215.628 134.866c4.144 0 7.502-3.359 7.502-7.503v-13.946c0-4.144-3.358-7.503-7.502-7.503s-7.503 3.359-7.503 7.503v13.946c0 4.144 3.359 7.503 7.503 7.503z"/><path d="m295.561 134.866c4.144 0 7.503-3.359 7.503-7.503v-13.946c0-4.144-3.359-7.503-7.503-7.503s-7.502 3.359-7.502 7.503v13.946c0 4.144 3.358 7.503 7.502 7.503z"/><path d="m331.805 278.764h18.284c4.144 0 7.503-3.359 7.503-7.503s-3.359-7.503-7.503-7.503h-18.284c-4.144 0-7.502 3.359-7.502 7.503s3.358 7.503 7.502 7.503z"/><path d="m331.805 314.443h34.048c4.144 0 7.503-3.359 7.503-7.503s-3.359-7.503-7.503-7.503h-34.048c-4.144 0-7.502 3.359-7.502 7.503s3.358 7.503 7.502 7.503z"/><path d="m399.902 335.117h-68.096c-4.144 0-7.502 3.359-7.502 7.503 0 4.143 3.358 7.503 7.502 7.503h68.096c4.144 0 7.503-3.359 7.503-7.503-.001-4.144-3.359-7.503-7.503-7.503z"/><path d="m399.902 370.797h-68.096c-4.144 0-7.502 3.359-7.502 7.503 0 4.143 3.358 7.503 7.502 7.503h68.096c4.144 0 7.503-3.359 7.503-7.503-.001-4.144-3.359-7.503-7.503-7.503z"/><path d="m399.902 406.476h-68.096c-4.144 0-7.502 3.359-7.502 7.503 0 4.143 3.358 7.503 7.502 7.503h68.096c4.144 0 7.503-3.359 7.503-7.503-.001-4.144-3.359-7.503-7.503-7.503z"/><path d="m399.902 442.155h-68.096c-4.144 0-7.502 3.359-7.502 7.503 0 4.143 3.358 7.503 7.502 7.503h68.096c4.144 0 7.503-3.359 7.503-7.503-.001-4.144-3.359-7.503-7.503-7.503z"/><path d="m443.647 307.484c10.549-8.506 17.21-20.583 18.76-34.061 1.566-13.612-2.263-27.02-10.783-37.753l-.906-1.14c-12.9-16.252-33.735-22.567-52.667-17.844-5.957-2.724-12.304-4.737-18.949-5.883 6.129-15.019 9.515-31.401 9.515-48.549 0-20.25-4.704-39.439-13.093-56.568 9.443-11.996 14.542-26.188 15.139-42.367.152-4.141-3.08-7.621-7.221-7.774-4.096-.151-7.621 3.081-7.774 7.221-.392 10.621-3.207 20.162-8.373 28.53-13.039-19.78-31.359-35.891-52.98-46.396 9.307-10.956 24.112-22.335 47.625-29.787 1.127-.358 2.337.139 2.823 1.151 2.353 4.906 4.394 10.013 6.065 15.179 1.275 3.942 5.502 6.104 9.448 4.829 3.942-1.275 6.105-5.505 4.829-9.447-1.878-5.804-4.169-11.541-6.813-17.05-3.699-7.714-12.681-11.569-20.886-8.966-29.208 9.257-46.87 24.104-57.531 38.094-13.859-4.825-28.76-7.461-44.279-7.461s-30.422 2.636-44.281 7.462c-10.661-13.991-28.321-28.838-57.529-38.095-8.213-2.603-17.189 1.253-20.887 8.965-.001 0-.001 0-.001 0-5.091 10.615-11.359 27.157-12.309 45.686-.998 19.468 4.081 36.304 15.072 50.238-3.931 8.029-7.04 16.514-9.247 25.345-5.139-1.632-10.601-2.533-16.274-2.533h-1.544c-29.754 0-53.96 24.207-53.96 53.96 0 8.623 3.709 16.395 9.614 21.809v101.182c0 14.578 6.956 27.553 17.718 35.804-8.931 9.319-14.43 21.951-14.43 35.849v19.091c0 4.144 3.359 7.503 7.503 7.503s7.503-3.359 7.503-7.503v-19.091c0-20.329 16.539-36.867 36.867-36.867s36.867 16.539 36.867 36.867v70.464h-73.738v-17.473c0-4.144-3.359-7.503-7.503-7.503s-7.503 3.359-7.503 7.503v21.711c-4.874 4.962-14.435 16.959-18 37.461-.978 5.621.576 11.361 4.266 15.747 3.727 4.432 9.185 6.974 14.973 6.974h373.642c5.788 0 11.246-2.542 14.973-6.974 3.69-4.386 5.244-10.126 4.266-15.747-4.092-23.526-16.071-35.847-19.81-39.196 1.169-5.355 1.803-10.908 1.803-16.608zm-188.053-261.035c65.074 0 118.017 51.95 118.017 115.806 0 16.906-3.725 32.971-10.391 47.464-36.854 1.234-67.278 28.211-73.833 63.49-10.711 3.149-22.052 4.851-33.793 4.851-65.074 0-118.017-51.95-118.017-115.805s52.943-115.806 118.017-115.806zm32.465 242.648v18.219c-.504.121-1.003.243-1.513.362-20.535 4.765-41.364 4.766-61.902 0-37.82-8.775-62.158-23.144-75.916-33.654-7.451-5.692-9.3-17.843-4.038-26.534 1.571-2.595 3.154-4.947 4.487-6.833 24.289 31.801 62.951 52.41 106.417 52.41 11.199-.002 22.069-1.393 32.465-3.97zm-141.633-272.833c.486-1.012 1.699-1.505 2.824-1.15 23.517 7.453 38.317 18.834 47.622 29.788-21.612 10.5-39.925 26.602-52.962 46.371-16.743-27.271-4.422-60.543 2.516-75.009zm-76.788 166.207c0-21.48 17.475-38.955 38.955-38.955h1.544c4.738 0 9.274.863 13.477 2.421-.68 5.348-1.042 10.791-1.042 16.317 0 12.049 1.673 23.72 4.789 34.807h-43.132c-8.045 0-14.591-6.545-14.591-14.59zm47.861 142.82c-8.3.302-16.102 2.575-22.97 6.344-9.11-5.183-15.277-14.964-15.277-26.174v-93.821c1.62.276 3.281.427 4.977.427h48.372c2.23 5.305 4.799 10.438 7.691 15.366-1.39 1.787-4.908 6.453-8.439 12.284-7.889 13.03-6.443 30.132 2.63 41.236-7.169 13.935-12.873 28.804-16.984 44.338zm56.033 170.075c-.869 1.034-2.141 1.627-3.49 1.627h-101.268c-1.348 0-2.62-.593-3.49-1.627-.488-.581-1.264-1.81-.967-3.517 2.884-16.579 10.267-25.799 13.641-29.265h82.9c3.373 3.466 10.758 12.686 13.641 29.265.297 1.708-.478 2.936-.967 3.517zm15.517 1.629c.589-2.502.685-5.121.233-7.717-3.565-20.501-13.127-32.498-18.001-37.461v-74.702c0-24.045-16.447-44.315-38.679-50.167 3.479-12.597 8.075-24.708 13.727-36.16 15.61 10.67 39.979 23.398 74.925 31.506 11.395 2.643 22.868 3.965 34.343 3.965 10.844 0 21.687-1.196 32.464-3.557v110.771c0 26.205 13.028 49.419 32.943 63.522zm176.805-.733c-34.622 0-62.79-28.167-62.79-62.789v-146.027c0-34.622 28.167-62.789 62.79-62.789 4.48 0 8.847.485 13.064 1.384-.089.07-.182.133-.271.204-5.927 4.705-9.667 11.436-10.531 18.953-.865 7.518 1.251 14.922 5.956 20.849l29.465 37.119c5.586 7.037 13.863 10.705 22.218 10.705.964 0 1.927-.067 2.889-.165v119.766c-.002 34.623-28.169 62.79-62.79 62.79zm81.018-4.413c.297 1.708-.479 2.937-.967 3.517-.869 1.034-2.141 1.627-3.49 1.627h-31.734c11.018-7.799 19.925-18.378 25.688-30.719 3.638 4.83 8.338 13.128 10.503 25.575zm-12.864-195.859c-5.753 4.566-14.151 3.603-18.72-2.153l-29.464-37.119c-2.213-2.788-3.207-6.27-2.801-9.806s2.165-6.702 4.953-8.914c6.66-5.287 14.618-7.851 22.527-7.851 10.702 0 21.309 4.7 28.464 13.714l.906 1.14c6.026 7.593 8.735 17.079 7.628 26.709s-5.899 18.253-13.493 24.28z"/></g></g></svg>