<svg id="Capa_1" enable-background="new 0 0 512 512" height="512" viewBox="0 0 512 512" width="512" xmlns="http://www.w3.org/2000/svg"><g><g><path d="m345.454 7.482h-178.908c-3.457 0-6.656 1.827-8.412 4.804l-52.679 89.292c-.887 1.503-1.355 3.217-1.355 4.963v397.977h303.801v-397.977c0-1.746-.468-3.459-1.355-4.963l-52.679-89.292c-1.757-2.977-4.956-4.804-8.413-4.804z" fill="#fd9468"/></g><g><path d="m407.901 106.54v397.982h-19.951v-397.982c0-1.746-.469-3.462-1.357-4.958l-52.682-89.292c-1.756-2.983-4.948-4.808-8.41-4.808h19.951c3.462 0 6.654 1.826 8.41 4.808l52.682 89.293c.888 1.496 1.357 3.212 1.357 4.957z" fill="#fe7d43"/></g><g><path d="m256 163.117c-8.744 0-15.833-7.088-15.833-15.832v-61.697c0-8.744 7.088-15.832 15.832-15.832 8.744 0 15.832 7.088 15.832 15.832v61.697c.001 8.744-7.087 15.832-15.831 15.832z" fill="#7a6d79"/></g><g><path d="m271.832 85.591v61.69c0 8.749-7.083 15.832-15.831 15.832-2.883 0-5.586-.768-7.911-2.125 4.728-2.733 7.911-7.851 7.911-13.707v-61.69c0-4.369-1.776-8.33-4.639-11.193-.968-.978-2.075-1.826-3.272-2.514 2.324-1.357 5.028-2.125 7.911-2.125 4.369 0 8.33 1.766 11.193 4.639 2.872 2.864 4.638 6.824 4.638 11.193z" fill="#685e68"/></g><g><g><path d="m240.168 144.906c-9.394 14.598-25.786 24.287-44.398 24.287-29.09 0-52.756-23.666-52.756-52.756s23.666-52.757 52.756-52.757c18.181 0 34.908 9.245 44.398 23.28zm-44.398-53.536c-13.822 0-25.067 11.245-25.067 25.067s11.245 25.067 25.067 25.067 25.067-11.245 25.067-25.067-11.245-25.067-25.067-25.067z" fill="#7a6d79"/></g></g><g><g><path d="m224.736 72.104c.467.59.921 4.289 1.36 7.069.472 2.988.695 6.01.695 9.035v24.056c0 23.835-18.597 43.961-42.416 44.847-.659.024-1.321.037-1.986.037-10.315 0-19.941-2.973-28.072-8.11 9.666 12.26 24.65 20.151 41.449 20.151 18.615 0 35.005-9.686 44.402-24.281v-57.95c-3.99-5.916-9.287-10.983-15.432-14.854z" fill="#685e68"/></g></g><g><g><path d="m271.832 86.96c9.49-14.036 26.217-23.28 44.398-23.28 29.09 0 52.756 23.666 52.756 52.756s-23.666 52.756-52.756 52.756c-18.612 0-35.004-9.688-44.398-24.287zm19.332 29.476c0 13.822 11.245 25.067 25.067 25.067s25.067-11.245 25.067-25.067-11.246-25.066-25.068-25.066-25.066 11.244-25.066 25.066z" fill="#7a6d79"/></g></g><g><g><path d="m338.051 68.413c9.337 9.517 15.103 22.555 15.103 36.91 0 29.089-23.662 52.752-52.752 52.752-7.781 0-15.173-1.696-21.827-4.738 9.567 9.776 22.914 15.851 37.658 15.851 29.089 0 52.752-23.662 52.752-52.752 0-21.308-12.699-39.713-30.934-48.023z" fill="#685e68"/></g></g><g><path d="m104.1 468.964c0-19.636 15.918-35.555 35.555-35.555 12.028 0 22.652 5.978 29.086 15.119 6.434-9.141 17.059-15.119 29.086-15.119 12.028 0 22.652 5.978 29.086 15.119 6.434-9.141 17.059-15.119 29.086-15.119 12.028 0 22.652 5.978 29.086 15.119 6.434-9.141 17.059-15.119 29.086-15.119s22.652 5.978 29.086 15.119c6.434-9.141 17.059-15.119 29.086-15.119 19.636 0 35.555 15.918 35.555 35.555v35.555h-303.798z" fill="#fee97d"/></g><g><path d="m407.901 468.969v35.554h-19.951v-67.516c11.81 5.775 19.951 17.916 19.951 31.962z" fill="#fedf30"/></g><g><path d="m287.282 392.929h-62.564c-4.883 0-8.842-3.959-8.842-8.842v-165.572c0-4.883 3.959-8.842 8.842-8.842h62.564c4.883 0 8.842 3.959 8.842 8.842v165.571c0 4.884-3.958 8.843-8.842 8.843z" fill="#fef1da"/></g><g><path d="m296.123 218.518v165.567c0 4.888-3.96 8.848-8.839 8.848h-21.109c4.888 0 8.848-3.96 8.848-8.848v-165.567c0-4.888-3.96-8.848-8.848-8.848h21.109c4.878-.001 8.839 3.96 8.839 8.848z" fill="#fae2c0"/></g><g><path d="m195.77 83.888c-17.948 0-32.549 14.601-32.549 32.549 0 17.947 14.601 32.548 32.549 32.548 17.947 0 32.548-14.601 32.548-32.548.001-17.948-14.601-32.549-32.548-32.549zm0 50.133c-9.697 0-17.585-7.888-17.585-17.584 0-9.697 7.888-17.585 17.585-17.585 9.696 0 17.585 7.888 17.585 17.585 0 9.696-7.889 17.584-17.585 17.584z"/><path d="m376.468 116.437c0-33.216-27.022-60.238-60.237-60.238-15.283 0-30.134 5.875-41.251 15.875-4.232-5.925-11.16-9.799-18.98-9.799s-14.747 3.874-18.979 9.799c-11.118-10-25.969-15.874-41.251-15.874-33.216 0-60.238 27.023-60.238 60.238s27.023 60.238 60.238 60.238c15.474 0 30.03-5.865 41.047-16.159 4.211 6.087 11.237 10.084 19.182 10.084s14.972-3.998 19.183-10.084c11.018 10.294 25.573 16.16 41.048 16.16 33.216-.003 60.238-27.025 60.238-60.24zm-143.783 26.181c-8.519 11.994-22.165 19.092-36.915 19.092-24.965 0-45.275-20.31-45.275-45.274 0-24.965 20.31-45.275 45.275-45.275 14.471 0 28.411 6.919 36.915 18.191zm31.666 4.667c0 4.604-3.747 8.351-8.351 8.351s-8.351-3.746-8.351-8.351v-61.697c0-4.604 3.746-8.351 8.351-8.351s8.351 3.746 8.351 8.351zm14.964-4.668v-53.263c8.503-11.273 22.443-18.193 36.916-18.193 24.964 0 45.274 20.31 45.274 45.275 0 24.964-20.31 45.274-45.274 45.274-14.752 0-28.398-7.098-36.916-19.093z"/><path d="m348.778 116.437c0-17.948-14.601-32.549-32.548-32.549-17.948 0-32.549 14.601-32.549 32.549 0 17.947 14.601 32.548 32.549 32.548 17.947 0 32.548-14.601 32.548-32.548zm-50.133 0c0-9.697 7.889-17.585 17.585-17.585s17.584 7.888 17.584 17.585c0 9.696-7.888 17.584-17.584 17.584s-17.585-7.888-17.585-17.584z"/><path d="m407.9 370.954c4.133 0 7.482-3.35 7.482-7.482v-256.931c0-3.08-.827-6.11-2.392-8.765l-52.679-89.292c-3.088-5.233-8.781-8.484-14.857-8.484h-178.908c-6.076 0-11.769 3.251-14.856 8.484l-52.68 89.292c-1.565 2.654-2.393 5.684-2.393 8.764v397.977c0 4.132 3.35 7.482 7.482 7.482h303.8c4.133 0 7.482-3.35 7.482-7.482v-106.017c0-4.132-3.349-7.482-7.482-7.482-4.132 0-7.482 3.35-7.482 7.482v37.885c-7.542-6.508-17.352-10.458-28.072-10.458-10.858 0-21.222 4.125-29.087 11.334-7.866-7.21-18.228-11.334-29.086-11.334s-21.222 4.125-29.086 11.334c-7.866-7.21-18.228-11.334-29.086-11.334s-21.221 4.125-29.086 11.334c-7.865-7.21-18.228-11.334-29.086-11.334s-21.221 4.125-29.086 11.334c-7.865-7.21-18.228-11.334-29.086-11.334-10.721 0-20.53 3.949-28.073 10.458v-329.844c0-.408.11-.81.317-1.161l52.679-89.292c.409-.694 1.164-1.124 1.968-1.124h178.908c.805 0 1.559.43 1.968 1.124l52.678 89.29c.208.352.318.754.318 1.163v256.931c-.001 4.132 3.349 7.482 7.481 7.482zm-268.246 69.937c9.118 0 17.704 4.465 22.969 11.944 1.401 1.991 3.683 3.175 6.118 3.175s4.717-1.185 6.118-3.175c5.264-7.479 13.85-11.944 22.968-11.944s17.704 4.465 22.969 11.944c1.401 1.991 3.683 3.175 6.118 3.175s4.717-1.185 6.118-3.175c5.264-7.479 13.85-11.944 22.968-11.944 9.117 0 17.704 4.465 22.969 11.944 1.401 1.991 3.683 3.175 6.118 3.175s4.717-1.185 6.118-3.175c5.264-7.479 13.85-11.944 22.969-11.944 9.117 0 17.704 4.465 22.969 11.944 1.401 1.991 3.683 3.175 6.118 3.175s4.717-1.185 6.118-3.175c5.264-7.479 13.85-11.944 22.969-11.944 15.479 0 28.072 12.594 28.072 28.073v28.073h-288.838v-28.073c0-15.48 12.593-28.073 28.072-28.073z"/><path d="m215.876 267.593c-4.132 0-7.482 3.35-7.482 7.482v109.012c0 9.001 7.323 16.324 16.324 16.324h62.564c9.001 0 16.324-7.323 16.324-16.324v-165.572c0-9.001-7.323-16.324-16.324-16.324h-62.564c-9.001 0-16.324 7.323-16.324 16.324v21.926c0 4.132 3.35 7.482 7.482 7.482s7.482-3.35 7.482-7.482v-21.926c0-.75.61-1.36 1.36-1.36h62.564c.75 0 1.36.61 1.36 1.36v165.571c0 .75-.61 1.36-1.36 1.36h-62.564c-.75 0-1.36-.61-1.36-1.36v-109.012c0-4.132-3.35-7.481-7.482-7.481z"/></g></g></svg>