<svg id="Capa_1" enable-background="new 0 0 512 512" height="512" viewBox="0 0 512 512" width="512" xmlns="http://www.w3.org/2000/svg"><g><g><path d="m283.753 243.324c6.704-5.657 10.967-14.116 10.967-23.574 0-13.44-8.601-24.865-20.597-29.088 1.934-4.032 3.018-8.548 3.018-13.318 0-15.296-11.14-27.984-25.748-30.411 1.44-3.566 2.241-7.458 2.241-11.54 0-17.031-13.806-30.837-30.837-30.837-.55 0-1.096.016-1.639.044.057-.766.096-1.537.096-2.317 0-17.031-13.806-30.837-30.837-30.837-2.948 0-5.796.423-8.497 1.195-.569-16.53-14.14-29.759-30.809-29.759s-30.24 13.228-30.809 29.759c-2.7-.773-5.548-1.195-8.497-1.195-17.031 0-30.837 13.806-30.837 30.837 0 .78.039 1.551.096 2.317-.543-.028-1.089-.044-1.639-.044-17.031 0-30.837 13.806-30.837 30.837 0 4.082.8 7.974 2.241 11.54-14.608 2.427-25.748 15.115-25.748 30.411 0 4.77 1.084 9.286 3.018 13.318-11.996 4.223-20.597 15.648-20.597 29.088 0 9.458 4.262 17.917 10.967 23.574-6.704 5.657-10.967 14.116-10.967 23.574 0 17.031 13.806 30.837 30.837 30.837 1.539 0 3.05-.116 4.529-.334.135 16.915 13.884 30.586 30.83 30.586 10.972 0 20.598-5.735 26.064-14.365 5.466 8.631 15.092 14.365 26.064 14.365 10.468 0 19.712-5.221 25.286-13.196 5.574 7.975 14.818 13.196 25.286 13.196 10.972 0 20.598-5.735 26.064-14.365 5.466 8.631 15.092 14.365 26.064 14.365 16.946 0 30.695-13.671 30.83-30.586 1.479.218 2.99.334 4.529.334 17.031 0 30.837-13.806 30.837-30.837-.002-9.458-4.265-17.917-10.969-23.574z" fill="#fef1da"/></g><g><path d="m283.755 243.322c6.702-5.652 10.963-14.114 10.963-23.567 0-13.444-8.602-24.867-20.596-29.089 1.931-4.031 3.021-8.553 3.021-13.324 0-15.295-11.143-27.978-25.747-30.409 1.44-3.561 2.24-7.462 2.24-11.544 0-17.025-13.804-30.829-30.839-30.829-.55 0-1.1.01-1.64.04.06-.76.1-1.541.1-2.321 0-17.025-13.804-30.829-30.839-30.829-2.951 0-5.802.42-8.493 1.19-.57-16.525-14.144-29.759-30.809-29.759-9.423 0-17.855 4.221-23.507 10.883 1.931-.118 4.746.379 5.516.523 1.86.347 3.687.866 5.452 1.549 3.454 1.338 6.657 3.307 9.417 5.777 3.292 2.946 5.997 6.573 7.648 10.684.959 2.39 1.432 4.831 1.75 7.374.389 3.108 1.74 5.058 5.01 4.361 1.205-.257 2.379-.894 3.59-1.067 4.561-.651 9.229.222 13.413 2.087 7.836 3.493 13.816 10.079 16.573 18.243.925 2.739.639 5.703 1.489 8.451 1.104 3.566 3.205 4.066 6.703 4.244 5.372.274 10.969 3.435 14.978 6.84 5.509 4.679 9.271 11.244 10.417 18.39.448 2.792.53 5.642.219 8.453-.33 2.988-2.433 7.458 1.322 9.011 2.462 1.019 4.872 1.611 7.186 2.976 3.07 1.812 5.82 4.157 8.096 6.9 4.565 5.501 7.09 12.517 7.09 19.664 0 2.855-.399 5.677-1.167 8.426-1.508 5.401 3.467 7.02 6.861 9.668 2.46 1.919 4.627 4.21 6.405 6.774 3.558 5.129 5.475 11.293 5.475 17.535 0 4.641-1.049 9.262-3.074 13.439-1.001 2.064-2.234 4.014-3.667 5.806-3.461 4.327-.138 8.255 2.248 12.154 2.921 4.774 4.493 10.107 4.493 15.756 0 7.602-2.761 14.574-7.322 19.956h.15c17.035 0 30.839-13.814 30.839-30.839 0-9.463-4.262-17.916-10.964-23.577z" fill="#fae2c0"/></g><g><path d="m178.846 332.715h-55.47c-6.471 0-11.718-5.246-11.718-11.718v-123.845c0-6.471 5.246-11.718 11.718-11.718h55.47c6.471 0 11.718 5.246 11.718 11.718v123.845c0 6.472-5.246 11.718-11.718 11.718z" fill="#7a6d79"/></g><g><path d="m190.567 197.148v123.847c0 6.472-5.252 11.724-11.723 11.724h-20.006c6.472 0 11.723-5.252 11.723-11.724v-123.847c0-6.462-5.252-11.714-11.723-11.714h20.006c6.472 0 11.723 5.252 11.723 11.714z" fill="#685e68"/></g><g><path d="m493.531 379.725c6.704-5.657 10.967-14.116 10.967-23.574 0-13.44-8.601-24.865-20.597-29.088 1.933-4.032 3.018-8.548 3.018-13.318 0-15.296-11.14-27.984-25.748-30.411 1.44-3.566 2.241-7.458 2.241-11.54 0-17.031-13.806-30.837-30.837-30.837-.55 0-1.096.016-1.639.044.057-.766.096-1.537.096-2.317 0-17.031-13.806-30.837-30.837-30.837-2.948 0-5.796.423-8.497 1.195-.569-16.53-14.14-29.759-30.809-29.759s-30.24 13.228-30.809 29.759c-2.7-.773-5.548-1.195-8.497-1.195-17.031 0-30.837 13.806-30.837 30.837 0 .78.039 1.551.096 2.317-.543-.028-1.089-.044-1.639-.044-17.031 0-30.837 13.806-30.837 30.837 0 4.082.8 7.974 2.241 11.54-14.608 2.427-25.748 15.115-25.748 30.411 0 4.77 1.084 9.286 3.018 13.318-11.996 4.223-20.597 15.648-20.597 29.088 0 9.458 4.262 17.917 10.967 23.574-6.704 5.657-10.967 14.116-10.967 23.574 0 17.031 13.806 30.837 30.837 30.837 1.539 0 3.05-.116 4.529-.334.135 16.914 13.884 30.586 30.83 30.586 10.972 0 20.598-5.735 26.064-14.365 5.466 8.631 15.092 14.365 26.064 14.365 10.468 0 19.712-5.221 25.286-13.196 5.574 7.975 14.818 13.196 25.286 13.196 10.972 0 20.598-5.735 26.064-14.365 5.466 8.631 15.092 14.365 26.064 14.365 16.946 0 30.695-13.671 30.83-30.586 1.479.218 2.99.334 4.529.334 17.031 0 30.837-13.806 30.837-30.837-.002-9.458-4.265-17.917-10.969-23.574z" fill="#fef1da"/></g><g><path d="m493.533 379.723c6.702-5.652 10.963-14.114 10.963-23.567 0-13.444-8.602-24.867-20.596-29.089 1.931-4.031 3.021-8.553 3.021-13.324 0-15.295-11.143-27.978-25.747-30.409 1.44-3.561 2.24-7.462 2.24-11.544 0-17.025-13.804-30.829-30.839-30.829-.55 0-1.1.01-1.64.04.06-.76.1-1.54.1-2.321 0-17.025-13.804-30.829-30.839-30.829-2.951 0-5.802.42-8.493 1.19-.57-16.525-14.144-29.759-30.809-29.759-9.423 0-17.855 4.221-23.507 10.883 1.931-.118 4.746.379 5.516.523 1.86.347 3.687.866 5.452 1.549 3.454 1.338 6.657 3.307 9.417 5.777 3.292 2.946 5.997 6.573 7.648 10.684.959 2.39 1.432 4.831 1.75 7.374.389 3.108 1.74 5.058 5.01 4.361 1.205-.257 2.379-.894 3.59-1.067 4.561-.651 9.229.222 13.413 2.087 7.836 3.493 13.816 10.079 16.573 18.243.925 2.739.639 5.703 1.489 8.451 1.104 3.566 3.205 4.066 6.703 4.244 5.372.274 10.969 3.435 14.978 6.84 5.509 4.679 9.271 11.244 10.417 18.39.448 2.792.53 5.642.219 8.453-.33 2.988-2.433 7.458 1.322 9.011 2.462 1.019 4.872 1.611 7.186 2.976 3.07 1.812 5.82 4.157 8.096 6.9 4.565 5.501 7.09 12.517 7.09 19.664 0 2.855-.399 5.677-1.167 8.426-1.508 5.401 3.467 7.02 6.861 9.668 2.46 1.919 4.627 4.21 6.405 6.774 3.558 5.129 5.475 11.293 5.475 17.535 0 4.641-1.049 9.262-3.074 13.439-1.001 2.064-2.234 4.014-3.667 5.806-3.461 4.327-.138 8.255 2.248 12.154 2.921 4.774 4.493 10.107 4.493 15.756 0 7.602-2.761 14.574-7.322 19.956h.15c17.035 0 30.839-13.814 30.839-30.839 0-9.463-4.262-17.915-10.964-23.577z" fill="#fae2c0"/></g><g><path d="m388.624 469.116h-55.47c-6.471 0-11.717-5.246-11.717-11.717v-123.845c0-6.471 5.246-11.718 11.717-11.718h55.47c6.471 0 11.717 5.246 11.717 11.718v123.845c.001 6.471-5.246 11.717-11.717 11.717z" fill="#7a6d79"/></g><g><path d="m400.345 333.549v123.847c0 6.472-5.252 11.724-11.724 11.724h-20.006c6.472 0 11.723-5.252 11.723-11.724v-123.847c0-6.462-5.252-11.714-11.723-11.714h20.006c6.473 0 11.724 5.252 11.724 11.714z" fill="#685e68"/></g><g><circle cx="229.311" cy="213.527" r="10.003"/><ellipse cx="141.108" cy="110.822" rx="10.003" ry="10.003" transform="matrix(.973 -.23 .23 .973 -21.687 35.385)"/><ellipse cx="101.655" cy="153.615" rx="10.003" ry="10.003" transform="matrix(.707 -.707 .707 .707 -78.848 116.874)"/><path d="m512 356.151c0-13.675-7.298-26.141-18.749-32.956.778-3.063 1.17-6.222 1.17-9.45 0-16.001-9.726-29.888-24.035-35.59.351-2.091.528-4.216.528-6.361 0-19.218-14.214-35.178-32.681-37.922-2.375-18.877-18.528-33.526-38.038-33.526-.735 0-1.469.021-2.202.064-4.275-16.585-19.23-28.627-37.104-28.627s-32.829 12.042-37.104 28.627c-.733-.043-1.467-.064-2.202-.064-7.995 0-15.423 2.463-21.573 6.665-2.966-8.406-8.792-15.607-16.537-20.217.778-3.063 1.17-6.223 1.17-9.45 0-16.001-9.726-29.888-24.036-35.59.351-2.091.528-4.216.528-6.361 0-19.218-14.214-35.178-32.68-37.922-2.375-18.877-18.528-33.526-38.039-33.526-.735 0-1.469.021-2.202.063-4.275-16.585-19.23-28.627-37.104-28.627s-32.829 12.042-37.104 28.627c-.733-.042-1.467-.063-2.202-.063-19.51 0-35.664 14.649-38.038 33.526-18.466 2.744-32.681 18.704-32.681 37.922 0 2.146.177 4.27.528 6.361-14.31 5.701-24.035 19.589-24.035 35.59 0 3.228.392 6.387 1.17 9.45-11.45 6.816-18.748 19.281-18.748 32.956 0 8.633 2.891 16.895 8.107 23.574-5.216 6.679-8.107 14.942-8.107 23.574 0 20.428 16.058 37.175 36.215 38.281 3.715 17.28 19.159 30.31 37.483 30.31 9.838 0 19.068-3.702 26.064-10.212 2.087 1.942 4.379 3.625 6.821 5.044 3.286 5.895 9.578 9.896 16.794 9.896h55.47c7.214 0 13.505-4 16.791-9.893 2.443-1.419 4.735-3.104 6.823-5.047 4.18 3.889 9.162 6.765 14.591 8.456-4.61 6.39-7.274 14.179-7.274 22.418 0 8.633 2.891 16.897 8.108 23.575-2.609 3.341-4.656 7.1-6.039 11.13-1.345 3.919.741 8.187 4.66 9.532s8.187-.741 9.532-4.66c1.367-3.981 3.803-7.532 7.047-10.269 1.689-1.425 2.664-3.523 2.664-5.734s-.975-4.308-2.664-5.734c-5.276-4.452-8.302-10.954-8.302-17.84 0-9.884 6.264-18.729 15.586-22.011 2.011-.708 3.625-2.237 4.441-4.206.815-1.969.755-4.192-.167-6.114-1.513-3.155-2.28-6.544-2.28-10.074 0-11.458 8.19-21.136 19.476-23.01 2.246-.373 4.201-1.745 5.314-3.731 1.114-1.985 1.266-4.369.413-6.48-1.125-2.784-1.695-5.721-1.695-8.73 0-12.867 10.468-23.334 23.334-23.334.419 0 .835.012 1.248.034 2.146.113 4.247-.705 5.753-2.245 1.507-1.54 2.279-3.652 2.12-5.801-.051-.695-.075-1.255-.075-1.764 0-12.867 10.468-23.334 23.335-23.334 2.168 0 4.332.305 6.432.906 2.22.636 4.609.213 6.477-1.145 1.867-1.358 3.005-3.501 3.085-5.809.435-12.625 10.675-22.515 23.312-22.515s22.877 9.89 23.311 22.515c.08 2.308 1.217 4.451 3.085 5.809 1.867 1.358 4.255 1.78 6.477 1.145 2.101-.601 4.265-.906 6.433-.906 12.867 0 23.334 10.468 23.334 23.334 0 .515-.024 1.074-.075 1.759-.161 2.149.611 4.263 2.117 5.804 1.507 1.541 3.606 2.359 5.755 2.247.414-.021.829-.034 1.248-.034 12.867 0 23.335 10.467 23.335 23.334 0 3.009-.57 5.946-1.695 8.73-.853 2.111-.701 4.495.413 6.48s3.068 3.358 5.314 3.731c11.285 1.875 19.475 11.552 19.475 23.01 0 3.529-.767 6.919-2.28 10.074-.922 1.922-.982 4.145-.167 6.114s2.43 3.498 4.44 4.206c9.322 3.282 15.585 12.128 15.585 22.011 0 6.886-3.026 13.388-8.302 17.84-1.689 1.425-2.664 3.523-2.664 5.734 0 2.21.974 4.308 2.664 5.734 5.276 4.453 8.302 10.955 8.302 17.84 0 12.867-10.468 23.335-23.334 23.335-1.133 0-2.29-.086-3.439-.255-2.146-.314-4.325.314-5.972 1.726s-2.603 3.467-2.621 5.637c-.102 12.761-10.567 23.143-23.328 23.143-8.038 0-15.412-4.066-19.725-10.877-1.375-2.172-3.767-3.488-6.338-3.488-1.602 0-3.134.512-4.395 1.423v-110.39c0-10.598-8.622-19.22-19.22-19.22h-55.47c-10.598 0-19.22 8.622-19.22 19.22v110.389c-1.26-.911-2.792-1.423-4.394-1.423-2.571 0-4.962 1.316-6.338 3.488-4.314 6.811-11.688 10.877-19.726 10.877-12.761 0-23.226-10.382-23.328-23.143-.018-2.17-.973-4.225-2.621-5.637s-3.826-2.041-5.973-1.726c-6.638.978-13.268-.924-18.305-5.094-3.191-2.642-7.921-2.198-10.563.994-2.642 3.191-2.197 7.921.994 10.563 6.305 5.22 14.157 8.281 22.311 8.737 3.714 17.282 19.158 30.31 37.483 30.31 9.838 0 19.068-3.702 26.064-10.211 2.088 1.943 4.378 3.629 6.822 5.045 3.286 5.894 9.578 9.895 16.792 9.895h55.47c7.213 0 13.504-3.999 16.791-9.892 2.444-1.419 4.735-3.105 6.824-5.048 6.995 6.509 16.225 10.211 26.063 10.211 18.324 0 33.768-13.029 37.483-30.309 20.157-1.104 36.215-17.852 36.215-38.28 0-8.632-2.891-16.895-8.107-23.574 5.216-6.678 8.107-14.941 8.107-23.574zm-224.891-134.222c-1.503 3.079-2.603 6.386-3.237 9.856-.481.798-1.016 1.566-1.593 2.305-17.845 3.27-31.416 18.929-31.416 37.704 0 2.146.177 4.27.528 6.361-14.31 5.701-24.036 19.589-24.036 35.59 0 2.278.206 4.52.595 6.721-7.813-.189-14.942-4.211-19.153-10.859-1.375-2.172-3.767-3.488-6.338-3.488-1.602 0-3.134.512-4.394 1.423v-53.902c0-4.143-3.359-7.502-7.502-7.502s-7.502 3.359-7.502 7.502v67.357c0 2.324-1.891 4.215-4.215 4.215h-55.47c-2.324 0-4.215-1.891-4.215-4.215v-123.845c0-2.324 1.891-4.215 4.215-4.215h55.47c2.324 0 4.215 1.891 4.215 4.215v21.426c0 4.143 3.359 7.502 7.502 7.502s7.502-3.359 7.502-7.502v-21.426c0-10.598-8.622-19.22-19.22-19.22h-55.47c-10.598 0-19.22 8.622-19.22 19.22v110.39c-1.26-.911-2.793-1.423-4.395-1.423-2.571 0-4.963 1.316-6.338 3.488-4.313 6.811-11.687 10.877-19.725 10.877-12.761 0-23.226-10.382-23.328-23.144-.018-2.17-.974-4.226-2.622-5.638-1.648-1.411-3.83-2.04-5.973-1.724-1.144.169-2.301.254-3.436.254-12.867 0-23.334-10.468-23.334-23.334 0-6.886 3.026-13.388 8.302-17.84 1.69-1.426 2.664-3.524 2.664-5.734s-.975-4.308-2.664-5.734c-5.276-4.452-8.302-10.954-8.302-17.84 0-9.884 6.264-18.73 15.586-22.012 2.01-.708 3.625-2.237 4.44-4.206.816-1.969.755-4.192-.167-6.114-1.513-3.155-2.28-6.544-2.28-10.074 0-11.459 8.19-21.136 19.475-23.01 2.246-.373 4.201-1.745 5.314-3.731 1.114-1.986 1.266-4.37.413-6.48-1.125-2.784-1.695-5.721-1.695-8.73 0-12.867 10.468-23.334 23.335-23.334.419 0 .835.012 1.248.034 2.144.107 4.248-.706 5.755-2.247 1.506-1.54 2.278-3.654 2.117-5.803-.051-.685-.075-1.244-.075-1.759 0-12.867 10.468-23.334 23.334-23.334 2.168 0 4.332.305 6.433.906 2.219.635 4.608.213 6.477-1.145 1.868-1.358 3.005-3.501 3.085-5.809.435-12.624 10.674-22.514 23.311-22.514s22.877 9.89 23.312 22.515c.08 2.308 1.218 4.451 3.085 5.809 1.868 1.358 4.258 1.782 6.477 1.145 2.1-.601 4.264-.906 6.432-.906 12.867 0 23.335 10.467 23.335 23.334 0 .515-.024 1.074-.075 1.759-.161 2.149.611 4.263 2.117 5.803 1.507 1.541 3.606 2.356 5.755 2.247.413-.021.829-.034 1.248-.034 12.867 0 23.334 10.468 23.334 23.334 0 3.009-.57 5.946-1.695 8.73-.853 2.11-.701 4.494.413 6.48 1.114 1.985 3.068 3.358 5.314 3.731 11.285 1.875 19.476 11.552 19.476 23.01 0 3.53-.767 6.919-2.28 10.073-.922 1.922-.983 4.145-.167 6.115.816 1.969 2.43 3.499 4.441 4.206 9.322 3.282 15.586 12.128 15.586 22.012 0 .731-.042 1.457-.109 2.178zm105.73 235.47c0 2.324-1.891 4.215-4.215 4.215h-55.47c-2.324 0-4.215-1.891-4.215-4.215v-123.845c0-2.324 1.891-4.215 4.215-4.215h55.47c2.324 0 4.215 1.891 4.215 4.215z"/><ellipse cx="449.092" cy="392.6" rx="10.003" ry="10.003" transform="matrix(.707 -.707 .707 .707 -146.074 432.546)"/><ellipse cx="412.831" cy="281.632" rx="10.003" ry="10.003" transform="matrix(.987 -.16 .16 .987 -39.782 69.765)"/><circle cx="383.88" cy="255.366" r="10.003"/></g></g></svg>