<svg id="Capa_1" enable-background="new 0 0 512 512" height="512" viewBox="0 0 512 512" width="512" xmlns="http://www.w3.org/2000/svg"><g><g><path d="m203.154 241.257c-5.299-2.146-8.766-7.292-8.766-13.009v-26.925h-42.681v26.925c0 5.717-3.467 10.863-8.766 13.009-83.046 36.56-76.106 115.511-73.704 136.473.251 2.192 2.102 3.845 4.308 3.845h199.005c2.206 0 4.057-1.653 4.308-3.845 2.402-20.963 9.343-99.913-73.704-136.473z" fill="#ffeee6"/></g><g><path d="m276.858 377.734c-.25 2.187-2.097 3.844-4.303 3.844h-19.011c2.207 0 4.054-1.657 4.303-3.844 2.406-20.968 9.346-89.235-73.699-125.8-5.302-2.147-8.767-7.289-8.767-13.01v-37.603h19.011v26.929c0 5.711 3.465 10.864 8.757 13.01 83.055 36.555 76.115 115.506 73.709 136.474z" fill="#ffdfcf"/></g><g><path d="m357.432 290.809c-9.95-13.474-11.962-34.515-5.067-49.78 4.981-11.028 13.915-19.665 21.766-28.874 18.132-21.267 43.688-94.531 81.439-53.858 14.681 15.819 22.672 37.136 28.969 57.414 6.196 19.954 24.466 60.433.424 75.097h-127.531z" fill="#7a6d79"/></g><g><path d="m484.964 290.806h-20.419c24.044-14.658 5.771-55.137-.419-75.097-6.3-20.279-14.288-41.597-28.976-57.413-4.184-4.503-8.218-7.609-12.102-9.536 9.705-4.813 20.489-3.425 32.521 9.536 14.678 15.816 22.676 37.134 28.966 57.413 6.2 19.96 24.473 60.439.429 75.097z" fill="#685e68"/></g><g><path d="m109.906 167.887h-5.676c-10.629 0-19.246-8.617-19.246-19.246 0-10.629 8.617-19.246 19.246-19.246h5.676z" fill="#ffcebf"/></g><g><path d="m236.188 164.892h5.676c10.629 0 19.246-8.617 19.246-19.246 0-10.629-8.617-19.246-19.246-19.246h-5.676z" fill="#ffcebf"/></g><g><circle cx="173.047" cy="54.032" fill="#7a6d79" r="46.544"/></g><g><path d="m219.592 54.031c0 25.71-20.843 46.545-46.545 46.545-2.835 0-5.607-.255-8.299-.733 21.751-3.919 38.246-22.938 38.246-45.812s-16.495-41.894-38.246-45.812c2.692-.478 5.464-.733 8.299-.733 25.702 0 46.545 20.843 46.545 46.545z" fill="#685e68"/></g><g><path d="m173.047 219.034c-34.872 0-63.141-28.269-63.141-63.141v-45.135l17.774-21.878h98.343l10.166 21.878v45.135c-.001 34.872-28.27 63.141-63.142 63.141z" fill="#ffeee6"/></g><g><path d="m236.19 110.755v45.135c0 34.877-28.274 63.143-63.143 63.143-2.756 0-5.472-.175-8.132-.526 31.022-3.982 54.995-30.496 54.995-62.618v-45.135l-10.163-21.871h16.272z" fill="#ffdfcf"/></g><g><path d="m237.007 73.646c-8.055-8.005-17.939-13.686-28.614-17.366-25.775-8.885-58.288-7.691-82.569 5.078-6.151 3.235-11.806 7.389-16.735 12.288-12.742 12.662-20.968 29.457-18.416 47.736 1.132 8.105 5.344 14.346 14.811 14.948 13.612.867 16.938-13.781 20.926-23.729 4.276-10.672 14.677-17.618 26.174-17.618h40.928c11.497 0 21.898 6.946 26.174 17.618 3.988 9.948 7.314 24.596 20.926 23.729 9.467-.603 13.679-6.843 14.811-14.948 2.552-18.279-5.674-35.075-18.416-47.736z" fill="#7a6d79"/></g><g><path d="m255.425 121.379c-1.131 8.108-5.344 14.344-14.814 14.949-1.617.104-3.09-.016-4.436-.311 1.195-2.182 1.943-4.739 2.334-7.511 2.549-18.279-5.671-35.068-18.414-47.732-8.06-8.004-17.944-13.691-28.617-17.371-20.676-7.12-45.685-7.765-67.309-1.147.55-.311 1.099-.605 1.657-.9 24.276-12.767 56.795-13.962 82.569-5.081 10.673 3.68 20.557 9.366 28.609 17.371 12.742 12.665 20.969 29.455 18.421 47.733z" fill="#685e68"/></g><g><path d="m189.873 46.45h-16.625-.402-16.625c-5.864 0-10.449 5.057-9.876 10.893l3.734 38.052h22.768.402 22.768l3.734-38.052c.571-5.836-4.014-10.893-9.878-10.893z" fill="#fee97d"/></g><g><path d="m199.752 57.344-3.735 38.055h-16.686l3.735-38.055c.565-5.822-3.982-10.864-9.82-10.895h16.63c5.862 0 10.45 5.057 9.876 10.895z" fill="#fedf30"/></g><g><path d="m493.189 504.511h-474.379c-5.896 0-10.675-4.78-10.675-10.675v-192.352c0-5.896 4.78-10.675 10.675-10.675h474.38c5.896 0 10.675 4.78 10.675 10.675v192.351c0 5.897-4.78 10.676-10.676 10.676z" fill="#e8ad8c"/></g><g><path d="m503.866 301.48v192.36c0 5.891-4.783 10.674-10.674 10.674h-20.419c5.891 0 10.674-4.783 10.674-10.674v-192.36c0-5.891-4.783-10.674-10.674-10.674h20.419c5.891 0 10.674 4.783 10.674 10.674z" fill="#e19974"/></g><g><path d="m390.134 291.219h-74.136v-12.527c0-20.472 16.596-37.068 37.068-37.068 20.472 0 37.068 16.596 37.068 37.068z" fill="#b5adb6"/></g><g><path d="m390.137 278.694v12.521h-20.419v-12.521c0-10.235-4.144-19.511-10.854-26.22-4.393-4.383-9.875-7.678-16.006-9.426 3.245-.929 6.66-1.428 10.205-1.428 10.235 0 19.511 4.154 26.22 10.854 6.7 6.709 10.854 15.985 10.854 26.22z" fill="#a79ba7"/></g><g><g><path d="m59.397 291.219h56.114v213.292h-56.114z" fill="#e19974"/></g><g><path d="m171.761 291.219h56.114v213.292h-56.114z" fill="#e19974"/></g><g><path d="m284.124 291.219h56.114v213.292h-56.114z" fill="#e19974"/></g><g><path d="m396.488 291.219h56.114v213.292h-56.114z" fill="#e19974"/></g></g><g><path d="m8.134 345.722h495.731v103.875h-495.731z" fill="#f4d7c8"/></g><g><path d="m483.446 345.722h20.419v103.875h-20.419z" fill="#ecbba3"/></g><g><g><path d="m149.176 132.446c-4.136 0-7.489 3.352-7.489 7.489v11.977c0 4.136 3.352 7.489 7.489 7.489 4.136 0 7.489-3.352 7.489-7.489v-11.977c0-4.137-3.353-7.489-7.489-7.489z"/><path d="m196.918 159.4c4.136 0 7.489-3.352 7.489-7.489v-11.977c0-4.136-3.352-7.489-7.489-7.489-4.136 0-7.489 3.352-7.489 7.489v11.977c.001 4.137 3.353 7.489 7.489 7.489z"/><path d="m13.515 223.643c1.833 2.81 3.565 5.464 4.482 8.08 1.774 5.063.521 11.174-3.116 15.207-2.77 3.072-2.525 7.807.545 10.577 1.432 1.292 3.226 1.928 5.014 1.928 2.046 0 4.085-.834 5.563-2.473 7.309-8.104 9.715-19.954 6.13-30.191-1.516-4.327-3.937-8.038-6.073-11.311l-.641-.984c-1.063-1.64-10.187-16.203-3.212-22.404 3.091-2.748 3.37-7.481.622-10.572-2.746-3.093-7.48-3.373-10.572-.622-12.381 11.005-7.81 28.78.595 41.747z"/><path d="m42.727 214.436c2.82 4.458 5.483 8.668 6.075 12.946 1.002 7.248-.723 14.79-4.615 20.176-2.423 3.353-1.67 8.034 1.682 10.456 1.326.958 2.86 1.421 4.381 1.421 2.322 0 4.611-1.078 6.075-3.103 6.097-8.436 8.831-20.024 7.314-31.002-1.038-7.491-4.872-13.553-8.254-18.9-2.928-4.631-5.695-9.004-6.237-13.579-.458-3.862-.896-13.242 4.909-16.899 3.5-2.206 4.549-6.829 2.344-10.328-2.206-3.5-6.828-4.548-10.328-2.344-9.174 5.78-13.474 17.201-11.799 31.334.943 7.948 4.933 14.256 8.453 19.822z"/><path d="m298.485 152.803c1.832 2.808 3.563 5.46 4.479 8.076 1.774 5.062.522 11.173-3.116 15.206-2.77 3.071-2.526 7.806.545 10.577 1.432 1.292 3.226 1.928 5.014 1.928 2.046 0 4.084-.833 5.563-2.473 7.31-8.104 9.716-19.954 6.13-30.189-1.514-4.327-3.934-8.036-6.07-11.308l-.644-.989c-1.063-1.64-10.187-16.203-3.211-22.404 3.091-2.747 3.37-7.481.622-10.572-2.746-3.091-7.481-3.372-10.572-.622-12.382 11.005-7.811 28.78.594 41.747z"/><path d="m327.694 143.59c2.82 4.458 5.484 8.669 6.075 12.947 1.002 7.249-.723 14.791-4.615 20.176-2.423 3.351-1.67 8.033 1.682 10.456 1.326.958 2.86 1.421 4.381 1.421 2.322 0 4.61-1.076 6.075-3.102 6.097-8.436 8.831-20.024 7.314-31.002-1.037-7.491-4.871-13.554-8.254-18.902-2.928-4.63-5.695-9.003-6.237-13.578-.458-3.862-.896-13.241 4.91-16.9 3.499-2.205 4.548-6.829 2.342-10.328-2.206-3.5-6.828-4.548-10.328-2.342-9.173 5.78-13.473 17.201-11.798 31.333.942 7.947 4.933 14.255 8.453 19.821z"/><path d="m511.353 345.703v-44.219c0-7.432-4.49-13.826-10.896-16.636 9.346-18.332.119-45.245-5.909-62.801-1.07-3.115-2.08-6.056-2.856-8.557-6.613-21.294-14.9-43.336-30.632-60.288-9.249-9.964-18.945-14.83-28.828-14.462-10.949.407-21.493 7.141-32.233 20.588-2.581 3.231-2.053 7.944 1.178 10.525 3.232 2.579 7.943 2.054 10.525-1.178 7.856-9.837 14.753-14.734 21.085-14.969 5.325-.188 11.146 3.061 17.294 9.684 13.696 14.758 21.218 34.936 27.305 54.541.843 2.714 1.888 5.758 2.995 8.981 8.001 23.296 14.694 46.749 2.271 56.408h-85.03v-4.629c0-20.715-14.21-38.172-33.393-43.14 3.067-4.327 6.72-8.464 10.519-12.739 1.673-1.884 3.403-3.831 5.082-5.8 4.143-4.861 8.37-11.742 13.07-19.576 2.128-3.547.977-8.147-2.569-10.275-3.545-2.127-8.146-.977-10.275 2.57-4.19 6.984-8.232 13.584-11.624 17.564-1.58 1.853-3.258 3.741-4.881 5.569-5.886 6.625-11.946 13.451-16.326 21.665-21.817 2.871-38.716 21.574-38.716 44.162v4.629h-43.062c-13.384-20.867-33.272-37.47-59.275-48.918-.069-.03-.137-.06-.207-.087-2.484-1.006-4.089-3.388-4.089-6.068v-7.89c19.733-8.865 34.687-26.532 39.837-47.977h.15c14.741 0 26.734-11.993 26.734-26.734 0-6.904-2.634-13.201-6.946-17.948.518-1.653.926-3.406 1.188-5.281 2.662-19.06-4.638-38.268-20.555-54.083-4.507-4.479-9.626-8.377-15.278-11.706.043-.861.073-1.725.073-2.596.001-29.793-24.238-54.032-54.032-54.032-29.793 0-54.032 24.239-54.032 54.032 0 .847.024 1.689.065 2.526-5.554 3.272-10.683 7.216-15.27 11.776-15.916 15.815-23.216 35.022-20.555 54.083.38 2.725 1.051 5.21 1.967 7.46-4.771 4.83-7.726 11.456-7.726 18.765 0 14.741 11.993 26.734 26.734 26.734h.942c5.776 20.088 20.241 36.528 39.046 44.978v7.894c0 2.679-1.605 5.062-4.089 6.068-.069.027-.137.057-.207.087-26.001 11.447-45.885 28.052-59.268 48.918h-61.844c-10.016 0-18.164 8.148-18.164 18.164v44.238 103.875 44.238c0 10.016 8.148 18.164 18.164 18.164h474.379c10.016 0 18.164-8.148 18.164-18.164v-44.219c0-.007.001-.013.001-.019v-103.875c0-.007-.001-.013-.001-.02zm-107.377-46.995h41.137v39.526h-41.137zm-14.977 0v39.526h-41.272v-39.526zm-65.513-20.016c0-16.311 13.269-29.58 29.579-29.58s29.579 13.269 29.579 29.58v4.629h-59.159v-4.629zm-31.873 20.016h24.384 16.752v39.526h-41.136zm-14.977-.41v39.936h-41.272v-39.936zm-23.015-152.652c0 5.866-4.319 10.743-9.944 11.617v-13.756c3.252-.511 6.156-1.583 8.671-3.163.812 1.594 1.273 3.394 1.273 5.302zm-21.893-66.688c7.234 7.188 18.969 22.124 16.278 41.388-1.041 7.457-4.609 8.303-7.871 8.511-5.339.309-7.741-3.577-11.878-14.773-.545-1.475-1.078-2.914-1.621-4.269-4.07-10.156-12.387-17.62-22.478-20.727l2.499-25.465c9.929 3.525 18.368 8.674 25.071 15.335zm-58.681-63.98c20.027 0 36.574 15.155 38.794 34.598-.339-.121-.666-.258-1.008-.376-2.007-.692-4.047-1.315-6.109-1.885-.567-.93-1.21-1.818-1.951-2.636-3.294-3.632-7.996-5.716-12.899-5.716h-33.652c-4.905 0-9.607 2.084-12.901 5.717-.734.81-1.371 1.69-1.934 2.61-2.419.669-4.801 1.411-7.126 2.241 2.239-19.422 18.774-34.553 38.786-34.553zm19.25 41.634-3.031 30.882h-32.438l-3.03-30.883c-.092-.934.349-1.574.619-1.872.271-.298.865-.8 1.804-.8h33.652c.939 0 1.534.501 1.804.8.271.298.712.939.62 1.873zm-89.88 103.647c-5.625-.875-9.944-5.751-9.944-11.617 0-2.839 1.018-5.441 2.701-7.473 2.168 1.134 4.591 1.922 7.243 2.338zm3.542-31.403c-3.262-.208-6.829-1.054-7.871-8.511-2.689-19.265 9.045-34.2 16.279-41.389 4.415-4.388 9.443-8.08 14.942-10.972 3.201-1.683 6.598-3.142 10.124-4.403l2.503 25.506c-10.092 3.107-18.408 10.57-22.477 20.725-.544 1.356-1.078 2.796-1.623 4.273-4.135 11.195-6.518 15.114-11.877 14.771zm11.436 27.037v-14.834c8.219-4.851 11.969-14.955 14.491-21.781.496-1.344.98-2.655 1.475-3.892 2.689-6.713 8.606-11.381 15.604-12.593.365.055 47.8.055 48.165 0 6.998 1.211 12.914 5.88 15.604 12.594.495 1.234.978 2.545 1.474 3.888 2.523 6.83 6.262 16.929 14.491 21.78v14.839c0 30.687-24.965 55.653-55.652 55.653s-55.652-24.967-55.652-55.654zm28.471 92.257c8.101-3.334 13.328-11.133 13.328-19.902v-3.102c4.481.896 9.111 1.377 13.852 1.377 4.742 0 9.37-.485 13.852-1.381v3.106c0 8.77 5.228 16.569 13.329 19.902 19.7 8.688 35.355 20.465 46.876 35.171h-148.113c11.52-14.706 27.177-26.483 46.876-35.171zm74.521 50.558v39.526h-41.137v-39.526zm-56.115-.41v39.936h-41.272v-39.936zm-97.386.41h41.137v39.526h-41.137zm-51.263 2.777c0-1.757 1.429-3.187 3.187-3.187h33.098v39.936h-36.285zm36.285 195.537h-33.098c-1.757 0-3.187-1.429-3.187-3.187v-36.749h36.285zm56.115 0h-41.137v-39.936h41.137zm112.364 0h-41.137v-39.936h41.137zm56.249 0h-41.272v-39.936h41.272zm56.114 0h-41.136v-39.936h41.136zm56.249 0h-41.272v-39.936h41.272zm56.114 0h-41.137v-39.936h41.137zm51.263-3.186c0 1.757-1.429 3.187-3.187 3.187h-33.098v-39.936h36.285zm0-51.727h-334.693c-4.136 0-7.489 3.352-7.489 7.489 0 4.136 3.352 7.489 7.489 7.489h2.589v39.936h-41.272v-39.936h3.881c4.136 0 7.489-3.352 7.489-7.489 0-4.136-3.353-7.489-7.489-7.489h-111.258v-88.898h480.752v88.898zm0-103.875h-36.285v-39.936h33.098c1.757 0 3.187 1.43 3.187 3.187z"/></g><circle cx="57.982" cy="397.66" r="9.985"/><circle cx="454.018" cy="397.66" r="9.985"/><circle cx="256" cy="397.66" r="9.985"/></g></g></svg>