<svg id="Capa_1" enable-background="new 0 0 511.928 511.928" height="512" viewBox="0 0 511.928 511.928" width="512" xmlns="http://www.w3.org/2000/svg"><g><g><path d="m471.344 504.427h-430.76c-8.47 0-15.336-6.866-15.336-15.336v-466.254c0-8.47 6.866-15.336 15.336-15.336h430.759c8.47 0 15.336 6.866 15.336 15.336v466.254c.001 8.47-6.865 15.336-15.335 15.336z" fill="#7a6d79"/></g><g><path d="m486.684 22.834v466.26c0 8.47-6.87 15.33-15.34 15.33h-20.45c8.47 0 15.34-6.86 15.34-15.33v-466.26c0-8.47-6.87-15.33-15.34-15.33h20.45c8.47 0 15.34 6.86 15.34 15.33z" fill="#685e68"/></g><g><path d="m233.92 472.881h-168.707c-3.324 0-6.019-2.695-6.019-6.019v-422.078c0-3.324 2.695-6.019 6.019-6.019h168.707c3.324 0 6.019 2.695 6.019 6.019v422.079c0 3.324-2.695 6.018-6.019 6.018z" fill="#b5adb6"/></g><g><path d="m239.934 44.784v422.08c0 3.32-2.69 6.02-6.01 6.02h-20.45c3.32 0 6.02-2.7 6.02-6.02v-422.08c0-3.32-2.7-6.02-6.02-6.02h20.45c3.32 0 6.01 2.7 6.01 6.02z" fill="#a79ba7"/></g><g><path d="m446.715 237.974h-168.707c-3.324 0-6.019-2.695-6.019-6.019v-187.171c0-3.324 2.695-6.019 6.019-6.019h168.707c3.324 0 6.019 2.695 6.019 6.019v187.172c0 3.324-2.695 6.018-6.019 6.018z" fill="#fd9468"/></g><g><path d="m452.734 44.784v187.17c0 3.33-2.69 6.02-6.02 6.02h-20.45c3.33 0 6.02-2.69 6.02-6.02v-187.17c0-3.32-2.69-6.02-6.02-6.02h20.45c3.33 0 6.02 2.7 6.02 6.02z" fill="#fe7d43"/></g><g><path d="m446.715 473.163h-168.707c-3.324 0-6.019-2.695-6.019-6.019v-187.172c0-3.324 2.695-6.019 6.019-6.019h168.707c3.324 0 6.019 2.695 6.019 6.019v187.172c0 3.324-2.695 6.019-6.019 6.019z" fill="#e19974"/></g><g><path d="m452.734 279.974v187.17c0 3.32-2.69 6.02-6.02 6.02h-21.08c3.32 0 6.02-2.7 6.02-6.02v-187.17c0-3.33-2.7-6.02-6.02-6.02h21.08c3.33 0 6.02 2.69 6.02 6.02z" fill="#dc8758"/></g><g><path d="m421.229 114.454c0-4.831-2.231-9.138-5.714-11.958 3.483-2.82 5.714-7.127 5.714-11.958 0-8.496-6.888-15.384-15.384-15.384-2.071 0-4.043.415-5.846 1.157-.337-8.198-7.071-14.746-15.352-14.746-4.39 0-8.34 1.848-11.143 4.797-2.803-2.949-6.753-4.797-11.143-4.797s-8.34 1.848-11.143 4.797c-2.803-2.949-6.753-4.797-11.143-4.797-8.281 0-15.014 6.548-15.352 14.746-1.803-.742-3.776-1.157-5.846-1.157-8.496 0-15.384 6.888-15.384 15.384 0 4.831 2.231 9.138 5.714 11.958-3.484 2.82-5.714 7.127-5.714 11.958s2.231 9.137 5.714 11.958c-3.484 2.82-5.714 7.127-5.714 11.958s2.231 9.138 5.714 11.958c-3.484 2.82-5.714 7.127-5.714 11.958s2.231 9.137 5.714 11.958c-3.484 2.82-5.714 7.127-5.714 11.958 0 8.496 6.888 15.384 15.384 15.384 2.071 0 4.043-.415 5.846-1.157.337 8.198 7.071 14.746 15.352 14.746 4.39 0 8.34-1.848 11.143-4.797 2.803 2.949 6.753 4.797 11.143 4.797s8.34-1.848 11.143-4.797c2.803 2.949 6.753 4.797 11.143 4.797 8.281 0 15.014-6.548 15.352-14.746 1.803.742 3.776 1.157 5.846 1.157 8.496 0 15.384-6.888 15.384-15.384 0-4.831-2.231-9.138-5.714-11.958 3.483-2.82 5.714-7.127 5.714-11.958s-2.231-9.138-5.714-11.958c3.483-2.82 5.714-7.127 5.714-11.958s-2.231-9.138-5.714-11.958c3.483-2.821 5.714-7.127 5.714-11.958z" fill="#fef1da"/></g><g><path d="m421.224 114.454c0-4.83-2.23-9.14-5.71-11.96 3.492-2.83 5.725-7.149 5.71-12.009-.024-7.823-6.147-14.531-13.936-15.263-2.599-.244-5.068.182-7.294 1.092-.33-8.2-7.07-14.75-15.35-14.75-4.39 0-8.34 1.85-11.14 4.8l-.036.042c10.693 2.692 12.326 10.46 12.545 15.749.075 1.819 1.561 3.171 3.38 3.249.004 0 .009 0 .013.001 3.692.284 6.612 3.624 7.138 7.168.338 2.276-.86 5.608-2.565 7.896-.912 1.224-1.002 2.91-.066 4.115 2.165 2.785 3.341 6.285 3.341 9.84 0 3.803-1.29 7.279-3.434 9.961-.955 1.195-.915 2.891-.025 4.134 1.953 2.728 3.203 6.455 3.423 9.849-.22 3.394-1.47 7.121-3.423 9.849-.89 1.244-.93 2.94.025 4.134 2.144 2.683 3.434 6.158 3.434 9.961 0 3.555-1.176 7.056-3.341 9.84-.937 1.204-.846 2.891.066 4.114 1.705 2.289 2.903 5.62 2.565 7.896-.527 3.545-3.447 6.885-7.138 7.168-.004 0-.008.001-.012.001-1.819.079-3.305 1.43-3.38 3.249-.219 5.289-1.851 13.057-12.545 15.749l.036.042c2.8 2.95 6.75 4.8 11.14 4.8 8.28 0 15.02-6.55 15.35-14.75 2.226.91 4.695 1.336 7.294 1.092 7.789-.732 13.912-7.44 13.936-15.263.015-4.86-2.218-9.179-5.71-12.009 3.48-2.82 5.71-7.13 5.71-11.96s-2.23-9.14-5.71-11.96c3.477-2.818 5.706-7.114 5.709-11.95h.001c0-.002 0-.003 0-.005s0-.003 0-.005h-.001c-.003-4.836-2.232-9.132-5.709-11.95 3.479-2.817 5.709-7.127 5.709-11.957z" fill="#fae2c0"/></g><g><path d="m378.29 354.231c2.582 1.324 5.536 1.679 8.419 2.013 4.635.536 9.341 1.072 13.949.331 21.192-3.406 20.69-38.611-2.445-37.557-14.192.646-41.353 24.223-19.923 35.213z" fill="#fee97d"/></g><g><path d="m328.497 388.705c-2.819.689-5.284 2.355-7.682 3.99-3.855 2.629-7.763 5.305-10.761 8.881-13.79 16.448 9.636 42.732 26.435 26.791 10.304-9.78 15.401-45.383-7.992-39.662z" fill="#fee97d"/></g><g><path d="m400.654 356.574c-4.6.74-9.31.21-13.95-.33-2.88-.33-5.83-.69-8.41-2.01-3.23-1.65-5.35-3.59-6.58-5.7 4.36.5 8.79.93 13.12.23 14.43-2.32 18.8-19.4 12.81-29.71.19-.02.38-.03.57-.04 23.13-1.05 23.64 34.15 2.44 37.56z" fill="#fedf30"/></g><g><path d="m336.484 428.364c-9.07 8.61-20.07 4.9-26.1-2.92 3.46-.27 7-1.77 10.28-4.89 6.35-6.03 10.73-21.88 7.65-31.8.06-.02.12-.04.18-.05 23.4-5.72 18.3 29.88 7.99 39.66z" fill="#fedf30"/></g><g><g><g><path d="m196.35 143.118h-93.567c-9.061 0-16.406-7.345-16.406-16.406v-46.56c0-9.061 7.345-16.406 16.406-16.406h93.567c9.061 0 16.406 7.345 16.406 16.406v46.56c0 9.061-7.345 16.406-16.406 16.406z" fill="#fd9468"/></g><g><path d="m212.754 80.153v46.56c0 9.06-7.34 16.4-16.4 16.4h-19.73c9.06 0 16.4-7.34 16.4-16.4v-46.56c0-9.06-7.34-16.41-16.4-16.41h19.73c9.06 0 16.4 7.35 16.4 16.41z" fill="#fe7d43"/></g><g><g><path d="m183.425 63.741c-19.26 21.06-28.66 51.14-24.47 79.38h-38.76c-4.19-28.24 5.21-58.32 24.47-79.38z" fill="#ffc5ad"/></g></g><g><g><path d="m158.954 143.123h-19.88c-4.19-28.24 5.21-58.32 24.47-79.38h19.88c-19.26 21.06-28.66 51.14-24.47 79.38z" fill="#fead8a"/></g></g></g><g><g><path d="m196.35 211.986h-93.567c-9.061 0-16.406-7.345-16.406-16.406v-46.56c0-9.061 7.345-16.406 16.406-16.406h93.567c9.061 0 16.406 7.345 16.406 16.406v46.56c0 9.061-7.345 16.406-16.406 16.406z" fill="#fd9468"/></g><g><path d="m212.754 149.021v46.56c0 9.06-7.34 16.4-16.4 16.4h-19.73c9.06 0 16.4-7.34 16.4-16.4v-46.56c0-9.06-7.34-16.41-16.4-16.41h19.73c9.06 0 16.4 7.35 16.4 16.41z" fill="#fe7d43"/></g><g><g><path d="m183.425 132.609c-19.26 21.06-28.66 51.14-24.47 79.38h-38.76c-4.19-28.24 5.21-58.32 24.47-79.38z" fill="#ffc5ad"/></g></g><g><g><path d="m158.954 211.991h-19.88c-4.19-28.24 5.21-58.32 24.47-79.38h19.88c-19.26 21.06-28.66 51.14-24.47 79.38z" fill="#fead8a"/></g></g></g><g><g><path d="m196.35 285.644h-93.567c-9.061 0-16.406-7.345-16.406-16.406v-46.56c0-9.061 7.345-16.406 16.406-16.406h93.567c9.061 0 16.406 7.345 16.406 16.406v46.56c0 9.061-7.345 16.406-16.406 16.406z" fill="#fd9468"/></g><g><path d="m212.754 222.68v46.56c0 9.06-7.34 16.4-16.4 16.4h-19.73c9.06 0 16.4-7.34 16.4-16.4v-46.56c0-9.06-7.34-16.41-16.4-16.41h19.73c9.06 0 16.4 7.35 16.4 16.41z" fill="#fe7d43"/></g><g><g><path d="m183.425 206.268c-19.26 21.06-28.66 51.14-24.47 79.38h-38.76c-4.19-28.24 5.21-58.32 24.47-79.38z" fill="#ffc5ad"/></g></g><g><g><path d="m158.954 285.65h-19.88c-4.19-28.24 5.21-58.32 24.47-79.38h19.88c-19.26 21.06-28.66 51.14-24.47 79.38z" fill="#fead8a"/></g></g></g><g><g><ellipse cx="149.565" cy="361.552" fill="#fef1da" rx="86.353" ry="67.005" transform="matrix(.004 -1 1 .004 -212.58 509.676)"/></g><g><path d="m216.572 361.82c-.19 47.69-30.35 86.23-67.35 86.08-9.8-.04-19.1-2.78-27.47-7.69 3.21.63 6.5.96 9.84.97 37.01.15 67.16-38.39 67.35-86.08.14-35.06-15.96-65.31-39.2-78.93 32.311 6.25 57.001 42.27 56.83 85.65z" fill="#fae2c0"/></g><g><circle cx="149.495" cy="379.137" fill="#fee97d" r="35.511"/></g><g><path d="m185.002 379.28c-.08 19.61-16.04 35.45-35.65 35.37-11-.04-20.81-5.08-27.29-12.96 3.09.9 6.36 1.38 9.73 1.39 19.61.08 35.58-15.75 35.65-35.36.04-8.61-2.99-16.52-8.06-22.69 14.851 4.29 25.69 18.02 25.62 34.25z" fill="#fedf30"/></g><g><path d="m471.344 0h-430.76c-12.592 0-22.836 10.244-22.836 22.837v466.254c0 12.593 10.245 22.837 22.836 22.837h430.76c12.592 0 22.836-10.244 22.836-22.837v-466.254c0-12.593-10.244-22.837-22.836-22.837zm7.836 489.091c0 4.321-3.516 7.837-7.836 7.837h-430.76c-4.321 0-7.836-3.516-7.836-7.837v-466.254c0-4.321 3.516-7.837 7.836-7.837h430.76c4.321 0 7.836 3.516 7.836 7.837z"/><path d="m233.919 31.265h-168.706c-7.455 0-13.519 6.064-13.519 13.52v42.32c0 4.143 3.358 7.5 7.5 7.5s7.5-3.357 7.5-7.5v-40.84h165.745v419.117h-165.745v-343.532c0-4.143-3.358-7.5-7.5-7.5s-7.5 3.357-7.5 7.5v345.013c0 7.455 6.064 13.52 13.519 13.52h168.707c7.455 0 13.52-6.064 13.52-13.52v-422.079c-.001-7.455-6.066-13.519-13.521-13.519z"/><path d="m446.715 31.265h-168.707c-7.455 0-13.52 6.064-13.52 13.52v187.171c0 7.455 6.065 13.52 13.52 13.52h168.707c7.455 0 13.52-6.064 13.52-13.52v-187.172c-.001-7.455-6.066-13.519-13.52-13.519zm-1.481 199.21h-165.745v-184.21h165.746v184.21z"/><path d="m446.715 266.453h-25.491c-4.142 0-7.5 3.357-7.5 7.5s3.358 7.5 7.5 7.5h24.01v184.21h-165.745v-184.21h106.261c4.142 0 7.5-3.357 7.5-7.5s-3.358-7.5-7.5-7.5h-107.742c-7.455 0-13.52 6.064-13.52 13.52v187.171c0 7.455 6.065 13.52 13.52 13.52h168.707c7.455 0 13.52-6.064 13.52-13.52v-187.171c-.001-7.455-6.066-13.52-13.52-13.52z"/><path d="m318.878 209.085c.095 0 .189-.001.284-.002 3.554 8.047 11.581 13.591 20.915 13.591 3.975 0 7.779-1.002 11.143-2.889 3.363 1.887 7.167 2.889 11.143 2.889 3.984 0 7.797-1.007 11.167-2.902 3.378 1.88 7.211 2.902 11.118 2.902 9.333 0 17.361-5.544 20.914-13.591 12.743.113 23.168-10.169 23.168-22.882 0-4.289-1.185-8.406-3.368-11.958 2.183-3.552 3.368-7.669 3.368-11.958s-1.185-8.406-3.368-11.958c2.183-3.552 3.368-7.669 3.368-11.958s-1.185-8.406-3.368-11.958c2.182-3.551 3.368-7.668 3.368-11.957s-1.185-8.406-3.368-11.958c2.183-3.552 3.368-7.669 3.368-11.958 0-12.713-10.426-23.019-23.168-22.882-3.553-8.047-11.581-13.591-20.914-13.591-3.976 0-7.779 1.002-11.142 2.889-3.363-1.887-7.167-2.889-11.143-2.889s-7.78 1.002-11.143 2.889c-3.363-1.887-7.167-2.889-11.143-2.889-9.333 0-17.361 5.544-20.915 13.591-.094-.001-.189-.002-.284-.002-12.618 0-22.884 10.266-22.884 22.884 0 4.289 1.185 8.406 3.368 11.958-2.183 3.552-3.368 7.669-3.368 11.958s1.186 8.406 3.368 11.957c-2.183 3.552-3.368 7.669-3.368 11.958s1.185 8.406 3.368 11.958c-2.183 3.552-3.368 7.669-3.368 11.958s1.185 8.406 3.368 11.958c-2.183 3.552-3.368 7.669-3.368 11.958.001 12.618 10.266 22.884 22.884 22.884zm-4.95-40.671c-1.864-1.51-2.934-3.743-2.934-6.129s1.069-4.619 2.934-6.129c1.759-1.424 2.781-3.566 2.781-5.829s-1.022-4.405-2.781-5.829c-1.864-1.51-2.934-3.743-2.934-6.129 0-2.385 1.07-4.619 2.935-6.13 1.759-1.424 2.78-3.566 2.78-5.829s-1.022-4.404-2.781-5.828c-1.864-1.51-2.934-3.743-2.934-6.128 0-2.386 1.069-4.619 2.934-6.129 1.759-1.424 2.781-3.566 2.781-5.829s-1.022-4.405-2.781-5.829c-1.864-1.51-2.934-3.743-2.934-6.129 0-4.347 3.537-7.884 7.884-7.884 1.029 0 2.036.199 2.992.593 2.264.932 4.839.699 6.899-.62s3.348-3.562 3.449-6.007c.174-4.236 3.626-7.555 7.858-7.555 2.169 0 4.196.875 5.707 2.464 1.416 1.489 3.381 2.333 5.437 2.333 2.055 0 4.021-.844 5.436-2.333 1.51-1.589 3.536-2.464 5.706-2.464 2.169 0 4.196.875 5.707 2.464 1.416 1.489 3.381 2.333 5.437 2.333 2.055 0 4.021-.844 5.436-2.333 1.51-1.589 3.536-2.464 5.706-2.464 4.232 0 7.684 3.318 7.858 7.555.101 2.445 1.388 4.688 3.449 6.007 2.062 1.321 4.637 1.552 6.899.62.956-.394 1.962-.593 2.992-.593 4.347 0 7.884 3.537 7.884 7.884 0 2.386-1.069 4.619-2.934 6.129-1.759 1.424-2.781 3.566-2.781 5.829s1.022 4.405 2.781 5.829c1.864 1.51 2.934 3.743 2.934 6.129 0 2.385-1.069 4.618-2.934 6.128-1.759 1.424-2.781 3.565-2.781 5.828s1.021 4.405 2.78 5.829c1.865 1.511 2.935 3.745 2.935 6.13 0 2.386-1.069 4.619-2.934 6.129-1.759 1.424-2.781 3.566-2.781 5.829s1.022 4.405 2.781 5.829c1.864 1.51 2.934 3.743 2.934 6.129s-1.069 4.619-2.934 6.129c-1.759 1.424-2.781 3.566-2.781 5.829s1.022 4.405 2.781 5.829c1.864 1.51 2.934 3.743 2.934 6.129 0 4.347-3.537 7.884-7.884 7.884-1.029 0-2.036-.199-2.992-.593-2.263-.931-4.839-.699-6.899.62s-3.348 3.562-3.449 6.007c-.174 4.236-3.626 7.555-7.858 7.555-2.169 0-4.196-.875-5.707-2.464-1.416-1.49-3.38-2.333-5.435-2.333-2.055 0-4.02.843-5.435 2.332-1.512 1.59-3.539 2.465-5.708 2.465s-4.196-.875-5.707-2.464c-1.416-1.49-3.38-2.333-5.435-2.333-2.055 0-4.02.843-5.435 2.332-1.512 1.59-3.539 2.465-5.708 2.465-4.232 0-7.684-3.318-7.858-7.555-.101-2.445-1.388-4.688-3.449-6.007-2.062-1.321-4.637-1.551-6.899-.62-.956.394-1.962.593-2.992.593-4.347 0-7.884-3.537-7.884-7.884 0-2.386 1.069-4.619 2.934-6.129 1.759-1.424 2.781-3.566 2.781-5.829s-1.024-4.405-2.783-5.829z"/><ellipse cx="381.455" cy="170.125" rx="10" ry="10" transform="matrix(.989 -.145 .145 .989 -20.688 57.29)"/><ellipse cx="381.455" cy="417.829" rx="10" ry="10" transform="matrix(.989 -.145 .145 .989 -56.715 59.924)"/><circle cx="336.062" cy="321.185" r="10"/><ellipse cx="312.033" cy="355.398" rx="10" ry="10" transform="matrix(.989 -.145 .145 .989 -48.373 49.163)"/><ellipse cx="347.145" cy="107.714" rx="10" ry="10" transform="matrix(.327 -.945 .945 .327 131.878 400.582)"/><path d="m401.848 363.98c15.754-2.532 22.873-17.344 21.572-29.993-1.423-13.846-11.909-23.077-25.549-22.462-12.694.578-31.519 13.815-34.575 27.869-1.938 8.905 2.28 16.746 11.571 21.511 3.822 1.96 7.79 2.42 10.98 2.789 3.083.356 6.426.743 9.91.743 1.992.001 4.03-.125 6.091-.457zm-14.276-15.186c-2.191-.254-4.457-.517-5.86-1.236-4.355-2.233-3.981-3.949-3.758-4.976 1.467-6.746 14.036-15.773 20.601-16.072 8.099-.365 9.653 6.18 9.945 9.012.496 4.823-1.5 12.438-9.031 13.648-3.619.58-7.64.116-11.897-.376z"/><path d="m307.632 433.552c5.118 4.813 11.217 7.223 17.274 7.223 5.943 0 11.846-2.32 16.744-6.968 9.218-8.747 14.782-31.076 7.894-43.701-4.366-8-12.686-11.169-22.829-8.687-4.178 1.021-7.477 3.272-10.126 5.08-4.03 2.748-8.597 5.863-12.283 10.259-10.252 12.226-5.938 28.083 3.326 36.794zm8.168-27.157c2.354-2.808 5.699-5.088 9.241-7.504 1.82-1.241 3.702-2.525 5.236-2.901 4.755-1.161 5.596.38 6.099 1.301 3.307 6.061-.285 21.112-5.051 25.636-5.882 5.582-11.343 1.648-13.417-.302-3.533-3.322-7.008-10.385-2.108-16.23z"/><path d="m149.191 455.404h.245c20.173 0 39.05-9.931 53.172-27.982 13.741-17.563 21.363-40.852 21.461-65.573.108-27.232-9.051-51.824-23.738-69.042 11.292-1.902 19.924-11.744 19.924-23.568v-46.56c0-5.031-1.566-9.701-4.23-13.556 2.662-3.853 4.23-8.515 4.23-13.542v-46.56c0-4.028-1.005-7.824-2.772-11.157 1.767-3.331 2.772-7.125 2.772-11.152v-46.56c0-13.183-10.724-23.907-23.906-23.907h-93.567c-13.182 0-23.906 10.725-23.906 23.907v46.56c0 4.026 1.007 7.819 2.773 11.15-1.767 3.333-2.773 7.13-2.773 11.158v46.56c0 5.027 1.567 9.691 4.229 13.544-2.664 3.855-4.229 8.525-4.229 13.555v46.56c0 11.886 8.721 21.771 20.1 23.6-14.608 17.081-23.809 41.415-23.916 68.417-.206 51.75 33.049 93.984 74.131 94.148zm56.065-186.166c0 4.911-3.995 8.906-8.906 8.906h-12.522c-5.697-3.719-11.824-6.531-18.261-8.297.575-20.219 8.151-40.578 21.254-56.075h9.528c4.911 0 8.906 3.995 8.906 8.906v46.56zm-37.169-55.466c-10.643 16.031-16.733 34.843-17.528 53.939-.207-.003-.413-.012-.621-.012-.08 0-.158 0-.238 0-7.996 0-15.704 1.603-22.937 4.556.015-21.001 7.674-42.37 21.298-58.483zm-41.329-15c-.028-21.058 7.642-42.502 21.304-58.659h20.026c-11.519 17.351-17.708 37.958-17.614 58.659zm78.498-3.192c0 1.63-.445 3.155-1.214 4.469-2.416-.823-5.001-1.277-7.692-1.277h-30.833c-.028-21.058 7.643-42.502 21.305-58.659h9.527c4.911 0 8.906 3.996 8.906 8.907v46.56zm-8.906-124.335c4.911 0 8.906 3.996 8.906 8.907v46.56c0 .043-.005.084-.005.127-2.753-1.109-5.755-1.725-8.901-1.725h-30.694c1.046-19.486 8.54-38.935 21.167-53.868h9.527zm-28.262 0c-10.63 16.011-16.708 34.796-17.513 53.868h-23.688c1.046-19.487 8.548-38.935 21.174-53.868zm-74.212 8.907c0-4.911 3.995-8.907 8.906-8.907h26.545c-10.629 16.011-16.714 34.796-17.519 53.868h-9.026c-3.144 0-6.144.616-8.896 1.724-.001-.042-.01-.082-.01-.125zm0 68.869c0-4.911 3.995-8.907 8.906-8.907h26.545c-11.519 17.351-17.703 37.958-17.61 58.659h-8.936c-2.69 0-5.276.453-7.691 1.277-.768-1.315-1.215-2.839-1.215-4.469v-46.56zm0 120.217v-46.56c0-4.911 3.995-8.906 8.906-8.906h26.545c-12.578 18.947-18.824 41.777-17.448 64.372h-9.096c-4.911.001-8.907-3.995-8.907-8.906zm55.822 13.461h.181c32.811.131 59.364 35.61 59.191 79.089-.085 21.41-6.576 41.437-18.275 56.392-11.218 14.338-25.899 22.226-41.362 22.225-.06 0-.122 0-.181 0-32.811-.131-59.364-35.61-59.191-79.089.172-43.4 26.908-78.617 59.637-78.617z"/><path d="m118.961 409.429c8.091 8.156 18.875 12.673 30.363 12.719h.176c11.423 0 22.173-4.427 30.287-12.477 8.156-8.091 12.673-18.874 12.718-30.362.046-11.488-4.385-22.308-12.476-30.463-8.091-8.156-18.875-12.673-30.363-12.719-.059 0-.117 0-.176 0-11.422 0-22.173 4.427-30.287 12.477-8.156 8.091-12.673 18.874-12.719 30.362s4.386 22.307 12.477 30.463zm10.806-50.177c5.285-5.242 12.285-8.125 19.725-8.125h.115c7.482.029 14.504 2.972 19.773 8.283s8.155 12.356 8.125 19.838v.001c-.03 7.481-2.971 14.504-8.283 19.773-5.284 5.242-12.285 8.126-19.724 8.125-.038 0-.077 0-.115 0-7.482-.029-14.504-2.972-19.774-8.283-5.269-5.312-8.155-12.356-8.125-19.838s2.972-14.505 8.283-19.774z"/></g></g></g></g></svg>