<svg id="Capa_1" enable-background="new 0 0 512 512" height="512" viewBox="0 0 512 512" width="512" xmlns="http://www.w3.org/2000/svg"><g><g><path d="m413.11 504.505h-79.91c-2.258 0-4.089-1.831-4.089-4.089v-29.775h88.089v29.775c-.001 2.259-1.831 4.089-4.09 4.089z" fill="#fddeb0"/></g><g><path d="m297.005 331.056v79.206c0 19.639 8.195 38.387 22.609 51.726l9.351 8.653h88.381l9.351-8.653c14.414-13.339 22.609-32.087 22.609-51.726v-79.206c0-5.2-4.215-9.416-9.416-9.416h-133.47c-5.2.001-9.415 4.216-9.415 9.416z" fill="#fef1da"/></g><g><path d="m417.195 470.636v29.779c0 2.258-1.829 4.087-4.087 4.087h-19.986c2.258 0 4.087-1.829 4.087-4.087v-29.779z" fill="#fccd7f"/></g><g><path d="m449.302 331.053v79.207c0 19.646-8.194 38.393-22.604 51.733l-9.353 8.644h-19.986l9.353-8.644c14.41-13.34 22.604-32.087 22.604-51.733v-79.207c0-5.196-4.217-9.413-9.413-9.413h19.986c5.196 0 9.413 4.217 9.413 9.413z" fill="#fae2c0"/></g><g><path d="m237.465 173.786c-13.918-25.131-20.654-52.236-23.7-68.478-2.449-13.06-2.561-26.458-.169-39.528 3.311-18.097 9.875-34.141 15.032-44.791 3.023-6.243-1.56-13.495-8.497-13.495h-118.213c-6.964 0-11.502 7.283-8.469 13.552 5.257 10.866 11.965 27.319 15.201 45.833 2.255 12.897 1.974 26.102-.467 38.965-3.09 16.285-9.822 43.04-23.563 67.879-14.142 25.562-21.925 54.15-21.925 83.363v231.871c0 8.588 6.962 15.549 15.549 15.549h165.561c8.588 0 15.549-6.962 15.549-15.549v-232.012c.001-29.144-7.77-57.663-21.889-83.159z" fill="#fef1da"/></g><g><path d="m259.357 256.949v232.004c0 8.594-6.965 15.549-15.549 15.549h-19.856c8.584 0 15.549-6.955 15.549-15.549v-232.004c0-29.149-7.774-57.669-21.884-83.161-13.92-25.132-20.655-52.243-23.703-68.481-2.448-13.061-2.558-26.461-.17-39.532 3.308-18.097 9.873-34.136 15.029-44.788 3.028-6.246-1.559-13.49-8.494-13.49h19.856c6.935 0 11.512 7.245 8.494 13.49-5.156 10.652-11.722 26.691-15.029 44.788-2.398 13.071-2.288 26.471.17 39.532 3.038 16.238 9.773 43.349 23.693 68.481 14.12 25.493 21.894 54.012 21.894 83.161z" fill="#fae2c0"/></g><g><path d="m62.695 264.385h196.66v196.66h-196.66z" fill="#b3dafe"/></g><g><path d="m239.501 264.385h19.853v196.66h-19.853z" fill="#8ac9fe"/></g><g><path d="m449.306 396.328c-4.139 0-7.495 3.355-7.495 7.495v6.44c0 17.495-7.364 34.343-20.205 46.225l-7.196 6.659h-82.51l-7.197-6.659c-12.84-11.882-20.204-28.73-20.204-46.225v-79.207c0-1.059.862-1.921 1.92-1.921h133.47c1.059 0 1.921.862 1.921 1.92l-.003 37.696c0 4.139 3.354 7.495 7.494 7.495 4.139 0 7.494-3.355 7.495-7.494l.003-37.697c0-9.324-7.586-16.91-16.91-16.91h-133.469c-9.324 0-16.91 7.586-16.91 16.91v79.207c0 21.658 9.117 42.517 25.013 57.227l7.093 6.563v26.364c0 6.387 5.196 11.583 11.583 11.583h79.911c6.387 0 11.583-5.196 11.583-11.583v-26.364l7.093-6.563c15.897-14.71 25.014-35.569 25.014-57.227v-6.44c0-4.139-3.355-7.494-7.494-7.494zm-39.601 100.683h-73.099v-18.875h73.099z"/><path d="m221.131 103.927c-2.316-12.352-2.371-24.733-.163-36.798 3.19-17.435 9.595-32.938 14.405-42.873 2.547-5.259 2.212-11.357-.895-16.314-3.117-4.973-8.48-7.942-14.347-7.942h-118.213c-5.858 0-11.213 2.962-14.323 7.923-3.118 4.972-3.451 11.099-.892 16.388 4.927 10.183 11.453 26.059 14.564 43.859 2.048 11.714 1.898 23.919-.447 36.277-3.229 17.019-9.799 42.223-22.758 65.648-14.957 27.034-22.862 57.115-22.862 86.99v231.871c0 12.707 10.337 23.044 23.044 23.044h165.561c12.707 0 23.044-10.337 23.044-23.044v-232.011c0-29.811-7.894-59.822-22.828-86.789-13.087-23.631-19.671-49.059-22.89-66.229zm30.729 385.029c0 4.442-3.614 8.055-8.055 8.055h-165.561c-4.441 0-8.055-3.613-8.055-8.055v-20.416h181.671zm-116.763-217.076h116.763v181.671h-181.671v-181.671h29.624c4.139 0 7.495-3.356 7.495-7.495s-3.355-7.495-7.495-7.495h-29.621c.034-27.28 7.287-54.78 20.985-79.54 13.921-25.162 20.936-52.014 24.369-70.109 2.683-14.139 2.846-28.153.486-41.652-3.41-19.505-10.494-36.763-15.838-47.807-.392-.811-.163-1.479.099-1.896.257-.408.747-.896 1.624-.896h118.213c.934 0 1.433.572 1.646.913.254.405.479 1.049.105 1.82-5.216 10.771-12.167 27.617-15.659 46.708-2.539 13.877-2.48 28.095.175 42.258 3.423 18.256 10.453 45.346 24.51 70.728 13.697 24.735 20.941 52.215 20.95 79.474h-116.76c-4.139 0-7.495 3.355-7.495 7.495.001 4.139 3.356 7.494 7.495 7.494z"/><path d="m127.377 301.917c0-4.139-3.355-7.495-7.495-7.495-4.139 0-7.495 3.355-7.495 7.495v12.724h-9.713v-2.138c0-4.139-3.356-7.495-7.495-7.495s-7.495 3.355-7.495 7.495v17.645c0 4.139 3.356 7.495 7.495 7.495s7.495-3.355 7.495-7.495v-.518h9.713v46.248c0 4.139 3.356 7.495 7.495 7.495s7.495-3.355 7.495-7.495v-46.248h12.797c4.139 0 7.495-3.356 7.495-7.495s-3.356-7.495-7.495-7.495h-12.797z"/><path d="m161.211 350.766c-4.139 0-7.495 3.356-7.495 7.495s3.355 7.495 7.495 7.495h65.659c4.139 0 7.495-3.356 7.495-7.495s-3.356-7.495-7.495-7.495h-10.848v-11.611c0-10.41-8.469-18.879-18.878-18.879h-12.084v-10.864h8.86c4.139 0 7.495-3.356 7.495-7.495s-3.356-7.495-7.495-7.495h-32.71c-4.139 0-7.495 3.355-7.495 7.495 0 4.139 3.355 7.495 7.495 7.495h8.86v41.354zm23.849-15.501h12.083c2.144 0 3.889 1.745 3.889 3.889v11.611h-15.972z"/><path d="m211.416 376.701h-34.752c-11.615 0-21.064 9.449-21.064 21.064v12.179c0 11.615 9.449 21.064 21.064 21.064h34.752c11.615 0 21.064-9.449 21.064-21.064v-12.179c0-11.614-9.449-21.064-21.064-21.064zm6.075 33.244c0 3.35-2.725 6.075-6.075 6.075h-34.752c-3.35 0-6.075-2.725-6.075-6.075v-12.179c0-3.35 2.725-6.075 6.075-6.075h34.752c3.35 0 6.075 2.725 6.075 6.075z"/></g></g></svg>