<svg id="Capa_1" enable-background="new 0 0 511.851 511.851" height="512" viewBox="0 0 511.851 511.851" width="512" xmlns="http://www.w3.org/2000/svg"><g><g><g><path d="m281.615 344.041-9.351-8.915c-1.383-1.318-1.962-3.271-1.522-5.13l2.978-12.572c.535-2.26-.448-4.589-2.416-5.823-14.579-9.136-44.031-15.346-69.022-11.49.31-1.138.597-2.288.832-3.463 5.462-27.269-4.408-62.683-16.33-78.352-1.406-1.848-3.816-2.616-6.017-1.879l-12.251 4.104c-1.811.607-3.809.207-5.247-1.051l-9.725-8.506c-1.748-1.529-4.267-1.748-6.277-.584-17.037 9.868-39.786 38.748-45.248 66.017-.235 1.174-.413 2.346-.566 3.516-21.578-13.184-51.149-18.797-68.122-15.981-2.291.38-4.096 2.151-4.472 4.443l-2.094 12.749c-.31 1.885-1.596 3.464-3.38 4.148l-12.063 4.626c-2.168.831-3.539 2.957-3.448 5.277.767 19.674 15.676 53.278 37.236 70.846 2.183 1.779 4.472 3.341 6.835 4.706-.426.296-.856.584-1.276.895-22.356 16.543-38.816 49.415-40.5 69.032-.199 2.314 1.071 4.501 3.198 5.432l11.834 5.183c1.75.766 2.962 2.404 3.183 4.302l1.497 12.833c.269 2.306 1.989 4.16 4.26 4.647 19.252 4.125 55.5-2.006 77.856-18.549 3.198-2.367 6.03-5.042 8.513-7.94 1.175 3.631 2.758 7.19 4.798 10.607 14.259 23.877 45.35 43.496 64.705 47.105 2.283.425 4.584-.623 5.721-2.648l6.324-11.266c.935-1.666 2.684-2.71 4.594-2.744l12.918-.225c2.322-.041 4.336-1.57 5.044-3.781 6.002-18.752 3.473-55.428-10.787-79.305-.268-.449-.553-.88-.833-1.318 2.706-.349 5.42-.91 8.12-1.711 26.663-7.908 53.365-33.178 61.65-51.038.978-2.106.532-4.595-1.149-6.197z" fill="#ffa799"/></g><g><path d="m186.781 218.294c-1.405-1.85-3.807-2.617-6.017-1.876l-10.333 3.465c9.43 20.299 16.428 56.537 11.841 79.434-.002.012-.005.024-.007.035-.333 1.655 1.037 3.146 2.71 2.915 5.648-.78 11.807-1.464 17.305-2.159.315-1.131.596-2.288.832-3.464 5.462-27.27-4.404-62.681-16.331-78.35zm94.83 125.744-9.343-8.916c-1.385-1.313-1.97-3.266-1.528-5.131l2.98-12.564c.532-2.261-.45-4.599-2.413-5.831-5.96-3.739-14.397-6.978-24.008-9.239.709.349 1.402.735 2.058 1.152 1.973 1.234 2.957 3.562 2.415 5.821l-2.971 12.566c-.443 1.865.134 3.815 1.516 5.138l9.354 8.908c1.68 1.609 2.129 4.097 1.146 6.198-8.284 17.865-36.773 42.128-63.436 50.037-.721.213-1.635.434-2.588.643-2.611.573-3.826 3.595-2.328 5.809 14.911 23.477 19.21 51.883 13.206 70.629-.71 2.216-2.724 3.746-5.04 3.785l-12.92.224c-1.91.032-3.66 1.082-4.596 2.749l-9.323 17.516c-1.025 1.817-2.989 2.854-5.045 2.728 7.663 4.051 15.063 6.855 21.265 8.009 2.282.428 4.584-.621 5.719-2.643l6.323-11.273c.934-1.658 2.683-2.708 4.594-2.74l12.92-.224c2.326-.037 4.339-1.568 5.049-3.783 5.995-18.748 3.466-55.423-10.792-79.303-.265-.448-.554-.88-.831-1.321 2.704-.346 5.42-.907 8.117-1.709 26.663-7.909 53.369-33.173 61.654-51.038.975-2.1.528-4.597-1.154-6.197z" fill="#fe8f83"/></g><g><circle cx="137.949" cy="359.501" fill="#fee97d" r="34.795"/></g><g><path d="m172.064 366.333c-3.775 18.847-22.105 31.059-40.953 27.284-10.538-2.111-18.999-8.778-23.757-17.535 2.733 1.376 5.693 2.413 8.832 3.042 18.838 3.773 37.179-8.446 40.953-27.284 1.664-8.309.219-16.511-3.527-23.418 13.641 6.867 21.597 22.213 18.452 37.911z" fill="#fedf30"/></g><g><path d="m286.778 338.625-8.475-8.08 2.699-11.397c1.271-5.366-1.03-10.947-5.725-13.887-15.148-9.494-41.046-14.814-63.797-13.596 3.447-28.581-6.5-61.81-18.741-77.899-3.353-4.408-9.121-6.194-14.349-4.444l-11.105 3.72-8.815-7.709c-4.152-3.631-10.16-4.204-14.954-1.427-17.49 10.13-39.463 36.953-47.294 64.654-3.152-1.526-6.45-2.946-9.871-4.248-3.858-1.47-8.185.469-9.656 4.331-1.47 3.862.47 8.186 4.332 9.656 6.036 2.298 11.596 4.99 16.524 8.001 2.163 1.322 4.846 1.458 7.133.364 2.286-1.095 3.862-3.272 4.189-5.785.152-1.171.305-2.128.481-3.01 4.797-23.945 24.824-50.463 40.418-60.259l8.569 7.494c3.426 2.998 8.237 3.961 12.55 2.515l10.796-3.616c10.617 15.046 18.885 47.232 14.089 71.174-.177.885-.405 1.828-.715 2.971-.665 2.445-.049 5.06 1.639 6.95 1.688 1.889 4.217 2.797 6.722 2.41 22.993-3.548 49.415 2.057 62.661 9.687l-2.623 11.076c-1.05 4.429.345 9.131 3.639 12.272l8.239 7.856c-8.344 16.416-32.94 38.761-56.354 45.705-2.242.665-4.581 1.157-6.95 1.463-2.541.328-4.738 1.934-5.823 4.256-1.083 2.322-.904 5.037.475 7.196l.228.355c.164.254.329.508.485.77 12.521 20.965 15.482 54.066 10.503 71.794l-11.384.198c-4.55.08-8.76 2.595-10.989 6.563l-5.572 9.927c-17.969-4.024-45.706-22.327-58.227-43.293-1.69-2.828-3.07-5.881-4.103-9.073-.834-2.577-2.995-4.502-5.65-5.034-2.653-.531-5.39.413-7.153 2.469-2.181 2.546-4.63 4.832-7.281 6.793-19.63 14.526-52.278 20.733-70.41 17.525l-1.32-11.307c-.526-4.521-3.444-8.464-7.614-10.29l-10.428-4.567c2.233-18.279 17.714-47.684 37.346-62.21.241-.178.486-.346.731-.515l.366-.253c2.102-1.462 3.311-3.898 3.203-6.457-.107-2.559-1.516-4.885-3.734-6.166-2.069-1.195-4.037-2.55-5.85-4.028-18.931-15.425-33.023-45.52-34.401-63.883l10.63-4.077c4.25-1.631 7.349-5.434 8.083-9.922l1.846-11.232c3.673-.466 8.085-.524 12.874-.165 4.139.306 7.714-2.781 8.022-6.902.31-4.121-2.78-7.713-6.901-8.022-6.697-.504-12.716-.324-17.884.534-5.465.907-9.738 5.172-10.63 10.612l-1.899 11.557-10.932 4.192c-5.149 1.974-8.464 7.019-8.248 12.556.837 21.48 16.001 56.264 39.132 75.649-20.878 18.986-35.13 49.253-36.816 68.901-.472 5.518 2.604 10.712 7.653 12.925l10.727 4.698 1.357 11.631c.638 5.477 4.707 9.936 10.125 11.097 21.276 4.561 59.393-1.734 83.876-19.851.504-.373 1.002-.755 1.495-1.144.305.55.618 1.094.939 1.633 15.616 26.147 48.369 46.636 69.758 50.625.798.148 1.595.221 2.385.221 4.603 0 8.928-2.458 11.233-6.562l5.732-10.212 11.709-.204c5.512-.096 10.351-3.706 12.041-8.983 6.01-18.78 4.514-52.201-7.438-77.762 28.811-8.984 56.204-35.242 65.25-54.74 2.334-5.027 1.219-10.961-2.773-14.765z"/><path d="m74.501 354.424 21.188 4.244c-.125 6.19 1.119 12.195 3.503 17.663l-17.996 11.99c-3.439 2.292-4.37 6.938-2.078 10.376 1.441 2.164 3.815 3.335 6.234 3.335 1.426 0 2.867-.407 4.142-1.256l17.997-11.99c4.128 4.306 9.191 7.767 14.952 10.037l-4.245 21.188c-.813 4.052 1.815 7.995 5.867 8.807.497.099.991.147 1.478.147 3.493 0 6.617-2.458 7.329-6.015l4.243-21.181c.307.007.615.023.922.023 5.774 0 11.459-1.192 16.76-3.507l11.973 17.97c1.441 2.164 3.814 3.335 6.234 3.335 1.426 0 2.867-.407 4.142-1.256 3.439-2.292 4.37-6.938 2.078-10.377l-11.977-17.976c4.4-4.212 7.808-9.298 10.031-14.969l21.181 4.242c.496.1.99.147 1.477.147 3.493 0 6.617-2.459 7.329-6.015.812-4.052-1.815-7.996-5.868-8.807l-21.188-4.244c.125-6.19-1.119-12.195-3.503-17.663l17.996-11.99c3.439-2.292 4.37-6.938 2.078-10.377-2.29-3.439-6.936-4.37-10.376-2.078l-17.996 11.99c-4.128-4.306-9.191-7.767-14.952-10.036l4.244-21.188c.812-4.052-1.815-7.996-5.868-8.807-4.046-.812-7.995 1.816-8.806 5.868l-4.244 21.188c-6.189-.124-12.194 1.12-17.663 3.505l-11.99-17.998c-2.29-3.439-6.936-4.37-10.376-2.079-3.439 2.291-4.37 6.937-2.078 10.376l11.99 17.998c-4.306 4.128-7.768 9.19-10.037 14.95l-21.189-4.244c-4.052-.809-7.995 1.816-8.806 5.868-.812 4.051 1.815 7.994 5.868 8.806zm36.668-.287c2.598-12.964 14.028-21.95 26.772-21.95 1.772 0 3.57.174 5.373.535 14.767 2.958 24.374 17.378 21.416 32.144-1.433 7.152-5.565 13.319-11.637 17.364-6.071 4.046-13.354 5.485-20.508 4.051-14.766-2.958-24.373-17.378-21.416-32.144z"/></g></g><g><g><path d="m491.621 77.289-12.372-3.722c-1.829-.55-3.229-2.03-3.678-3.887l-3.03-12.559c-.545-2.257-2.475-3.891-4.788-4.1-17.135-1.554-46.211 6.229-66.755 20.971-.238-1.156-.503-2.311-.824-3.465-7.462-26.791-32.282-53.911-50.002-62.493-2.09-1.012-4.586-.608-6.216 1.046l-9.07 9.201c-1.341 1.36-3.304 1.907-5.155 1.436l-12.52-3.187c-2.25-.573-4.596.371-5.862 2.318-10.733 16.506-17.959 52.552-10.497 79.343.321 1.154.693 2.279 1.086 3.392-25.207-1.999-54.12 6.37-67.985 16.558-1.871 1.375-2.68 3.771-1.979 5.985l3.899 12.317c.577 1.821.143 3.812-1.138 5.229l-8.667 9.582c-1.558 1.722-1.819 4.238-.689 6.266 9.582 17.2 38.078 40.427 65.253 46.344 2.752.599 5.5.957 8.224 1.106-.246.457-.499.908-.733 1.375-12.456 24.866-12.269 61.628-4.898 79.885.869 2.153 2.991 3.529 5.309 3.398l12.899-.73c1.907-.108 3.729.804 4.784 2.397l7.139 10.768c1.283 1.935 3.656 2.811 5.901 2.218 19.036-5.029 48.592-26.892 61.048-51.757 1.782-3.557 3.098-7.224 4.001-10.932 2.69 2.707 5.712 5.166 9.076 7.29 23.517 14.846 60.119 18.282 79.014 12.746 2.228-.653 3.807-2.629 3.905-4.949l.545-12.908c.081-1.909 1.168-3.631 2.857-4.525l11.419-6.044c2.052-1.086 3.157-3.361 2.788-5.654-3.129-19.439-21.973-51.005-45.49-65.851-.442-.279-.892-.534-1.339-.798 2.256-1.536 4.422-3.263 6.468-5.198 20.203-19.113 32.588-53.727 31.9-73.403-.08-2.322-1.604-4.34-3.828-5.009z" fill="#ffa799"/></g><g><path d="m350.167 8.033c-2.09-1.015-4.579-.613-6.215 1.048l-7.649 7.764c17.592 13.839 40.223 42.993 46.488 65.489.003.012.006.023.01.035.452 1.627 2.348 2.337 3.735 1.375 4.685-3.25 9.868-6.646 14.457-9.753-.23-1.151-.503-2.31-.825-3.466-7.461-26.792-32.277-53.912-50.001-62.492zm141.449 69.255-12.365-3.726c-1.829-.545-3.234-2.021-3.683-3.885l-3.025-12.553c-.548-2.257-2.481-3.898-4.79-4.109-7.007-.639-15.997.288-25.59 2.619.791-.009 1.583.021 2.357.097 2.317.208 4.248 1.839 4.787 4.099l3.034 12.551c.449 1.863 1.845 3.342 3.676 3.897l12.372 3.714c2.227.675 3.752 2.691 3.826 5.01.692 19.68-13.743 54.205-33.945 73.318-.547.516-1.262 1.126-2.017 1.744-2.07 1.692-1.786 4.936.551 6.234 23.918 14.194 40.599 37.584 43.723 57.019.369 2.297-.735 4.573-2.783 5.655l-11.421 6.043c-1.69.892-2.775 2.621-2.855 4.531l-.392 19.839c-.092 2.084-1.375 3.898-3.266 4.715 8.667.147 16.535-.699 22.588-2.475 2.229-.651 3.807-2.627 3.905-4.944l.54-12.914c.083-1.901 1.168-3.629 2.858-4.521l11.421-6.043c2.058-1.085 3.161-3.361 2.792-5.658-3.133-19.432-21.977-50.997-45.493-65.846-.439-.279-.892-.535-1.338-.802 2.255-1.532 4.424-3.261 6.466-5.195 20.203-19.113 32.594-53.725 31.903-73.405-.084-2.318-1.612-4.343-3.836-5.009z" fill="#fe8f83"/></g><g><circle cx="370.483" cy="156.057" fill="#fee97d" r="34.795"/></g><g><path d="m403.999 146.72c5.157 18.517-5.667 37.699-24.184 42.857-10.353 2.884-20.915.764-29.119-4.894 3.06-.009 6.168-.423 9.253-1.282 18.507-5.155 29.339-24.349 24.184-42.857-2.274-8.163-7.272-14.825-13.738-19.29 15.272-.045 29.308 10.044 33.604 25.466z" fill="#fedf30"/></g><g><path d="m511.298 226.359c-3.133-19.467-19.581-48.595-41.805-65.99 21.633-21.043 34.188-56.852 33.435-78.333-.193-5.538-3.871-10.326-9.151-11.913l-11.214-3.374-2.747-11.384c-1.293-5.359-5.869-9.297-11.386-9.798-17.807-1.611-43.314 5.359-63.049 16.729-9.853-27.05-33.754-52.187-51.948-60.999-4.987-2.414-10.938-1.398-14.808 2.528l-8.22 8.34-11.349-2.889c-5.339-1.359-10.962.845-13.982 5.491-11.019 16.948-18.484 50.821-12.934 79.071-22.771.47-48.214 7.686-62.617 18.271-4.466 3.28-6.348 9.016-4.684 14.274l3.534 11.165-7.855 8.685c-3.7 4.089-4.374 10.089-1.677 14.929 10.463 18.779 39.72 42.942 69.116 49.77-10.032 26.376-9.054 59.816-1.672 78.099 2.073 5.137 7.162 8.384 12.672 8.069l11.691-.661 6.472 9.76c2.42 3.651 6.48 5.75 10.733 5.75 1.1 0 2.215-.141 3.317-.432 21.037-5.558 52.186-28.411 65.827-55.64.281-.561.552-1.127.815-1.698.521.352 1.045.696 1.576 1.031 3.146 1.986 6.596 3.841 10.255 5.514 3.76 1.719 8.199.064 9.917-3.693 1.719-3.758.065-8.198-3.693-9.917-3.052-1.396-5.909-2.93-8.491-4.56-2.786-1.758-5.397-3.857-7.763-6.237-1.908-1.92-4.706-2.66-7.316-1.934-2.608.727-4.621 2.807-5.262 5.438-.793 3.258-1.945 6.405-3.421 9.351-10.937 21.834-37.246 42.137-54.87 47.477l-6.29-9.486c-2.514-3.794-6.9-5.987-11.445-5.735l-11.366.644c-6.276-17.313-5.769-50.54 5.164-72.365.137-.274.285-.541.43-.808l.204-.375c1.217-2.255 1.195-4.976-.057-7.211-1.253-2.235-3.562-3.674-6.121-3.814-2.387-.13-4.756-.449-7.04-.946-23.86-5.195-50.041-25.662-59.577-41.417l7.638-8.444c3.052-3.376 4.096-8.168 2.722-12.506l-3.435-10.853c12.645-8.587 38.574-16.131 61.774-14.29 2.519.202 4.982-.891 6.526-2.902 1.543-2.01 1.965-4.665 1.12-7.054-.396-1.117-.692-2.039-.933-2.902-6.552-23.525-.684-56.234 8.792-72.024l11.034 2.809c4.409 1.121 9.133-.194 12.331-3.435l7.991-8.108c16.274 8.617 38.206 33.583 44.76 57.11.241.864.464 1.806.702 2.963.511 2.483 2.243 4.538 4.604 5.461 2.364.925 5.029.588 7.087-.889 18.901-13.563 45.013-20.521 60.268-19.702l2.67 11.067c1.068 4.423 4.438 7.985 8.797 9.297l10.902 3.28c-.019 18.415-11.848 49.469-29.59 66.253-1.695 1.605-3.558 3.101-5.535 4.447-2.117 1.441-3.351 3.866-3.268 6.426.083 2.561 1.469 4.901 3.674 6.204l.375.219c.261.153.522.304.774.462 20.65 13.036 38.26 41.216 41.838 59.282l-10.061 5.325c-4.024 2.129-6.642 6.277-6.832 10.823l-.481 11.373c-7.973 2.008-19.459 2.365-31.146.933-4.094-.5-7.834 2.415-8.338 6.517-.503 4.102 2.416 7.835 6.518 8.338 14.519 1.78 28.582 1.122 38.577-1.806 5.318-1.558 9.046-6.307 9.277-11.814l.495-11.701 10.352-5.478c4.873-2.582 7.555-7.99 6.673-13.458z"/><path d="m429.367 131.888-20.817 5.798c-2.688-5.577-6.514-10.37-11.113-14.168l10.627-18.833c2.031-3.6.759-8.164-2.84-10.195-3.599-2.032-8.163-.76-10.195 2.839l-10.627 18.833c-5.629-1.973-11.709-2.77-17.874-2.188l-5.798-20.817c-1.109-3.981-5.235-6.311-9.217-5.201-3.981 1.109-6.309 5.235-5.2 9.217l5.796 20.809c-5.492 2.636-10.312 6.411-14.187 11.11l-18.813-10.616c-3.598-2.03-8.162-.76-10.195 2.839-2.031 3.599-.759 8.164 2.84 10.195l18.812 10.616c-2.019 5.747-2.759 11.824-2.176 17.887l-20.81 5.796c-3.981 1.109-6.309 5.235-5.2 9.216.922 3.31 3.929 5.478 7.205 5.478.665 0 1.341-.089 2.012-.276l20.81-5.796c2.688 5.579 6.518 10.372 11.117 14.171l-10.625 18.829c-2.031 3.599-.759 8.163 2.84 10.194 1.162.656 2.424.968 3.67.968 2.612 0 5.149-1.37 6.524-3.807l10.625-18.83c4.426 1.551 9.129 2.385 13.935 2.385 1.306 0 2.621-.085 3.938-.209l5.801 20.826c.922 3.31 3.929 5.478 7.205 5.478.665 0 1.341-.089 2.012-.276 3.981-1.109 6.309-5.235 5.2-9.217l-5.796-20.809c5.492-2.635 10.312-6.41 14.187-11.11l18.813 10.616c1.163.656 2.424.968 3.67.968 2.612 0 5.149-1.37 6.524-3.807 2.031-3.6.759-8.164-2.84-10.195l-18.812-10.615c2.019-5.747 2.759-11.824 2.176-17.887l20.81-5.796c3.981-1.109 6.309-5.235 5.2-9.217-1.106-3.983-5.231-6.311-9.214-5.203zm-35.098 37.591c-3.585 6.353-9.43 10.93-16.458 12.887-14.502 4.038-29.597-4.474-33.638-18.982-1.958-7.027-1.061-14.396 2.525-20.75 3.585-6.353 9.43-10.93 16.458-12.888 2.442-.68 4.899-1.004 7.318-1.004 11.955 0 22.959 7.921 26.32 19.986 1.957 7.029 1.06 14.398-2.525 20.751z"/></g></g></g></svg>