<svg id="Capa_1" enable-background="new 0 0 512.121 512.121" height="512" viewBox="0 0 512.121 512.121" width="512" xmlns="http://www.w3.org/2000/svg"><g><g><path d="m404.615 323.856h-297.109c-2.268 0-4.106-1.838-4.106-4.106v-18.477c0-2.268 1.838-4.106 4.106-4.106h297.109c2.267 0 4.106 1.838 4.106 4.106v18.477c0 2.268-1.839 4.106-4.106 4.106z" fill="#554e56"/></g><g><path d="m82.295 467.355h347.531v37.266h-347.531z" fill="#7a6d79"/></g><g><path d="m409.494 467.355h20.332v37.266h-20.332z" fill="#685e68"/></g><g><path d="m449.895 467.355h-387.669c-3.459 0-6.263-2.804-6.263-6.263v-20.51c0-3.459 2.804-6.263 6.263-6.263h387.67c3.459 0 6.263 2.804 6.263 6.263v20.51c-.001 3.459-2.805 6.263-6.264 6.263z" fill="#554e56"/></g><g><path d="m456.154 440.578v20.513c0 3.46-2.804 6.264-6.254 6.264h-20.334c3.46 0 6.264-2.804 6.264-6.264v-20.513c0-3.45-2.804-6.254-6.264-6.254h20.334c3.45-.001 6.254 2.803 6.254 6.254z" fill="#433f43"/></g><g><path d="m381.823 151.572h-251.525c-2.268 0-4.106-1.838-4.106-4.106v-18.476c0-2.268 1.838-4.106 4.106-4.106h251.525c2.268 0 4.106 1.838 4.106 4.106v18.477c0 2.267-1.839 4.105-4.106 4.105z" fill="#554e56"/></g><g><path d="m385.927 128.992v18.474c0 2.267-1.839 4.106-4.106 4.106h-20.334c2.267 0 4.106-1.839 4.106-4.106v-18.474c0-2.267-1.84-4.106-4.106-4.106h20.334c2.266 0 4.106 1.839 4.106 4.106z" fill="#433f43"/></g><g><path d="m408.721 301.274v18.474c0 2.267-1.839 4.106-4.106 4.106h-20.334c2.267 0 4.107-1.84 4.107-4.106v-18.474c0-2.267-1.84-4.106-4.107-4.106h20.334c2.266 0 4.106 1.84 4.106 4.106z" fill="#433f43"/></g><g><path d="m115.831 323.856h280.459v109.979h-280.459z" fill="#fd9468"/></g><g><path d="m375.761 323.856h20.529v109.979h-20.529z" fill="#fe7d43"/></g><g><path d="m156.574 151.572h198.972v94.743h-198.972z" fill="#fd9468"/></g><g><path d="m335.215 151.572h20.332v94.743h-20.332z" fill="#fe7d43"/></g><g><path d="m421.474 260.066c-21.458 8.809-50.547-.015-65.927-13.751h-198.973c-15.38 13.736-44.469 22.56-65.927 13.751-3.199-1.313-6.264 2.142-4.481 5.105 8.358 13.891 20.707 25.231 35.137 31.995.003.001.005.001.008.002h269.498c.003-.001.005-.001.008-.002 14.43-6.764 26.78-18.103 35.137-31.995 1.783-2.963-1.281-6.418-4.48-5.105z" fill="#7a6d79"/></g><g><path d="m425.957 265.172c-2.754 4.574-5.946 8.879-9.506 12.826-.607-.089-1.263-.02-1.919.249-21.457 8.81-73.38-10.023-79.405-31.937h20.423c15.372 13.741 44.465 22.561 65.922 13.751 3.203-1.312 6.265 2.148 4.485 5.111z" fill="#685e68"/></g><g><path d="m389.934 88.661c-19.746 9.584-43.449 6.037-63.644-2.466-8.188-3.448-16.225-7.422-23.605-12.481-8.159-5.594-15.533-12.488-21.447-20.536h-25.178-25.178c-5.914 8.048-13.288 14.942-21.447 20.536-7.38 5.06-15.417 9.033-23.605 12.481-20.194 8.503-43.898 12.051-63.644 2.466-3.22-1.563-6.444 2.075-4.56 5.119 8.345 13.484 20.475 24.484 34.601 31.104h103.833 103.833c14.126-6.62 26.256-17.62 34.601-31.104 1.884-3.044-1.339-6.682-4.56-5.119z" fill="#7a6d79"/></g><g><path d="m394.498 93.784c-1.74 2.804-3.639 5.498-5.678 8.064-15.379 6.852-32.225 7.923-48.459 4.536-13.755-2.87-26.487-8.419-38.094-16.155-6.655-4.436-13.169-8.996-19.18-14.26-4.401-3.855-8.89-7.837-12.898-12.104 0 0-5.682-6.05-9.356-10.688h20.403c5.916 8.054 13.294 14.944 21.447 20.532 7.378 5.061 15.422 9.038 23.605 12.488 20.194 8.501 43.899 12.051 63.645 2.466 3.222-1.561 6.444 2.069 4.565 5.121z" fill="#685e68"/></g><g><g><path d="m238.073 246.315h-41.714v-45.836c0-11.519 9.338-20.857 20.857-20.857 11.519 0 20.857 9.338 20.857 20.857z" fill="#fef1da"/></g><g><path d="m315.762 246.315h-41.714v-45.836c0-11.519 9.338-20.857 20.857-20.857 11.519 0 20.857 9.338 20.857 20.857z" fill="#fef1da"/></g></g><g><g><path d="m238.074 200.483v45.827h-20.861v-45.827c0-5.767-2.337-10.977-6.105-14.756-1.283-1.283-2.734-2.396-4.315-3.301 3.062-1.79 6.622-2.804 10.42-2.804 5.757 0 10.977 2.337 14.756 6.105 3.768 3.779 6.105 8.989 6.105 14.756z" fill="#fae2c0"/></g><g><path d="m315.759 200.483v45.827h-20.851v-45.827c0-5.767-2.337-10.977-6.105-14.756-1.283-1.283-2.734-2.396-4.325-3.311 3.062-1.78 6.632-2.794 10.43-2.794 5.757 0 10.967 2.337 14.746 6.105 3.768 3.779 6.105 8.989 6.105 14.756z" fill="#fae2c0"/></g></g><g><path d="m256.061 7.5c-13.905 0-25.178 11.272-25.178 25.178v20.5h50.355v-20.5c0-13.906-11.272-25.178-25.177-25.178z" fill="#554e56"/></g><g><path d="m281.236 32.674v20.503h-20.334v-20.503c0-10.281-6.165-19.13-15.004-23.028 3.102-1.382 6.542-2.148 10.162-2.148 13.901 0 25.176 11.276 25.176 25.176z" fill="#433f43"/></g><path d="m449.896 426.82h-13.406v-52.011c0-4.142-3.358-7.5-7.5-7.5h-25.2v-35.953h.825c6.399 0 11.606-5.207 11.606-11.606v-18.477c0-3.533-1.592-6.696-4.09-8.827 7.954-6.532 14.879-14.482 20.25-23.409 2.458-4.085 2.026-9.258-1.076-12.871-3.13-3.645-8.224-4.868-12.68-3.038-17.595 7.223-41.656.443-55.579-10.332v-83.724h18.776c6.399 0 11.606-5.206 11.606-11.605v-18.477c0-5.591-3.975-10.27-9.246-11.364 6.437-5.767 12.106-12.493 16.689-19.899 2.625-4.242 2.146-9.579-1.194-13.28-3.323-3.682-8.555-4.699-13.018-2.533-20.696 10.046-44.882 2.664-57.458-2.631-9.07-3.82-16.148-7.555-22.275-11.755-7.103-4.87-13.203-10.552-18.188-16.899v-17.951c0-18.019-14.659-32.678-32.677-32.678s-32.678 14.659-32.678 32.678v17.951c-4.985 6.347-11.085 12.029-18.188 16.899-6.127 4.201-13.205 7.936-22.275 11.755-12.574 5.295-36.76 12.678-57.458 2.631-4.462-2.165-9.694-1.149-13.018 2.533-3.34 3.701-3.82 9.038-1.194 13.28 4.584 7.406 10.252 14.132 16.689 19.899-5.272 1.093-9.246 5.773-9.246 11.364v18.477c0 6.399 5.207 11.605 11.606 11.605h18.776v83.724c-13.923 10.775-37.982 17.556-55.578 10.332-4.455-1.829-9.55-.608-12.68 3.038-3.102 3.613-3.534 8.786-1.076 12.871 5.371 8.927 12.296 16.877 20.25 23.409-2.498 2.13-4.09 5.294-4.09 8.826v18.477c0 6.399 5.207 11.606 11.606 11.606h.825v35.953h-25.2c-4.142 0-7.5 3.358-7.5 7.5v52.011h-13.406c-7.589 0-13.763 6.174-13.763 13.763v20.51c0 7.588 6.174 13.762 13.763 13.762h12.569v29.766c0 4.142 3.358 7.5 7.5 7.5h30.151c4.142 0 7.5-3.358 7.5-7.5s-3.358-7.5-7.5-7.5h-22.651v-22.266h332.531v22.266h-275.246c-4.142 0-7.5 3.358-7.5 7.5s3.358 7.5 7.5 7.5h282.746c4.142 0 7.5-3.358 7.5-7.5v-29.766h12.569c7.589 0 13.763-6.174 13.763-13.762v-20.51c0-7.588-6.174-13.762-13.762-13.762zm-28.407-44.511v14.755h-17.699v-14.755zm0 29.755v14.755h-17.699v-14.755zm-183.106-379.386c0-9.748 7.93-17.678 17.678-17.678s17.678 7.93 17.678 17.678v13h-35.355v-13zm-49.642 60.429c10.028-4.223 17.952-8.42 24.935-13.208 8.075-5.536 15.091-11.991 20.899-19.222h42.97c5.809 7.231 12.824 13.686 20.899 19.222 6.983 4.788 14.907 8.984 24.935 13.208 20.464 8.617 40.327 10.901 57.298 6.779-6.377 7.284-14.085 13.303-22.501 17.498h-204.231c-8.416-4.194-16.124-10.214-22.501-17.497 16.97 4.121 36.832 1.837 57.297-6.78zm-55.049 50.965v-11.688h244.736v11.688zm182.07 81.971c-4.142 0-7.5 3.358-7.5 7.5v5.271h-26.714v-38.336c0-7.365 5.992-13.357 13.357-13.357 6.634 0 12.321 4.943 13.229 11.497.569 4.103 4.356 6.972 8.458 6.4 4.103-.569 6.968-4.356 6.4-8.458-1.931-13.932-14.006-24.438-28.088-24.438-15.636 0-28.357 12.721-28.357 28.357v38.336h-20.975v-38.336c0-15.636-12.721-28.357-28.357-28.357s-28.357 12.721-28.357 28.357v38.336h-24.785v-79.743h183.973v79.743h-24.785v-5.271c.001-4.143-3.357-7.501-7.499-7.501zm-85.189-25.564v38.336h-26.714v-38.336c0-7.365 5.992-13.357 13.357-13.357s13.357 5.992 13.357 13.357zm-131.757 69.67c21.29 3.714 45.588-4.306 60.506-16.334h193.476c14.918 12.028 39.213 20.047 60.506 16.334-6.684 8.195-15.01 14.936-24.208 19.519h-266.072c-9.197-4.584-17.523-11.324-24.208-19.519zm226.81 126.915v-14.755h63.164v14.755zm63.164 15v14.271h-63.164v-14.271zm-265.459-44.755v-35.953h265.459v35.953zm78.164 29.755v-14.755h109.131v14.755zm109.131 15v14.271h-109.131v-14.271zm-187.295-15v-14.755h63.164v14.755zm63.164 15v14.271h-63.164v-14.271zm-75.595-95.708v-11.688h290.32v11.688zm-20.268 65.953h17.699v14.755h-17.699zm0 29.755h17.699v14.755h-17.699zm358.026 47.791h-385.195v-18.035h385.195z"/></g></svg>