<svg id="Capa_1" enable-background="new 0 0 512 512" height="512" viewBox="0 0 512 512" width="512" xmlns="http://www.w3.org/2000/svg"><g><g><path d="m480.465 38.734h-448.93c-5.183 0-9.385-4.202-9.385-9.385v-12.487c0-5.183 4.202-9.385 9.385-9.385h448.93c5.183 0 9.385 4.202 9.385 9.385v12.488c0 5.183-4.202 9.384-9.385 9.384z" fill="#e19974"/></g><g><path d="m489.846 16.862v12.482c0 5.184-4.197 9.392-9.382 9.392h-19.94c5.184 0 9.382-4.207 9.382-9.392v-12.482c0-5.184-4.197-9.382-9.382-9.382h19.94c5.184.001 9.382 4.198 9.382 9.382z" fill="#dc8758"/></g><g><path d="m120.964 255.344c0-28.854-8.84-45.901-8.84-74.756s8.84-28.854 8.84-57.708c0-28.85-8.84-28.85-8.84-57.7 0-28.851 8.84-28.851 8.84-57.702h-30.748c0 28.851-8.84 28.851-8.84 57.702 0 28.85 8.84 28.85 8.84 57.7 0 28.854-8.84 28.854-8.84 57.708s8.84 45.901 8.84 74.756z" fill="#fef1da"/></g><g><path d="m151.657 255.344c0-28.854-8.84-45.901-8.84-74.756 0-28.854 8.84-28.854 8.84-57.708 0-28.85-8.84-28.85-8.84-57.7 0-28.851 8.84-28.851 8.84-57.702h-30.748c0 28.851-8.84 28.851-8.84 57.702 0 28.85 8.84 28.85 8.84 57.7 0 28.854-8.84 28.854-8.84 57.708s8.84 45.901 8.84 74.756z" fill="#fddeb0"/></g><g><path d="m182.452 255.344c0-28.854-8.84-45.901-8.84-74.756s8.84-28.854 8.84-57.708c0-28.85-8.84-28.85-8.84-57.7 0-28.851 8.84-28.851 8.84-57.702h-30.748c0 28.851-8.84 28.851-8.84 57.702 0 28.85 8.84 28.85 8.84 57.7 0 28.854-8.84 28.854-8.84 57.708s8.84 45.901 8.84 74.756z" fill="#fef1da"/></g><g><path d="m120.966 122.883c0 28.853-8.843 28.853-8.843 57.706s8.843 45.902 8.843 74.755h-17.009c0-28.853-8.833-45.902-8.833-74.755s8.833-28.853 8.833-57.706-8.833-28.853-8.833-57.706 8.833-28.853 8.833-57.696h17.009c0 28.843-8.843 28.843-8.843 57.696s8.843 28.853 8.843 57.706z" fill="#fae2c0"/></g><g><path d="m151.654 122.883c0 28.853-8.833 28.853-8.833 57.706s8.833 45.902 8.833 74.755h-16.999c0-28.853-8.843-45.902-8.843-74.755s8.843-28.853 8.843-57.706-8.843-28.853-8.843-57.706 8.843-28.853 8.843-57.696h16.999c0 28.843-8.833 28.843-8.833 57.696s8.833 28.853 8.833 57.706z" fill="#fccd7f"/></g><g><path d="m182.454 122.883c0 28.853-8.843 28.853-8.843 57.706s8.843 45.902 8.843 74.755h-17.009c0-28.853-8.833-45.902-8.833-74.755s8.833-28.853 8.833-57.706-8.833-28.853-8.833-57.706 8.833-28.853 8.833-57.696h17.009c0 28.843-8.843 28.843-8.843 57.696s8.843 28.853 8.843 57.706z" fill="#fae2c0"/></g><g><ellipse cx="367.325" cy="227.109" fill="#fef1da" rx="81.132" ry="62.954" transform="matrix(.207 -.978 .978 .207 69.068 539.437)"/></g><g><path d="m428.911 240.146c-9.278 43.836-44.37 73.539-78.393 66.334-3.182-.677-6.24-1.642-9.165-2.894 30.811.462 60.442-27.66 68.858-67.401 8.406-39.73-7.277-77.449-35.625-89.519 3.171.041 6.363.39 9.545 1.067 34.014 7.204 54.059 48.577 44.78 92.413z" fill="#fae2c0"/></g><g><circle cx="363.904" cy="243.273" fill="#fee97d" r="33.364"/></g><g><path d="m396.54 250.183c-3.808 18.023-21.523 29.549-39.546 25.731-1.15-.246-2.268-.544-3.356-.903 10.992-3.551 19.819-12.727 22.375-24.828 3.572-16.873-6.292-33.48-22.375-38.653 5.368-1.755 11.249-2.155 17.171-.903 18.033 3.819 29.549 21.534 25.731 39.556z" fill="#fedf30"/></g><g><ellipse cx="275.258" cy="227.109" fill="#fef1da" rx="81.132" ry="62.954" transform="matrix(.207 -.978 .978 .207 -3.932 449.366)"/></g><g><path d="m336.844 240.146c-9.278 43.836-44.369 73.539-78.393 66.334-3.182-.677-6.24-1.642-9.165-2.894 30.811.462 60.442-27.66 68.858-67.401 8.406-39.73-7.277-77.449-35.625-89.519 3.171.041 6.363.39 9.545 1.067 34.014 7.204 54.058 48.577 44.78 92.413z" fill="#fae2c0"/></g><g><circle cx="271.836" cy="243.273" fill="#fee97d" r="33.364"/></g><g><path d="m304.473 250.183c-3.808 18.023-21.523 29.549-39.546 25.731-1.15-.246-2.268-.544-3.356-.903 10.992-3.551 19.819-12.727 22.375-24.828 3.572-16.873-6.292-33.48-22.375-38.653 5.368-1.755 11.249-2.155 17.171-.903 18.033 3.819 29.549 21.534 25.731 39.556z" fill="#fedf30"/></g><path d="m304.477 250.182h.01z"/><g><g><path d="m262.304 445.971h-84.984l6.284 51.865c.462 3.816 3.701 6.686 7.545 6.686h71.155 58.544c3.844 0 7.083-2.87 7.545-6.686l6.284-51.865z" fill="#554e56"/></g><g><path d="m334.681 445.97-6.291 51.864c-.459 3.819-3.699 6.69-7.537 6.69h-21.575c3.848 0 7.089-2.871 7.547-6.69l6.291-51.864z" fill="#433f43"/></g><g><path d="m437.14 259.726c-.057-2.438-2.053-4.377-4.492-4.377h-170.344-182.955c-2.439 0-4.434 1.939-4.492 4.377-.391 16.569 1.079 77.22 39.523 130.812 72.35 100.858 210.888 100.858 283.237 0 38.444-53.592 39.913-114.243 39.523-130.812z" fill="#7a6d79"/></g><g><path d="m397.622 390.537c-38.644 53.868-96.16 78.962-152.401 75.283 49.052-3.2 97.137-28.295 130.836-75.283 38.434-53.589 39.91-114.246 39.521-130.816-.06-2.433-2.054-4.377-4.496-4.377h21.565c2.443 0 4.437 1.944 4.496 4.377.389 16.57-1.077 77.227-39.521 130.816z" fill="#685e68"/></g><g><path d="m434.849 294.914c-1.8 12.62-4.932 27.399-10.3 43.006h-337.101c-5.368-15.606-8.5-30.386-10.3-43.006z" fill="#fd9468"/></g><g><path d="m434.82 294.91c-1.598 10.619-3.767 21.058-6.65 31.48-.259.937-.538 1.884-.827 2.841-.857 2.861-1.785 5.753-2.792 8.684h-21.575c5.374-15.613 8.504-30.388 10.299-42.999.07-.491 19.484.022 21.553-.06-.003.018-.006.036-.008.054z" fill="#fe7d43"/></g></g><g><path d="m480.465 95.064h-448.93c-5.183 0-9.385-4.202-9.385-9.385v-12.488c0-5.183 4.202-9.385 9.385-9.385h448.93c5.183 0 9.385 4.202 9.385 9.385v12.488c0 5.183-4.202 9.385-9.385 9.385z" fill="#e19974"/></g><g><path d="m489.846 73.193v12.482c0 5.184-4.197 9.392-9.382 9.392h-19.94c5.184 0 9.382-4.207 9.382-9.392v-12.482c0-5.184-4.197-9.382-9.382-9.382h19.94c5.184 0 9.382 4.197 9.382 9.382z" fill="#dc8758"/></g><path d="m480.466 46.212c9.298 0 16.862-7.565 16.862-16.862v-12.488c0-9.297-7.564-16.862-16.862-16.862h-448.932c-9.298 0-16.862 7.565-16.862 16.862v12.488c0 9.298 7.564 16.862 16.862 16.862h43.956c-.56 2.938-1.01 6.248-1.288 10.117h-42.668c-9.298 0-16.862 7.565-16.862 16.862v12.488c0 9.298 7.564 16.862 16.862 16.862h48.935c1.3 5.091 2.269 11.053 2.269 20.339 0 13.308-1.987 19.795-4.092 26.664-2.334 7.619-4.747 15.498-4.747 31.044 0 5.293.278 10.485.851 15.873.437 4.106 4.114 7.089 8.226 6.646 4.106-.437 7.081-4.119 6.645-8.226-.516-4.858-.767-9.533-.767-14.293 0-13.307 1.987-19.795 4.092-26.664 2.334-7.619 4.747-15.498 4.747-31.045 0-8.786-.773-15.115-1.865-20.339h15.334c1.3 5.091 2.269 11.053 2.269 20.339 0 13.308-1.987 19.795-4.092 26.664-2.334 7.619-4.747 15.498-4.747 31.044 0 15.141 2.315 27.164 4.555 38.792 1.787 9.283 3.495 18.149 4.075 28.486h-15.714c-.299-5.938-.969-11.94-2.067-18.689-.663-4.076-4.503-6.849-8.581-6.18-4.077.664-6.843 4.505-6.18 8.581.959 5.896 1.552 11.145 1.843 16.293h-3.174c-6.553 0-11.811 5.129-11.968 11.678-.419 17.784 1.294 80.103 40.923 135.347 17.123 23.87 38.329 42.872 62.109 56.234l5.768 47.605c.916 7.562 7.351 13.264 14.969 13.264h129.699c7.617 0 14.052-5.703 14.968-13.264l5.769-47.605c23.779-13.363 44.985-32.364 62.108-56.234 39.629-55.244 41.341-117.562 40.923-135.347-.138-5.858-4.363-10.568-9.945-11.5.576-2.086 1.103-4.201 1.559-6.355 4.83-22.816 2.435-45.813-6.744-64.753-9.489-19.58-25.048-32.55-43.809-36.521-21.123-4.471-42.591 3.54-59.235 19.743-8.881-10.215-20.117-17.051-32.832-19.743-38.007-8.044-77.138 24.303-87.256 72.102-2.527 11.938-3.065 23.921-1.695 35.349h-14.923c-.597-11.746-2.503-21.672-4.36-31.319-2.203-11.442-4.285-22.25-4.285-35.964 0-13.307 1.987-19.795 4.092-26.664 2.334-7.619 4.747-15.498 4.747-31.045 0-8.784-.772-15.115-1.863-20.339h292.4c9.298 0 16.862-7.565 16.862-16.862v-12.486c0-9.298-7.564-16.862-16.862-16.862h-64.22c-4.13 0-7.477 3.348-7.477 7.478s3.347 7.478 7.477 7.478h64.22c1.052 0 1.907.856 1.907 1.907v12.488c0 1.052-.856 1.907-1.907 1.907h-448.934c-1.052 0-1.907-.856-1.907-1.907v-12.489c0-1.052.856-1.907 1.907-1.907h349.359c4.13 0 7.478-3.348 7.478-7.478s-3.347-7.478-7.478-7.478h-199.453c.339-3.975.901-7.215 1.583-10.117h297.443zm-290.748-31.257h290.748c1.052 0 1.907.856 1.907 1.907v12.488c0 1.052-.856 1.907-1.907 1.907h-293.196c1.118-4.403 2.048-9.496 2.448-16.302zm131.252 481.982c-.008.062-.06.108-.122.108h-129.699c-.062 0-.115-.047-.123-.108l-4.583-37.83c21.792 9.51 45.309 14.552 69.555 14.552s47.763-5.042 69.555-14.552zm70.572-110.757c-33.063 46.09-82.466 72.524-135.543 72.524-53.076 0-102.48-26.434-135.544-72.524-9.629-13.423-16.844-27.301-22.259-40.782h315.604c-5.415 13.48-12.629 27.359-22.258 40.782zm27.602-55.738h-326.291c-2.876-9.085-5.193-18.475-6.922-28.051h340.138c-1.731 9.579-4.048 18.969-6.925 28.051zm-45.333-176.308c2.919 0 5.85.3 8.767.917 14.141 2.993 26.02 13.084 33.449 28.413 7.739 15.969 9.718 35.549 5.572 55.134-.673 3.181-1.512 6.267-2.468 9.274h-14.647c1.084-9.414-1.115-18.827-6.348-26.871-5.949-9.145-15.103-15.425-25.775-17.684-9.063-1.917-18.295-.731-26.473 3.309-1.227-10.518-4.055-20.573-8.471-29.685-.733-1.512-1.514-2.97-2.317-4.402 11.051-11.547 24.756-18.405 38.711-18.405zm15.56 93.738h-46.719c.553-2.031 1.068-4.084 1.51-6.177 1.24-5.86 1.996-11.73 2.291-17.542 1.032-.938 2.142-1.803 3.333-2.578 4.253-2.767 9.108-4.197 14.064-4.197 8.718 0 16.974 4.436 21.751 11.778 3.63 5.579 4.952 12.196 3.77 18.716zm-168.388-32.252c7.591-35.86 33.734-61.485 60.76-61.485 2.919 0 5.85.3 8.767.917 14.141 2.993 26.02 13.084 33.449 28.413 7.739 15.969 9.718 35.549 5.571 55.134-.672 3.177-1.497 6.268-2.449 9.274h-14.682c1.085-9.414-1.098-18.827-6.331-26.871-5.949-9.144-15.103-15.424-25.775-17.683-10.673-2.258-21.586-.228-30.731 5.722-9.144 5.949-15.424 15.103-17.684 25.775-.933 4.411-1.107 8.807-.618 13.057h-11.524c-1.456-10.33-1.074-21.287 1.247-32.253zm76.321 32.252h-50.934c-.586-3.208-.575-6.577.141-9.96 1.431-6.765 5.411-12.567 11.208-16.337 4.253-2.767 9.108-4.197 14.064-4.197 1.799 0 3.612.189 5.414.57 6.764 1.432 12.566 5.412 16.337 11.208 3.63 5.579 4.952 12.196 3.77 18.716zm132.4 14.955c.026 5.646-.227 14.177-1.415 24.61h-344.582c-1.188-10.434-1.441-18.965-1.415-24.61zm-275.27-108.902c2.334-7.619 4.747-15.498 4.747-31.045 0-8.786-.773-15.115-1.865-20.339h15.389c1.3 5.091 2.269 11.053 2.269 20.339 0 13.308-1.987 19.795-4.092 26.664-2.334 7.619-4.747 15.498-4.747 31.044 0 15.141 2.315 27.164 4.555 38.792 1.787 9.283 3.495 18.148 4.076 28.486h-15.774c-.597-11.747-2.507-21.667-4.365-31.314-2.203-11.442-4.285-22.25-4.285-35.964 0-13.307 1.987-19.795 4.092-26.663zm-30.74 0c2.334-7.619 4.747-15.498 4.747-31.045 0-8.782-.771-15.116-1.862-20.339h15.33c1.3 5.091 2.269 11.053 2.269 20.339 0 13.308-1.987 19.795-4.092 26.664-2.334 7.619-4.747 15.498-4.747 31.044 0 15.141 2.315 27.164 4.555 38.792 1.788 9.283 3.495 18.148 4.076 28.486h-15.723c-.597-11.744-2.502-21.668-4.36-31.314-2.203-11.442-4.285-22.25-4.285-35.964 0-13.307 1.987-19.795 4.092-26.663zm-44.177-122.668h-47.983c-1.052 0-1.907-.856-1.907-1.907v-12.488c0-1.052.856-1.907 1.907-1.907h50.958c-.486 7.025-1.648 11.803-2.975 16.302zm29.822 2.881c-1.842 6.014-3.729 12.208-4.444 22.191h-15.686c.66-7.727 2.162-12.673 3.737-17.81 1.927-6.289 3.907-12.755 4.54-23.564h15.699c-.591 8.533-2.179 13.746-3.846 19.183zm30.748 0c-1.842 6.015-3.73 12.207-4.445 22.191h-15.688c.659-7.731 2.164-12.671 3.739-17.81 1.926-6.287 3.902-12.762 4.536-23.564h15.709c-.59 8.542-2.184 13.743-3.851 19.183zm30.795 0c-1.842 6.013-3.726 12.211-4.441 22.191h-15.743c.659-7.727 2.162-12.673 3.736-17.81 1.927-6.289 3.907-12.755 4.54-23.564h15.76c-.591 8.542-2.185 13.743-3.852 19.183z"/></g></svg>