<svg id="Capa_1" enable-background="new 0 0 512 512" height="512" viewBox="0 0 512 512" width="512" xmlns="http://www.w3.org/2000/svg"><g><g><path d="m256.006 434.273h-28.537s.195 44.212 19.526 66.178c4.764 5.414 13.257 5.414 18.022 0 19.332-21.967 19.526-66.178 19.526-66.178z" fill="#d1f19e"/></g><g><path d="m284.543 434.27s-.19 44.213-19.53 66.18c-4.763 5.412-13.25 5.412-18.013 0-.509-.579-1.008-1.178-1.488-1.787.389-.34.759-.709 1.108-1.108 16.365-18.592 19.021-53.13 19.451-63.284h18.472z" fill="#bbec6c"/></g><g><path d="m143.32 156.384c-1.778-.886-3.561-1.653-5.302-2.294-14.603-5.378-29.195-1.274-42.834 5.378-17.209 8.394-32.034 22.401-43.383 37.674-10.402 13.999-18.063 30.469-21.899 47.489-3.737 16.58-7.541 50.262 20.621 44.384 17.83-3.722 33.628-13.576 48.244-24.047 19.854-14.224 39.993-30.056 54.5-49.924 14.429-19.758 14.578-46.443-9.947-58.66z" fill="#d1f19e"/></g><g><path d="m153.271 215.042c-14.508 19.87-34.648 35.706-54.507 49.924-14.608 10.474-30.414 20.329-48.237 24.054-13.659 2.846-19.8-3.615-22.077-12.91 2.077.09 4.403-.12 6.999-.659 17.833-3.724 33.629-13.569 48.247-24.044 19.86-14.228 39.999-30.054 54.498-49.924 10.264-14.059 13.3-31.612 5.362-44.972 24.293 12.271 24.094 38.841 9.715 58.531z" fill="#bbec6c"/></g><g><path d="m70.022 367.146c-10.716 15.611-17.11 39.803-16.347 58.924.803 20.125 7.983 50.472 21.962 65.099 4.778 5 10.34 10.358 17.255 10.445 8.827.111 15.115-8.21 19.865-15.653 7.216-11.307 12.737-23.547 18.869-35.447 12.563-24.38 40.358-48.974 40.273-77.818-.066-22.302-15.427-43.816-39.151-45.253-25.029-1.516-49.506 20.445-62.726 39.703z" fill="#d1f19e"/></g><g><path d="m171.903 372.693c.08 28.846-27.718 53.439-40.279 77.822-6.131 11.902-11.652 24.133-18.871 35.446-4.743 7.439-11.033 15.766-19.86 15.656-6.92-.09-12.481-5.452-17.254-10.454-3.215-3.365-6.081-7.569-8.587-12.291 3.575 3.075 7.578 5.472 12.191 5.532 8.827.11 15.117-8.208 19.86-15.656 7.219-11.303 12.741-23.544 18.871-35.446 12.561-24.383 40.359-48.976 40.279-77.812-.03-7.069-1.588-14.059-4.453-20.359 11.363 8.486 18.053 22.855 18.103 37.562z" fill="#bbec6c"/></g><g><path d="m368.691 156.384c1.778-.886 3.561-1.653 5.302-2.294 14.603-5.378 29.195-1.274 42.834 5.378 17.209 8.394 32.034 22.401 43.383 37.674 10.402 13.999 18.063 30.469 21.899 47.489 3.737 16.58 7.541 50.262-20.621 44.384-17.83-3.722-33.628-13.576-48.244-24.047-19.854-14.224-39.993-30.056-54.5-49.924-14.428-19.758-14.577-46.443 9.947-58.66z" fill="#d1f19e"/></g><g><path d="m464.55 289.519c4.513-10.035 2.267-26.011.03-35.896-3.834-17.024-11.493-33.489-21.897-47.488-11.353-15.277-26.17-29.286-43.384-37.673-12.441-6.081-25.681-10.025-39.001-6.58 2.387-2.047 5.182-3.904 8.397-5.502 1.777-.879 3.555-1.647 5.302-2.287 14.598-5.382 29.186-1.278 42.825 5.372 17.214 8.397 32.041 22.406 43.384 37.673 10.404 13.999 18.063 30.474 21.907 47.488 3.595 15.957 7.249 47.739-17.563 44.893z" fill="#bbec6c"/></g><g><path d="m441.99 367.146c10.716 15.611 17.11 39.803 16.347 58.924-.803 20.125-7.983 50.472-21.962 65.099-4.778 5-10.34 10.358-17.255 10.445-8.827.111-15.115-8.21-19.865-15.653-7.216-11.307-12.737-23.547-18.869-35.447-12.563-24.38-40.358-48.974-40.273-77.818.066-22.302 15.427-43.816 39.151-45.253 25.029-1.516 49.506 20.445 62.726 39.703z" fill="#d1f19e"/></g><g><path d="m458.339 426.073c-.809 20.119-7.988 50.473-21.967 65.091-4.773 5.002-10.334 10.364-17.254 10.454-3.055.04-5.811-.939-8.307-2.536 1.847-1.557 3.575-3.305 5.202-5.012 13.979-14.628 21.158-44.982 21.957-65.101.769-19.121-5.632-43.314-16.345-58.921-11.932-17.404-33.06-36.994-55.476-39.51 4.004-1.727 8.387-2.806 13.11-3.095 25.032-1.518 49.515 20.449 62.735 39.7 10.714 15.615 17.104 39.808 16.345 58.93z" fill="#bbec6c"/></g><g><path d="m320.001 71.772c0-35.831-29.315-64.815-65.27-64.275-34.409.516-62.608 28.578-63.283 62.984-.414 21.098 9.342 39.929 24.696 51.937 10.713 8.379 16.762 21.392 16.762 34.993v6.019h45.624v-6.017c0-13.576 6.002-26.598 16.705-34.95 15.073-11.762 24.766-30.091 24.766-50.691z" fill="#d1f19e"/></g><g><path d="m319.999 71.769c0 20.599-9.695 38.931-24.763 50.693-10.704 8.347-16.705 21.378-16.705 34.947v6.021h-23.315v-6.021c0-13.57 6.001-26.6 16.705-34.947 15.077-11.762 24.773-30.094 24.773-50.693 0-31.512-22.676-57.733-52.6-63.214 3.465-.639 7.009-1.008 10.634-1.058 35.955-.54 65.271 28.446 65.271 64.272z" fill="#bbec6c"/></g><path d="m70.022 367.146h.01z"/><g><ellipse cx="256.006" cy="291.839" fill="#b5adb6" rx="136.138" ry="162.322" transform="matrix(1 -.008 .008 1 -2.268 2.005)"/></g><g><path d="m392.14 290.777c.699 89.644-59.68 162.794-134.866 163.382-18.372.14-35.926-4.064-51.981-11.812 10.943 3.285 22.406 4.983 34.198 4.893 75.186-.589 135.565-73.728 134.866-163.373-.529-67.747-35.786-125.53-85.431-149.454 58.801 17.604 102.625 80.789 103.214 156.364z" fill="#a79ba7"/></g><g><g><ellipse cx="256.006" cy="291.838" fill="#7a6d79" rx="102.638" ry="128.715" transform="matrix(1 -.008 .008 1 -2.268 2.005)"/></g><g><path d="m358.641 291.036c.559 71.083-44.952 129.075-101.626 129.514-12.281.1-24.074-2.516-35.027-7.399 5.062.919 10.235 1.378 15.497 1.338 56.684-.439 102.185-58.432 101.636-129.514-.439-55.676-29.006-102.884-68.606-120.507 49.404 8.986 87.616 62.096 88.126 126.568z" fill="#685e68"/></g><g><path d="m232.409 69.894c4.136 0 7.489-3.352 7.489-7.489v-10.461c0-4.136-3.353-7.489-7.489-7.489s-7.489 3.352-7.489 7.489v10.462c0 4.136 3.353 7.488 7.489 7.488z"/><path d="m279.603 69.894c4.136 0 7.489-3.352 7.489-7.489v-10.461c0-4.136-3.352-7.489-7.489-7.489-4.136 0-7.489 3.352-7.489 7.489v10.462c.001 4.136 3.353 7.488 7.489 7.488z"/><g><path d="m489.415 242.985c-4.042-17.93-12.062-35.326-23.193-50.308-9.276-12.484-24.806-29.547-46.111-39.94-17.517-8.545-36.682-12.063-54.758-3.056-6.755 3.365-12.174 7.837-16.161 13.202-15.028-15.236-32.281-26.482-50.844-33.269.487-.429.983-.848 1.496-1.249 17.57-13.71 27.647-34.338 27.647-56.594 0-19.375-7.602-37.534-21.405-51.131-13.8-13.596-32.101-20.928-51.465-20.632-18.593.279-36.159 7.724-49.462 20.962-13.304 13.241-20.831 30.771-21.196 49.362-.448 22.796 9.601 43.93 27.569 57.983.518.405 1.022.827 1.514 1.261-18.453 6.736-35.576 17.875-50.467 32.952-3.962-5.212-9.309-9.554-15.92-12.848-1.991-.992-4.028-1.872-6.052-2.617-18.933-6.971-36.864-.1-48.706 5.674-21.305 10.393-36.834 27.456-46.11 39.94-11.132 14.982-19.152 32.378-23.193 50.308-6.419 28.474-.667 41.663 5.287 47.714 3.121 3.171 8.355 6.475 16.614 6.475 20.99.002 42.12-14.29 58.631-26.119 3.753-2.688 7.521-5.466 11.275-8.299-1.411 9.877-2.1 19.974-2.021 30.202.078 9.943.874 19.75 2.356 29.341-21.053 6.378-39.739 24.362-50.891 40.608-11.412 16.624-18.507 42.127-17.656 63.46.9 22.533 8.804 54.041 24.031 69.974 4.514 4.723 12.068 12.627 22.575 12.759.09.002.179.002.27.002 13.803 0 22.342-13.379 26.004-19.116 12.421-19.463 20.8-40.373 34.38-59.287 2.683-3.737 5.377-7.504 7.971-11.32 6.531 6.792 13.669 13 21.37 18.434 9.851 6.952 20.611 12.622 31.978 16.659 2.383.846 4.796 1.604 7.225 2.303 2.41 15.408 7.706 35.358 19.379 48.622 3.692 4.195 9.026 6.601 14.633 6.601s10.941-2.407 14.633-6.601c11.617-13.202 16.919-33.028 19.345-48.407 11.046-3.113 21.644-7.747 31.472-13.67 10.616-6.397 20.32-14.258 28.945-23.149.145-.149.281-.307.425-.457 2.523 3.7 5.131 7.358 7.735 10.984 5.813 8.096 11.304 15.743 15.168 23.243 6.086 11.812 11.838 24.491 19.212 36.046 3.66 5.734 12.199 19.115 26.003 19.114.089 0 .18 0 .269-.002 10.507-.132 18.062-8.036 22.575-12.759 15.228-15.933 23.131-47.441 24.031-69.973.144-3.629.056-7.468-.266-11.412-.336-4.123-3.948-7.182-8.073-6.856-4.123.336-7.191 3.951-6.856 8.073.273 3.344.35 6.572.229 9.598-.796 19.937-8.039 47.819-19.893 60.223-3.906 4.088-8.046 8.083-11.936 8.131h-.071c-4.964-.001-9.76-6.512-13.387-12.193-5.087-7.972-9.262-16.358-13.682-25.236-5.972-11.995-13.321-23.816-21.157-34.732-3.303-4.6-6.622-9.248-9.691-13.939 16.102-20.335 27.496-44.586 33.552-70.877 15.883 5.424 31.261 19.718 41.228 34.237 2.474 3.602 4.755 7.816 6.776 12.508l.356.833c1.625 3.802 6.024 5.571 9.829 3.943 3.804-1.625 5.569-6.026 3.943-9.829l-.364-.851c-2.412-5.604-5.169-10.678-8.192-15.081-11.131-16.215-29.761-34.163-50.766-40.575 1.552-10.326 2.313-20.897 2.23-31.614-.074-9.5-.811-18.875-2.168-28.057 3.802 2.873 7.621 5.67 11.422 8.393 14.25 10.208 31.461 21.197 51.076 25.291 2.761.576 5.271.828 7.553.828 8.259 0 13.495-3.304 16.616-6.475 10.786-10.961 8.827-31.997 5.285-47.713zm-290.479-172.358c.593-30.229 25.674-55.19 55.908-55.643 15.336-.198 29.809 5.568 40.729 16.326 10.924 10.761 16.939 25.131 16.939 40.462 0 17.61-7.976 33.934-21.883 44.786-3.131 2.443-5.933 5.262-8.378 8.367-8.682-1.908-17.573-2.895-26.593-2.895-.325 0-.652.002-.977.004-8.668.068-17.206 1.04-25.544 2.866-2.446-3.107-5.247-5.932-8.38-8.382-14.222-11.123-22.176-27.85-21.821-45.891zm-104.529 188.253c-13.633 9.766-28.57 19.288-45.414 22.804-7.435 1.553-9.693-.739-10.434-1.493-4.446-4.518-4.977-17.83-1.351-33.914 3.585-15.907 10.71-31.353 20.605-44.67 8.283-11.147 22.06-26.339 40.654-35.409 9.801-4.78 18.042-7.118 25.479-7.118 4.024 0 7.813.684 11.486 2.037 1.515.558 3.045 1.22 4.549 1.969 5.576 2.778 9.683 6.449 12.298 10.948-15.417 18.973-26.674 41.465-33.224 65.915-7.98 6.733-16.356 12.991-24.648 18.931zm46.877 163.084c-5.873 8.18-11.946 16.639-16.316 25.118-1.652 3.205-3.275 6.466-4.844 9.618-4.42 8.876-8.593 17.261-13.68 25.23-3.627 5.684-8.421 12.194-13.387 12.194h-.071c-3.89-.049-8.029-4.044-11.936-8.131-11.854-12.404-19.097-40.287-19.893-60.223-.721-18.073 5.462-40.438 15.038-54.387 10.005-14.575 25.475-28.914 41.419-34.292 6.138 26.193 17.558 50.33 33.601 70.579-3.132 4.813-6.544 9.579-9.931 14.294zm118.112 73.54c-1.163 1.322-2.623 1.519-3.39 1.519-.766 0-2.226-.197-3.389-1.519-8.048-9.145-12.421-23.025-14.806-35.267 3.885.589 7.796 1.01 11.723 1.226 8.217.45 16.487.079 24.639-1.101-3.054 15.48-8.14 27.599-14.777 35.142zm125.251-200.168c-1.203 62.314-35.982 129.775-99.327 147.382-10.381 2.885-21.213 4.205-31.936 3.91-21.059-.576-41.304-7.374-58.771-18.894-10.585-6.981-20.057-15.582-28.273-25.225-24.812-29.119-38.654-68.066-38.979-109.666-.325-41.599 12.909-80.757 37.264-110.26 24.039-29.121 56.064-45.305 90.174-45.571.285-.002.568-.004.853-.004 33.794 0 65.734 15.661 90.02 44.163 24.036 28.208 36.803 64.189 38.757 101.08.23 4.338.303 8.705.218 13.085zm88.806-15.144c-.741.754-3 3.047-10.436 1.493-16.844-3.516-31.781-13.038-45.413-22.804-8.4-6.018-16.889-12.355-24.962-19.189-6.629-24.218-17.845-46.491-33.124-65.291 2.602-4.667 6.782-8.46 12.509-11.313 1.505-.75 3.037-1.412 4.552-1.97 10.461-3.852 21.861-2.286 36.964 5.081 18.595 9.07 32.372 24.262 40.654 35.41 9.895 13.316 17.02 28.762 20.605 44.669 3.627 16.084 3.098 29.396-1.349 33.914z"/><path d="m254.944 155.639c-21.18.165-41.655 7.811-59.132 21.834-.125.099-.251.196-.369.302-4.683 3.791-9.152 8.036-13.355 12.726-2.761 3.079-2.502 7.814.577 10.575 3.079 2.76 7.814 2.501 10.575-.578 1.494-1.667 3.027-3.264 4.592-4.801l20.057 44.27-25.622 44.38h-31.249c.896-19.756 5.564-38.889 13.659-55.777 1.788-3.73.214-8.202-3.516-9.99-3.731-1.789-8.203-.215-9.99 3.515-6.095 12.719-10.321 26.311-12.761 40.195-1.132 6.441-1.857 12.725-2.236 19.249-1.689 29.022 3.588 57.459 17.043 83.426 4.248 8.198 9.292 15.989 15.107 23.165 15.545 19.187 35.769 33.333 60.365 38.187 14.32 2.826 29.244 2.127 43.254-1.951 15.298-4.453 29.5-13.115 41.057-24.055 29.617-28.035 42.498-68.348 43.128-108.361.001-.039.006-.076.006-.115 0-.712-.006-1.425-.017-2.139-.225-14.471-2.162-28.38-6.076-42.328-6.235-22.218-17.71-43.566-33.652-60.066-20-20.696-44.982-31.859-71.445-31.663zm-45.188 30.087c13.78-9.719 29.345-14.984 45.305-15.109 16.445-.112 32.351 5.09 46.461 14.994l-20.705 47.285h-49.689zm20.866 62.147h50.767l25.383 43.966-25.383 43.965h-50.768l-25.383-43.965zm-40.662 130.829c-17.231-21.267-27.373-49.242-28.898-79.377h31.205l25.622 44.38-19.882 43.888c-2.787-2.758-5.476-5.719-8.047-8.891zm103.684 24.624c-4.917 2.667-10.103 4.858-15.459 6.472-2.431.732-4.872 1.342-7.319 1.83-11.941 2.378-24.044 1.834-35.968-1.692-5.637-1.667-11.082-3.971-16.232-6.804-.807-.444-8.755-5.518-8.755-5.518l21.215-46.831h49.758s21.361 47.202 21.361 47.202c0-.002-7.809 4.911-8.601 5.341zm20.521-15.33-20.043-44.29 25.623-44.381h31.248c-1.624 36.036-15.684 67.904-36.828 88.671zm28.31-146.432c3.106 8.62 5.363 17.544 6.795 26.593.48 3.034.856 5.991 1.151 9.039.03.314.629 7.152.53 7.152h-31.205l-25.653-44.432 19.41-44.328c.067.065.133.133.2.198 6.432 6.302 12.085 13.414 16.857 21.066 4.849 7.776 8.81 16.094 11.915 24.712z"/></g></g></g></g></svg>