<svg id="Capa_1" enable-background="new 0 0 512 512" height="512" viewBox="0 0 512 512" width="512" xmlns="http://www.w3.org/2000/svg"><g><g><circle cx="256" cy="256" fill="#fd9468" r="248.531"/></g><g><circle cx="255.999" cy="255.999" fill="#fef1da" r="206.016"/></g><g><path d="m462.01 256c0 113.775-92.235 206.01-206.01 206.01-41.019 0-79.229-11.98-111.335-32.644 27.884 14.091 59.402 22.028 92.783 22.028 113.775 0 206.01-92.235 206.01-206.02 0-72.776-37.732-136.729-94.705-173.386 67.189 33.938 113.257 103.598 113.257 184.012z" fill="#fae2c0"/></g><g><path d="m462.017 255.999c0 113.778-92.24 206.018-206.018 206.018-2.957 0-5.894-.061-8.81-.194 1.412-.982 2.793-2.026 4.144-3.11 26.122-20.975 40.845-56.951 41.582-92.721.747-35.76-11.521-70.978-30.747-99.699l-12.34-20.587c-19.226-28.721-31.494-63.939-30.747-99.699.737-35.77 15.46-71.746 41.582-92.721 1.351-1.085 2.732-2.128 4.144-3.11 109.697 4.603 197.21 95.001 197.21 205.823z" fill="#7a6d79"/></g><g><path d="m462.007 256.001c-.039 24.85-3.919 47.476-12.495 70.833-15.684 42.721-44.477 78.293-82.476 102.721-9.641 6.198-20.278 11.805-30.852 16.273-8.569 3.62-17.307 6.629-26.239 9.052-3.276.886-6.583 1.693-9.919 2.42-14.191 3.087-28.919 4.71-44.026 4.71-2.51 0-5.009-.04-7.489-.139-.438-.01-.886-.03-1.324-.05 1.414-.976 2.798-2.021 4.143-3.107 3.296-2.649 6.403-5.527 9.331-8.614 102.841-11.532 182.797-98.788 182.797-204.725 0-72.746-37.703-136.679-94.645-173.346-.02-.01-.04-.03-.06-.04.637.319 1.265.647 1.892.976 2.161 1.115 4.292 2.261 6.403 3.466.707.398 1.404.797 2.111 1.205 6.84 3.95 13.553 8.383 19.87 13.106 6.821 5.1 13.395 10.654 19.521 16.541 8.956 8.606 17.171 18.017 24.49 28.092 4.578 6.302 8.735 12.867 12.548 19.643 6.471 11.5 11.921 23.652 16.045 36.244 6.736 20.564 10.408 42.699 10.374 64.739z" fill="#685e68"/></g><g><path d="m504.532 256c0 137.257-111.275 248.532-248.532 248.532-66.283 0-126.502-25.942-171.056-68.245 42.413 33.719 96.099 53.855 154.495 53.855 137.257 0 248.532-111.275 248.532-248.532 0-70.984-29.756-135.016-77.476-180.287 57.301 45.52 94.037 115.806 94.037 194.677z" fill="#fe7d43"/></g><g><circle cx="305.404" cy="148.173" fill="#fef1da" r="30.852"/></g><g><circle cx="206.593" cy="363.824" fill="#7a6d79" r="30.852"/></g><g><path d="m237.447 363.82c0 17.039-13.812 30.851-30.851 30.851-10.307 0-19.439-5.059-25.035-12.816 2.091.448 4.262.687 6.483.687 17.039 0 30.851-13.812 30.851-30.851 0-6.732-2.161-12.956-5.816-18.035 13.932 2.977 24.368 15.346 24.368 30.164z" fill="#685e68"/></g><g><path d="m336.255 148.174c0 17.039-13.812 30.851-30.851 30.851-10.307 0-19.439-5.059-25.035-12.816 2.091.448 4.262.687 6.483.687 17.039 0 30.851-13.812 30.851-30.851 0-6.732-2.161-12.956-5.816-18.035 13.932 2.977 24.368 15.346 24.368 30.164z" fill="#fae2c0"/></g><g><path d="m244.914 363.824c0-21.13-17.19-38.32-38.32-38.32s-38.32 17.19-38.32 38.32 17.19 38.32 38.32 38.32 38.32-17.19 38.32-38.32zm-61.703 0c0-12.893 10.489-23.383 23.383-23.383s23.383 10.489 23.383 23.383-10.489 23.383-23.383 23.383-23.383-10.489-23.383-23.383z"/><path d="m437.019 74.981c-48.352-48.352-112.639-74.981-181.019-74.981s-132.667 26.629-181.019 74.981-74.981 112.639-74.981 181.019 26.629 132.667 74.981 181.019 112.639 74.981 181.019 74.981c35.188 0 69.279-7.011 101.326-20.838 30.952-13.354 58.613-32.431 82.216-56.702 2.876-2.957 2.81-7.686-.147-10.562-2.957-2.875-7.686-2.81-10.562.147-45.789 47.087-107.169 73.017-172.833 73.017-64.39 0-124.926-25.075-170.457-70.606-45.53-45.53-70.605-106.066-70.605-170.456s25.075-124.926 70.605-170.457c45.531-45.53 106.067-70.605 170.457-70.605s124.926 25.075 170.457 70.606 70.605 106.066 70.605 170.456c0 51.512-16.016 100.65-46.316 142.102-2.434 3.33-1.708 8.003 1.622 10.437 3.329 2.435 8.003 1.708 10.437-1.622 32.184-44.028 49.195-96.214 49.195-150.917 0-68.38-26.629-132.667-74.981-181.019z"/><path d="m63.894 306.363c-1.044-3.99-5.121-6.381-9.115-5.337-3.991 1.043-6.38 5.125-5.337 9.115 24.526 93.818 109.466 159.342 206.557 159.342 57.024 0 110.634-22.206 150.957-62.528 40.322-40.322 62.528-93.933 62.528-150.957s-22.206-110.634-62.528-150.957c-40.322-40.322-93.933-62.528-150.957-62.528s-110.634 22.206-150.957 62.528c-40.322 40.322-62.528 93.933-62.528 150.957 0 6.107.262 12.277.777 18.339.35 4.11 3.957 7.148 8.075 6.809 4.11-.35 7.159-3.965 6.809-8.075-.48-5.642-.724-11.387-.724-17.073 0-105.781 83.154-192.498 187.528-198.236-20.408 22.049-32.66 53.902-33.364 88.088-.733 35.084 10.596 71.959 31.902 103.853l12.245 20.429c.064.107.131.212.2.315 19.685 29.407 30.156 63.284 29.486 95.391-.722 35.062-15.586 68.418-38.792 87.051-.581.466-1.155.911-1.725 1.341-85.626-4.746-159.166-64.204-181.037-147.867zm236.489 59.784c.732-35.083-10.596-71.958-31.902-103.853l-12.245-20.428c-.064-.107-.131-.212-.2-.315-19.685-29.407-30.156-63.283-29.486-95.391.722-35.062 15.586-68.417 38.791-87.051.582-.467 1.158-.912 1.728-1.343 104.349 5.764 187.476 92.469 187.476 198.233 0 105.782-83.156 192.5-187.531 198.236 20.411-22.048 32.664-53.9 33.369-88.088z"/><path d="m305.404 109.853c-21.13 0-38.32 17.19-38.32 38.32s17.19 38.32 38.32 38.32 38.32-17.19 38.32-38.32-17.19-38.32-38.32-38.32zm0 61.703c-12.893 0-23.383-10.489-23.383-23.382s10.489-23.383 23.383-23.383c12.893 0 23.382 10.489 23.382 23.383 0 12.892-10.489 23.382-23.382 23.382z"/></g></g></svg>