<?xml version="1.0" encoding="utf-8"?>
<!-- Generator: Adobe Illustrator 25.1.0, SVG Export Plug-In . SVG Version: 6.00 Build 0)  -->
<svg version="1.1" id="Layer_1" xmlns="http://www.w3.org/2000/svg" xmlns:xlink="http://www.w3.org/1999/xlink" x="0px" y="0px"
	 viewBox="0 0 512 512" style="enable-background:new 0 0 512 512;" xml:space="preserve">
<style type="text/css">
	.st0{fill:#FFC850;}
	.st1{fill:#344859;}
	.st2{fill:#2E3D4D;}
	.st3{fill:#FFDC64;}
	.st4{fill:#FFAB3D;}
	.st5{fill:#98CDFE;}
	.st6{fill:#F2963A;}
	.st7{fill:#E88533;}
	.st8{fill:#263440;}
	.st9{fill:#3F393F;}
</style>
<polygon class="st0" points="349.2,282 256.1,112.4 256.1,112.4 256.1,112.4 256.1,112.4 163,282 56.8,234.2 121.4,416.2 
	390.8,416.2 455.3,234.2 "/>
<path class="st1" d="M192.1,416.2h198.7c10.3,0,18.7,8.4,18.7,18.7l0,0c0,10.3-8.4,18.7-18.7,18.7H121.4c-10.3,0-18.7-8.4-18.7-18.7
	l0,0c0-10.3,8.4-18.7,18.7-18.7h45.6"/>
<path class="st2" d="M392.8,434.2H123.3c-8.1,0-15.2-4.6-18.8-11.2c-1.6,3-2.6,6.5-2.6,10.2c0,11.8,9.6,21.4,21.4,21.4h269.5
	c11.8,0,21.4-9.6,21.4-21.4c0-3.7-0.9-7.1-2.6-10.2C408,429.6,400.9,434.2,392.8,434.2z"/>
<path class="st3" d="M260.2,112.7L260.2,112.7L260.2,112.7L260.2,112.7l-41.8,76.2c12,103.5,83,189,178.6,221.9l62.5-176.4
	l-106.1,47.9L260.2,112.7z"/>
<polygon class="st4" points="56.8,234.2 121.4,416.2 147.9,416.2 88.5,248.4 "/>
<polygon class="st5" points="256.1,273.7 231.6,307 256.1,340.3 280.5,307 "/>
<g>
	<circle class="st6" cx="256" cy="85.1" r="26.8"/>
	<circle class="st6" cx="477.1" cy="208.9" r="26.8"/>
	<circle class="st6" cx="34.9" cy="208.9" r="26.8"/>
	<path class="st6" d="M349.2,282l47.5-21.4c-21.4-38.8-58.3-67.8-102.4-78.5L349.2,282z"/>
	<path class="st6" d="M163,282l54.9-100c-44.1,10.8-81,39.8-102.4,78.5L163,282z"/>
</g>
<g>
	<path class="st7" d="M253.9,85.1c0-10.4,5.9-19.3,14.5-23.8c-3.7-1.9-7.9-3-12.3-3c-14.8,0-26.8,12-26.8,26.8
		c0,14.8,12,26.8,26.8,26.8c4.4,0,8.6-1.1,12.3-3C259.7,104.5,253.9,95.5,253.9,85.1z"/>
	<path class="st7" d="M32.7,208.9c0-10.4,5.9-19.3,14.5-23.8c-3.7-1.9-7.9-3-12.3-3c-14.8,0-26.8,12-26.8,26.8
		c0,14.8,12,26.8,26.8,26.8c4.4,0,8.6-1.1,12.3-3C38.6,228.2,32.7,219.2,32.7,208.9z"/>
	<path class="st7" d="M475,208.9c0-10.4,5.9-19.3,14.5-23.8c-3.7-1.9-7.9-3-12.3-3c-14.8,0-26.8,12-26.8,26.8
		c0,14.8,12,26.8,26.8,26.8c4.4,0,8.6-1.1,12.3-3C480.9,228.2,475,219.2,475,208.9z"/>
</g>
<path class="st8" d="M127.3,434.9c0-10.3,8.4-18.7,18.7-18.7h-24.7c-10.3,0-18.7,8.4-18.7,18.7c0,10.3,8.4,18.7,18.7,18.7H146
	C135.7,453.7,127.3,445.3,127.3,434.9z"/>
<g>
	<path class="st9" d="M262.6,269c-1.5-2.1-3.9-3.3-6.5-3.3s-5,1.2-6.5,3.3l-24.4,33.3c-2.1,2.8-2.1,6.7,0,9.5l24.4,33.3
		c1.5,2.1,3.9,3.3,6.5,3.3c2.6,0,5-1.2,6.5-3.3l24.4-33.3c2.1-2.8,2.1-6.7,0-9.5L262.6,269z M256.1,326.7L241.6,307l14.4-19.7
		l14.4,19.7L256.1,326.7z"/>
	<path class="st9" d="M477.1,174c-19.2,0-34.9,15.6-34.9,34.9c0,7.3,2.2,14,6.1,19.6L400,250.3c-22.5-36.9-58.6-64-100.3-75.1
		l-31.5-57.3c13.2-5,22.7-17.7,22.7-32.7c0-19.2-15.6-34.9-34.9-34.9s-34.9,15.6-34.9,34.9c0,15,9.5,27.8,22.8,32.7l-31.4,57.3
		c-41.7,11.2-77.8,38.2-100.3,75.1l-48.4-21.8c3.8-5.6,6-12.3,6-19.6c0-19.2-15.6-34.9-34.9-34.9S0,189.6,0,208.9
		s15.6,34.9,34.9,34.9c5.6,0,10.8-1.3,15.5-3.7l60.3,170.3c-9.5,4.1-16.2,13.6-16.2,24.6c0,14.8,12,26.8,26.8,26.8h269.5
		c14.8,0,26.8-12,26.8-26.8c0-11-6.7-20.5-16.2-24.6l60.3-170.2c4.6,2.3,9.9,3.6,15.4,3.6c19.2,0,34.9-15.6,34.9-34.9
		C512,189.6,496.4,174,477.1,174z M311,195.7c30.5,11.8,56.7,33.3,74.2,61.2l-32.5,14.7l-21.6-39.3L311,195.7z M237.2,85.1
		c0-10.3,8.4-18.8,18.8-18.8c10.3,0,18.8,8.4,18.8,18.8s-8.4,18.8-18.8,18.8S237.2,95.5,237.2,85.1z M201.2,195.7l-41.7,75.9
		l-32.5-14.7C144.5,229,170.7,207.5,201.2,195.7z M34.9,227.6c-10.3,0-18.8-8.4-18.8-18.8c0-10.3,8.4-18.8,18.8-18.8
		s18.8,8.4,18.8,18.8C53.6,219.2,45.2,227.6,34.9,227.6z M385.1,408.2h-193c-4.4,0-8.1,3.6-8.1,8.1c0,4.4,3.6,8.1,8.1,8.1h198.6
		c0,0,0,0,0,0c0,0,0,0,0,0c5.9,0,10.7,4.8,10.7,10.7c0,5.9-4.8,10.7-10.7,10.7H121.4c-5.9,0-10.7-4.8-10.7-10.7
		c0-5.9,4.8-10.7,10.7-10.7h45.6c4.4,0,8.1-3.6,8.1-8.1c0-4.4-3.6-8.1-8.1-8.1H127L70.7,249.3l41.4,18.7c0,0,0,0,0,0l47.5,21.4
		c0.3,0.1,0.5,0.2,0.8,0.3c0.1,0,0.2,0,0.3,0.1c0.2,0.1,0.3,0.1,0.5,0.1c0.1,0,0.2,0,0.3,0.1c0.2,0,0.3,0.1,0.5,0.1
		c0.1,0,0.2,0,0.3,0c0.2,0,0.3,0,0.5,0c0.1,0,0.1,0,0.2,0c0,0,0.1,0,0.1,0c0.3,0,0.6,0,0.9-0.1c0,0,0.1,0,0.1,0
		c0.3,0,0.6-0.1,0.9-0.2c0.1,0,0.1,0,0.2-0.1c0.3-0.1,0.5-0.2,0.7-0.3c0.1,0,0.1,0,0.2-0.1c0.3-0.1,0.6-0.3,0.8-0.4
		c0.1,0,0.1-0.1,0.2-0.1c0.2-0.1,0.4-0.3,0.6-0.4c0.1,0,0.1-0.1,0.2-0.1c0.2-0.2,0.5-0.4,0.7-0.6c0,0,0.1-0.1,0.1-0.1
		c0.2-0.2,0.4-0.4,0.5-0.6c0.1-0.1,0.1-0.1,0.2-0.2c0.2-0.3,0.4-0.5,0.5-0.8l86.1-156.7l86.1,156.7c0.2,0.3,0.3,0.6,0.5,0.8
		c0.1,0.1,0.1,0.1,0.2,0.2c0.2,0.2,0.4,0.4,0.5,0.6c0,0,0.1,0.1,0.1,0.1c0.2,0.2,0.5,0.4,0.7,0.6c0.1,0.1,0.1,0.1,0.2,0.1
		c0.2,0.2,0.4,0.3,0.6,0.4c0.1,0,0.1,0.1,0.2,0.1c0.3,0.2,0.5,0.3,0.8,0.4c0.1,0,0.1,0,0.2,0.1c0.2,0.1,0.5,0.2,0.7,0.2
		c0.1,0,0.2,0,0.2,0.1c0.3,0.1,0.6,0.1,0.9,0.2c0,0,0.1,0,0.1,0c0.3,0,0.6,0.1,0.8,0.1c0,0,0.1,0,0.1,0c0.1,0,0.1,0,0.2,0
		c0.2,0,0.3,0,0.5,0c0.1,0,0.2,0,0.3,0c0.2,0,0.3,0,0.5-0.1c0.1,0,0.2,0,0.3-0.1c0.2,0,0.3-0.1,0.5-0.1c0.1,0,0.2,0,0.3-0.1
		c0.3-0.1,0.5-0.2,0.8-0.3l47.5-21.4c0,0,0,0,0,0l41.4-18.7L385.1,408.2z M477.1,227.6c-10.3,0-18.8-8.4-18.8-18.8
		c0-10.3,8.4-18.8,18.8-18.8s18.8,8.4,18.8,18.8C495.9,219.2,487.5,227.6,477.1,227.6z"/>
</g>
</svg>
