<?xml version="1.0" encoding="utf-8"?>
<!-- Generator: Adobe Illustrator 25.1.0, SVG Export Plug-In . SVG Version: 6.00 Build 0)  -->
<svg version="1.1" id="Capa_1" xmlns="http://www.w3.org/2000/svg" xmlns:xlink="http://www.w3.org/1999/xlink" x="0px" y="0px"
	 viewBox="0 0 512 512" style="enable-background:new 0 0 512 512;" xml:space="preserve">
<style type="text/css">
	.st0{fill:#FD9468;}
	.st1{fill:#F5804E;}
	.st2{fill:#175BE7;}
	.st3{fill:#E8633A;}
	.st4{fill:#FEF1DA;}
	.st5{fill:#3F393F;}
</style>
<path class="st0" d="M454,206.8v253.7c0,23.9-19.8,43.3-43.7,43.3H101.7c-23.9,0-43.7-19.4-43.7-43.3V207.2L254.3,7.9L454,207.2"/>
<path class="st1" d="M254.6,7.9l-40.4,41l71.4,71.4c77.2,77.2,120.5,181.9,120.5,291v82.9c0,3.3-0.5,6.6-1.2,9.6h5.5
	c23.9,0,43.7-19.4,43.7-43.3V207.2L254.6,7.9z"/>
<g>
	<path class="st2" d="M504.3,265.6c-2,0-4-0.8-5.5-2.3L254.3,18.9L13.2,260c-3,3-7.9,3-11,0c-3-3-3-7.9,0-11L248.9,2.4
		c1.5-1.5,3.4-2.3,5.5-2.3s4,0.8,5.5,2.3l249.9,249.9c3,3,3,7.9,0,11C508.2,264.8,506.2,265.6,504.3,265.6z"/>
	
		<ellipse transform="matrix(0.1602 -0.9871 0.9871 0.1602 59.0928 385.3352)" class="st3" cx="256" cy="157.9" rx="35.5" ry="35.5"/>
</g>
<path class="st4" d="M315,503.8H197V331.7c0-5.1,3.6-8.9,8.7-8.9h100.6c5.1,0,8.7,3.8,8.7,8.9V503.8z"/>
<path class="st5" d="M453.5,236.9c-4.3,0-7.5,3.5-7.5,7.7v215.9c0,19.6-16.1,35.3-35.7,35.3H323v-13.8c0-4.3-3.2-7.7-7.5-7.7
	s-7.5,3.5-7.5,7.7v13.8H204v-166h104v123.7c0,4.3,3.2,7.7,7.5,7.7s7.5-3.5,7.5-7.7v-131c0-4.3-3.2-7.7-7.5-7.7h-119
	c-4.3,0-7.5,3.4-7.5,7.7v173.3h-87.3c-19.6,0-35.7-15.7-35.7-35.3v-218c0-4.3-3.2-7.7-7.5-7.7s-7.5,3.5-7.5,7.7v218
	c0,28.1,22.6,51.3,50.7,51.3h94.8h119h94.8c28.1,0,50.7-23.2,50.7-51.3V244.6C461,240.4,457.8,236.9,453.5,236.9z"/>
<path class="st5" d="M509.7,252.4L259.8,2.4c-1.5-1.5-3.4-2.3-5.5-2.3s-4,0.8-5.5,2.3L2.3,249c-3,3-3,7.9,0,11c3,3,7.9,3,11,0
	L254.3,18.9l244.4,244.4c1.5,1.5,3.5,2.3,5.5,2.3c2,0,4-0.8,5.5-2.3C512.8,260.3,512.8,255.4,509.7,252.4z"/>
<path class="st5" d="M299.3,157.9c0-23.9-19.4-43.3-43.3-43.3s-43.3,19.4-43.3,43.3s19.4,43.3,43.3,43.3S299.3,181.8,299.3,157.9z
	 M228.2,157.9c0-15.3,12.5-27.8,27.8-27.8s27.8,12.5,27.8,27.8s-12.5,27.8-27.8,27.8S228.2,173.3,228.2,157.9z"/>
</svg>
