<?xml version="1.0" encoding="utf-8"?>
<!-- Generator: Adobe Illustrator 25.1.0, SVG Export Plug-In . SVG Version: 6.00 Build 0)  -->
<svg version="1.1" id="Capa_1" xmlns="http://www.w3.org/2000/svg" xmlns:xlink="http://www.w3.org/1999/xlink" x="0px" y="0px"
	 viewBox="0 0 512 512" style="enable-background:new 0 0 512 512;" xml:space="preserve">
<style type="text/css">
	.st0{fill:#FD9468;}
	.st1{fill:#FDB293;}
	.st2{fill:#CC8060;}
	.st3{fill:#3F393F;stroke:#3F393F;stroke-miterlimit:10;}
	.st4{fill:#3F393F;stroke:#3F393F;stroke-width:2;stroke-miterlimit:10;}
</style>
<path class="st0" d="M423.1,319c0,0-0.3,0.3-0.3,0.4c0,0.3-0.2,0.7-0.2,1c0,34.2-27.7,61.9-61.9,61.9s-61.9-27.7-61.9-61.9
	c0-34.2,27.6-61.9,61.7-61.9c9.1,0,17.4,2,25.4,5.5V133.6l-173,95.8v213c0,0.8-0.2,1.5-0.3,2.2c-1.1,33.2-28.5,59.7-61.9,59.7
	c-34.2,0-61.9-27.7-61.9-61.9s27.5-61.9,61.7-61.9c9.1,0,17.4,2,25.4,5.6V141.8c0-6.6,3.9-12.7,9.7-15.9L395.7,10
	c5.6-3.1,12.6-3,18.1,0.3c5.5,3.3,9.1,9.2,9.1,15.7V319H423.1z"/>
<g>
	<path class="st1" d="M185.7,185.9L395.7,70.1c5.6-3.1,12.6-3,18.1,0.3c5.5,3.3,9.1,9.2,9.1,15.7v-60c0-6.4-3.6-12.4-9.1-15.7
		c-5.5-3.3-12.5-3.4-18.1-0.3L185.7,125.8c-5.8,3.2-9.7,9.3-9.7,15.9v60C176,195.2,179.9,189.1,185.7,185.9z"/>
	<polygon class="st1" points="423.1,318.9 423.1,318.8 423.1,318.8 	"/>
</g>
<g>
	<circle class="st2" cx="150.7" cy="442.4" r="61.9"/>
	<circle class="st2" cx="360.7" cy="320.3" r="61.9"/>
</g>
<path class="st3" d="M415.3,317.3c0,0.1,0,0.2-0.1,0.4c-0.1,0.5-0.4,1.5-0.4,2.7c0,31.2-26.6,56.3-58.3,54
	c-26.5-2-47.8-23.3-49.8-49.8c-2.4-31.7,22.7-58.3,54-58.3c7.6,0,14.8,1.5,22.1,4.7c1.9,0.8,4.1,1,6,0.3c3.1-1.1,5.1-4.1,5.1-7.3
	V133.7c0-2.2-0.8-4.3-2.4-5.8c-2.5-2.4-6.2-2.8-9.1-1.2l-107.7,59.5c-3.8,2.1-5.1,6.8-3,10.6c2.1,3.8,6.5,5.1,10.3,3l95.9-53.1
	v106.4c-5-1.5-11.5-2.3-17.5-2.3c-39.4,0-71.2,32.9-69.4,72.8c1.5,35.3,29.8,64.2,65.1,66.4c40,2.5,73.6-29,74.2-68.3
	c0.3-0.9,0.6-1.8,0.6-2.8v-225c0-4.3-3.5-7.8-7.8-7.8l0,0c-4.3,0-7.8,3.5-7.8,7.8L415.3,317.3z"/>
<path class="st4" d="M417.9,3.6C410-1.1,400.1-1.2,392,3.2L181.8,119.1c-8.4,4.6-13.8,13.3-13.8,22.7V375c-5-1.6-11.5-2.3-17.5-2.3
	c-38.4,0-69.5,31.2-69.5,69.6s31.3,69.6,69.7,69.6c18.2,0,35.4-7,48.5-19.6c12.9-12.5,20.5-29.2,21.2-47.1c0,0,0.1,0,0.1-0.1
	c0.1-0.7,0.4-1.7,0.4-2.8V233.9l25.5-14.2c3.8-2.1,5.1-6.8,3-10.6c-2.1-3.8-6.8-5.1-10.6-3l-29.8,16.4c-2.5,1.4-4.1,4-4.1,6.8v212.9
	c0,0.1,0.1,0.3,0.1,0.4c0,0.3,0,0.5-0.1,0.8c0,0.3,0,0.5,0,0.8c-1,29.3-24.8,52.2-54.2,52.2c-29.9,0-54.1-24.3-54.1-54.1
	s24.2-54.1,54-54.1c7.7,0,14.9,1.6,22.3,4.9c2.4,1.1,5.2,0.9,7.4-0.6c2.2-1.4,3.6-3.9,3.6-6.5V141.8c0-3.7,2.2-7.2,5.6-9.1
	l210-115.8c3.2-1.8,7.1-1.7,10.3,0.2c3.3,2,5.2,5.4,5.2,9v21.9c0,4.3,3.7,7.8,8,7.8s8-3.5,8-7.8V25.9C431,16.9,425.9,8.3,417.9,3.6z
	"/>
</svg>
