<?xml version="1.0" encoding="utf-8"?>
<!-- Generator: Adobe Illustrator 25.1.0, SVG Export Plug-In . SVG Version: 6.00 Build 0)  -->
<svg version="1.1" id="Capa_1" xmlns="http://www.w3.org/2000/svg" xmlns:xlink="http://www.w3.org/1999/xlink" x="0px" y="0px"
	 viewBox="0 0 512 512" style="enable-background:new 0 0 512 512;" xml:space="preserve">
<style type="text/css">
	.st0{fill:#B3DAFE;}
	.st1{fill:#FD9468;}
	.st2{fill:#92B5D6;}
	.st3{fill:#3F393F;}
</style>
<g>
	<g>
		<ellipse class="st0" cx="254.6" cy="256" rx="247.1" ry="248.5"/>
		<path class="st1" d="M155.4,149.6v214.7c0,20.2,21.8,32.9,39.4,22.9l188.5-107.4c17.8-10.1,17.8-35.7,0-45.8L194.8,126.7
			C177.3,116.7,155.4,129.3,155.4,149.6L155.4,149.6z"/>
		<path class="st2" d="M256,7.5c-5.7,0-11.4,0.2-17,0.6C368.3,16.8,470.5,124.5,470.5,256S368.3,495.2,239,503.9
			c5.6,0.4,11.3,0.6,17,0.6c137.2,0,248.5-111.3,248.5-248.5S393.2,7.5,256,7.5z"/>
	</g>
	<g>
		<path class="st3" d="M510.5,228.2C510.5,228.2,510.5,228.2,510.5,228.2C496.5,98.8,386.9,0,256,0C114.5,0,0,114.5,0,256
			c0,15.8,1.5,31.7,4.3,47.1c0.8,4.1,4.7,6.8,8.7,6c4.1-0.8,6.8-4.7,6-8.7C16.4,285.8,15,270.9,15,256C15,123.1,123.1,15,256,15
			c123.4,0,226.4,92.4,239.6,214.8c0,0,0,0,0,0c0.9,8.6,1.4,17.4,1.4,26.1c0,132.9-108.1,241-241,241
			c-103.5,0-195.3-65.8-228.4-163.8c-1.3-3.9-5.6-6-9.5-4.7c-3.9,1.3-6,5.6-4.7,9.5C48.6,442.1,146.1,512,256,512
			c141.5,0,256-114.5,256-256C512,246.7,511.5,237.4,510.5,228.2z"/>
		<path class="st3" d="M181.8,130.7c3.2,0,6.4,0.8,9.3,2.5l21.1,12c3.6,2.1,8.2,0.8,10.2-2.8c2-3.6,0.8-8.2-2.8-10.2l-21.1-12
			c-5.1-2.9-10.9-4.5-16.7-4.5c-18.7,0-33.9,15.2-33.9,33.9v214.7c0,18.7,15.2,33.9,33.9,33.9c5.8,0,11.6-1.5,16.7-4.5l188.5-107.4
			c10.7-6.1,17.1-17.1,17.1-29.4c0-12.3-6.4-23.3-17.1-29.4l-137-78c-3.6-2-8.2-0.8-10.2,2.8c-2,3.6-0.8,8.2,2.8,10.2l137,78
			c6,3.4,9.5,9.5,9.5,16.4c0,6.9-3.6,13-9.5,16.4L191.1,380.6c-2.9,1.7-6,2.5-9.3,2.5c-9.1,0-18.9-7.2-18.9-18.9V149.6
			C162.9,137.9,172.7,130.7,181.8,130.7L181.8,130.7z"/>
	</g>
</g>
</svg>
