<?xml version="1.0" encoding="utf-8"?>
<!-- Generator: Adobe Illustrator 25.1.0, SVG Export Plug-In . SVG Version: 6.00 Build 0)  -->
<svg version="1.1" id="Layer_1" xmlns="http://www.w3.org/2000/svg" xmlns:xlink="http://www.w3.org/1999/xlink" x="0px" y="0px"
	 viewBox="0 0 512 512" style="enable-background:new 0 0 512 512;" xml:space="preserve">
<style type="text/css">
	.st0{fill:#FFD782;}
	.st1{fill:#736772;}
	.st2{opacity:0.1;enable-background:new    ;}
	.st3{fill:#3F393F;stroke:#3F393F;stroke-width:2.9513;stroke-miterlimit:10;}
	.st4{fill:#3F393F;stroke:#3F393F;stroke-width:3;stroke-miterlimit:10;}
	.st5{fill:#3F393F;}
</style>
<path class="st0" d="M499.7,256c0-134.6-109.1-243.7-243.7-243.7S12.3,121.4,12.3,256S121.4,499.7,256,499.7S499.7,390.6,499.7,256z
	"/>
<path class="st1" d="M284,283.6v28.8c0,12.4-9.3,21.7-21.7,21.7c-11.5,0-21.7-9.3-21.7-21.7v-46c0-0.4,0.4-0.4,0.4-0.9
	c-0.4-0.4-0.4-0.4-0.4-0.9c0-11.5,10.2-21.7,21.7-21.7c27.9,0,50.4-22.1,50.4-49.5c0-27.9-22.6-49.5-50.4-49.5
	c-18.1,0-34.1,9.7-42.5,24.3c-6.2,10.6-19.5,14.2-30.1,8c-10.2-6.2-13.7-19-7.5-29.6c15.9-27.4,46-46,80.1-46
	c51.3,0,93.3,41.6,93.3,92.9C355.7,237.1,325.2,273.8,284,283.6z M284,380.4v8c0,12.4-9.3,21.7-21.7,21.7
	c-11.5,0-21.7-9.3-21.7-21.7v-8c0-11.9,10.2-21.7,21.7-21.7C274.8,358.7,284,368.5,284,380.4z"/>
<path class="st2" d="M77.9,256c0-123.4,91.8-225.4,210.9-241.5c-10.7-1.4-21.7-2.2-32.8-2.2C121.4,12.3,12.3,121.4,12.3,256
	S121.4,499.7,256,499.7c11.1,0,22.1-0.8,32.8-2.2C169.7,481.4,77.9,379.5,77.9,256z"/>
<path class="st3" d="M410.3,67.3c2.7-3.6,2.1-8.7-1.5-11.5C364.6,22,311.7,4.2,256,4.2c-67.3,0-130.5,26.2-178.1,73.8
	C30.3,125.5,4.2,188.7,4.2,256c0,67.4,26.3,130.7,73.9,178.2c1.6,1.6,3.7,2.4,5.8,2.4c2.1,0,4.2-0.8,5.8-2.4c3.2-3.2,3.2-8.4,0-11.6
	C45.1,378.2,20.5,319,20.5,256c0-62.9,24.5-122,69-166.5C134,45,193.1,20.5,256,20.5c52.1,0,101.5,16.7,142.8,48.3
	C402.4,71.5,407.5,70.9,410.3,67.3z"/>
<path class="st4" d="M422.7,78.1c-3.2,3.2-3.2,8.4,0,11.6c44.3,44.5,68.8,103.5,68.8,166.3c0,62.9-24.5,122-69,166.5
	c-44.5,44.5-103.6,69-166.5,69c-51.9,0-101.2-16.6-142.4-48c-3.6-2.7-8.7-2-11.5,1.6c-2.7,3.6-2,8.7,1.6,11.5
	c44.1,33.6,96.8,51.3,152.3,51.3c67.3,0,130.5-26.2,178.1-73.8c47.6-47.6,73.8-110.8,73.8-178.1c0-67.2-26.1-130.3-73.6-177.9
	C431.1,74.9,425.9,74.9,422.7,78.1z"/>
<path class="st5" d="M262.4,350.6c-16.2,0-29.9,13.7-29.9,29.9v8c0,16.5,13.4,29.9,29.9,29.9c17,0,29.9-12.8,29.9-29.9v-8
	C292.2,363.7,279.1,350.6,262.4,350.6z M275.8,388.4c0,7.8-5.7,13.5-13.5,13.5c-7.4,0-13.5-6-13.5-13.5v-8c0-7.2,6.3-13.5,13.5-13.5
	c7.7,0,13.5,5.8,13.5,13.5V388.4z"/>
<path class="st5" d="M292.2,289.8c42.5-12.9,71.7-51.7,71.7-96.5c0-55.7-45.5-101.1-101.5-101.1c-35.8,0-69.2,19.2-87.1,50.1
	c-8.3,14.3-3.8,32.2,10.3,40.8c0,0,0.1,0.1,0.1,0.1c4.7,2.7,9.9,4.2,15.3,4.2c10.8,0,20.5-5.6,26-15.1c7.2-12.5,20.7-20.2,35.4-20.2
	c23.7,0,42.2,18.2,42.2,41.3c0,22.8-18.9,41.3-42.2,41.3c-15.9,0-29.9,14-29.9,29.9c0,0.3,0,0.6,0,0.9c0,0.3,0,0.6,0,0.8v46
	c0,16.5,13.4,29.9,29.9,29.9c17,0,29.9-12.8,29.9-29.9L292.2,289.8L292.2,289.8L292.2,289.8z M282.2,275.6c-3.7,0.9-6.3,4.2-6.3,8
	v28.8c0,7.8-5.7,13.5-13.5,13.5c-7.4,0-13.5-6-13.5-13.5v-44.1c0.3-1,0.4-2,0.4-2.8c0-0.8-0.1-1.6-0.3-2.4c0.8-6.4,6.9-12,13.4-12
	c32.3,0,58.6-25.9,58.6-57.7c0-15.6-6.1-30.2-17.2-41.1c-11-10.7-25.7-16.6-41.4-16.6c-20.5,0-39.5,10.9-49.5,28.4
	c-2.5,4.3-7,6.9-11.9,6.9c-2.4,0-4.8-0.7-6.9-1.9c-6.5-4-8.5-11.9-4.6-18.5c15-25.9,43-41.9,73-41.9c46.9,0,85.1,38,85.1,84.7
	C347.5,232.6,320.6,266.5,282.2,275.6z"/>
</svg>
