<?xml version="1.0" encoding="utf-8"?>
<!-- Generator: Adobe Illustrator 25.1.0, SVG Export Plug-In . SVG Version: 6.00 Build 0)  -->
<svg version="1.1" id="Capa_1" xmlns="http://www.w3.org/2000/svg" xmlns:xlink="http://www.w3.org/1999/xlink" x="0px" y="0px"
	 viewBox="0 0 512 512" style="enable-background:new 0 0 512 512;" xml:space="preserve">
<style type="text/css">
	.st0{fill:#FFD782;}
	.st1{fill:#E6BB62;}
	.st2{fill:#3F393F;stroke:#3F393F;stroke-miterlimit:10;}
</style>
<g>
	<g id="_x31_5_refresh">
		<path class="st0" d="M497.6,230.2c-5.1-0.6-25.8-2.9-28.7-3.2c-14-112.8-110.3-202.6-229.8-202.6C111.1,24.4,7.5,128,7.5,256
			c0,128,103.6,231.6,231.6,231.6c67.3,0,128.1-28.7,170.6-75c7.6-8.2,7-21.1-1.2-28.6c-8.2-7.6-21.1-7-28.6,1.2
			c-34.9,38-85,61.9-140.8,61.9C133.7,447.1,48,361.4,48,256S133.7,64.9,239.1,64.9c93.9,0,172.2,68.1,188.1,157.5
			c-5.6-0.6-0.1,0-30.1-3.3c-5.9-0.7-10.3,5.4-7.9,10.8l40.8,91.5c2.4,5.4,9.7,6.2,13.2,1.5l59.7-80.4
			C506.5,237.6,503.5,230.8,497.6,230.2z"/>
		<g>
			<path class="st1" d="M497.6,230.2c-5.1-0.6-25.8-2.9-28.7-3.2c-14-112.8-110.3-202.6-229.8-202.6c-4.8,0-9.5,0.2-14.1,0.4
				c112.9,6.8,202.1,93.8,215.6,202.1c2.9,0.3,23.7,2.6,28.7,3.2c5.9,0.7,8.9,7.5,5.3,12.3l-49.9,67.1l5.3,11.8
				c2.4,5.4,9.7,6.2,13.2,1.5l59.7-80.4C506.5,237.6,503.5,230.8,497.6,230.2L497.6,230.2z"/>
		</g>
	</g>
	<g>
		<path class="st2" d="M239.1,495.1c-58,0-114-21-157.6-59.2c-3.1-2.7-3.4-7.5-0.7-10.6c2.7-3.1,7.5-3.4,10.6-0.7
			c40.8,35.8,93.3,55.5,147.7,55.5c63.2,0,122.7-26.4,165.1-72.6c4.7-5.1,4.5-13.2-0.8-18c-5.1-4.7-13.1-4.6-18,0.8
			c-37.4,40.7-89.8,64.3-146.3,64.3c-109.5,0-198.6-89.1-198.6-198.6c0-108.8,87.4-196.4,194.6-198.5c4.2-0.1,7.6,3.2,7.6,7.4
			c0.1,4.1-3.2,7.6-7.4,7.6c-99.2,2-179.9,84.3-179.9,183.5c0,101.2,82.4,183.6,183.6,183.6c51.3,0,100.6-21.7,135.2-59.4
			c10.3-11.3,27.9-12.1,39.2-1.7c11.2,10.3,12.1,27.9,1.7,39.2C370,466.9,306.6,495.1,239.1,495.1L239.1,495.1z M56.3,410.2
			C20,367.2,0,312.4,0,256C0,123.8,106.8,16.9,239.1,16.9c120.4,0,219.3,88.7,236.4,203.3l22.9,2.5c7.7,0.9,13.5,7.4,13.5,15.1
			c0,3.3-1,6.4-3,9l-59.7,80.4c-2.9,3.9-7.3,6.1-12.2,6.1c-6,0-11.5-3.5-13.9-9c-44.5-99.9-42.1-93.3-42.1-97.7
			c0-8.4,6.8-15.2,15.2-15.2c1.2,0-0.1-0.1,21.5,2.3c-16.9-71.7-75.6-126.9-148.9-139c-4.1-0.7-6.9-4.5-6.2-8.6
			c0.7-4.1,4.5-6.9,8.6-6.2c82.9,13.6,148.5,78.3,163.2,161c0.9,4.9-3.2,9.3-8.2,8.8c-0.6-0.1-30.5-3.5-30.3-3
			c8.3,18.7,37.4,84,40.8,91.5c0,0.1,0.1,0.1,0.2,0.1c0.1,0,0.1,0,0.2-0.1c61.8-83.3,59.8-80.5,59.8-80.5c0-0.1,0-0.2-0.2-0.2
			l-28.7-3.2c-3.5-0.4-6.2-3.1-6.6-6.5c-13.9-111.7-109.5-196-222.4-196C115.5,31.9,15,132.4,15,256c0,52.9,18.7,104.2,52.7,144.5
			c2.7,3.2,2.3,7.9-0.9,10.6C63.7,413.7,58.9,413.3,56.3,410.2L56.3,410.2z"/>
	</g>
</g>
</svg>
