<?xml version="1.0" encoding="utf-8"?>
<!-- Generator: Adobe Illustrator 25.1.0, SVG Export Plug-In . SVG Version: 6.00 Build 0)  -->
<svg version="1.1" id="Capa_1" xmlns="http://www.w3.org/2000/svg" xmlns:xlink="http://www.w3.org/1999/xlink" x="0px" y="0px"
	 viewBox="0 0 512 512" style="enable-background:new 0 0 512 512;" xml:space="preserve">
<style type="text/css">
	.st0{fill:#DDEDFE;}
	.st1{fill:#B3DAFE;}
	.st2{fill:#BED5EB;}
	.st3{fill:#D3E0F4;}
	.st4{opacity:0.5;fill:#8696A6;enable-background:new    ;}
	.st5{opacity:0.4;fill:#8696A6;enable-background:new    ;}
	.st6{fill:#3F393F;}
</style>
<path class="st0" d="M480.1,202.6l-27.2-1.9c-4.4-15.7-10.7-30.7-18.6-44.6l17.8-20.6c9.6-11,9-27.5-1.4-37.8l-36.3-36.2
	c-10.3-10.3-26.9-10.9-37.9-1.3L356,77.9c-14-7.8-29-14.1-44.7-18.5l-2-26.9C308.3,18,296.2,7,281.6,7h-51.3
	c-14.6,0-26.8,11-27.8,25.6l-1.9,27C184.8,64,169.9,70.2,156,78l-20.6-17.9c-11-9.5-27.6-9-37.9,1.3L61.2,97.6
	c-10.3,10.3-10.9,26.8-1.4,37.9L77.6,156c-7.9,13.9-14.1,28.9-18.6,44.6l-27.2,1.9C17.3,203.6,6,215.7,6,230.3v51.2
	c0,14.6,11.3,26.7,25.9,27.7l27.2,2c4.4,15.7,10.7,30.7,18.5,44.6l-17.9,20.6c-9.6,11-9,27.6,1.4,37.9l36.3,36.2
	c10.3,10.3,26.9,10.9,37.9,1.4l20.6-17.8c14,7.8,28.9,14.1,44.7,18.5l1.9,27.4c1,14.5,13.2,26.1,27.8,26.1h51.3
	c14.6,0,26.7-11.5,27.8-26.1l2-27.2c15.8-4.4,30.8-10.8,44.9-18.6l20.6,17.8c11,9.5,27.6,8.9,37.9-1.4l36.3-36.2
	c10.3-10.3,10.9-26.9,1.4-37.9l-17.9-20.6c7.8-13.9,14.1-28.9,18.5-44.6l27.2-2c14.6-1.1,25.8-13.2,25.8-27.7v-51.2
	C506,215.7,494.7,203.6,480.1,202.6z M256,351.4c-52.8,0-95.6-42.7-95.6-95.4s42.8-95.4,95.6-95.4c52.8,0,95.6,42.7,95.6,95.4
	C351.6,308.7,308.8,351.4,256,351.4z"/>
<path class="st1" d="M480.1,202.6l-27.2-1.9c-4.4-15.7-10.7-30.7-18.6-44.6l17.8-20.6c9.6-11,9-27.5-1.4-37.8l-36.3-36.2
	c-10.3-10.3-26.9-10.9-37.9-1.3l-17.4,15.1c9.1,25.1,14.1,52.2,14.1,80.4c0,35.3-7.8,68.8-21.8,98.9c0,0.5,0,1,0,1.5
	c0,47.8-35.3,87.4-81.3,94.3c-37.9,25.9-83.8,41.1-133.3,41.1c-27.6,0-54-4.7-78.7-13.4c-8.2,11-7.2,26.4,2.6,36.3l36.3,36.2
	c10.3,10.3,26.9,10.9,37.9,1.4l20.6-17.8c14,7.8,28.9,14.1,44.7,18.5l1.9,27.4c1,14.5,13.2,26.1,27.8,26.1h51.3
	c14.6,0,26.7-11.5,27.8-26.1l2-27.2c15.8-4.4,30.8-10.8,44.9-18.6l20.6,17.8c11,9.5,27.6,8.9,37.9-1.4l36.3-36.2
	c10.3-10.3,10.9-26.9,1.4-37.9l-17.9-20.6c7.8-13.9,14.1-28.9,18.5-44.6l27.2-2c14.6-1.1,25.8-13.2,25.8-27.7v-51.2
	C506,215.7,494.7,203.6,480.1,202.6z"/>
<g>
	<path class="st2" d="M256,111.3c-80.1,0-145,64.8-145,144.7s64.9,144.7,145,144.7S401,335.9,401,256S336.1,111.3,256,111.3z
		 M256,351.4c-52.8,0-95.6-42.7-95.6-95.4c0-52.7,42.8-95.4,95.6-95.4s95.6,42.7,95.6,95.4C351.6,308.7,308.8,351.4,256,351.4z"/>
	<path class="st2" d="M270.3,350.3c-4.7,0.7-9.4,1.1-14.3,1.1c-52.8,0-95.6-42.7-95.6-95.4s42.8-95.4,95.6-95.4
		c52.3,0,94.8,41.9,95.6,93.9c12-25.9,19.4-54.3,21.3-84.2c-26.4-35.8-68.9-59-116.8-59c-80.1,0-145,64.8-145,144.7
		c0,56.5,32.5,105.4,79.8,129.3C219.7,378.5,246.6,366.5,270.3,350.3L270.3,350.3z"/>
	<path class="st2" d="M351.6,256c0.4-0.2,0-1,0-1.5C351.6,255,351.6,255.5,351.6,256L351.6,256z"/>
</g>
<path class="st3" d="M351.6,254.5L351.6,254.5L351.6,254.5z"/>
<g>
	<path class="st4" d="M256,142c-63.1,0-114.3,51.1-114.3,114c0,63,51.2,114,114.3,114S370.3,319,370.3,256S319.1,142,256,142z
		 M256,351.4c-52.8,0-95.6-42.7-95.6-95.4c0-52.7,42.8-95.4,95.6-95.4s95.6,42.7,95.6,95.4C351.6,308.7,308.8,351.4,256,351.4z"/>
	<path class="st5" d="M401,256c0-32.1-10.5-61.7-28.1-85.7c-1.9,29.9-9.3,58.3-21.3,84.2l0,0c0,0.5,0.5,1.3,0,1.5l0,0l0,0
		c0,47.8-35.3,87.4-81.3,94.3l0,0c-23.7,16.2-50.6,28.2-79.5,34.9c19.6,9.9,41.7,15.4,65.2,15.4C336.1,400.7,401,335.9,401,256z"/>
</g>
<path class="st6" d="M281.3,512h-50.9c-18.6,0-34.2-14.5-35.5-33.1l-1.5-21.5c-12.3-3.8-24.3-8.8-35.7-14.8l-16.3,14.1
	c-14.1,12.2-35.4,11.4-48.5-1.7c-3.1-3.1-3.1-8.2,0-11.3c3.1-3.1,8.2-3.1,11.3,0c7.2,7.2,19,7.7,26.7,1l20.4-17.7
	c2.5-2.2,6.2-2.6,9.1-0.9c13.5,7.6,27.8,13.5,42.6,17.7c3.2,0.9,5.6,3.8,5.8,7.1l1.9,27c0.7,10.2,9.3,18.2,19.6,18.2h50.9
	c10.3,0,18.9-8,19.6-18.2l1.9-26.9c0.2-3.4,2.6-6.2,5.8-7.1c14.9-4.2,29.2-10.1,42.7-17.7c2.9-1.7,6.6-1.3,9.1,0.9l20.5,17.7
	c7.8,6.7,19.5,6.3,26.7-1l36-36c7.3-7.3,7.7-19,1-26.8L427,360.5c-2.2-2.5-2.6-6.2-0.9-9.1c7.6-13.5,13.5-27.8,17.6-42.6
	c0.9-3.2,3.8-5.6,7.1-5.8l26.9-2c10.2-0.7,18.2-9.3,18.2-19.6v-50.9c0-10.3-8-18.9-18.2-19.6l-27-1.9c-3.4-0.2-6.2-2.6-7.1-5.8
	c-4.2-14.8-10.1-29.1-17.7-42.6c-1.7-2.9-1.3-6.6,0.9-9.1l17.7-20.5c6.7-7.8,6.3-19.5-1-26.7l-36-36c-7.3-7.3-19-7.7-26.8-1
	L360.5,85c-2.5,2.2-6.2,2.6-9.1,0.9c-13.5-7.6-27.8-13.5-42.6-17.6c-3.2-0.9-5.6-3.8-5.8-7.1l-2-26.9C300.2,24,291.6,16,281.4,16
	h-50.9c-10.3,0-18.9,8-19.6,18.2l-1.9,27c-0.2,3.4-2.6,6.2-5.8,7.1c-14.7,4.1-29,10.1-42.4,17.6c-2.9,1.7-6.6,1.3-9.1-0.9
	l-20.5-17.7c-7.8-6.7-19.5-6.3-26.8,1l-36,36c-7.2,7.2-7.7,19-1,26.8l17.7,20.4c2.2,2.5,2.6,6.2,0.9,9.1
	c-7.6,13.5-13.5,27.8-17.7,42.6c-0.9,3.2-3.8,5.6-7.1,5.8l-27,1.9C24,211.6,16,220.2,16,230.5v50.9c0,10.3,8,18.9,18.2,19.6
	l26.9,1.9c3.4,0.2,6.2,2.6,7.1,5.8c4.1,14.8,10.1,29.1,17.6,42.6c1.7,2.9,1.3,6.6-0.9,9.1l-17.7,20.5c-6.7,7.8-6.3,19.5,1,26.8
	l17.4,17.4c3.1,3.1,3.1,8.2,0,11.3c-3.1,3.1-8.2,3.1-11.3,0L56.9,419c-13.2-13.2-13.9-34.5-1.7-48.5l14.1-16.3
	c-6-11.4-11-23.4-14.8-35.7l-21.4-1.5C14.5,315.5,0,299.9,0,281.3v-50.9c0-18.6,14.5-34.2,33.1-35.5l21.5-1.5
	c3.8-12.3,8.8-24.3,14.8-35.7l-14.1-16.3c-12.2-14.1-11.4-35.4,1.7-48.5l36-36c13.2-13.1,34.5-13.9,48.5-1.7l16.3,14.1
	c11.4-6,23.3-10.9,35.6-14.8l1.5-21.4C196.3,14.5,211.9,0,230.5,0h50.9c18.6,0,34.2,14.5,35.5,33.1l1.6,21.4
	c12.3,3.8,24.3,8.8,35.7,14.8l16.3-14.1c14.1-12.2,35.4-11.4,48.5,1.7l36,36c13.1,13.1,13.9,34.4,1.8,48.5l-14.1,16.3
	c6,11.4,11,23.4,14.8,35.7l21.4,1.5c18.6,1.3,33.1,16.9,33.1,35.5v50.9c0,18.6-14.5,34.2-33.1,35.5l-21.4,1.6
	c-3.8,12.3-8.8,24.3-14.8,35.7l14.1,16.3c12.2,14.1,11.4,35.4-1.7,48.5l-36,36c-13.1,13.1-34.4,13.9-48.5,1.8l-16.3-14.1
	c-11.5,6.1-23.5,11.1-35.9,14.9l-1.5,21.4C315.5,497.5,299.9,512,281.3,512z M256,358.8c-56.7,0-102.8-46.1-102.8-102.8
	c0-56.7,46.1-102.8,102.8-102.8c10.3,0,20.5,1.5,30.3,4.5c4.2,1.3,6.6,5.8,5.3,10c-1.3,4.2-5.8,6.6-10,5.3
	c-8.3-2.5-16.9-3.8-25.6-3.8c-47.9,0-86.8,38.9-86.8,86.8s38.9,86.8,86.8,86.8s86.8-39,86.8-86.8c0-27.4-12.5-52.6-34.4-69.2
	c-3.5-2.7-4.2-7.7-1.5-11.2c2.7-3.5,7.7-4.2,11.2-1.5c25.9,19.6,40.7,49.5,40.7,81.9C358.8,312.7,312.7,358.8,256,358.8z"/>
</svg>
