<?xml version="1.0" encoding="utf-8"?>
<!-- Generator: Adobe Illustrator 25.1.0, SVG Export Plug-In . SVG Version: 6.00 Build 0)  -->
<svg version="1.1" id="Capa_1" xmlns="http://www.w3.org/2000/svg" xmlns:xlink="http://www.w3.org/1999/xlink" x="0px" y="0px"
	 viewBox="0 0 512 512" style="enable-background:new 0 0 512 512;" xml:space="preserve">
<style type="text/css">
	.st0{fill:#FFDC64;}
	.st1{fill:#FFC850;}
	.st2{fill:#3F393F;stroke:#3F393F;stroke-width:3;stroke-miterlimit:10;}
</style>
<path class="st0" d="M492.8,190.2l-161-14.9l-64-148.5c-4.5-10.4-19.2-10.4-23.7,0l-63.9,148.5l-161,14.9
	c-11.3,1-15.8,15.1-7.3,22.5l121.5,106.7L97.8,477.2c-2.5,11,9.4,19.7,19.2,13.9l139-82.5l139,82.5c9.7,5.8,21.7-2.9,19.2-13.9
	l-35.5-157.7l121.5-106.7C508.6,205.3,504,191.3,492.8,190.2z"/>
<path class="st1" d="M267.8,26.8c-4.5-10.4-19.2-10.4-23.7,0l-63.9,148.5l-161,14.9c-11.3,1-15.8,15.1-7.3,22.5l121.5,106.7
	L97.8,477.2c-2.5,11,9.4,19.7,19.2,13.9l31-18.4c4.3-176.8,86.4-301.2,151.4-372.4L267.8,26.8z"/>
<path class="st2" d="M511,196.8c-2.6-7.9-9.3-13.2-17.5-14L337,168.3l-31-72.1c-1.6-3.8-6-5.6-9.9-3.9c-3.8,1.6-5.6,6.1-3.9,9.9
	l32.8,76.1c1.1,2.5,3.5,4.2,6.2,4.5l161,14.9c3.2,0.3,4.3,2.7,4.6,3.7c0.3,1,0.8,3.6-1.6,5.7L373.7,313.8c-2.1,1.8-3,4.6-2.4,7.3
	l35.5,157.7c0.7,3.1-1.2,4.9-2.1,5.6c-0.9,0.6-3.2,1.9-5.9,0.3l-139-82.5c-2.4-1.4-5.3-1.4-7.7,0l-139,82.5
	c-2.8,1.6-5.1,0.4-5.9-0.3s-2.8-2.4-2.1-5.6l18.3-81.4c0.9-4-1.6-8.1-5.7-9c-4-0.9-8.1,1.6-9,5.7l-18.3,81.4
	c-1.8,8.1,1.2,16.1,7.9,21c6.7,4.9,15.3,5.3,22.4,1L256,417.3l135.2,80.3c3.3,1.9,6.9,2.9,10.4,2.9c4.2,0,8.3-1.3,12-4
	c6.7-4.9,9.7-12.9,7.9-21l-34.6-153.4L505,218.4C511.3,212.9,513.5,204.7,511,196.8z"/>
<path class="st2" d="M116.1,362.1c-0.9,4,1.6,8.1,5.7,9c0.6,0.1,1.1,0.2,1.7,0.2c3.4,0,6.5-2.4,7.3-5.9l10-44.2
	c0.6-2.7-0.3-5.5-2.4-7.3L16.9,207.1c-2.4-2.1-1.9-4.7-1.6-5.7c0.3-1,1.4-3.4,4.6-3.7l161-14.9c2.7-0.3,5.1-2,6.2-4.5L251,29.8
	c1.3-2.9,3.9-3.3,5-3.3s3.7,0.3,5,3.3l17.4,40.3c1.6,3.8,6,5.6,9.9,3.9c3.8-1.6,5.6-6.1,3.9-9.9l-17.4-40.3
	c-3.3-7.6-10.5-12.3-18.7-12.3c-8.3,0-15.5,4.7-18.7,12.3l-62.2,144.4L18.6,182.8c-8.2,0.8-15,6.1-17.5,14
	c-2.6,7.9-0.3,16.2,5.9,21.6l118.1,103.8L116.1,362.1z"/>
</svg>
